<svg width="60" height="60" viewBox="0 0 60 60" fill="none" xmlns="http://www.w3.org/2000/svg">
<path d="M36.3659 20.5492C34.6712 18.9079 32.4146 18 29.9912 18C27.5766 18 25.32 18.9079 23.6254 20.5492C21.9307 22.1905 21 24.3817 21 26.7214C21 29.3841 22.4663 32.8413 25.3551 36.9881C27.4976 40.0611 29.6488 42.3746 29.6663 42.3921L30 42.75L30.3337 42.3921C30.3512 42.3659 32.5024 40.0611 34.6449 36.9881C37.5337 32.8413 39 29.3929 39 26.7214C38.9912 24.3817 38.0605 22.1905 36.3659 20.5492ZM29.9912 29.777C28.0946 29.777 26.558 28.2754 26.558 26.4333C26.558 24.5913 28.0946 23.0897 29.9912 23.0897C31.8878 23.0897 33.4244 24.5913 33.4244 26.4333C33.4244 28.2754 31.8878 29.777 29.9912 29.777Z" fill="#DE5617"/>
</svg>
