<svg width="30" height="30" viewBox="0 0 30 30" fill="none" xmlns="http://www.w3.org/2000/svg">
<g clip-path="url(#clip0)">
<rect width="30" height="30" fill="white"/>
<path d="M16.9825 14.9994L23.7124 8.26917C23.8976 8.0839 23.9997 7.83673 24 7.57317C24 7.30946 23.8979 7.062 23.7124 6.87702L23.1227 6.28741C22.9373 6.10171 22.6901 6 22.4262 6C22.1628 6 21.9157 6.10171 21.7302 6.28741L15.0003 13.0172L8.27005 6.28741C8.08493 6.10171 7.83761 6 7.5739 6C7.31049 6 7.06317 6.10171 6.87805 6.28741L6.288 6.87702C5.904 7.26102 5.904 7.88561 6.288 8.26917L13.0181 14.9994L6.288 21.7294C6.10273 21.9149 6.00073 22.1621 6.00073 22.4257C6.00073 22.6892 6.10273 22.9364 6.288 23.1218L6.8779 23.7114C7.06302 23.897 7.31049 23.9988 7.57376 23.9988C7.83746 23.9988 8.08478 23.897 8.2699 23.7114L15.0001 16.9815L21.7301 23.7114C21.9155 23.897 22.1627 23.9988 22.4261 23.9988H22.4264C22.69 23.9988 22.9371 23.897 23.1225 23.7114L23.7123 23.1218C23.8974 22.9365 23.9996 22.6892 23.9996 22.4257C23.9996 22.1621 23.8974 21.9149 23.7123 21.7295L16.9825 14.9994Z" fill="#999999"/>
</g>
<defs>
<clipPath id="clip0">
<rect width="30" height="30" fill="white"/>
</clipPath>
</defs>
</svg>
