<svg width="150" height="65" viewBox="0 0 150 65" fill="none" xmlns="http://www.w3.org/2000/svg">
<rect x="0.75" y="35.75" width="148.5" height="28.5" rx="13.25" fill="white" stroke="black" stroke-width="1.5"/>
<path d="M18.0762 50.6309C18.0762 51.3275 17.9557 51.9395 17.7148 52.4668C17.474 52.9909 17.1289 53.3945 16.6797 53.6777C16.2337 53.9577 15.7194 54.0977 15.1367 54.0977C14.5605 54.0977 14.0462 53.9577 13.5938 53.6777C13.1445 53.3945 12.7962 52.9925 12.5488 52.4717C12.3047 51.9508 12.181 51.3503 12.1777 50.6699V50.2695C12.1777 49.5762 12.2998 48.9642 12.5439 48.4336C12.7913 47.903 13.138 47.4977 13.584 47.2178C14.0332 46.9346 14.5475 46.793 15.127 46.793C15.7064 46.793 16.2191 46.9329 16.665 47.2129C17.1143 47.4896 17.4609 47.89 17.7051 48.4141C17.9492 48.9349 18.0729 49.542 18.0762 50.2354V50.6309ZM16.8408 50.2598C16.8408 49.472 16.6911 48.8682 16.3916 48.4482C16.0954 48.0283 15.6738 47.8184 15.127 47.8184C14.5931 47.8184 14.1748 48.0283 13.8721 48.4482C13.5726 48.8649 13.4196 49.4557 13.4131 50.2207V50.6309C13.4131 51.4121 13.5645 52.016 13.8672 52.4424C14.1732 52.8688 14.5964 53.082 15.1367 53.082C15.6836 53.082 16.1035 52.8737 16.3965 52.457C16.6927 52.0404 16.8408 51.4316 16.8408 50.6309V50.2598ZM24.9316 54H23.7012V47.8867H20.5713V54H19.3408V46.8906H24.9316V54ZM32.0166 46.8906V54H30.7861V47.8867H28.6084L28.4814 50.6357C28.4326 51.4951 28.3268 52.1624 28.1641 52.6377C28.0046 53.1097 27.7718 53.4548 27.4658 53.6729C27.1598 53.891 26.7497 54 26.2354 54H25.9229V53.0137L26.1182 52.999C26.4014 52.973 26.6195 52.8737 26.7725 52.7012C26.9287 52.5286 27.0459 52.2682 27.124 51.9199C27.2054 51.5684 27.2624 51.0524 27.2949 50.3721L27.4316 46.8906H32.0166ZM37.5732 52.3447H34.8193L34.2432 54H32.959L35.6445 46.8906H36.7529L39.4434 54H38.1543L37.5732 52.3447ZM35.166 51.3486H37.2266L36.1963 48.3994L35.166 51.3486ZM44.8047 47.8867H42.5879V54H41.3623V47.8867H39.165V46.8906H44.8047V47.8867ZM49.1357 52.3447H46.3818L45.8057 54H44.5215L47.207 46.8906H48.3154L51.0059 54H49.7168L49.1357 52.3447ZM46.7285 51.3486H48.7891L47.7588 48.3994L46.7285 51.3486ZM56.4111 50.9531H55.5713V54H54.3408V46.8906H55.5713V49.8789H56.25L58.3398 46.8906H59.8535L57.4121 50.2939L60.0684 54H58.584L56.4111 50.9531ZM64.7314 52.3447H61.9775L61.4014 54H60.1172L62.8027 46.8906H63.9111L66.6016 54H65.3125L64.7314 52.3447ZM62.3242 51.3486H64.3848L63.3545 48.3994L62.3242 51.3486ZM68.6475 51.3584V54H67.4121V46.8906H70.1318C70.9261 46.8906 71.556 47.0973 72.0215 47.5107C72.4902 47.9242 72.7246 48.471 72.7246 49.1514C72.7246 49.848 72.4951 50.39 72.0361 50.7773C71.5804 51.1647 70.9408 51.3584 70.1172 51.3584H68.6475ZM68.6475 50.3672H70.1318C70.5713 50.3672 70.9066 50.2646 71.1377 50.0596C71.3688 49.8512 71.4844 49.5518 71.4844 49.1611C71.4844 48.777 71.3672 48.471 71.1328 48.2432C70.8984 48.012 70.5762 47.8932 70.166 47.8867H68.6475V50.3672ZM78.9453 47.8867H76.7285V54H75.5029V47.8867H73.3057V46.8906H78.9453V47.8867ZM85.4199 50.6309C85.4199 51.3275 85.2995 51.9395 85.0586 52.4668C84.8177 52.9909 84.4727 53.3945 84.0234 53.6777C83.5775 53.9577 83.0632 54.0977 82.4805 54.0977C81.9043 54.0977 81.39 53.9577 80.9375 53.6777C80.4883 53.3945 80.14 52.9925 79.8926 52.4717C79.6484 51.9508 79.5247 51.3503 79.5215 50.6699V50.2695C79.5215 49.5762 79.6436 48.9642 79.8877 48.4336C80.1351 47.903 80.4818 47.4977 80.9277 47.2178C81.377 46.9346 81.8913 46.793 82.4707 46.793C83.0501 46.793 83.5628 46.9329 84.0088 47.2129C84.458 47.4896 84.8047 47.89 85.0488 48.4141C85.293 48.9349 85.4167 49.542 85.4199 50.2354V50.6309ZM84.1846 50.2598C84.1846 49.472 84.0348 48.8682 83.7354 48.4482C83.4391 48.0283 83.0176 47.8184 82.4707 47.8184C81.9368 47.8184 81.5186 48.0283 81.2158 48.4482C80.9163 48.8649 80.7633 49.4557 80.7568 50.2207V50.6309C80.7568 51.4121 80.9082 52.016 81.2109 52.4424C81.5169 52.8688 81.9401 53.082 82.4805 53.082C83.0273 53.082 83.4473 52.8737 83.7402 52.457C84.0365 52.0404 84.1846 51.4316 84.1846 50.6309V50.2598ZM91.0059 46.8906H92.2412V54H91.0059V48.9365L87.8857 54H86.6504V46.8906H87.8857V51.959L91.0059 46.8906ZM91.0449 45.0791C91.0449 45.4893 90.9017 45.8213 90.6152 46.0752C90.3288 46.3291 89.9463 46.4561 89.4678 46.4561C88.9893 46.4561 88.6068 46.3291 88.3203 46.0752C88.0339 45.8213 87.8906 45.4893 87.8906 45.0791H88.7793C88.7793 45.2939 88.8395 45.4616 88.96 45.582C89.0837 45.6992 89.2529 45.7578 89.4678 45.7578C89.6826 45.7578 89.8503 45.6992 89.9707 45.582C90.0911 45.4616 90.1514 45.2939 90.1514 45.0791H91.0449ZM96.9287 51.3779L98.1348 53.3262H97.3193L95.9131 51.4219V51.3291L97.3193 49.4248H98.1348L96.9287 51.3779ZM98.6816 51.3779L99.8877 53.3262H99.0723L97.666 51.4219V51.3291L99.0723 49.4248H99.8877L98.6816 51.3779ZM103.511 49.459L105.005 46.8906H106.431L104.282 50.416L106.479 54H105.039L103.511 51.3926L101.978 54H100.542L102.744 50.416L100.591 46.8906H102.017L103.511 49.459ZM111.372 52.3447H108.618L108.042 54H106.758L109.443 46.8906H110.552L113.242 54H111.953L111.372 52.3447ZM108.965 51.3486H111.025L109.995 48.3994L108.965 51.3486ZM119.731 46.8906V54H118.501V47.8867H116.323L116.196 50.6357C116.147 51.4951 116.042 52.1624 115.879 52.6377C115.719 53.1097 115.487 53.4548 115.181 53.6729C114.875 53.891 114.465 54 113.95 54H113.638V53.0137L113.833 52.999C114.116 52.973 114.334 52.8737 114.487 52.7012C114.644 52.5286 114.761 52.2682 114.839 51.9199C114.92 51.5684 114.977 51.0524 115.01 50.3721L115.146 46.8906H119.731ZM121.221 54V46.8906H123.657C124.461 46.8906 125.073 47.0518 125.493 47.374C125.913 47.6963 126.123 48.1764 126.123 48.8145C126.123 49.14 126.035 49.4329 125.859 49.6934C125.684 49.9538 125.426 50.1556 125.088 50.2988C125.472 50.403 125.768 50.5999 125.977 50.8896C126.188 51.1761 126.294 51.5212 126.294 51.9248C126.294 52.5921 126.079 53.1048 125.649 53.4629C125.223 53.821 124.611 54 123.813 54H121.221ZM122.456 50.792V53.0137H123.828C124.215 53.0137 124.518 52.9176 124.736 52.7256C124.954 52.5335 125.063 52.2666 125.063 51.9248C125.063 51.1859 124.686 50.8083 123.931 50.792H122.456ZM122.456 49.8838H123.667C124.051 49.8838 124.351 49.7975 124.565 49.625C124.784 49.4492 124.893 49.2018 124.893 48.8828C124.893 48.5312 124.792 48.2773 124.59 48.1211C124.391 47.9648 124.08 47.8867 123.657 47.8867H122.456V49.8838ZM131.509 52.3447H128.755L128.179 54H126.895L129.58 46.8906H130.688L133.379 54H132.09L131.509 52.3447ZM129.102 51.3486H131.162L130.132 48.3994L129.102 51.3486ZM134.736 49.4248L136.143 51.3291V51.4219L134.736 53.3262H133.921L135.127 51.3779L133.921 49.4248H134.736ZM136.558 49.4248L137.964 51.3291V51.4219L136.558 53.3262H135.742L136.948 51.3779L135.742 49.4248H136.558Z" fill="black"/>
<rect x="33" width="83" height="30" rx="14" fill="black"/>
<path d="M59.7353 10.8448C59.7615 10.4672 59.706 10.0883 59.5727 9.73474C59.4395 9.38114 59.2316 9.06131 58.9636 8.79759C58.4235 8.26756 57.7167 8.04587 56.8431 8.13252C56.5511 8.15236 56.2633 8.21362 55.9881 8.31449C55.7684 8.39181 55.5632 8.50606 55.381 8.65244C55.2439 8.76705 55.1179 8.89472 55.0048 9.03372C54.921 9.12884 54.8571 9.2401 54.8167 9.36083C54.7932 9.45182 54.7932 9.51031 54.8167 9.53414C54.9694 9.72285 55.0874 9.93785 55.1651 10.1689C55.301 10.5177 55.3971 10.8811 55.4515 11.252C55.5155 11.6735 55.463 12.1047 55.2998 12.4977C55.124 12.931 54.8072 13.2903 54.402 13.5159L52.5337 8.67844V8.65244L52.4803 8.60695C52.4598 8.58962 52.4342 8.57971 52.4076 8.57879H47.8652C47.769 8.57879 47.7326 8.62211 47.7583 8.7066L50.6676 14.5752C49.4523 14.9142 48.337 15.5485 47.4184 16.4231C46.5306 17.2766 46.061 18.1706 46.0097 19.105C45.9783 19.4759 46.0233 19.8494 46.1418 20.2018C46.2603 20.5542 46.4497 20.8779 46.698 21.1522C46.9379 21.4275 47.2346 21.6461 47.567 21.7924C47.8995 21.9388 48.2596 22.0094 48.6219 21.9992C48.9276 22.0004 49.2313 21.9484 49.5197 21.8454C49.7777 21.7581 50.0202 21.6294 50.2379 21.4641C50.4178 21.324 50.5832 21.1657 50.7317 20.9919C50.8493 20.859 50.9459 20.7084 51.0181 20.5456C51.0723 20.4128 51.0815 20.3218 51.0459 20.2727C50.9079 20.1126 50.8013 19.9273 50.7317 19.7267C50.6203 19.4357 50.5393 19.1337 50.4901 18.8256C50.4343 18.4516 50.4871 18.0692 50.6419 17.7251C50.8226 17.3141 51.1119 16.9617 51.4777 16.7069L53.4165 21.5118C53.4192 21.5381 53.4319 21.5622 53.4518 21.5792C53.4718 21.5962 53.4974 21.6046 53.5234 21.6028H58.3694C58.4421 21.6028 58.4592 21.5725 58.4228 21.5118L55.2805 15.4656C56.4844 15.1309 57.5805 14.4818 58.4592 13.583C59.28 12.715 59.7054 11.8023 59.7353 10.8448Z" fill="white"/>
<path d="M70.2209 12.3916C70.2236 12.3725 70.2198 12.3531 70.21 12.3366C70.2003 12.32 70.1853 12.3073 70.1675 12.3006H66.5763L66.54 12.318C66.5221 12.3213 66.506 12.3314 66.4951 12.3461C66.4865 12.3541 66.4795 12.3638 66.4748 12.3746C66.47 12.3854 66.4674 12.3971 66.4673 12.4089L66.3048 13.6654C65.8132 12.51 64.9931 11.9323 63.8444 11.9323C63.3016 11.9263 62.7646 12.0462 62.2744 12.2827C61.7842 12.5193 61.3539 12.8662 61.0164 13.2971C60.2381 14.2491 59.7593 15.4157 59.6419 16.6463C59.5328 17.4524 59.5661 18.2718 59.7402 19.0661C59.8919 19.7999 60.2361 20.4787 60.7364 21.031C60.9641 21.2885 61.2439 21.4934 61.5566 21.6317C61.8694 21.77 62.2079 21.8385 62.549 21.8325C63.7347 21.8325 64.7643 21.1472 65.6379 19.7766C65.6415 20.0611 65.7014 20.3419 65.8141 20.6024C65.9269 20.8629 66.0901 21.0978 66.2941 21.2931C66.7165 21.6708 67.2661 21.8694 67.829 21.8477C68.3307 21.8408 68.8216 21.6979 69.2505 21.4339C69.6351 21.2448 69.9497 20.9358 70.1483 20.5522C70.1667 20.5215 70.175 20.4855 70.1719 20.4497C70.1689 20.4139 70.1546 20.3799 70.1312 20.3529C70.0616 20.29 69.983 20.2381 69.8982 20.1991C69.7693 20.1224 69.6658 20.0085 69.601 19.872C69.4893 19.6435 69.417 19.3973 69.3873 19.1441C69.3417 18.6923 69.3539 18.2365 69.4236 17.7879C69.5362 16.9561 69.802 15.1573 70.2209 12.3916ZM66.0376 16.8673C65.9813 17.4925 65.7847 18.0964 65.4626 18.6328C65.1776 19.0935 64.8213 19.3239 64.3938 19.3239C63.9663 19.3239 63.667 19.0935 63.496 18.6328C63.3064 18.0651 63.2572 17.4588 63.3528 16.8673C63.4077 16.2402 63.6013 15.6338 63.9193 15.093C64.2128 14.6265 64.5691 14.3933 64.9881 14.3933C65.407 14.3933 65.7077 14.6265 65.8901 15.093C66.0839 15.6628 66.1346 16.2726 66.0376 16.8673Z" fill="white"/>
<path d="M81.6062 12.4629H81.6233C79.0488 11.9049 76.387 11.9049 73.8125 12.4629C73.7655 12.4629 73.7398 12.4933 73.7398 12.5539L73.6329 13.336C73.5731 13.8458 73.4683 14.4617 73.3187 15.1838C73.2066 15.7674 73.0537 16.3422 72.8612 16.9039C72.6633 17.4391 72.4104 17.9517 72.1067 18.4333C71.912 18.7595 71.6731 19.0562 71.397 19.315C71.1989 19.4782 71.0343 19.6176 70.9032 19.7331C70.8094 19.7997 70.7354 19.8911 70.6894 19.9974C70.641 20.3253 70.7935 20.7405 71.1469 21.2431C71.5003 21.7457 72.0361 21.9977 72.7544 21.9991C74.2393 21.9991 75.2368 20.9557 75.747 18.8688C76.1209 17.3183 76.3359 15.7328 76.3883 14.1375H77.8611L76.9633 21.503C76.9633 21.5637 76.9868 21.594 77.036 21.594H80.5011C80.5222 21.5908 80.5414 21.5797 80.5549 21.5629C80.5683 21.546 80.5751 21.5247 80.5738 21.503L81.6682 12.5322C81.6625 12.486 81.6418 12.4629 81.6062 12.4629Z" fill="white"/>
<path d="M88.9125 8.00235C87.9144 8.02569 86.9462 8.3525 86.1336 8.94037C85.2819 9.53838 84.5733 10.3223 84.0601 11.2345C83.529 12.1737 83.1161 13.1765 82.831 14.2197C82.5439 15.235 82.3957 16.2853 82.3906 17.3414C82.3906 18.6513 82.7619 19.7432 83.5043 20.6169C84.2468 21.4907 85.27 21.9239 86.5739 21.9167C87.2337 21.9367 87.8908 21.8239 88.5072 21.5848C89.1236 21.3457 89.6872 20.985 90.1651 20.5238C91.1228 19.5951 91.5503 18.4094 91.4477 16.9666C91.4176 16.3951 91.2104 15.8478 90.8556 15.4025C90.5213 14.9866 90.0761 14.6768 89.573 14.51C89.0514 14.3386 88.5053 14.2559 87.957 14.2652C87.3977 14.2694 86.8427 14.3645 86.3132 14.5468L86.4029 14.1829C87.0893 14.109 87.768 13.9749 88.4315 13.7821C90.1188 13.2723 91.1784 12.4657 91.6102 11.3623C91.7733 10.9857 91.8311 10.5708 91.7772 10.1631C91.7233 9.75546 91.5598 9.37065 91.3045 9.05085C90.7387 8.31719 89.9414 7.96768 88.9125 8.00235ZM86.5868 16.0568C86.745 16.0357 86.9052 16.0357 87.0635 16.0568C87.8772 16.2012 88.2541 16.7955 88.1943 17.8397C88.1594 18.2985 88.0212 18.7432 87.7902 19.1395C87.5323 19.6247 87.2003 19.8674 86.7941 19.8674C86.6489 19.8682 86.5064 19.8266 86.384 19.7474C86.2615 19.6682 86.1642 19.5549 86.1037 19.4211C85.9306 19.0715 85.8475 18.6833 85.8621 18.2924C85.8621 17.8375 85.8771 17.4432 85.907 17.1096C85.9369 16.776 85.9761 16.4633 86.0246 16.1716L86.187 16.1348C86.3179 16.0973 86.4516 16.0712 86.5868 16.0568ZM88.7244 10.8792C88.6914 11.1077 88.6016 11.3238 88.4636 11.5075C88.3283 11.7042 88.1681 11.8819 87.9869 12.0361C87.8067 12.1844 87.6175 12.3212 87.4204 12.4455C87.211 12.5784 87.0684 12.6665 86.9929 12.7098L86.8048 12.8094C87.2551 11.1934 87.7425 10.3853 88.2669 10.3853C88.3318 10.3742 88.3984 10.3798 88.4607 10.4014C88.5229 10.423 88.5789 10.46 88.6234 10.509C88.668 10.5581 88.6998 10.6176 88.7159 10.6823C88.7321 10.7469 88.732 10.8146 88.7158 10.8792H88.7244Z" fill="white"/>
<path d="M102.443 20.2053C102.315 20.1285 102.211 20.0146 102.146 19.8782C102.035 19.6497 101.962 19.4035 101.933 19.1503C101.887 18.6986 101.899 18.2427 101.969 17.7942C102.077 16.958 102.341 15.1563 102.76 12.3892C102.762 12.3701 102.759 12.3507 102.749 12.3341C102.739 12.3176 102.724 12.3049 102.706 12.2982H99.1301L99.0938 12.3155C99.0759 12.3189 99.0598 12.3289 99.0489 12.3437C99.0403 12.3517 99.0334 12.3614 99.0286 12.3722C99.0238 12.383 99.0213 12.3947 99.0211 12.4065L98.8586 13.663C98.367 12.5076 97.5469 11.9299 96.3983 11.9299C95.8554 11.9239 95.3184 12.0437 94.8282 12.2803C94.3381 12.5168 93.9078 12.8638 93.5702 13.2947C92.7919 14.2467 92.3132 15.4133 92.1957 16.6438C92.0864 17.45 92.1197 18.2694 92.294 19.0636C92.4457 19.7975 92.7898 20.4763 93.2902 21.0285C93.5179 21.286 93.7977 21.4909 94.1104 21.6292C94.4232 21.7675 94.7617 21.836 95.1029 21.8301C96.2885 21.8301 97.3181 21.1448 98.1917 19.7742C98.1953 20.0586 98.2552 20.3394 98.3679 20.5999C98.4807 20.8604 98.6439 21.0953 98.848 21.2906C99.2703 21.6684 99.8199 21.867 100.383 21.8452C100.884 21.8386 101.374 21.6965 101.802 21.4336C102.187 21.2446 102.501 20.9355 102.7 20.5519C102.718 20.5212 102.727 20.4853 102.724 20.4494C102.721 20.4136 102.706 20.3797 102.683 20.3526C102.611 20.2915 102.53 20.2418 102.443 20.2053ZM98.5957 16.867C98.542 17.4915 98.3483 18.0954 98.0293 18.6325C97.7357 19.0933 97.3737 19.3236 96.9433 19.3236C96.513 19.3236 96.2137 19.0933 96.0455 18.6325C95.8559 18.0648 95.8067 17.4585 95.9023 16.867C95.954 16.2408 96.144 15.6345 96.4581 15.0928C96.7517 14.6263 97.1079 14.393 97.5269 14.393C97.9459 14.393 98.248 14.6263 98.4333 15.0928C98.6321 15.6613 98.6879 16.2711 98.5957 16.867Z" fill="white"/>
</svg>
