<svg width="103" height="75" viewBox="0 0 103 75" fill="none" xmlns="http://www.w3.org/2000/svg">
<rect x="0.75" y="45.75" width="101.5" height="28.5" rx="13.25" fill="white" stroke="black" stroke-width="1.5"/>
<path d="M13.3945 58.8291C13.3945 58.5101 13.2741 58.2562 13.0332 58.0674C12.7923 57.8786 12.4652 57.7842 12.0518 57.7842C11.6969 57.7842 11.4007 57.8786 11.1631 58.0674C10.9255 58.2529 10.8066 58.4938 10.8066 58.79H9.57617C9.57617 58.4027 9.68359 58.0576 9.89844 57.7549C10.1133 57.4521 10.4111 57.2178 10.792 57.0518C11.1729 56.8825 11.5928 56.7979 12.0518 56.7979C12.8656 56.7979 13.4971 56.9753 13.9463 57.3301C14.3988 57.6849 14.625 58.1813 14.625 58.8193C14.625 59.1416 14.5273 59.4378 14.332 59.708C14.1367 59.9782 13.8633 60.1914 13.5117 60.3477C13.9089 60.4844 14.2116 60.6927 14.4199 60.9727C14.6315 61.2493 14.7373 61.5944 14.7373 62.0078C14.7373 62.6458 14.4932 63.1536 14.0049 63.5312C13.5166 63.9056 12.8656 64.0928 12.0518 64.0928C11.5505 64.0928 11.0964 64.0033 10.6895 63.8242C10.2858 63.6452 9.98145 63.401 9.77637 63.0918C9.57454 62.7826 9.47363 62.4277 9.47363 62.0273H10.7041C10.7041 62.3333 10.8311 62.5921 11.085 62.8037C11.3389 63.012 11.6611 63.1162 12.0518 63.1162C12.488 63.1162 12.8379 63.0137 13.1016 62.8086C13.3685 62.6035 13.502 62.3366 13.502 62.0078C13.502 61.6074 13.3848 61.3177 13.1504 61.1387C12.9193 60.9564 12.5791 60.8652 12.1299 60.8652H11.2949V59.8887H12.0859C12.9583 59.8887 13.3945 59.5355 13.3945 58.8291ZM21.5586 60.6309C21.5586 61.3275 21.4382 61.9395 21.1973 62.4668C20.9564 62.9909 20.6113 63.3945 20.1621 63.6777C19.7161 63.9577 19.2018 64.0977 18.6191 64.0977C18.043 64.0977 17.5286 63.9577 17.0762 63.6777C16.627 63.3945 16.2786 62.9925 16.0312 62.4717C15.7871 61.9508 15.6634 61.3503 15.6602 60.6699V60.2695C15.6602 59.5762 15.7822 58.9642 16.0264 58.4336C16.2738 57.903 16.6204 57.4977 17.0664 57.2178C17.5156 56.9346 18.0299 56.793 18.6094 56.793C19.1888 56.793 19.7015 56.9329 20.1475 57.2129C20.5967 57.4896 20.9434 57.89 21.1875 58.4141C21.4316 58.9349 21.5553 59.542 21.5586 60.2354V60.6309ZM20.3232 60.2598C20.3232 59.472 20.1735 58.8682 19.874 58.4482C19.5778 58.0283 19.1562 57.8184 18.6094 57.8184C18.0755 57.8184 17.6572 58.0283 17.3545 58.4482C17.055 58.8649 16.902 59.4557 16.8955 60.2207V60.6309C16.8955 61.4121 17.0469 62.016 17.3496 62.4424C17.6556 62.8688 18.0788 63.082 18.6191 63.082C19.166 63.082 19.5859 62.8737 19.8789 62.457C20.1751 62.0404 20.3232 61.4316 20.3232 60.6309V60.2598ZM28.4336 64H27.2031V60.8408H24.0244V64H22.7891V56.8906H24.0244V59.8496H27.2031V56.8906H28.4336V64ZM33.9658 62.3447H31.2119L30.6357 64H29.3516L32.0371 56.8906H33.1455L35.8359 64H34.5469L33.9658 62.3447ZM31.5586 61.3486H33.6191L32.5889 58.3994L31.5586 61.3486ZM45.6748 65.748H44.5029V64H39.8203V65.748H38.6289L38.5898 63.0137H39.1611C39.4443 62.7402 39.6706 62.3431 39.8398 61.8223C40.0091 61.2982 40.1182 60.7057 40.167 60.0449L40.3525 56.8906H44.835V63.0137H45.7383L45.6748 65.748ZM40.5576 63.0137H43.6045V57.8867H41.5293L41.4121 59.8887C41.3242 61.2266 41.0394 62.2682 40.5576 63.0137ZM52.335 56.8906V64H51.1045V57.8867H48.9268L48.7998 60.6357C48.751 61.4951 48.6452 62.1624 48.4824 62.6377C48.3229 63.1097 48.0902 63.4548 47.7842 63.6729C47.4782 63.891 47.068 64 46.5537 64H46.2412V63.0137L46.4365 62.999C46.7197 62.973 46.9378 62.8737 47.0908 62.7012C47.2471 62.5286 47.3643 62.2682 47.4424 61.9199C47.5238 61.5684 47.5807 61.0524 47.6133 60.3721L47.75 56.8906H52.335ZM57.3301 64V61.3438H55.9531L54.5811 64H53.2578L54.8447 60.9775C54.0179 60.5869 53.6045 59.9473 53.6045 59.0586C53.6045 58.3783 53.8275 57.8493 54.2734 57.4717C54.7227 57.0908 55.3477 56.8971 56.1484 56.8906H58.5654V64H57.3301ZM54.835 59.1123C54.835 59.5127 54.9473 59.8252 55.1719 60.0498C55.3965 60.2744 55.7334 60.3867 56.1826 60.3867H57.3301V57.8867H56.1826C55.7269 57.8867 55.3883 57.9958 55.167 58.2139C54.9456 58.432 54.835 58.7314 54.835 59.1123ZM69.0635 65.748H67.8916V64H63.209V65.748H62.0176L61.9785 63.0137H62.5498C62.833 62.7402 63.0592 62.3431 63.2285 61.8223C63.3978 61.2982 63.5068 60.7057 63.5557 60.0449L63.7412 56.8906H68.2236V63.0137H69.127L69.0635 65.748ZM63.9463 63.0137H66.9932V57.8867H64.918L64.8008 59.8887C64.7129 61.2266 64.4281 62.2682 63.9463 63.0137ZM74.21 60.8262H71.29V63.0137H74.7031V64H70.0547V56.8906H74.6689V57.8867H71.29V59.8496H74.21V60.8262ZM80.9434 57.8867H78.7266V64H77.501V57.8867H75.3037V56.8906H80.9434V57.8867ZM86.0361 60.8262H83.1162V63.0137H86.5293V64H81.8809V56.8906H86.4951V57.8867H83.1162V59.8496H86.0361V60.8262ZM91.8906 56.8906H93.126V64H91.8906V58.9365L88.7705 64H87.5352V56.8906H88.7705V61.959L91.8906 56.8906ZM91.9297 55.0791C91.9297 55.4893 91.7865 55.8213 91.5 56.0752C91.2135 56.3291 90.8311 56.4561 90.3525 56.4561C89.874 56.4561 89.4915 56.3291 89.2051 56.0752C88.9186 55.8213 88.7754 55.4893 88.7754 55.0791H89.6641C89.6641 55.2939 89.7243 55.4616 89.8447 55.582C89.9684 55.6992 90.1377 55.7578 90.3525 55.7578C90.5674 55.7578 90.735 55.6992 90.8555 55.582C90.9759 55.4616 91.0361 55.2939 91.0361 55.0791H91.9297Z" fill="black"/>
<circle cx="51" cy="20" r="20" fill="black"/>
<path d="M48.9961 21.5258C48.9961 20.0353 47.7835 18.8228 46.293 18.8228C44.8025 18.8228 43.5898 20.0353 43.5898 21.5258H45.2305C45.2305 20.94 45.7071 20.4634 46.293 20.4634C46.8788 20.4634 47.3554 20.94 47.3554 21.5258H48.9961Z" fill="white"/>
<path d="M55.707 18.8228C54.2165 18.8228 53.0039 20.0353 53.0039 21.5258H54.6445C54.6445 20.94 55.1211 20.4634 55.707 20.4634C56.2928 20.4634 56.7695 20.94 56.7695 21.5258H58.4101C58.4101 20.0353 57.1975 18.8228 55.707 18.8228Z" fill="white"/>
<path d="M51 26.3263C49.9628 26.3263 48.9903 25.77 48.4618 24.8746L47.0488 25.7083C47.8709 27.1014 49.3849 27.9668 51 27.9668C52.615 27.9668 54.129 27.1014 54.9511 25.7083L53.5382 24.8745C53.0098 25.77 52.0372 26.3263 51 26.3263Z" fill="white"/>
<path d="M63.9326 18.6202C63.4101 18.0983 62.7539 17.7533 62.0418 17.6181C60.5037 12.8654 56.0422 9.59305 51 9.59305H50.45C49.1292 9.59305 48.0547 8.51847 48.0547 7.19775H46.4141C46.4141 8.09399 46.7081 8.9226 47.2042 9.59305H46.6844C45.3636 9.59305 44.2891 8.51847 44.2891 7.19775H42.6485C42.6485 8.98031 43.8105 10.4956 45.4164 11.0285C42.8765 12.4249 40.8857 14.7521 39.9583 17.6181C39.2461 17.7533 38.5898 18.0985 38.0669 18.6208C37.3789 19.3096 37 20.2247 37 21.1978C37 22.1588 37.3708 23.0656 38.044 23.751C38.5702 24.2868 39.2348 24.6402 39.9583 24.7774C41.4962 29.5302 45.9578 32.8024 51 32.8024C56.0422 32.8024 60.5037 29.5302 62.0417 24.7774C62.7652 24.6402 63.4298 24.2868 63.956 23.751C64.6292 23.0656 65 22.1588 65 21.1978C65 20.2247 64.6211 19.3096 63.9326 18.6202ZM61.3954 23.2005L60.7798 23.2122L60.619 23.8065C59.4479 28.1372 55.4924 31.1618 50.9999 31.1618C46.5075 31.1618 42.5521 28.1372 41.381 23.8065L41.2202 23.2122L40.6046 23.2005C39.5216 23.18 38.6406 22.2816 38.6406 21.1978C38.6406 20.6626 38.849 20.1592 39.2269 19.7809C39.5953 19.4128 40.0846 19.2047 40.6045 19.195L41.2202 19.1834L41.3809 18.5889C42.5521 14.2583 46.5076 11.2337 51 11.2337C52.4827 11.2337 53.689 12.44 53.689 13.9228C53.689 15.4055 52.4827 16.6118 51 16.6118C49.5173 16.6118 48.311 15.4056 48.311 13.9228H46.6704C46.6704 16.3102 48.6126 18.2525 51 18.2525C53.3874 18.2525 55.3296 16.3102 55.3296 13.9228C55.3296 13.2434 55.1719 12.6003 54.8918 12.0275C57.6434 13.1979 59.8046 15.5774 60.619 18.589L60.7798 19.1834L61.3955 19.195C61.9154 19.2047 62.4046 19.4129 62.7725 19.7803C63.151 20.1592 63.3594 20.6626 63.3594 21.1978C63.3594 22.2817 62.4783 23.1801 61.3954 23.2005Z" fill="white"/>
</svg>
