<svg width="113" height="75" viewBox="0 0 113 75" fill="none" xmlns="http://www.w3.org/2000/svg">
<rect x="0.75" y="45.75" width="111.5" height="28.5" rx="13.25" fill="white" stroke="black" stroke-width="1.5"/>
<path d="M16.085 59.459L17.5791 56.8906H19.0049L16.8564 60.416L19.0537 64H17.6133L16.085 61.3926L14.5518 64H13.1162L15.3184 60.416L13.165 56.8906H14.5908L16.085 59.459ZM25.5137 60.6309C25.5137 61.3275 25.3932 61.9395 25.1523 62.4668C24.9115 62.9909 24.5664 63.3945 24.1172 63.6777C23.6712 63.9577 23.1569 64.0977 22.5742 64.0977C21.998 64.0977 21.4837 63.9577 21.0312 63.6777C20.582 63.3945 20.2337 62.9925 19.9863 62.4717C19.7422 61.9508 19.6185 61.3503 19.6152 60.6699V60.2695C19.6152 59.5762 19.7373 58.9642 19.9814 58.4336C20.2288 57.903 20.5755 57.4977 21.0215 57.2178C21.4707 56.9346 21.985 56.793 22.5645 56.793C23.1439 56.793 23.6566 56.9329 24.1025 57.2129C24.5518 57.4896 24.8984 57.89 25.1426 58.4141C25.3867 58.9349 25.5104 59.542 25.5137 60.2354V60.6309ZM24.2783 60.2598C24.2783 59.472 24.1286 58.8682 23.8291 58.4482C23.5329 58.0283 23.1113 57.8184 22.5645 57.8184C22.0306 57.8184 21.6123 58.0283 21.3096 58.4482C21.0101 58.8649 20.8571 59.4557 20.8506 60.2207V60.6309C20.8506 61.4121 21.002 62.016 21.3047 62.4424C21.6107 62.8688 22.0339 63.082 22.5742 63.082C23.1211 63.082 23.541 62.8737 23.834 62.457C24.1302 62.0404 24.2783 61.4316 24.2783 60.6309V60.2598ZM27.9795 61.3584V64H26.7441V56.8906H29.4639C30.2581 56.8906 30.888 57.0973 31.3535 57.5107C31.8223 57.9242 32.0566 58.471 32.0566 59.1514C32.0566 59.848 31.8271 60.39 31.3682 60.7773C30.9124 61.1647 30.2728 61.3584 29.4492 61.3584H27.9795ZM27.9795 60.3672H29.4639C29.9033 60.3672 30.2386 60.2646 30.4697 60.0596C30.7008 59.8512 30.8164 59.5518 30.8164 59.1611C30.8164 58.777 30.6992 58.471 30.4648 58.2432C30.2305 58.012 29.9082 57.8932 29.498 57.8867H27.9795V60.3672ZM38.8145 60.6309C38.8145 61.3275 38.694 61.9395 38.4531 62.4668C38.2122 62.9909 37.8672 63.3945 37.418 63.6777C36.972 63.9577 36.4577 64.0977 35.875 64.0977C35.2988 64.0977 34.7845 63.9577 34.332 63.6777C33.8828 63.3945 33.5345 62.9925 33.2871 62.4717C33.043 61.9508 32.9193 61.3503 32.916 60.6699V60.2695C32.916 59.5762 33.0381 58.9642 33.2822 58.4336C33.5296 57.903 33.8763 57.4977 34.3223 57.2178C34.7715 56.9346 35.2858 56.793 35.8652 56.793C36.4447 56.793 36.9574 56.9329 37.4033 57.2129C37.8525 57.4896 38.1992 57.89 38.4434 58.4141C38.6875 58.9349 38.8112 59.542 38.8145 60.2354V60.6309ZM37.5791 60.2598C37.5791 59.472 37.4294 58.8682 37.1299 58.4482C36.8337 58.0283 36.4121 57.8184 35.8652 57.8184C35.3314 57.8184 34.9131 58.0283 34.6104 58.4482C34.3109 58.8649 34.1579 59.4557 34.1514 60.2207V60.6309C34.1514 61.4121 34.3027 62.016 34.6055 62.4424C34.9115 62.8688 35.3346 63.082 35.875 63.082C36.4219 63.082 36.8418 62.8737 37.1348 62.457C37.431 62.0404 37.5791 61.4316 37.5791 60.6309V60.2598ZM41.3047 56.8906V63.0137H43.4727V56.8906H44.7031V63.0137H46.8564V56.8906H48.0869V64H40.0645V56.8906H41.3047ZM53.9121 56.8906H55.1475V64H53.9121V58.9365L50.792 64H49.5566V56.8906H50.792V61.959L53.9121 56.8906ZM60.9824 56.8906H62.2178V64H60.9824V58.9365L57.8623 64H56.627V56.8906H57.8623V61.959L60.9824 56.8906ZM61.0215 55.0791C61.0215 55.4893 60.8783 55.8213 60.5918 56.0752C60.3053 56.3291 59.9229 56.4561 59.4443 56.4561C58.9658 56.4561 58.5833 56.3291 58.2969 56.0752C58.0104 55.8213 57.8672 55.4893 57.8672 55.0791H58.7559C58.7559 55.2939 58.8161 55.4616 58.9365 55.582C59.0602 55.6992 59.2295 55.7578 59.4443 55.7578C59.6592 55.7578 59.8268 55.6992 59.9473 55.582C60.0677 55.4616 60.1279 55.2939 60.1279 55.0791H61.0215ZM66.1875 64V56.8906H68.624C69.4281 56.8906 70.04 57.0518 70.46 57.374C70.8799 57.6963 71.0898 58.1764 71.0898 58.8145C71.0898 59.14 71.002 59.4329 70.8262 59.6934C70.6504 59.9538 70.3932 60.1556 70.0547 60.2988C70.4388 60.403 70.735 60.5999 70.9434 60.8896C71.1549 61.1761 71.2607 61.5212 71.2607 61.9248C71.2607 62.5921 71.0459 63.1048 70.6162 63.4629C70.1898 63.821 69.5778 64 68.7803 64H66.1875ZM67.4229 60.792V63.0137H68.7949C69.1823 63.0137 69.485 62.9176 69.7031 62.7256C69.9212 62.5335 70.0303 62.2666 70.0303 61.9248C70.0303 61.1859 69.6527 60.8083 68.8975 60.792H67.4229ZM67.4229 59.8838H68.6338C69.0179 59.8838 69.3174 59.7975 69.5322 59.625C69.7503 59.4492 69.8594 59.2018 69.8594 58.8828C69.8594 58.5312 69.7585 58.2773 69.5566 58.1211C69.3581 57.9648 69.0472 57.8867 68.624 57.8867H67.4229V59.8838ZM73.7656 59.6104H75.2207C75.7415 59.6104 76.1956 59.6999 76.583 59.8789C76.9704 60.0579 77.265 60.3118 77.4668 60.6406C77.6686 60.9694 77.7695 61.3503 77.7695 61.7832C77.7695 62.4473 77.5433 62.9811 77.0908 63.3848C76.6416 63.7884 76.028 63.9935 75.25 64H72.5303V56.8906H73.7656V59.6104ZM79.7031 64H78.4727V56.8906H79.7031V64ZM73.7656 60.6016V63.0137H75.2158C75.6325 63.0137 75.9564 62.9014 76.1875 62.6768C76.4219 62.4489 76.5391 62.1478 76.5391 61.7734C76.5391 61.4154 76.4251 61.1322 76.1973 60.9238C75.9694 60.7155 75.6536 60.6081 75.25 60.6016H73.7656ZM85.709 57.8867H82.4326V59.6104H83.8877C84.4085 59.6104 84.8626 59.6999 85.25 59.8789C85.6374 60.0579 85.932 60.3118 86.1338 60.6406C86.3356 60.9694 86.4365 61.3503 86.4365 61.7832C86.4365 62.4473 86.2103 62.9811 85.7578 63.3848C85.3086 63.7884 84.695 63.9935 83.917 64H81.1973V56.8906H85.709V57.8867ZM82.4326 60.6016V63.0137H83.8828C84.2995 63.0137 84.6234 62.9014 84.8545 62.6768C85.0889 62.4489 85.2061 62.1478 85.2061 61.7734C85.2061 61.4154 85.0921 61.1322 84.8643 60.9238C84.6364 60.7155 84.3206 60.6081 83.917 60.6016H82.4326ZM93.1797 60.6309C93.1797 61.3275 93.0592 61.9395 92.8184 62.4668C92.5775 62.9909 92.2324 63.3945 91.7832 63.6777C91.3372 63.9577 90.8229 64.0977 90.2402 64.0977C89.6641 64.0977 89.1497 63.9577 88.6973 63.6777C88.248 63.3945 87.8997 62.9925 87.6523 62.4717C87.4082 61.9508 87.2845 61.3503 87.2812 60.6699V60.2695C87.2812 59.5762 87.4033 58.9642 87.6475 58.4336C87.8949 57.903 88.2415 57.4977 88.6875 57.2178C89.1367 56.9346 89.651 56.793 90.2305 56.793C90.8099 56.793 91.3226 56.9329 91.7686 57.2129C92.2178 57.4896 92.5645 57.89 92.8086 58.4141C93.0527 58.9349 93.1764 59.542 93.1797 60.2354V60.6309ZM91.9443 60.2598C91.9443 59.472 91.7946 58.8682 91.4951 58.4482C91.1989 58.0283 90.7773 57.8184 90.2305 57.8184C89.6966 57.8184 89.2783 58.0283 88.9756 58.4482C88.6761 58.8649 88.5231 59.4557 88.5166 60.2207V60.6309C88.5166 61.4121 88.668 62.016 88.9707 62.4424C89.2767 62.8688 89.6999 63.082 90.2402 63.082C90.7871 63.082 91.207 62.8737 91.5 62.457C91.7962 62.0404 91.9443 61.4316 91.9443 60.6309V60.2598ZM95.6455 61.3584V64H94.4102V56.8906H97.1299C97.9242 56.8906 98.554 57.0973 99.0195 57.5107C99.4883 57.9242 99.7227 58.471 99.7227 59.1514C99.7227 59.848 99.4932 60.39 99.0342 60.7773C98.5785 61.1647 97.9388 61.3584 97.1152 61.3584H95.6455ZM95.6455 60.3672H97.1299C97.5693 60.3672 97.9046 60.2646 98.1357 60.0596C98.3669 59.8512 98.4824 59.5518 98.4824 59.1611C98.4824 58.777 98.3652 58.471 98.1309 58.2432C97.8965 58.012 97.5742 57.8932 97.1641 57.8867H95.6455V60.3672Z" fill="black"/>
<circle cx="57" cy="20" r="20" fill="black"/>
<path d="M68.2797 22.7847C68.7857 22.1394 69.0283 21.4475 68.9974 20.735C68.9664 19.9503 68.6153 19.3359 68.3262 18.959C68.6618 18.1226 68.7909 16.806 67.6705 15.7838C66.8496 15.0352 65.4556 14.6996 63.5246 14.7925C62.1668 14.8545 61.0309 15.1074 60.9845 15.1178H60.9793C60.7212 15.1642 60.4475 15.221 60.1687 15.283C60.1481 14.9525 60.2049 14.1316 60.8141 12.2833C61.5369 10.0839 61.4956 8.40077 60.6799 7.27525C59.8228 6.09293 58.4546 6 58.0519 6C57.6647 6 57.3085 6.16005 57.0555 6.45434C56.4824 7.12036 56.5495 8.34914 56.6218 8.91706C55.9403 10.7447 54.03 15.2262 52.414 16.4705C52.383 16.4911 52.3572 16.5169 52.3314 16.5427C51.8564 17.0435 51.5363 17.5857 51.3194 18.0606C51.0148 17.8954 50.6689 17.8025 50.2972 17.8025H47.1478C45.9603 17.8025 45 18.768 45 19.9503V28.3401C45 29.5275 45.9655 30.4879 47.1478 30.4879H50.2972C50.7567 30.4879 51.1852 30.3433 51.5363 30.0955L52.7496 30.24C52.9354 30.2658 56.2397 30.684 59.6318 30.6169C60.2462 30.6634 60.8244 30.6892 61.3614 30.6892C62.2855 30.6892 63.091 30.6169 63.7621 30.4724C65.342 30.1368 66.4211 29.4656 66.9683 28.4795C67.3865 27.7257 67.3865 26.9771 67.3194 26.5021C68.3468 25.5727 68.5275 24.5453 68.4914 23.8225C68.4707 23.4043 68.3778 23.048 68.2797 22.7847ZM47.1478 29.0939C46.7296 29.0939 46.394 28.7531 46.394 28.3401V19.9451C46.394 19.5269 46.7347 19.1913 47.1478 19.1913H50.2972C50.7154 19.1913 51.051 19.5321 51.051 19.9451V28.3349C51.051 28.7531 50.7102 29.0887 50.2972 29.0887H47.1478V29.0939ZM66.958 22.1807C66.7412 22.4078 66.6999 22.7538 66.8651 23.0222C66.8651 23.0274 67.0768 23.3888 67.1026 23.8844C67.1387 24.5608 66.8134 25.1597 66.1319 25.6708C65.8893 25.8567 65.7912 26.1768 65.8944 26.4659C65.8944 26.4711 66.1164 27.1526 65.755 27.798C65.4091 28.4175 64.6398 28.8615 63.473 29.1093C62.5385 29.3107 61.2684 29.3468 59.7092 29.2229C59.6886 29.2229 59.6628 29.2229 59.6369 29.2229C56.3172 29.2952 52.9613 28.8615 52.9251 28.8564H52.92L52.3985 28.7944C52.4295 28.6498 52.445 28.495 52.445 28.3401V19.9451C52.445 19.7231 52.4088 19.5063 52.3469 19.3049C52.4398 18.959 52.698 18.1897 53.3072 17.534C55.6253 15.696 57.8919 9.49531 57.99 9.22684C58.0313 9.11842 58.0416 8.99967 58.0209 8.88092C57.9332 8.30267 57.9642 7.59535 58.0881 7.38367C58.3617 7.38883 59.1 7.46628 59.544 8.08067C60.0706 8.80864 60.05 10.1097 59.4821 11.8341C58.6147 14.4621 58.5424 15.8457 59.2291 16.455C59.5698 16.7596 60.0242 16.7751 60.3546 16.6563C60.6695 16.584 60.969 16.5221 61.253 16.4756C61.2736 16.4705 61.2994 16.4653 61.3201 16.4601C62.9051 16.1142 65.7447 15.9025 66.7308 16.8009C67.5672 17.565 66.9735 18.5769 66.9064 18.6854C66.7153 18.9745 66.7721 19.3514 67.0303 19.5837C67.0354 19.5889 67.5776 20.1 67.6034 20.7867C67.624 21.2462 67.4072 21.716 66.958 22.1807Z" fill="white" stroke="white" stroke-width="0.3"/>
</svg>
