<svg width="83" height="75" viewBox="0 0 83 75" fill="none" xmlns="http://www.w3.org/2000/svg">
<rect x="0.75" y="45.75" width="81.5" height="28.5" rx="13.25" fill="white" stroke="black" stroke-width="1.5"/>
<path d="M14.8252 60.9531H13.9854V64H12.7549V56.8906H13.9854V59.8789H14.6641L16.7539 56.8906H18.2676L15.8262 60.2939L18.4824 64H16.998L14.8252 60.9531ZM24.6836 60.6309C24.6836 61.3275 24.5632 61.9395 24.3223 62.4668C24.0814 62.9909 23.7363 63.3945 23.2871 63.6777C22.8411 63.9577 22.3268 64.0977 21.7441 64.0977C21.168 64.0977 20.6536 63.9577 20.2012 63.6777C19.752 63.3945 19.4036 62.9925 19.1562 62.4717C18.9121 61.9508 18.7884 61.3503 18.7852 60.6699V60.2695C18.7852 59.5762 18.9072 58.9642 19.1514 58.4336C19.3988 57.903 19.7454 57.4977 20.1914 57.2178C20.6406 56.9346 21.1549 56.793 21.7344 56.793C22.3138 56.793 22.8265 56.9329 23.2725 57.2129C23.7217 57.4896 24.0684 57.89 24.3125 58.4141C24.5566 58.9349 24.6803 59.542 24.6836 60.2354V60.6309ZM23.4482 60.2598C23.4482 59.472 23.2985 58.8682 22.999 58.4482C22.7028 58.0283 22.2812 57.8184 21.7344 57.8184C21.2005 57.8184 20.7822 58.0283 20.4795 58.4482C20.18 58.8649 20.027 59.4557 20.0205 60.2207V60.6309C20.0205 61.4121 20.1719 62.016 20.4746 62.4424C20.7806 62.8688 21.2038 63.082 21.7441 63.082C22.291 63.082 22.7109 62.8737 23.0039 62.457C23.3001 62.0404 23.4482 61.4316 23.4482 60.6309V60.2598ZM25.9141 64V56.8906H28.3506C29.1546 56.8906 29.7666 57.0518 30.1865 57.374C30.6064 57.6963 30.8164 58.1764 30.8164 58.8145C30.8164 59.14 30.7285 59.4329 30.5527 59.6934C30.377 59.9538 30.1198 60.1556 29.7812 60.2988C30.1654 60.403 30.4616 60.5999 30.6699 60.8896C30.8815 61.1761 30.9873 61.5212 30.9873 61.9248C30.9873 62.5921 30.7725 63.1048 30.3428 63.4629C29.9163 63.821 29.3044 64 28.5068 64H25.9141ZM27.1494 60.792V63.0137H28.5215C28.9089 63.0137 29.2116 62.9176 29.4297 62.7256C29.6478 62.5335 29.7568 62.2666 29.7568 61.9248C29.7568 61.1859 29.3792 60.8083 28.624 60.792H27.1494ZM27.1494 59.8838H28.3604C28.7445 59.8838 29.0439 59.7975 29.2588 59.625C29.4769 59.4492 29.5859 59.2018 29.5859 58.8828C29.5859 58.5312 29.485 58.2773 29.2832 58.1211C29.0846 57.9648 28.7738 57.8867 28.3506 57.8867H27.1494V59.8838ZM37.8965 60.6309C37.8965 61.3275 37.776 61.9395 37.5352 62.4668C37.2943 62.9909 36.9492 63.3945 36.5 63.6777C36.054 63.9577 35.5397 64.0977 34.957 64.0977C34.3809 64.0977 33.8665 63.9577 33.4141 63.6777C32.9648 63.3945 32.6165 62.9925 32.3691 62.4717C32.125 61.9508 32.0013 61.3503 31.998 60.6699V60.2695C31.998 59.5762 32.1201 58.9642 32.3643 58.4336C32.6117 57.903 32.9583 57.4977 33.4043 57.2178C33.8535 56.9346 34.3678 56.793 34.9473 56.793C35.5267 56.793 36.0394 56.9329 36.4854 57.2129C36.9346 57.4896 37.2812 57.89 37.5254 58.4141C37.7695 58.9349 37.8932 59.542 37.8965 60.2354V60.6309ZM36.6611 60.2598C36.6611 59.472 36.5114 58.8682 36.2119 58.4482C35.9157 58.0283 35.4941 57.8184 34.9473 57.8184C34.4134 57.8184 33.9951 58.0283 33.6924 58.4482C33.3929 58.8649 33.2399 59.4557 33.2334 60.2207V60.6309C33.2334 61.4121 33.3848 62.016 33.6875 62.4424C33.9935 62.8688 34.4167 63.082 34.957 63.082C35.5039 63.082 35.9238 62.8737 36.2168 62.457C36.513 62.0404 36.6611 61.4316 36.6611 60.6309V60.2598ZM40.3623 61.3584V64H39.127V56.8906H41.8467C42.641 56.8906 43.2708 57.0973 43.7363 57.5107C44.2051 57.9242 44.4395 58.471 44.4395 59.1514C44.4395 59.848 44.21 60.39 43.751 60.7773C43.2952 61.1647 42.6556 61.3584 41.832 61.3584H40.3623ZM40.3623 60.3672H41.8467C42.2861 60.3672 42.6214 60.2646 42.8525 60.0596C43.0837 59.8512 43.1992 59.5518 43.1992 59.1611C43.1992 58.777 43.082 58.471 42.8477 58.2432C42.6133 58.012 42.291 57.8932 41.8809 57.8867H40.3623V60.3672ZM47.6279 60.9531H46.7881V64H45.5576V56.8906H46.7881V59.8789H47.4668L49.5566 56.8906H51.0703L48.6289 60.2939L51.2852 64H49.8008L47.6279 60.9531ZM56.3242 56.8906H57.5596V64H56.3242V58.9365L53.2041 64H51.9688V56.8906H53.2041V61.959L56.3242 56.8906ZM64.6836 64H63.4531V60.8408H60.2744V64H59.0391V56.8906H60.2744V59.8496H63.4531V56.8906H64.6836V64ZM70.6943 57.8867H67.4131V64H66.1826V56.8906H70.6943V57.8867Z" fill="black"/>
<circle cx="41" cy="20" r="20" fill="black"/>
<path d="M53.8871 28.685C53.8742 28.6514 54.072 29.0806 51.1052 22.6758V10.6068C51.1052 9.76683 50.4219 9.0835 49.5819 9.0835H32.4199C31.58 9.0835 30.8967 9.76683 30.8967 10.6068V22.6756L28.1313 28.6407C27.9266 29.0828 27.9487 29.7087 28.2871 30.2036C28.5926 30.6502 29.0981 30.9168 29.6392 30.9168H52.3604C53.5099 30.9168 54.3052 29.7598 53.8871 28.685ZM32.4199 10.6068H49.5819V22.0819H32.4199V10.6068ZM38.381 29.3936L38.9205 27.6672H43.0812L43.6207 29.3936H38.381ZM52.3604 29.3936H45.2167L44.3682 26.6784C44.2688 26.3605 43.9743 26.144 43.6412 26.144H38.3606C38.0275 26.144 37.733 26.3605 37.6337 26.6784L36.7852 29.3936H29.6392C29.5586 29.3936 29.5092 29.3172 29.5278 29.25L32.1447 23.6052H49.8569L52.4717 29.2499C52.4904 29.317 52.441 29.3936 52.3604 29.3936Z" fill="white"/>
</svg>
