<svg width="150" height="75" viewBox="0 0 150 75" fill="none" xmlns="http://www.w3.org/2000/svg">
<circle cx="75" cy="20" r="20" fill="black"/>
<path d="M74.95 5C70.9977 5.01309 67.2102 6.58553 64.4108 9.37556C61.6114 12.1656 60.0263 15.9478 60 19.9C60.0068 22.5712 60.7198 25.1932 62.0667 27.5L60 35L67.6583 32.9333C69.8719 34.235 72.3826 34.9466 74.95 35C78.9346 34.9501 82.7412 33.3416 85.5543 30.5191C88.3674 27.6967 89.9633 23.8848 90 19.9C89.9561 15.9359 88.3517 12.1488 85.5345 9.35969C82.7173 6.57056 78.9143 5.00414 74.95 5V5ZM75 32.4167C72.708 32.3924 70.4684 31.7285 68.5333 30.5L68.0667 30.2417L63.625 31.3833L64.8083 27.0333L64.5083 26.575C63.0565 24.2434 62.4205 21.4955 62.7002 18.7631C62.9799 16.0307 64.1595 13.4686 66.0537 11.4796C67.9478 9.49047 70.4492 8.18708 73.1646 7.77418C75.8801 7.36128 78.6558 7.86228 81.0556 9.19845C83.4553 10.5346 85.3432 12.6302 86.4224 15.156C87.5017 17.6818 87.7112 20.4945 87.018 23.1523C86.3248 25.8101 84.7682 28.1622 82.5929 29.8392C80.4175 31.5161 77.7467 32.4227 75 32.4167Z" fill="black"/>
<path d="M74.95 9.25019C72.1195 9.24576 69.4029 10.3648 67.3967 12.3616C65.3906 14.3584 64.2588 17.0697 64.25 19.9002C64.252 21.9435 64.8296 23.945 65.9167 25.6752L66.6333 26.7419L66 29.0502L68.3333 28.4585L68.9083 28.7835L69.375 29.0419C71.0677 30.1166 73.0283 30.6941 75.0333 30.7085C76.445 30.7052 77.8423 30.4239 79.1453 29.8807C80.4483 29.3374 81.6315 28.5428 82.6274 27.5422C83.6233 26.5417 84.4124 25.3548 84.9496 24.0493C85.4868 22.7438 85.7616 21.3452 85.7583 19.9335C85.7551 18.5218 85.4737 17.1246 84.9305 15.8216C84.3872 14.5186 83.5926 13.3354 82.5921 12.3394C81.5915 11.3435 80.4046 10.5545 79.0991 10.0173C77.7936 9.48005 76.395 9.20524 74.9833 9.20853L74.95 9.25019ZM79.2833 20.9669L73.3083 25.1335C72.5583 25.6419 71.9417 25.3169 71.9417 24.4002V15.6919C71.9417 14.7752 72.5583 14.4502 73.3083 14.9669L79.2833 19.0919C79.4521 19.1834 79.593 19.3189 79.6912 19.4839C79.7894 19.6489 79.8412 19.8373 79.8412 20.0294C79.8412 20.2214 79.7894 20.4098 79.6912 20.5748C79.593 20.7398 79.4521 20.8753 79.2833 20.9669Z" fill="black"/>
<path d="M74.95 5C70.9977 5.01309 67.2102 6.58553 64.4108 9.37556C61.6114 12.1656 60.0263 15.9478 60 19.9C60.0068 22.5712 60.7198 25.1932 62.0667 27.5L60 35L67.6583 32.9333C69.8719 34.235 72.3826 34.9466 74.95 35C78.9346 34.9501 82.7412 33.3416 85.5543 30.5191C88.3674 27.6967 89.9633 23.8848 90 19.9C89.9561 15.9359 88.3517 12.1488 85.5345 9.35969C82.7173 6.57056 78.9143 5.00414 74.95 5V5ZM75 32.4167C72.708 32.3924 70.4684 31.7285 68.5333 30.5L68.0667 30.2417L63.625 31.3833L64.8083 27.0333L64.5083 26.575C63.0565 24.2434 62.4205 21.4955 62.7002 18.7631C62.9799 16.0307 64.1595 13.4686 66.0537 11.4796C67.9478 9.49047 70.4492 8.18708 73.1646 7.77418C75.8801 7.36128 78.6558 7.86228 81.0556 9.19845C83.4553 10.5346 85.3432 12.6302 86.4224 15.156C87.5017 17.6818 87.7112 20.4945 87.018 23.1523C86.3248 25.8101 84.7682 28.1622 82.5929 29.8392C80.4175 31.5161 77.7467 32.4227 75 32.4167Z" fill="black" stroke="black" stroke-width="5"/>
<path d="M74.9499 7.58352C72.7354 7.58365 70.5615 8.17844 68.6554 9.30575C66.7493 10.4331 65.1808 12.0515 64.1139 13.9921C63.0469 15.9327 62.5207 18.1241 62.5901 20.3376C62.6594 22.551 63.3219 24.7052 64.5082 26.5752L64.8082 27.0335L63.6249 31.3835L68.0666 30.2419L68.5332 30.5002C70.4683 31.7287 72.7079 32.3926 74.9999 32.4169C78.293 32.4102 81.4486 31.0957 83.7725 28.7624C86.0964 26.4292 87.3982 23.2683 87.3916 19.9752C87.385 16.6821 86.0704 13.5265 83.7371 11.2026C81.4039 8.87871 78.243 7.57689 74.9499 7.58352ZM74.9999 30.7502C72.9949 30.7358 71.0343 30.1583 69.3416 29.0835L68.8749 28.8252L68.3332 28.4585L66.0166 29.0502L66.6499 26.7419L65.9332 25.6752C64.8462 23.945 64.2686 21.9435 64.2666 19.9002C64.2666 17.0491 65.3992 14.3148 67.4152 12.2988C69.4312 10.2828 72.1655 9.15019 75.0166 9.15019C77.8677 9.15019 80.602 10.2828 82.618 12.2988C84.634 14.3148 85.7666 17.0491 85.7666 19.9002C85.771 22.7647 84.6408 25.5145 82.6231 27.5478C80.6053 29.5811 77.8644 30.7326 74.9999 30.7502Z" fill="white"/>
<path d="M79.2835 19.0917L73.3335 15C72.5835 14.4834 71.9668 14.8084 71.9668 15.725V24.3667C71.9668 25.2834 72.5835 25.6084 73.3335 25.1L79.3085 20.9334C79.468 20.8372 79.5996 20.7009 79.6901 20.5381C79.7806 20.3753 79.8269 20.1916 79.8244 20.0054C79.8218 19.8191 79.7706 19.6368 79.6757 19.4765C79.5808 19.3162 79.4456 19.1835 79.2835 19.0917Z" fill="white"/>
<path d="M74.95 9.25019C72.1195 9.24576 69.4029 10.3648 67.3967 12.3616C65.3906 14.3584 64.2588 17.0697 64.25 19.9002C64.252 21.9435 64.8296 23.945 65.9167 25.6752L66.6333 26.7419L66 29.0502L68.3333 28.4585L68.9083 28.7835L69.375 29.0419C71.0677 30.1166 73.0283 30.6941 75.0333 30.7085C76.445 30.7052 77.8423 30.4239 79.1453 29.8807C80.4483 29.3374 81.6315 28.5428 82.6274 27.5422C83.6233 26.5417 84.4124 25.3548 84.9496 24.0493C85.4868 22.7438 85.7616 21.3452 85.7583 19.9335C85.7551 18.5218 85.4737 17.1246 84.9305 15.8216C84.3872 14.5186 83.5926 13.3354 82.5921 12.3394C81.5915 11.3435 80.4046 10.5545 79.0991 10.0173C77.7936 9.48005 76.395 9.20524 74.9833 9.20853L74.95 9.25019ZM79.2833 20.9669L73.3083 25.1335C72.5583 25.6419 71.9417 25.3169 71.9417 24.4002V15.6919C71.9417 14.7752 72.5583 14.4502 73.3083 14.9669L79.2833 19.0919C79.4521 19.1834 79.593 19.3189 79.6912 19.4839C79.7894 19.6489 79.8412 19.8373 79.8412 20.0294C79.8412 20.2214 79.7894 20.4098 79.6912 20.5748C79.593 20.7398 79.4521 20.8753 79.2833 20.9669Z" fill="black"/>
<rect x="0.75" y="45.75" width="148.5" height="28.5" rx="13.25" fill="white" stroke="black" stroke-width="1.5"/>
<path d="M16.2891 58V50.8906H18.7256C19.5296 50.8906 20.1416 51.0518 20.5615 51.374C20.9814 51.6963 21.1914 52.1764 21.1914 52.8145C21.1914 53.14 21.1035 53.4329 20.9277 53.6934C20.752 53.9538 20.4948 54.1556 20.1562 54.2988C20.5404 54.403 20.8366 54.5999 21.0449 54.8896C21.2565 55.1761 21.3623 55.5212 21.3623 55.9248C21.3623 56.5921 21.1475 57.1048 20.7178 57.4629C20.2913 57.821 19.6794 58 18.8818 58H16.2891ZM17.5244 54.792V57.0137H18.8965C19.2839 57.0137 19.5866 56.9176 19.8047 56.7256C20.0228 56.5335 20.1318 56.2666 20.1318 55.9248C20.1318 55.1859 19.7542 54.8083 18.999 54.792H17.5244ZM17.5244 53.8838H18.7354C19.1195 53.8838 19.4189 53.7975 19.6338 53.625C19.8519 53.4492 19.9609 53.2018 19.9609 52.8828C19.9609 52.5312 19.86 52.2773 19.6582 52.1211C19.4596 51.9648 19.1488 51.8867 18.7256 51.8867H17.5244V53.8838ZM26.9531 50.8906H28.1885V58H26.9531V52.9365L23.833 58H22.5977V50.8906H23.833V55.959L26.9531 50.8906ZM36.3135 59.748H35.1416V58H30.459V59.748H29.2676L29.2285 57.0137H29.7998C30.083 56.7402 30.3092 56.3431 30.4785 55.8223C30.6478 55.2982 30.7568 54.7057 30.8057 54.0449L30.9912 50.8906H35.4736V57.0137H36.377L36.3135 59.748ZM31.1963 57.0137H34.2432V51.8867H32.168L32.0508 53.8887C31.9629 55.2266 31.6781 56.2682 31.1963 57.0137ZM41.46 54.8262H38.54V57.0137H41.9531V58H37.3047V50.8906H41.9189V51.8867H38.54V53.8496H41.46V54.8262ZM48.6328 54.6309C48.6328 55.3275 48.5124 55.9395 48.2715 56.4668C48.0306 56.9909 47.6855 57.3945 47.2363 57.6777C46.7904 57.9577 46.276 58.0977 45.6934 58.0977C45.1172 58.0977 44.6029 57.9577 44.1504 57.6777C43.7012 57.3945 43.3529 56.9925 43.1055 56.4717C42.8613 55.9508 42.7376 55.3503 42.7344 54.6699V54.2695C42.7344 53.5762 42.8564 52.9642 43.1006 52.4336C43.348 51.903 43.6947 51.4977 44.1406 51.2178C44.5898 50.9346 45.1042 50.793 45.6836 50.793C46.263 50.793 46.7757 50.9329 47.2217 51.2129C47.6709 51.4896 48.0176 51.89 48.2617 52.4141C48.5059 52.9349 48.6296 53.542 48.6328 54.2354V54.6309ZM47.3975 54.2598C47.3975 53.472 47.2477 52.8682 46.9482 52.4482C46.652 52.0283 46.2305 51.8184 45.6836 51.8184C45.1497 51.8184 44.7314 52.0283 44.4287 52.4482C44.1292 52.8649 43.9762 53.4557 43.9697 54.2207V54.6309C43.9697 55.4121 44.1211 56.016 44.4238 56.4424C44.7298 56.8688 45.153 57.082 45.6934 57.082C46.2402 57.082 46.6602 56.8737 46.9531 56.457C47.2493 56.0404 47.3975 55.4316 47.3975 54.6309V54.2598ZM52.0508 55.4561H49.4873V54.499H52.0508V55.4561ZM55.249 54.9531H54.4092V58H53.1787V50.8906H54.4092V53.8789H55.0879L57.1777 50.8906H58.6914L56.25 54.2939L58.9062 58H57.4219L55.249 54.9531ZM65.1074 54.6309C65.1074 55.3275 64.987 55.9395 64.7461 56.4668C64.5052 56.9909 64.1602 57.3945 63.7109 57.6777C63.265 57.9577 62.7507 58.0977 62.168 58.0977C61.5918 58.0977 61.0775 57.9577 60.625 57.6777C60.1758 57.3945 59.8275 56.9925 59.5801 56.4717C59.3359 55.9508 59.2122 55.3503 59.209 54.6699V54.2695C59.209 53.5762 59.3311 52.9642 59.5752 52.4336C59.8226 51.903 60.1693 51.4977 60.6152 51.2178C61.0645 50.9346 61.5788 50.793 62.1582 50.793C62.7376 50.793 63.2503 50.9329 63.6963 51.2129C64.1455 51.4896 64.4922 51.89 64.7363 52.4141C64.9805 52.9349 65.1042 53.542 65.1074 54.2354V54.6309ZM63.8721 54.2598C63.8721 53.472 63.7223 52.8682 63.4229 52.4482C63.1266 52.0283 62.7051 51.8184 62.1582 51.8184C61.6243 51.8184 61.2061 52.0283 60.9033 52.4482C60.6038 52.8649 60.4508 53.4557 60.4443 54.2207V54.6309C60.4443 55.4121 60.5957 56.016 60.8984 56.4424C61.2044 56.8688 61.6276 57.082 62.168 57.082C62.7148 57.082 63.1348 56.8737 63.4277 56.457C63.724 56.0404 63.8721 55.4316 63.8721 54.6309V54.2598ZM71.9824 58H70.752V54.8408H67.5732V58H66.3379V50.8906H67.5732V53.8496H70.752V50.8906H71.9824V58ZM78.8721 55.6855C78.8005 56.444 78.5205 57.0365 78.0322 57.4629C77.5439 57.8861 76.8945 58.0977 76.084 58.0977C75.5176 58.0977 75.0179 57.9642 74.585 57.6973C74.1553 57.4271 73.8232 57.0446 73.5889 56.5498C73.3545 56.055 73.2324 55.4805 73.2227 54.8262V54.1621C73.2227 53.4915 73.3415 52.9007 73.5791 52.3896C73.8167 51.8786 74.1569 51.4847 74.5996 51.208C75.0456 50.9313 75.5599 50.793 76.1426 50.793C76.9271 50.793 77.5586 51.0062 78.0371 51.4326C78.5156 51.859 78.7939 52.4613 78.8721 53.2393H77.6416C77.583 52.7282 77.4333 52.3604 77.1924 52.1357C76.9548 51.9079 76.6048 51.7939 76.1426 51.7939C75.6055 51.7939 75.1921 51.9909 74.9023 52.3848C74.6159 52.7754 74.4694 53.3499 74.4629 54.1084V54.7383C74.4629 55.5065 74.5996 56.0924 74.873 56.4961C75.1497 56.8997 75.5534 57.1016 76.084 57.1016C76.569 57.1016 76.9336 56.9925 77.1777 56.7744C77.4219 56.5563 77.5765 56.1934 77.6416 55.6855H78.8721ZM82.5391 54.6064L83.9648 50.8906H85.3369L82.8613 56.7891L82.6367 57.2334C82.3112 57.8128 81.7839 58.1025 81.0547 58.1025L80.5469 58.0732L80.5566 57.0967C80.6348 57.1097 80.7731 57.1162 80.9717 57.1162C81.3232 57.1162 81.5706 56.9665 81.7139 56.667L81.9678 56.0664L79.5361 50.8906H80.8838L82.5391 54.6064ZM91.6064 50.8906V58H90.376V51.8867H88.1982L88.0713 54.6357C88.0225 55.4951 87.9167 56.1624 87.7539 56.6377C87.5944 57.1097 87.3617 57.4548 87.0557 57.6729C86.7497 57.891 86.3395 58 85.8252 58H85.5127V57.0137L85.708 56.999C85.9912 56.973 86.2093 56.8737 86.3623 56.7012C86.5186 56.5286 86.6357 56.2682 86.7139 55.9199C86.7952 55.5684 86.8522 55.0524 86.8848 54.3721L87.0215 50.8906H91.6064ZM94.3115 53.6104H95.7666C96.2874 53.6104 96.7415 53.6999 97.1289 53.8789C97.5163 54.0579 97.8109 54.3118 98.0127 54.6406C98.2145 54.9694 98.3154 55.3503 98.3154 55.7832C98.3154 56.4473 98.0892 56.9811 97.6367 57.3848C97.1875 57.7884 96.5739 57.9935 95.7959 58H93.0762V50.8906H94.3115V53.6104ZM94.3115 54.6016V57.0137H95.7617C96.1784 57.0137 96.5023 56.9014 96.7334 56.6768C96.9678 56.4489 97.085 56.1478 97.085 55.7734C97.085 55.4154 96.971 55.1322 96.7432 54.9238C96.5153 54.7155 96.1995 54.6081 95.7959 54.6016H94.3115ZM104.043 51.8867H101.826V58H100.601V51.8867H98.4033V50.8906H104.043V51.8867ZM108.374 56.3447H105.62L105.044 58H103.76L106.445 50.8906H107.554L110.244 58H108.955L108.374 56.3447ZM105.967 55.3486H108.027L106.997 52.3994L105.967 55.3486ZM111.045 50.8906H112.28V57.0137H115.41V50.8906H116.646V57.0039H117.505L117.407 59.7139H116.274V58H111.045V50.8906ZM122.881 50.8906H124.116V58H122.881V52.9365L119.761 58H118.525V50.8906H119.761V55.959L122.881 50.8906ZM129.951 50.8906H131.187V58H129.951V52.9365L126.831 58H125.596V50.8906H126.831V55.959L129.951 50.8906ZM46.46 70H45.2295V63.8867H42.0996V70H40.8691V62.8906H46.46V70ZM53.6279 66.6309C53.6279 67.3275 53.5075 67.9395 53.2666 68.4668C53.0257 68.9909 52.6807 69.3945 52.2314 69.6777C51.7855 69.9577 51.2712 70.0977 50.6885 70.0977C50.1123 70.0977 49.598 69.9577 49.1455 69.6777C48.6963 69.3945 48.348 68.9925 48.1006 68.4717C47.8564 67.9508 47.7327 67.3503 47.7295 66.6699V66.2695C47.7295 65.5762 47.8516 64.9642 48.0957 64.4336C48.3431 63.903 48.6898 63.4977 49.1357 63.2178C49.585 62.9346 50.0993 62.793 50.6787 62.793C51.2581 62.793 51.7708 62.9329 52.2168 63.2129C52.666 63.4896 53.0127 63.89 53.2568 64.4141C53.501 64.9349 53.6247 65.542 53.6279 66.2354V66.6309ZM52.3926 66.2598C52.3926 65.472 52.2428 64.8682 51.9434 64.4482C51.6471 64.0283 51.2256 63.8184 50.6787 63.8184C50.1449 63.8184 49.7266 64.0283 49.4238 64.4482C49.1243 64.8649 48.9714 65.4557 48.9648 66.2207V66.6309C48.9648 67.4121 49.1162 68.016 49.4189 68.4424C49.7249 68.8688 50.1481 69.082 50.6885 69.082C51.2354 69.082 51.6553 68.8737 51.9482 68.457C52.2445 68.0404 52.3926 67.4316 52.3926 66.6309V66.2598ZM58.9502 62.8906L61.001 68.3398L63.0469 62.8906H64.6436V70H63.4131V67.6562L63.5352 64.5215L61.4355 70H60.5518L58.457 64.5264L58.5791 67.6562V70H57.3486V62.8906H58.9502ZM70.1758 68.3447H67.4219L66.8457 70H65.5615L68.2471 62.8906H69.3555L72.0459 70H70.7568L70.1758 68.3447ZM67.7686 67.3486H69.8291L68.7988 64.3994L67.7686 67.3486ZM77.4023 63.8867H74.1211V70H72.8906V62.8906H77.4023V63.8867ZM81.4062 68.3447H78.6523L78.0762 70H76.792L79.4775 62.8906H80.5859L83.2764 70H81.9873L81.4062 68.3447ZM78.999 67.3486H81.0596L80.0293 64.3994L78.999 67.3486ZM87.6416 64.8291C87.6416 64.5101 87.5212 64.2562 87.2803 64.0674C87.0394 63.8786 86.7122 63.7842 86.2988 63.7842C85.944 63.7842 85.6478 63.8786 85.4102 64.0674C85.1725 64.2529 85.0537 64.4938 85.0537 64.79H83.8232C83.8232 64.4027 83.9307 64.0576 84.1455 63.7549C84.3604 63.4521 84.6582 63.2178 85.0391 63.0518C85.4199 62.8825 85.8398 62.7979 86.2988 62.7979C87.1126 62.7979 87.7441 62.9753 88.1934 63.3301C88.6458 63.6849 88.8721 64.1813 88.8721 64.8193C88.8721 65.1416 88.7744 65.4378 88.5791 65.708C88.3838 65.9782 88.1104 66.1914 87.7588 66.3477C88.1559 66.4844 88.4587 66.6927 88.667 66.9727C88.8786 67.2493 88.9844 67.5944 88.9844 68.0078C88.9844 68.6458 88.7402 69.1536 88.252 69.5312C87.7637 69.9056 87.1126 70.0928 86.2988 70.0928C85.7975 70.0928 85.3434 70.0033 84.9365 69.8242C84.5329 69.6452 84.2285 69.401 84.0234 69.0918C83.8216 68.7826 83.7207 68.4277 83.7207 68.0273H84.9512C84.9512 68.3333 85.0781 68.5921 85.332 68.8037C85.5859 69.012 85.9082 69.1162 86.2988 69.1162C86.735 69.1162 87.085 69.0137 87.3486 68.8086C87.6156 68.6035 87.749 68.3366 87.749 68.0078C87.749 67.6074 87.6318 67.3177 87.3975 67.1387C87.1663 66.9564 86.8262 66.8652 86.377 66.8652H85.542V65.8887H86.333C87.2054 65.8887 87.6416 65.5355 87.6416 64.8291ZM94.4873 62.8906H95.7227V70H94.4873V64.9365L91.3672 70H90.1318V62.8906H91.3672V67.959L94.4873 62.8906ZM102.847 70H101.616V66.8408H98.4375V70H97.2021V62.8906H98.4375V65.8496H101.616V62.8906H102.847V70ZM106.87 66.6064L108.296 62.8906H109.668L107.192 68.7891L106.968 69.2334C106.642 69.8128 106.115 70.1025 105.386 70.1025L104.878 70.0732L104.888 69.0967C104.966 69.1097 105.104 69.1162 105.303 69.1162C105.654 69.1162 105.902 68.9665 106.045 68.667L106.299 68.0664L103.867 62.8906H105.215L106.87 66.6064Z" fill="black"/>
</svg>
