<svg width="83" height="75" viewBox="0 0 83 75" fill="none" xmlns="http://www.w3.org/2000/svg">
<rect x="0.75" y="45.75" width="81.5" height="28.5" rx="13.25" fill="white" stroke="black" stroke-width="1.5"/>
<path d="M22.5693 57.5645H22.6768C23.2236 57.5645 23.7201 57.6882 24.166 57.9355C24.6152 58.1797 24.9635 58.5247 25.2109 58.9707C25.4616 59.4167 25.5869 59.918 25.5869 60.4746C25.5869 61.028 25.4616 61.526 25.2109 61.9688C24.9635 62.4082 24.6185 62.75 24.1758 62.9941C23.7363 63.2383 23.2432 63.362 22.6963 63.3652H22.5693V64.293H21.3828V63.3652H21.2656C20.7155 63.3652 20.2158 63.2432 19.7666 62.999C19.3174 62.7516 18.9691 62.4082 18.7217 61.9688C18.4775 61.5293 18.3555 61.0345 18.3555 60.4844C18.3555 59.9277 18.4792 59.4264 18.7266 58.9805C18.974 58.5345 19.3206 58.1878 19.7666 57.9404C20.2126 57.6898 20.7122 57.5645 21.2656 57.5645H21.3828V56.5977H22.5693V57.5645ZM21.2656 58.5557C20.7188 58.5557 20.2907 58.7266 19.9814 59.0684C19.6755 59.4102 19.5225 59.8822 19.5225 60.4844C19.5225 61.0703 19.6755 61.5326 19.9814 61.8711C20.2874 62.2064 20.7204 62.374 21.2803 62.374H21.3828V58.5557H21.2656ZM22.5693 58.5557V62.374H22.6865C23.2334 62.374 23.6582 62.2031 23.9609 61.8613C24.2669 61.5195 24.4199 61.0573 24.4199 60.4746C24.4199 59.8789 24.2669 59.4102 23.9609 59.0684C23.6582 58.7266 23.2285 58.5557 22.6719 58.5557H22.5693ZM29.2197 60.6064L30.6455 56.8906H32.0176L29.542 62.7891L29.3174 63.2334C28.9919 63.8128 28.4645 64.1025 27.7354 64.1025L27.2275 64.0732L27.2373 63.0967C27.3154 63.1097 27.4538 63.1162 27.6523 63.1162C28.0039 63.1162 28.2513 62.9665 28.3945 62.667L28.6484 62.0664L26.2168 56.8906H27.5645L29.2197 60.6064ZM39.0977 65.748H37.9258V64H33.2432V65.748H32.0518L32.0127 63.0137H32.584C32.8672 62.7402 33.0934 62.3431 33.2627 61.8223C33.432 61.2982 33.541 60.7057 33.5898 60.0449L33.7754 56.8906H38.2578V63.0137H39.1611L39.0977 65.748ZM33.9805 63.0137H37.0273V57.8867H34.9521L34.835 59.8887C34.7471 61.2266 34.4622 62.2682 33.9805 63.0137ZM42.1934 60.9531H41.3535V64H40.123V56.8906H41.3535V59.8789H42.0322L44.1221 56.8906H45.6357L43.1943 60.2939L45.8506 64H44.3662L42.1934 60.9531ZM52.0518 60.6309C52.0518 61.3275 51.9313 61.9395 51.6904 62.4668C51.4495 62.9909 51.1045 63.3945 50.6553 63.6777C50.2093 63.9577 49.695 64.0977 49.1123 64.0977C48.5361 64.0977 48.0218 63.9577 47.5693 63.6777C47.1201 63.3945 46.7718 62.9925 46.5244 62.4717C46.2803 61.9508 46.1566 61.3503 46.1533 60.6699V60.2695C46.1533 59.5762 46.2754 58.9642 46.5195 58.4336C46.7669 57.903 47.1136 57.4977 47.5596 57.2178C48.0088 56.9346 48.5231 56.793 49.1025 56.793C49.682 56.793 50.1947 56.9329 50.6406 57.2129C51.0898 57.4896 51.4365 57.89 51.6807 58.4141C51.9248 58.9349 52.0485 59.542 52.0518 60.2354V60.6309ZM50.8164 60.2598C50.8164 59.472 50.6667 58.8682 50.3672 58.4482C50.071 58.0283 49.6494 57.8184 49.1025 57.8184C48.5687 57.8184 48.1504 58.0283 47.8477 58.4482C47.5482 58.8649 47.3952 59.4557 47.3887 60.2207V60.6309C47.3887 61.4121 47.54 62.016 47.8428 62.4424C48.1488 62.8688 48.5719 63.082 49.1123 63.082C49.6592 63.082 50.0791 62.8737 50.3721 62.457C50.6683 62.0404 50.8164 61.4316 50.8164 60.6309V60.2598ZM54.5176 61.3584V64H53.2822V56.8906H56.002C56.7962 56.8906 57.4261 57.0973 57.8916 57.5107C58.3604 57.9242 58.5947 58.471 58.5947 59.1514C58.5947 59.848 58.3652 60.39 57.9062 60.7773C57.4505 61.1647 56.8109 61.3584 55.9873 61.3584H54.5176ZM54.5176 60.3672H56.002C56.4414 60.3672 56.7767 60.2646 57.0078 60.0596C57.2389 59.8512 57.3545 59.5518 57.3545 59.1611C57.3545 58.777 57.2373 58.471 57.0029 58.2432C56.7686 58.012 56.4463 57.8932 56.0361 57.8867H54.5176V60.3672ZM64.8154 57.8867H62.5986V64H61.373V57.8867H59.1758V56.8906H64.8154V57.8867Z" fill="black"/>
<circle cx="41" cy="20" r="20" fill="black"/>
<path d="M51.5943 18.2691H31.4154C30.9078 18.2691 30.499 17.8604 30.499 17.3527V16.0186C30.499 11.8678 33.8727 8.49414 38.0189 8.49414H44.9863C49.1326 8.49414 52.5107 11.8678 52.5107 16.0186V17.3527C52.5107 17.8559 52.0975 18.2691 51.5943 18.2691ZM32.3318 16.4318H50.6734V16.0141C50.6734 12.8785 48.1219 10.327 44.9863 10.327H38.0189C34.8834 10.327 32.3318 12.8785 32.3318 16.0141V16.4318Z" fill="white"/>
<path d="M49.5584 30.5061H33.4449C31.8188 30.5061 30.498 29.1854 30.498 27.5592V25.1244C30.498 24.6168 30.9068 24.208 31.4145 24.208H51.5889C52.0965 24.208 52.5053 24.6168 52.5053 25.1244V27.5592C52.5098 29.1854 51.1846 30.5061 49.5584 30.5061ZM32.3309 26.0408V27.5592C32.3309 28.1746 32.8295 28.6732 33.4449 28.6732H49.5584C50.1738 28.6732 50.6725 28.1746 50.6725 27.5592V26.0408H32.3309Z" fill="white"/>
<path d="M31.4148 23.0352C31.0914 23.0352 30.7769 22.8645 30.6107 22.559C30.3681 22.1143 30.5299 21.5572 30.9746 21.3146L32.8613 20.2814C33.9889 19.6615 35.3904 19.6615 36.5224 20.2814C37.1064 20.6004 37.8342 20.6004 38.4181 20.2814L39.2672 19.8143C40.3947 19.1943 41.8008 19.1943 42.9283 19.8143L43.7144 20.2455C44.2984 20.5645 45.0262 20.5645 45.6101 20.2455L46.531 19.7379C47.6586 19.118 49.0601 19.118 50.1922 19.7379L52.0385 20.7531C52.4832 20.9957 52.6449 21.5527 52.4023 21.9975C52.1598 22.4422 51.6027 22.6039 51.158 22.3613L49.3117 21.3506C48.7277 21.0316 48 21.0316 47.416 21.3506L46.4951 21.8582C45.3676 22.4781 43.966 22.4781 42.834 21.8582L42.0478 21.427C41.4639 21.108 40.7361 21.108 40.1521 21.427L39.2986 21.8852C38.1711 22.5051 36.765 22.5051 35.6375 21.8852C35.0535 21.5662 34.3258 21.5662 33.7418 21.8852L31.8551 22.9184C31.7158 22.9992 31.5631 23.0352 31.4148 23.0352Z" fill="white"/>
</svg>
