<svg width="83" height="75" viewBox="0 0 83 75" fill="none" xmlns="http://www.w3.org/2000/svg">
<rect x="0.75" y="45.75" width="81.5" height="28.5" rx="13.25" fill="white" stroke="black" stroke-width="1.5"/>
<path d="M28.5703 57.8867H26.3535V64H25.1279V57.8867H22.9307V56.8906H28.5703V57.8867ZM32.0664 60.6064L33.4922 56.8906H34.8643L32.3887 62.7891L32.1641 63.2334C31.8385 63.8128 31.3112 64.1025 30.582 64.1025L30.0742 64.0732L30.084 63.0967C30.1621 63.1097 30.3005 63.1162 30.499 63.1162C30.8506 63.1162 31.098 62.9665 31.2412 62.667L31.4951 62.0664L29.0635 56.8906H30.4111L32.0664 60.6064ZM39.3369 62.3447H36.583L36.0068 64H34.7227L37.4082 56.8906H38.5166L41.207 64H39.918L39.3369 62.3447ZM36.9297 61.3486H38.9902L37.96 58.3994L36.9297 61.3486ZM47.6963 56.8906V64H46.4658V57.8867H44.2881L44.1611 60.6357C44.1123 61.4951 44.0065 62.1624 43.8438 62.6377C43.6842 63.1097 43.4515 63.4548 43.1455 63.6729C42.8395 63.891 42.4294 64 41.915 64H41.6025V63.0137L41.7979 62.999C42.0811 62.973 42.2992 62.8737 42.4521 62.7012C42.6084 62.5286 42.7256 62.2682 42.8037 61.9199C42.8851 61.5684 42.9421 61.0524 42.9746 60.3721L43.1113 56.8906H47.6963ZM53.3408 60.8262H50.4209V63.0137H53.834V64H49.1855V56.8906H53.7998V57.8867H50.4209V59.8496H53.3408V60.8262ZM60.0742 57.8867H57.8574V64H56.6318V57.8867H54.4346V56.8906H60.0742V57.8867Z" fill="black"/>
<circle cx="41" cy="20" r="20" fill="black"/>
<path d="M32.4349 9.21777V17.072H29.5234V11.3259H28V28.6747H29.5234V22.9287H32.4349V30.7829H54V9.21777H32.4349ZM52.4766 29.2594H33.9583V10.7412H52.4766V29.2594ZM29.5234 18.5953H32.4349V21.4052H29.5234V18.5953Z" fill="white" stroke="white" stroke-width="0.2"/>
<path d="M48.2146 23.6564C49.0215 23.6564 49.7294 23.3717 50.3098 22.8888C50.6738 22.586 51.1112 21.9833 51.1112 21.9833L49.9437 21.0045C49.9437 21.0045 49.582 21.5322 49.2965 21.7512C48.9943 21.983 48.6482 22.1329 48.2146 22.1329C47.0387 22.1329 46.082 21.1763 46.082 20.0003C46.082 18.8244 47.0387 17.8677 48.2146 17.8677C48.6421 17.8677 49.0542 17.9935 49.4065 18.2314L50.0377 18.6578L50.8905 17.3955L50.2593 16.9691C49.6542 16.5603 48.9472 16.3442 48.2146 16.3442C46.1987 16.3442 44.5586 17.9843 44.5586 20.0003C44.5586 22.0163 46.1987 23.6564 48.2146 23.6564Z" fill="white" stroke="white" stroke-width="0.2"/>
<path d="M37.3569 23.6172L38.8025 23.6074L39.9888 19.5054L41.1743 23.6169L42.6189 23.607L44.0212 16.5617L42.527 16.2643L41.7563 20.1368L40.69 16.4387L39.2903 16.4368L38.2209 20.1345L37.4534 16.2544L35.959 16.55L37.3569 23.6172Z" fill="white" stroke="white" stroke-width="0.2"/>
</svg>
