<svg width="20" height="20" viewBox="0 0 20 20" fill="none" xmlns="http://www.w3.org/2000/svg">
<circle cx="10" cy="10" r="10" fill="white"/>
<path fill-rule="evenodd" clip-rule="evenodd" d="M3.5 10C3.5 6.41596 6.41596 3.5 10 3.5C13.584 3.5 16.5 6.41596 16.5 10C16.5 13.584 13.584 16.5 10 16.5C6.41596 16.5 3.5 13.584 3.5 10ZM4.3125 10C4.3125 13.1361 6.86386 15.6875 10 15.6875C13.1361 15.6875 15.6875 13.1361 15.6875 10C15.6875 6.86386 13.1361 4.3125 10 4.3125C6.86386 4.3125 4.3125 6.86386 4.3125 10ZM10 5.93752C10.2244 5.93752 10.4063 6.1194 10.4063 6.34377V9.83179L12.4375 11.863C12.5961 12.0217 12.5961 12.2789 12.4375 12.4375C12.2789 12.5961 12.0217 12.5961 11.863 12.4375L9.59375 10.1682V6.34377C9.59375 6.1194 9.77564 5.93752 10 5.93752Z" fill="black"/>
<path d="M10.4063 9.83179H10.3063V9.87321L10.3355 9.9025L10.4063 9.83179ZM12.4375 11.863L12.3668 11.9337V11.9337L12.4375 11.863ZM11.863 12.4375L11.7923 12.5082L11.863 12.4375ZM9.59375 10.1682H9.49375V10.2096L9.52304 10.2389L9.59375 10.1682ZM10 3.4C6.36073 3.4 3.4 6.36073 3.4 10H3.6C3.6 6.47119 6.47119 3.6 10 3.6V3.4ZM16.6 10C16.6 6.36073 13.6393 3.4 10 3.4V3.6C13.5288 3.6 16.4 6.47119 16.4 10H16.6ZM10 16.6C13.6393 16.6 16.6 13.6393 16.6 10H16.4C16.4 13.5288 13.5288 16.4 10 16.4V16.6ZM3.4 10C3.4 13.6393 6.36073 16.6 10 16.6V16.4C6.47119 16.4 3.6 13.5288 3.6 10H3.4ZM10 15.5875C6.91909 15.5875 4.4125 13.0809 4.4125 10H4.2125C4.2125 13.1914 6.80863 15.7875 10 15.7875V15.5875ZM15.5875 10C15.5875 13.0809 13.0809 15.5875 10 15.5875V15.7875C13.1914 15.7875 15.7875 13.1914 15.7875 10H15.5875ZM10 4.4125C13.0809 4.4125 15.5875 6.91909 15.5875 10H15.7875C15.7875 6.80863 13.1914 4.2125 10 4.2125V4.4125ZM4.4125 10C4.4125 6.91909 6.91909 4.4125 10 4.4125V4.2125C6.80863 4.2125 4.2125 6.80863 4.2125 10H4.4125ZM10.5063 6.34377C10.5063 6.06417 10.2796 5.83752 10 5.83752V6.03752C10.1691 6.03752 10.3063 6.17463 10.3063 6.34377H10.5063ZM10.5063 9.83179V6.34377H10.3063V9.83179H10.5063ZM12.5082 11.7923L10.477 9.76108L10.3355 9.9025L12.3668 11.9337L12.5082 11.7923ZM12.5082 12.5082C12.7059 12.3105 12.7059 11.99 12.5082 11.7923L12.3668 11.9337C12.4864 12.0533 12.4864 12.2472 12.3668 12.3668L12.5082 12.5082ZM11.7923 12.5082C11.99 12.7059 12.3105 12.7059 12.5082 12.5082L12.3668 12.3668C12.2472 12.4864 12.0533 12.4864 11.9337 12.3668L11.7923 12.5082ZM9.52304 10.2389L11.7923 12.5082L11.9337 12.3668L9.66446 10.0975L9.52304 10.2389ZM9.49375 6.34377V10.1682H9.69375V6.34377H9.49375ZM10 5.83752C9.72041 5.83752 9.49375 6.06417 9.49375 6.34377H9.69375C9.69375 6.17463 9.83086 6.03752 10 6.03752V5.83752Z" fill="black"/>
</svg>
