<svg width="30" height="30" viewBox="0 0 30 30" fill="none" xmlns="http://www.w3.org/2000/svg">
<circle cx="15" cy="15" r="15" fill="black"/>
<path d="M14.9625 3.75C11.9983 3.75982 9.15769 4.93914 7.05814 7.03167C4.95858 9.1242 3.76975 11.9608 3.75 14.925C3.75512 16.9284 4.28986 18.8949 5.3 20.625L3.75 26.25L9.49375 24.7C11.1539 25.6763 13.037 26.21 14.9625 26.25C17.951 26.2125 20.8059 25.0062 22.9157 22.8893C25.0256 20.7725 26.2225 17.9136 26.25 14.925C26.2171 11.9519 25.0138 9.11162 22.9009 7.01977C20.788 4.92792 17.9357 3.75311 14.9625 3.75V3.75ZM15 24.3125C13.281 24.2943 11.6013 23.7964 10.15 22.875L9.8 22.6812L6.46875 23.5375L7.35625 20.275L7.13125 19.9312C6.04237 18.1825 5.56535 16.1216 5.77514 14.0723C5.98493 12.023 6.86964 10.1015 8.29025 8.60967C9.71087 7.11785 11.5869 6.14031 13.6235 5.83063C15.6601 5.52096 17.7418 5.89671 19.5417 6.89884C21.3415 7.90097 22.7574 9.47268 23.5668 11.367C24.3763 13.2613 24.5334 15.3709 24.0135 17.3642C23.4936 19.3576 22.3262 21.1217 20.6947 22.3794C19.0631 23.6371 17.06 24.3171 15 24.3125Z" fill="black"/>
<path d="M14.9625 6.93752C12.8396 6.9342 10.8022 7.77348 9.29755 9.27106C7.79293 10.7687 6.94412 12.8021 6.9375 14.925C6.93898 16.4575 7.3722 17.9586 8.1875 19.2563L8.725 20.0563L8.25 21.7875L10 21.3438L10.4313 21.5875L10.7813 21.7813C12.0508 22.5873 13.5212 23.0204 15.025 23.0313C16.0838 23.0288 17.1317 22.8178 18.109 22.4104C19.0862 22.0029 19.9736 21.407 20.7206 20.6566C21.4675 19.9061 22.0593 19.016 22.4622 18.0368C22.8651 17.0577 23.0712 16.0088 23.0688 14.95C23.0663 13.8912 22.8553 12.8433 22.4479 11.8661C22.0404 10.8888 21.4445 10.0014 20.694 9.25446C19.9436 8.50753 19.0534 7.91572 18.0743 7.51282C17.0952 7.10991 16.0463 6.90381 14.9875 6.90627L14.9625 6.93752ZM18.2125 15.725L13.7313 18.85C13.1688 19.2313 12.7063 18.9875 12.7063 18.3V11.7688C12.7063 11.0813 13.1688 10.8375 13.7313 11.225L18.2125 14.3188C18.3391 14.3875 18.4448 14.489 18.5184 14.6128C18.592 14.7365 18.6309 14.8779 18.6309 15.0219C18.6309 15.1659 18.592 15.3072 18.5184 15.431C18.4448 15.5547 18.3391 15.6563 18.2125 15.725Z" fill="black"/>
<path d="M14.9625 3.75C11.9983 3.75982 9.15769 4.93914 7.05814 7.03167C4.95858 9.1242 3.76975 11.9608 3.75 14.925C3.75512 16.9284 4.28986 18.8949 5.3 20.625L3.75 26.25L9.49375 24.7C11.1539 25.6763 13.037 26.21 14.9625 26.25C17.951 26.2125 20.8059 25.0062 22.9157 22.8893C25.0256 20.7725 26.2225 17.9136 26.25 14.925C26.2171 11.9519 25.0138 9.11162 22.9009 7.01977C20.788 4.92792 17.9357 3.75311 14.9625 3.75V3.75ZM15 24.3125C13.281 24.2943 11.6013 23.7964 10.15 22.875L9.8 22.6813L6.46875 23.5375L7.35625 20.275L7.13125 19.9312C6.04237 18.1825 5.56535 16.1216 5.77514 14.0723C5.98493 12.023 6.86964 10.1015 8.29025 8.60967C9.71087 7.11785 11.5869 6.14031 13.6235 5.83063C15.6601 5.52096 17.7418 5.89671 19.5417 6.89884C21.3415 7.90097 22.7574 9.47268 23.5668 11.367C24.3763 13.2613 24.5334 15.3709 24.0135 17.3642C23.4936 19.3576 22.3262 21.1217 20.6947 22.3794C19.0632 23.6371 17.06 24.3171 15 24.3125Z" fill="black" stroke="black" stroke-width="3.75"/>
<path d="M14.9619 5.68752C13.301 5.68762 11.6706 6.13371 10.2411 6.97919C8.81146 7.82467 7.63512 9.03853 6.83492 10.494C6.03472 11.9494 5.64002 13.593 5.69205 15.2531C5.74408 16.9131 6.24093 18.5288 7.1307 19.9313L7.3557 20.275L6.4682 23.5375L9.79945 22.6813L10.1494 22.875C11.6007 23.7964 13.2805 24.2943 14.9994 24.3125C17.4693 24.3075 19.836 23.3216 21.5789 21.5717C23.3218 19.8217 24.2982 17.4511 24.2932 14.9813C24.2882 12.5114 23.3023 10.1447 21.5524 8.40183C19.8024 6.65891 17.4318 5.68255 14.9619 5.68752ZM14.9994 23.0625C13.4957 23.0517 12.0252 22.6186 10.7557 21.8125L10.4057 21.6188L9.99945 21.3438L8.26195 21.7875L8.73695 20.0563L8.19945 19.2563C7.38415 17.9586 6.95093 16.4575 6.94945 14.925C6.94945 12.7867 7.79889 10.736 9.3109 9.22397C10.8229 7.71196 12.8736 6.86252 15.0119 6.86252C17.1503 6.86252 19.201 7.71196 20.713 9.22397C22.225 10.736 23.0744 12.7867 23.0744 14.925C23.0778 17.0734 22.2301 19.1357 20.7168 20.6607C19.2035 22.1857 17.1478 23.0493 14.9994 23.0625Z" fill="white"/>
<path d="M18.2121 14.3189L13.7496 11.2502C13.1871 10.8627 12.7246 11.1064 12.7246 11.7939V18.2752C12.7246 18.9627 13.1871 19.2064 13.7496 18.8252L18.2309 15.7002C18.3505 15.628 18.4492 15.5258 18.5171 15.4037C18.585 15.2816 18.6197 15.1438 18.6178 15.0041C18.6159 14.8644 18.5774 14.7277 18.5063 14.6075C18.4351 14.4872 18.3337 14.3878 18.2121 14.3189Z" fill="white"/>
<path d="M14.9625 6.93752C12.8396 6.9342 10.8022 7.77348 9.29755 9.27107C7.79293 10.7687 6.94412 12.8021 6.9375 14.925C6.93898 16.4575 7.3722 17.9586 8.1875 19.2563L8.725 20.0563L8.25 21.7875L10 21.3438L10.4313 21.5875L10.7813 21.7813C12.0508 22.5873 13.5212 23.0205 15.025 23.0313C16.0838 23.0288 17.1317 22.8178 18.109 22.4104C19.0862 22.0029 19.9736 21.407 20.7206 20.6566C21.4675 19.9061 22.0593 19.016 22.4622 18.0368C22.8651 17.0577 23.0712 16.0088 23.0688 14.95C23.0663 13.8912 22.8553 12.8433 22.4479 11.8661C22.0404 10.8888 21.4445 10.0014 20.694 9.25446C19.9436 8.50753 19.0534 7.91572 18.0743 7.51282C17.0952 7.10991 16.0463 6.90381 14.9875 6.90627L14.9625 6.93752ZM18.2125 15.725L13.7313 18.85C13.1688 19.2313 12.7063 18.9875 12.7063 18.3V11.7688C12.7063 11.0813 13.1688 10.8375 13.7313 11.225L18.2125 14.3188C18.3391 14.3875 18.4448 14.489 18.5184 14.6128C18.592 14.7366 18.6309 14.8779 18.6309 15.0219C18.6309 15.1659 18.592 15.3072 18.5184 15.431C18.4448 15.5547 18.3391 15.6563 18.2125 15.725Z" fill="black"/>
</svg>
