<svg width="20" height="20" viewBox="0 0 20 20" fill="none" xmlns="http://www.w3.org/2000/svg">
<circle cx="10" cy="10" r="10" fill="white"/>
<path d="M11.6978 13.3241C11.0795 14.2072 10.4611 14.9881 10.0435 15.4889L10.0001 15.5374L9.95671 15.4889C9.54448 14.9881 8.92071 14.2126 8.30237 13.3241C6.72397 11.0515 5.88867 9.15053 5.88867 7.82577C5.88867 6.77027 6.31175 5.78478 7.07654 5.04162C7.85218 4.29308 8.88817 3.87842 10.0055 3.87842C11.1175 3.87842 12.1589 4.29308 12.9345 5.04162C13.6993 5.78478 14.1224 6.77027 14.1224 7.82577C14.1169 9.15053 13.2816 11.0515 11.6978 13.3241Z" fill="white" stroke="white" stroke-width="0.5"/>
<path d="M13.8999 4.05632C12.8639 3.05468 11.4807 2.5 9.99998 2.5C8.52464 2.5 7.14151 3.05468 6.10552 4.05632C5.06952 5.05797 4.5 6.39888 4.5 7.82596C4.5 9.45767 5.40039 11.5794 7.17948 14.1266C8.48667 16.0061 9.78302 17.3955 9.83726 17.4547L9.99998 17.6324L10.1627 17.4547C10.1736 17.4385 11.4916 16.033 12.8205 14.1266C14.5996 11.5794 15.5 9.45767 15.5 7.82596C15.5054 6.39888 14.9359 5.05797 13.8999 4.05632ZM11.6977 13.3242C11.0794 14.2074 10.461 14.9883 10.0434 15.4891L9.99998 15.5376L9.95659 15.4891C9.54436 14.9883 8.9206 14.2128 8.30225 13.3242C6.72386 11.0517 5.88856 9.15072 5.88856 7.82596C5.88856 6.77046 6.31163 5.78497 7.07642 5.04181C7.85206 4.29327 8.88805 3.87861 10.0054 3.87861C11.1173 3.87861 12.1588 4.29327 12.9344 5.04181C13.6992 5.78497 14.1223 6.77046 14.1223 7.82596C14.1168 9.15072 13.2815 11.0517 11.6977 13.3242Z" fill="#010101" stroke="white" stroke-width="0.5"/>
<path d="M9.99997 5.59668C8.81211 5.59668 7.85205 6.55524 7.85205 7.72922C7.85205 8.90319 8.81753 9.86175 9.99997 9.86175C11.1824 9.86175 12.1479 8.90319 12.1479 7.72922C12.1479 6.55524 11.1878 5.59668 9.99997 5.59668Z" fill="#010101" stroke="white" stroke-width="0.5"/>
</svg>
