<svg width="30" height="30" viewBox="0 0 30 30" fill="none" xmlns="http://www.w3.org/2000/svg">
<circle cx="15" cy="15" r="15" fill="black"/>
<mask id="path-2-inside-1" fill="white">
<path fill-rule="evenodd" clip-rule="evenodd" d="M24.6912 19.0198C24.644 20.0577 24.479 20.7663 24.238 21.3865C23.7315 22.6962 22.6962 23.7315 21.3865 24.238C20.7665 24.479 20.0577 24.6438 19.02 24.6912C17.9803 24.7386 17.6481 24.75 15.0003 24.75C12.3521 24.75 12.0202 24.7386 10.9802 24.6912C9.9426 24.6438 9.23374 24.479 8.61374 24.238C7.96291 23.9932 7.37374 23.6095 6.88666 23.1133C6.39076 22.6265 6.00705 22.0371 5.76222 21.3865C5.52127 20.7665 5.35623 20.0577 5.30907 19.02C5.26114 17.98 5.25 17.6479 5.25 15C5.25 12.3521 5.26114 12.02 5.30881 10.9802C5.35597 9.94234 5.52075 9.23374 5.7617 8.61348C6.00654 7.96291 6.39051 7.37349 6.88666 6.88666C7.37349 6.39051 7.96291 6.0068 8.61348 5.76196C9.23374 5.52101 9.94234 5.35623 10.9802 5.30881C12.02 5.2614 12.3521 5.25 15 5.25C17.6479 5.25 17.98 5.2614 19.0198 5.30907C20.0577 5.35623 20.7663 5.52101 21.3865 5.7617C22.0371 6.00654 22.6265 6.39051 23.1136 6.88666C23.6095 7.37374 23.9935 7.96291 24.238 8.61348C24.4793 9.23374 24.644 9.94234 24.6914 10.9802C24.7389 12.02 24.75 12.3521 24.75 15C24.75 17.6479 24.7389 17.98 24.6912 19.0198ZM21.8709 8.12847C22.1948 8.443 22.444 8.82619 22.6002 9.24954C22.7339 9.59309 22.8928 10.1095 22.936 11.06C22.9829 12.0881 22.9928 12.3964 22.9928 15C22.9928 17.6033 22.9829 17.9116 22.936 18.94C22.8925 19.8905 22.7337 20.4066 22.6002 20.7502C22.2722 21.6005 21.6002 22.2726 20.7498 22.6006C20.4063 22.7343 19.8899 22.8931 18.9393 22.9364C17.9115 22.9833 17.6032 22.9931 14.9994 22.9931C12.3958 22.9931 12.0877 22.9833 11.0597 22.9364C10.1091 22.8931 9.59272 22.7343 9.24917 22.6006C8.82556 22.4444 8.44263 22.1951 8.1281 21.8713C7.80424 21.5567 7.55526 21.1738 7.39877 20.7502C7.26534 20.4066 7.10652 19.8905 7.06325 18.94C7.01635 17.9116 7.00625 17.6033 7.00625 15C7.00625 12.3964 7.01635 12.0881 7.06325 11.06C7.10652 10.1095 7.26534 9.59309 7.39877 9.24954C7.55526 8.82593 7.8045 8.443 8.12836 8.12847C8.44263 7.80461 8.82582 7.55536 9.24943 7.39913C9.59272 7.2657 10.1091 7.10688 11.0597 7.06335C12.0877 7.01646 12.3961 7.00661 14.9996 7.00661C17.603 7.00661 17.9113 7.01672 18.9396 7.06361C19.8902 7.10688 20.4063 7.2657 20.7498 7.39913C21.1734 7.55536 21.5564 7.80461 21.8709 8.12847ZM9.99276 14.9997C9.99276 17.765 12.2344 20.0064 14.9996 20.0064C17.7646 20.0064 20.0063 17.765 20.0063 14.9997C20.0063 12.2345 17.7646 9.99312 14.9996 9.99312C12.2344 9.99312 9.99276 12.2345 9.99276 14.9997ZM19.0342 9.79518C19.0342 10.4413 19.558 10.9652 20.2042 10.9652C20.8504 10.9652 21.374 10.4413 21.3742 9.79518C21.3742 9.14901 20.8504 8.62514 20.2042 8.62514C19.558 8.62514 19.0342 9.14901 19.0342 9.79518ZM14.9994 18.2498C16.7944 18.2498 18.2494 16.7947 18.2494 14.9998C18.2494 13.2048 16.7944 11.7498 14.9994 11.7498C13.2045 11.7498 11.7494 13.2048 11.7494 14.9998C11.7494 16.7947 13.2045 18.2498 14.9994 18.2498Z"/>
</mask>
<path fill-rule="evenodd" clip-rule="evenodd" d="M24.6912 19.0198C24.644 20.0577 24.479 20.7663 24.238 21.3865C23.7315 22.6962 22.6962 23.7315 21.3865 24.238C20.7665 24.479 20.0577 24.6438 19.02 24.6912C17.9803 24.7386 17.6481 24.75 15.0003 24.75C12.3521 24.75 12.0202 24.7386 10.9802 24.6912C9.9426 24.6438 9.23374 24.479 8.61374 24.238C7.96291 23.9932 7.37374 23.6095 6.88666 23.1133C6.39076 22.6265 6.00705 22.0371 5.76222 21.3865C5.52127 20.7665 5.35623 20.0577 5.30907 19.02C5.26114 17.98 5.25 17.6479 5.25 15C5.25 12.3521 5.26114 12.02 5.30881 10.9802C5.35597 9.94234 5.52075 9.23374 5.7617 8.61348C6.00654 7.96291 6.39051 7.37349 6.88666 6.88666C7.37349 6.39051 7.96291 6.0068 8.61348 5.76196C9.23374 5.52101 9.94234 5.35623 10.9802 5.30881C12.02 5.2614 12.3521 5.25 15 5.25C17.6479 5.25 17.98 5.2614 19.0198 5.30907C20.0577 5.35623 20.7663 5.52101 21.3865 5.7617C22.0371 6.00654 22.6265 6.39051 23.1136 6.88666C23.6095 7.37374 23.9935 7.96291 24.238 8.61348C24.4793 9.23374 24.644 9.94234 24.6914 10.9802C24.7389 12.02 24.75 12.3521 24.75 15C24.75 17.6479 24.7389 17.98 24.6912 19.0198ZM21.8709 8.12847C22.1948 8.443 22.444 8.82619 22.6002 9.24954C22.7339 9.59309 22.8928 10.1095 22.936 11.06C22.9829 12.0881 22.9928 12.3964 22.9928 15C22.9928 17.6033 22.9829 17.9116 22.936 18.94C22.8925 19.8905 22.7337 20.4066 22.6002 20.7502C22.2722 21.6005 21.6002 22.2726 20.7498 22.6006C20.4063 22.7343 19.8899 22.8931 18.9393 22.9364C17.9115 22.9833 17.6032 22.9931 14.9994 22.9931C12.3958 22.9931 12.0877 22.9833 11.0597 22.9364C10.1091 22.8931 9.59272 22.7343 9.24917 22.6006C8.82556 22.4444 8.44263 22.1951 8.1281 21.8713C7.80424 21.5567 7.55526 21.1738 7.39877 20.7502C7.26534 20.4066 7.10652 19.8905 7.06325 18.94C7.01635 17.9116 7.00625 17.6033 7.00625 15C7.00625 12.3964 7.01635 12.0881 7.06325 11.06C7.10652 10.1095 7.26534 9.59309 7.39877 9.24954C7.55526 8.82593 7.8045 8.443 8.12836 8.12847C8.44263 7.80461 8.82582 7.55536 9.24943 7.39913C9.59272 7.2657 10.1091 7.10688 11.0597 7.06335C12.0877 7.01646 12.3961 7.00661 14.9996 7.00661C17.603 7.00661 17.9113 7.01672 18.9396 7.06361C19.8902 7.10688 20.4063 7.2657 20.7498 7.39913C21.1734 7.55536 21.5564 7.80461 21.8709 8.12847ZM9.99276 14.9997C9.99276 17.765 12.2344 20.0064 14.9996 20.0064C17.7646 20.0064 20.0063 17.765 20.0063 14.9997C20.0063 12.2345 17.7646 9.99312 14.9996 9.99312C12.2344 9.99312 9.99276 12.2345 9.99276 14.9997ZM19.0342 9.79518C19.0342 10.4413 19.558 10.9652 20.2042 10.9652C20.8504 10.9652 21.374 10.4413 21.3742 9.79518C21.3742 9.14901 20.8504 8.62514 20.2042 8.62514C19.558 8.62514 19.0342 9.14901 19.0342 9.79518ZM14.9994 18.2498C16.7944 18.2498 18.2494 16.7947 18.2494 14.9998C18.2494 13.2048 16.7944 11.7498 14.9994 11.7498C13.2045 11.7498 11.7494 13.2048 11.7494 14.9998C11.7494 16.7947 13.2045 18.2498 14.9994 18.2498Z" fill="white"/>
<path d="M24.238 21.3865L24.0283 21.305L24.0282 21.3054L24.238 21.3865ZM24.6912 19.0198L24.4664 19.0094L24.4664 19.0095L24.6912 19.0198ZM21.3865 24.238L21.3054 24.0282L21.305 24.0283L21.3865 24.238ZM19.02 24.6912L19.0303 24.916H19.0303L19.02 24.6912ZM10.9802 24.6912L10.97 24.916H10.97L10.9802 24.6912ZM8.61374 24.238L8.69525 24.0283L8.69296 24.0274L8.61374 24.238ZM6.88666 23.1133L7.04725 22.9557L7.04428 22.9528L6.88666 23.1133ZM5.76222 21.3865L5.97281 21.3073L5.97194 21.305L5.76222 21.3865ZM5.30907 19.02L5.53384 19.0098L5.53383 19.0097L5.30907 19.02ZM5.30881 10.9802L5.53358 10.9906L5.53358 10.9905L5.30881 10.9802ZM5.7617 8.61348L5.97144 8.69496L5.97228 8.69273L5.7617 8.61348ZM6.88666 6.88666L7.04427 7.04729L7.04726 7.04424L6.88666 6.88666ZM8.61348 5.76196L8.69274 5.97255L8.69495 5.97169L8.61348 5.76196ZM10.9802 5.30881L10.97 5.08405L10.97 5.08405L10.9802 5.30881ZM19.0198 5.30907L19.0094 5.53384L19.0095 5.53384L19.0198 5.30907ZM21.3865 5.7617L21.3051 5.97147L21.3073 5.97228L21.3865 5.7617ZM23.1136 6.88666L22.953 7.04431L22.9559 7.04718L23.1136 6.88666ZM24.238 8.61348L24.0274 8.69266L24.0283 8.69503L24.238 8.61348ZM24.6914 10.9802L24.9162 10.97V10.97L24.6914 10.9802ZM22.6002 9.24954L22.3891 9.32745L22.3906 9.33114L22.6002 9.24954ZM21.8709 8.12847L21.7094 8.28529L21.7141 8.28987L21.8709 8.12847ZM22.936 11.06L22.7113 11.0703V11.0703L22.936 11.06ZM22.936 18.94L23.1608 18.9502L23.1608 18.9502L22.936 18.94ZM22.6002 20.7502L22.3905 20.6687L22.3903 20.6692L22.6002 20.7502ZM20.7498 22.6006L20.6689 22.3907L20.6682 22.3909L20.7498 22.6006ZM18.9393 22.9364L18.9291 22.7116L18.9291 22.7116L18.9393 22.9364ZM11.0597 22.9364L11.0699 22.7116H11.0699L11.0597 22.9364ZM9.24917 22.6006L9.33078 22.3909L9.32703 22.3895L9.24917 22.6006ZM8.1281 21.8713L8.28957 21.7144L8.28486 21.7099L8.1281 21.8713ZM7.39877 20.7502L7.60985 20.6722L7.6085 20.6687L7.39877 20.7502ZM7.06325 18.94L7.28801 18.9297L7.28801 18.9297L7.06325 18.94ZM7.06325 11.06L7.28801 11.0703L7.28801 11.0703L7.06325 11.06ZM7.39877 9.24954L7.60853 9.33101L7.60982 9.32751L7.39877 9.24954ZM8.12836 8.12847L8.28519 8.28994L8.28983 8.28516L8.12836 8.12847ZM9.24943 7.39913L9.3273 7.61026L9.33094 7.60885L9.24943 7.39913ZM11.0597 7.06335L11.0494 6.83859L11.0494 6.83859L11.0597 7.06335ZM18.9396 7.06361L18.9293 7.28838L18.9294 7.28838L18.9396 7.06361ZM20.7498 7.39913L20.6684 7.6089L20.672 7.61023L20.7498 7.39913ZM21.3742 9.79518L21.5992 9.79527V9.79518H21.3742ZM24.4478 21.468C24.6986 20.8223 24.8678 20.0893 24.916 19.03L24.4664 19.0095C24.4202 20.026 24.2594 20.7102 24.0283 21.305L24.4478 21.468ZM21.4677 24.4479C22.8365 23.9185 23.9185 22.8365 24.4479 21.4677L24.0282 21.3054C23.5445 22.5559 22.5559 23.5445 21.3054 24.0282L21.4677 24.4479ZM19.0303 24.916C20.0892 24.8676 20.8225 24.6986 21.468 24.4478L21.305 24.0283C20.7105 24.2594 20.0261 24.42 19.0097 24.4664L19.0303 24.916ZM15.0003 24.975C17.6493 24.975 17.9854 24.9636 19.0303 24.916L19.0098 24.4664C17.9752 24.5136 17.647 24.525 15.0003 24.525V24.975ZM10.97 24.916C12.0151 24.9636 12.351 24.975 15.0003 24.975V24.525C12.3533 24.525 12.0254 24.5136 10.9905 24.4664L10.97 24.916ZM8.53224 24.4478C9.17772 24.6986 9.91102 24.8676 10.97 24.916L10.9905 24.4664C9.97419 24.42 9.28976 24.2594 8.69524 24.0283L8.53224 24.4478ZM6.7261 23.271C7.23612 23.7905 7.85304 24.1923 8.53452 24.4486L8.69296 24.0274C8.07278 23.7941 7.51137 23.4285 7.04722 22.9557L6.7261 23.271ZM5.55164 21.4658C5.80799 22.1469 6.20976 22.7641 6.72904 23.2739L7.04428 22.9528C6.57177 22.4889 6.20612 21.9272 5.9728 21.3073L5.55164 21.4658ZM5.0843 19.0302C5.13243 20.0893 5.30166 20.8226 5.5525 21.468L5.97194 21.305C5.74087 20.7105 5.58002 20.026 5.53384 19.0098L5.0843 19.0302ZM5.025 15C5.025 17.649 5.03614 17.9852 5.08431 19.0304L5.53383 19.0097C5.48614 17.9749 5.475 17.6468 5.475 15H5.025ZM5.08405 10.9699C5.03614 12.0148 5.025 12.351 5.025 15H5.475C5.475 12.3532 5.48614 12.0251 5.53358 10.9906L5.08405 10.9699ZM5.55197 8.53201C5.30112 9.17773 5.13217 9.91077 5.08404 10.97L5.53358 10.9905C5.57976 9.97392 5.74037 9.28975 5.97143 8.69495L5.55197 8.53201ZM6.72908 6.72606C6.20954 7.23582 5.80749 7.85301 5.55112 8.53423L5.97228 8.69273C6.20558 8.07281 6.57147 7.51115 7.04424 7.04726L6.72908 6.72606ZM8.53423 5.55138C7.85306 5.80773 7.23586 6.20951 6.72606 6.72908L7.04726 7.04424C7.51111 6.5715 8.07276 6.20586 8.69273 5.97254L8.53423 5.55138ZM10.97 5.08405C9.91075 5.13243 9.17772 5.30139 8.53201 5.55223L8.69495 5.97169C9.28975 5.74063 9.97394 5.58002 10.9905 5.53358L10.97 5.08405ZM15 5.025C12.351 5.025 12.0148 5.0364 10.97 5.08405L10.9905 5.53358C12.0251 5.4864 12.3533 5.475 15 5.475V5.025ZM19.0301 5.08431C17.9852 5.0364 17.649 5.025 15 5.025V5.475C17.6468 5.475 17.9749 5.4864 19.0094 5.53384L19.0301 5.08431ZM21.4679 5.55194C20.8222 5.30138 20.0892 5.13243 19.03 5.0843L19.0095 5.53384C20.0261 5.58002 20.7103 5.74063 21.3051 5.97146L21.4679 5.55194ZM23.2742 6.72903C22.7642 6.20954 22.147 5.80749 21.4658 5.55112L21.3073 5.97228C21.9272 6.20558 22.4889 6.57147 22.953 7.04428L23.2742 6.72903ZM24.4486 8.5343C24.1925 7.853 23.7904 7.2361 23.2713 6.72614L22.9559 7.04718C23.4285 7.51139 23.7944 8.07282 24.0274 8.69266L24.4486 8.5343ZM24.9162 10.97C24.8678 9.91075 24.6989 9.17769 24.4477 8.53193L24.0283 8.69503C24.2596 9.28978 24.4202 9.97393 24.4667 10.9905L24.9162 10.97ZM24.975 15C24.975 12.351 24.9639 12.0149 24.9162 10.97L24.4667 10.9905C24.5139 12.0251 24.525 12.3532 24.525 15H24.975ZM24.916 19.0301C24.9639 17.9852 24.975 17.649 24.975 15H24.525C24.525 17.6468 24.5139 17.9749 24.4664 19.0094L24.916 19.0301ZM22.8113 9.17164C22.6435 8.71675 22.3757 8.30502 22.0277 7.96706L21.7141 8.28987C22.0139 8.58097 22.2446 8.93563 22.3892 9.32744L22.8113 9.17164ZM23.1608 11.0498C23.1164 10.0744 22.9524 9.53398 22.8099 9.16794L22.3906 9.33114C22.5155 9.6522 22.6691 10.1445 22.7113 11.0703L23.1608 11.0498ZM23.2178 15C23.2178 12.3955 23.2079 12.0831 23.1608 11.0498L22.7113 11.0703C22.7579 12.0931 22.7678 12.3974 22.7678 15H23.2178ZM23.1608 18.9502C23.2079 17.9167 23.2178 17.6043 23.2178 15H22.7678C22.7678 17.6024 22.7579 17.9066 22.7113 18.9297L23.1608 18.9502ZM22.81 20.8317C22.9521 20.4657 23.1161 19.9256 23.1608 18.9502L22.7113 18.9297C22.6689 19.8555 22.5153 20.3475 22.3905 20.6687L22.81 20.8317ZM20.8308 22.8105C21.7404 22.4597 22.4593 21.7408 22.8102 20.8312L22.3903 20.6692C22.0852 21.4603 21.4599 22.0855 20.6689 22.3907L20.8308 22.8105ZM18.9496 23.1612C19.9249 23.1168 20.4654 22.9527 20.8314 22.8103L20.6682 22.3909C20.3472 22.5159 19.8549 22.6695 18.9291 22.7116L18.9496 23.1612ZM14.9994 23.2181C17.6042 23.2181 17.9166 23.2083 18.9496 23.1611L18.9291 22.7116C17.9065 22.7583 17.6023 22.7681 14.9994 22.7681V23.2181ZM11.0494 23.1611C12.0827 23.2083 12.3948 23.2181 14.9994 23.2181V22.7681C12.3967 22.7681 12.0928 22.7583 11.0699 22.7116L11.0494 23.1611ZM9.16758 22.8103C9.53361 22.9527 10.0741 23.1168 11.0494 23.1612L11.0699 22.7116C10.1441 22.6695 9.65184 22.5159 9.33077 22.3909L9.16758 22.8103ZM7.96669 22.028C8.30463 22.376 8.7161 22.6438 9.17132 22.8117L9.32703 22.3895C8.93503 22.2449 8.58064 22.0143 8.28951 21.7145L7.96669 22.028ZM7.18771 20.8282C7.35582 21.2832 7.62333 21.6947 7.97134 22.0327L8.28486 21.7099C7.98515 21.4188 7.7547 21.0644 7.60982 20.6722L7.18771 20.8282ZM6.83848 18.9502C6.88288 19.9256 7.04691 20.4657 7.18903 20.8317L7.6085 20.6687C7.48376 20.3476 7.33015 19.8555 7.28801 18.9297L6.83848 18.9502ZM6.78125 15C6.78125 17.6043 6.79135 17.9167 6.83848 18.9502L7.28801 18.9297C7.24136 17.9066 7.23125 17.6023 7.23125 15H6.78125ZM6.83848 11.0498C6.79135 12.083 6.78125 12.3954 6.78125 15H7.23125C7.23125 12.3974 7.24136 12.0932 7.28801 11.0703L6.83848 11.0498ZM7.18903 9.16808C7.04691 9.53401 6.88288 10.0744 6.83848 11.0498L7.28801 11.0703C7.33015 10.1445 7.48377 9.65217 7.6085 9.331L7.18903 9.16808ZM7.9716 7.96706C7.62364 8.305 7.35584 8.71644 7.18771 9.17157L7.60982 9.32751C7.75467 8.93542 7.98536 8.581 8.28512 8.28987L7.9716 7.96706ZM9.17158 7.18803C8.71641 7.3559 8.30464 7.62372 7.96689 7.97177L8.28983 8.28516C8.58063 7.98549 8.93523 7.75482 9.32729 7.61023L9.17158 7.18803ZM11.0494 6.83859C10.074 6.88325 9.53363 7.04727 9.16792 7.18942L9.33094 7.60885C9.65182 7.48413 10.1442 7.33051 11.07 7.28812L11.0494 6.83859ZM14.9996 6.78161C12.3951 6.78161 12.0827 6.79146 11.0494 6.83859L11.0699 7.28812C12.0928 7.24146 12.397 7.23161 14.9996 7.23161V6.78161ZM18.9498 6.83885C17.9163 6.79172 17.6039 6.78161 14.9996 6.78161V7.23161C17.602 7.23161 17.9062 7.24172 18.9293 7.28838L18.9498 6.83885ZM20.8313 7.1894C20.4654 7.04728 19.9252 6.88324 18.9498 6.83885L18.9294 7.28838C19.8551 7.33052 20.3472 7.48413 20.6684 7.60887L20.8313 7.1894ZM22.0323 7.97171C21.6944 7.62375 21.2829 7.35592 20.8277 7.18803L20.672 7.61023C21.064 7.75481 21.4184 7.98546 21.7095 8.28522L22.0323 7.97171ZM14.9996 19.7814C12.3586 19.7814 10.2178 17.6407 10.2178 14.9997H9.76776C9.76776 17.8893 12.1101 20.2314 14.9996 20.2314V19.7814ZM19.7812 14.9997C19.7812 17.6407 17.6404 19.7814 14.9996 19.7814V20.2314C17.8889 20.2314 20.2312 17.8893 20.2312 14.9997H19.7812ZM14.9996 10.2181C17.6404 10.2181 19.7812 12.3588 19.7812 14.9997H20.2312C20.2312 12.1102 17.8889 9.76812 14.9996 9.76812V10.2181ZM10.2178 14.9997C10.2178 12.3588 12.3586 10.2181 14.9996 10.2181V9.76812C12.1101 9.76812 9.76776 12.1102 9.76776 14.9997H10.2178ZM20.2042 10.7402C19.6823 10.7402 19.2592 10.3171 19.2592 9.79518H18.8092C18.8092 10.5656 19.4338 11.1902 20.2042 11.1902V10.7402ZM21.1492 9.79509C21.149 10.3171 20.726 10.7402 20.2042 10.7402V11.1902C20.9747 11.1902 21.5989 10.5655 21.5992 9.79527L21.1492 9.79509ZM20.2042 8.85014C20.7261 8.85014 21.1492 9.27328 21.1492 9.79518H21.5992C21.5992 9.02475 20.9746 8.40014 20.2042 8.40014V8.85014ZM19.2592 9.79518C19.2592 9.27328 19.6823 8.85014 20.2042 8.85014V8.40014C19.4338 8.40014 18.8092 9.02475 18.8092 9.79518H19.2592ZM18.0244 14.9998C18.0244 16.6705 16.6701 18.0248 14.9994 18.0248V18.4748C16.9186 18.4748 18.4744 16.919 18.4744 14.9998H18.0244ZM14.9994 11.9748C16.6701 11.9748 18.0244 13.3291 18.0244 14.9998H18.4744C18.4744 13.0806 16.9186 11.5248 14.9994 11.5248V11.9748ZM11.9744 14.9998C11.9744 13.3291 13.3287 11.9748 14.9994 11.9748V11.5248C13.0802 11.5248 11.5244 13.0806 11.5244 14.9998H11.9744ZM14.9994 18.0248C13.3287 18.0248 11.9744 16.6705 11.9744 14.9998H11.5244C11.5244 16.919 13.0802 18.4748 14.9994 18.4748V18.0248Z" fill="black" mask="url(#path-2-inside-1)"/>
</svg>
