<svg width="30" height="30" viewBox="0 0 30 30" fill="none" xmlns="http://www.w3.org/2000/svg">
<circle cx="15" cy="15" r="15" fill="white"/>
<path d="M19.3981 23.7415C17.7171 24.498 16.2601 24.75 14.2708 24.75C9.62003 24.75 5.5293 21.4158 5.5293 15.9247C5.5293 10.2091 9.67579 5.25 16.0081 5.25C20.9392 5.25 24.4693 8.64026 24.4693 13.3471C24.4693 17.4375 22.1719 20.0152 19.1461 20.0152C17.8292 20.0152 16.8768 19.3427 16.7366 17.8577H16.6806C15.8122 19.2866 14.5514 20.0152 13.0664 20.0152C11.2452 20.0152 9.92837 18.6703 9.92837 16.3726C9.92837 12.9546 12.45 9.84469 16.4843 9.84469C17.7171 9.84469 19.1177 10.153 19.8185 10.5452L18.9782 15.7285C18.6982 17.3811 18.8941 18.138 19.6787 18.1657C20.8834 18.1937 22.3962 16.6526 22.3962 13.4309C22.3962 9.78862 20.0428 6.95869 15.6998 6.95869C11.4134 6.95869 7.65876 10.3209 7.65876 15.6721C7.65876 20.3509 10.6566 23.0127 14.8314 23.0127C16.2604 23.0127 17.7735 22.7046 18.8938 22.116L19.3981 23.7415ZM16.9045 12.1704C16.6802 12.1143 16.3999 12.0582 16.0358 12.0582C14.187 12.0582 12.7297 13.8794 12.7297 16.0365C12.7297 17.1011 13.2062 17.7736 14.1306 17.7736C15.1672 17.7736 16.2601 16.4567 16.5121 14.8318L16.9045 12.1704Z" fill="black" stroke="white" stroke-width="0.375"/>
</svg>
