<svg width="40" height="40" viewBox="0 0 40 40" fill="none" xmlns="http://www.w3.org/2000/svg">
<path d="M22.7783 25.7124C21.7665 27.1575 20.7547 28.4353 20.0713 29.2548L20.0002 29.3341L19.9292 29.2548C19.2547 28.4353 18.234 27.1664 17.2222 25.7124C14.6393 21.9936 13.2725 18.8829 13.2725 16.7152C13.2725 14.988 13.9648 13.3754 15.2162 12.1593C16.4855 10.9344 18.1807 10.2559 20.0091 10.2559C21.8286 10.2559 23.5328 10.9344 24.802 12.1593C26.0535 13.3754 26.7458 14.988 26.7458 16.7152C26.7369 18.8829 25.3701 21.9936 22.7783 25.7124Z" fill="white"/>
<path d="M26.3816 10.5467C24.6863 8.90765 22.423 8 20 8C17.5858 8 15.3225 8.90765 13.6272 10.5467C11.9319 12.1858 11 14.38 11 16.7152C11 19.3853 12.4734 22.8573 15.3846 27.0254C17.5236 30.1009 19.6449 32.3744 19.7337 32.4713L20 32.7621L20.2662 32.4713C20.284 32.4449 22.4408 30.1449 24.6153 27.0254C27.5266 22.8573 28.9999 19.3853 28.9999 16.7152C29.0088 14.38 28.0769 12.1858 26.3816 10.5467ZM22.7781 25.7124C21.7662 27.1576 20.7544 28.4354 20.071 29.2549L20 29.3342L19.929 29.2549C19.2544 28.4354 18.2337 27.1664 17.2219 25.7124C14.639 21.9937 13.2722 18.883 13.2722 16.7152C13.2722 14.988 13.9645 13.3754 15.216 12.1593C16.4852 10.9344 18.1804 10.2559 20.0088 10.2559C21.8284 10.2559 23.5325 10.9344 24.8017 12.1593C26.0532 13.3754 26.7455 14.988 26.7455 16.7152C26.7366 18.883 25.3698 21.9937 22.7781 25.7124Z" fill="#DE5617"/>
<path d="M24.8643 15.8276L20.2184 12.0775C20.1554 12.0272 20.0785 12 19.9995 12C19.9204 12 19.8435 12.0272 19.7806 12.0775L15.1391 15.8276C15.0807 15.8757 15.0379 15.9416 15.0168 16.0164C14.9956 16.0911 14.9971 16.1709 15.0211 16.2446C15.0451 16.3184 15.0903 16.3825 15.1505 16.4281C15.2107 16.4736 15.2829 16.4983 15.3571 16.4988H16.4292V20.6245C16.4292 20.7241 16.4669 20.8196 16.5339 20.89C16.6009 20.9605 16.6918 21 16.7866 21H18.5691C19.0002 21 20.0002 21 21.4281 21H23.215C23.3098 21 23.4007 20.9605 23.4677 20.89C23.5348 20.8196 23.5724 20.7241 23.5724 20.6245V16.4988H24.6446C24.7185 16.4982 24.7904 16.4735 24.8504 16.4281C24.9104 16.3827 24.9556 16.3189 24.9796 16.2454C25.003 16.1717 25.0046 16.0923 24.984 16.0176C24.9634 15.943 24.9217 15.8767 24.8643 15.8276Z" fill="#DE5617"/>
<path d="M21 18H19V21H21V18Z" fill="white"/>
</svg>
