<svg width="20" height="20" viewBox="0 0 20 20" fill="none" xmlns="http://www.w3.org/2000/svg">
<circle cx="10" cy="10" r="10" fill="white"/>
<path d="M10 3.5C6.41596 3.5 3.5 6.41596 3.5 10C3.5 13.584 6.41596 16.5 10 16.5C13.584 16.5 16.5 13.584 16.5 10C16.5 6.41596 13.584 3.5 10 3.5ZM10 15.6875C6.86386 15.6875 4.3125 13.1361 4.3125 10C4.3125 6.86386 6.86386 4.3125 10 4.3125C13.1361 4.3125 15.6875 6.86386 15.6875 10C15.6875 13.1361 13.1361 15.6875 10 15.6875Z" fill="black"/>
<path d="M10 3.4C6.36073 3.4 3.4 6.36073 3.4 10H3.6C3.6 6.47119 6.47119 3.6 10 3.6V3.4ZM3.4 10C3.4 13.6393 6.36073 16.6 10 16.6V16.4C6.47119 16.4 3.6 13.5288 3.6 10H3.4ZM10 16.6C13.6393 16.6 16.6 13.6393 16.6 10H16.4C16.4 13.5288 13.5288 16.4 10 16.4V16.6ZM16.6 10C16.6 6.36073 13.6393 3.4 10 3.4V3.6C13.5288 3.6 16.4 6.47119 16.4 10H16.6ZM10 15.5875C6.91909 15.5875 4.4125 13.0809 4.4125 10H4.2125C4.2125 13.1914 6.80863 15.7875 10 15.7875V15.5875ZM4.4125 10C4.4125 6.91909 6.91909 4.4125 10 4.4125V4.2125C6.80863 4.2125 4.2125 6.80863 4.2125 10H4.4125ZM10 4.4125C13.0809 4.4125 15.5875 6.91909 15.5875 10H15.7875C15.7875 6.80863 13.1914 4.2125 10 4.2125V4.4125ZM15.5875 10C15.5875 13.0809 13.0809 15.5875 10 15.5875V15.7875C13.1914 15.7875 15.7875 13.1914 15.7875 10H15.5875Z" fill="black"/>
<path fill-rule="evenodd" clip-rule="evenodd" d="M7 7.33333C7 10.4583 9.54167 13 12.6667 13C12.7551 13 12.8399 12.9649 12.9024 12.9024C12.9649 12.8399 13 12.7551 13 12.6667V11.436C13 11.3476 12.9649 11.2629 12.9024 11.2003C12.8399 11.1378 12.7551 11.1027 12.6667 11.1027C12.1017 11.1049 11.5437 10.9771 11.036 10.7292C10.9965 10.7099 10.9536 10.6986 10.9097 10.696C10.8658 10.6934 10.8219 10.6995 10.7804 10.7139C10.7389 10.7284 10.7006 10.7509 10.6678 10.7802C10.635 10.8095 10.6084 10.845 10.5894 10.8846L10.3494 11.3812C9.62895 10.9679 9.03138 10.3704 8.61792 9.65L9.11625 9.41C9.15581 9.39091 9.19121 9.36419 9.2204 9.33138C9.2496 9.29857 9.27203 9.26031 9.2864 9.2188C9.30076 9.17729 9.30678 9.13336 9.30411 9.08951C9.30144 9.04567 9.29013 9.00279 9.27083 8.96333C9.02278 8.4559 8.89496 7.89815 8.89729 7.33333C8.89729 7.24493 8.86217 7.16014 8.79966 7.09763C8.73715 7.03512 8.65236 7 8.56396 7H7.33333C7.24493 7 7.16014 7.03512 7.09763 7.09763C7.03512 7.16014 7 7.24493 7 7.33333Z" fill="black"/>
</svg>
