<svg width="40" height="40" viewBox="0 0 40 40" fill="none" xmlns="http://www.w3.org/2000/svg">
<path d="M22.7783 25.7124C21.7665 27.1575 20.7547 28.4353 20.0713 29.2548L20.0002 29.3341L19.9292 29.2548C19.2547 28.4353 18.234 27.1664 17.2222 25.7124C14.6393 21.9936 13.2725 18.8829 13.2725 16.7152C13.2725 14.988 13.9648 13.3754 15.2162 12.1593C16.4855 10.9344 18.1807 10.2559 20.0091 10.2559C21.8286 10.2559 23.5328 10.9344 24.802 12.1593C26.0535 13.3754 26.7458 14.988 26.7458 16.7152C26.7369 18.8829 25.3701 21.9936 22.7783 25.7124Z" fill="white"/>
<path d="M26.3816 10.5467C24.6863 8.90765 22.423 8 20 8C17.5858 8 15.3225 8.90765 13.6272 10.5467C11.9319 12.1858 11 14.38 11 16.7152C11 19.3853 12.4734 22.8573 15.3846 27.0254C17.5236 30.1009 19.6449 32.3744 19.7337 32.4713L20 32.7621L20.2662 32.4713C20.284 32.4449 22.4408 30.1449 24.6153 27.0254C27.5266 22.8573 28.9999 19.3853 28.9999 16.7152C29.0088 14.38 28.0769 12.1858 26.3816 10.5467ZM22.7781 25.7124C21.7662 27.1576 20.7544 28.4354 20.071 29.2549L20 29.3342L19.929 29.2549C19.2544 28.4354 18.2337 27.1664 17.2219 25.7124C14.639 21.9937 13.2722 18.883 13.2722 16.7152C13.2722 14.988 13.9645 13.3754 15.216 12.1593C16.4852 10.9344 18.1804 10.2559 20.0088 10.2559C21.8284 10.2559 23.5325 10.9344 24.8017 12.1593C26.0532 13.3754 26.7455 14.988 26.7455 16.7152C26.7366 18.883 25.3698 21.9937 22.7781 25.7124Z" fill="#DE5617"/>
<path d="M20.0001 13.0669C18.0564 13.0669 16.4854 14.6355 16.4854 16.5565C16.4854 18.4775 18.0652 20.0461 20.0001 20.0461C21.935 20.0461 23.5149 18.4775 23.5149 16.5565C23.5149 14.6355 21.9439 13.0669 20.0001 13.0669Z" fill="#DE5617"/>
</svg>
