<svg width="17" height="19" viewBox="0 0 17 19" fill="none" xmlns="http://www.w3.org/2000/svg">
<path d="M0.753906 4.21875C0.753906 3.17188 1.09375 2.32422 1.77344 1.67578C2.45312 1.01953 3.34375 0.691406 4.44531 0.691406C5.5625 0.691406 6.46094 1.01562 7.14062 1.66406C7.82031 2.30469 8.16016 3.17578 8.16016 4.27734V5.12109C8.16016 6.17578 7.82031 7.02344 7.14062 7.66406C6.46094 8.30469 5.57031 8.625 4.46875 8.625C3.35938 8.625 2.46094 8.30469 1.77344 7.66406C1.09375 7.01562 0.753906 6.14453 0.753906 5.05078V4.21875ZM3.00391 5.12109C3.00391 5.58984 3.13672 5.96875 3.40234 6.25781C3.67578 6.53906 4.03125 6.67969 4.46875 6.67969C4.90625 6.67969 5.25391 6.53516 5.51172 6.24609C5.76953 5.95703 5.89844 5.57031 5.89844 5.08594V4.21875C5.89844 3.75 5.76953 3.37109 5.51172 3.08203C5.25391 2.79297 4.89844 2.64844 4.44531 2.64844C4.01562 2.64844 3.66797 2.79297 3.40234 3.08203C3.13672 3.36328 3.00391 3.75781 3.00391 4.26562V5.12109ZM8.91016 13.8164C8.91016 12.7617 9.25391 11.9141 9.94141 11.2734C10.6289 10.625 11.5195 10.3008 12.6133 10.3008C13.7227 10.3008 14.6172 10.6211 15.2969 11.2617C15.9844 11.8945 16.3281 12.7695 16.3281 13.8867V14.7305C16.3281 15.7773 15.9922 16.625 15.3203 17.2734C14.6484 17.9141 13.7539 18.2344 12.6367 18.2344C11.5117 18.2344 10.6094 17.9102 9.92969 17.2617C9.25 16.6133 8.91016 15.7539 8.91016 14.6836V13.8164ZM11.1602 14.7305C11.1602 15.1602 11.3008 15.5273 11.582 15.832C11.8633 16.1367 12.2148 16.2891 12.6367 16.2891C13.5898 16.2891 14.0664 15.7617 14.0664 14.707V13.8164C14.0664 13.3477 13.9336 12.9727 13.668 12.6914C13.4023 12.4023 13.0508 12.2578 12.6133 12.2578C12.1758 12.2578 11.8242 12.4023 11.5586 12.6914C11.293 12.9727 11.1602 13.3594 11.1602 13.8516V14.7305ZM5.13672 16.7227L3.48438 15.832L11.8164 2.49609L13.4688 3.38672L5.13672 16.7227Z" fill="white"/>
</svg>
