<svg width="18" height="18" viewBox="0 0 18 18" fill="none" xmlns="http://www.w3.org/2000/svg">
<g clip-path="url(#clip0)">
<path d="M10.5912 7.97153C11.4699 8.85024 11.4699 10.2749 10.5912 11.1536C9.71252 12.0323 8.28786 12.0323 7.40915 11.1536C6.53044 10.2749 6.53044 8.85024 7.40915 7.97153C8.28786 7.09282 9.71252 7.09282 10.5912 7.97153Z" fill="white"/>
<path d="M15.75 3.37486H14.1953L13.0698 1.12479H4.92917L3.80467 3.37597L2.25225 3.37873C1.01462 3.38094 0.00711222 4.38952 0.00604355 5.62771L0 14.6247C0 15.8656 1.00912 16.8753 2.25008 16.8753H15.75C16.9909 16.8753 18 15.8662 18 14.6252V5.62491C18 4.38399 16.9909 3.37486 15.75 3.37486ZM8.99972 14.0627C6.51837 14.0627 4.49957 12.0439 4.49957 9.56253C4.49957 7.08118 6.51837 5.06238 8.99972 5.06238C11.4811 5.06238 13.4999 7.08118 13.4999 9.56253C13.4999 12.0439 11.4811 14.0627 8.99972 14.0627Z" fill="white"/>
</g>
<defs>
<clipPath id="clip0">
<rect width="18" height="18" fill="white"/>
</clipPath>
</defs>
</svg>
