<svg width="19" height="19" viewBox="0 0 19 19" fill="none" xmlns="http://www.w3.org/2000/svg">
<path d="M9.3 0C4.17195 0 0 4.17195 0 9.3C0 14.4281 4.17195 18.6 9.3 18.6C14.4281 18.6 18.6 14.4281 18.6 9.3C18.6 4.17195 14.4281 0 9.3 0ZM11.5068 11.822H7.09322C6.57091 11.822 6.14746 11.3986 6.14746 10.8763C6.14746 10.354 6.57091 9.93051 7.09322 9.93051H11.5068C12.0291 9.93051 12.4525 10.354 12.4525 10.8763C12.4525 11.3986 12.0291 11.822 11.5068 11.822ZM11.5068 8.66949H7.09322C6.57091 8.66949 6.14746 8.24604 6.14746 7.72373C6.14746 7.20142 6.57091 6.77797 7.09322 6.77797H11.5068C12.0291 6.77797 12.4525 7.20142 12.4525 7.72373C12.4525 8.24604 12.0291 8.66949 11.5068 8.66949Z" fill="white"/>
</svg>
