<svg width="30" height="30" viewBox="0 0 30 30" fill="none" xmlns="http://www.w3.org/2000/svg">
<circle cx="15" cy="15" r="14.5" fill="white" stroke="#999999"/>
<g clip-path="url(#clip0)">
<path d="M9.32478 15.9881C9.37388 15.9961 9.42357 15.9998 9.47329 15.9991L17.9391 15.9991L17.7545 16.085C17.574 16.1704 17.4099 16.2866 17.2693 16.4284L14.8953 18.8025C14.5827 19.1009 14.5301 19.5811 14.7708 19.9401C15.051 20.3227 15.5882 20.4057 15.9708 20.1256C16.0017 20.103 16.0311 20.0783 16.0587 20.0517L20.3517 15.7587C20.6872 15.4236 20.6875 14.88 20.3524 14.5445C20.3522 14.5443 20.3519 14.544 20.3517 14.5438L16.0587 10.2509C15.723 9.91603 15.1793 9.91678 14.8445 10.2525C14.8181 10.279 14.7935 10.3071 14.7708 10.3367C14.5301 10.6957 14.5827 11.1759 14.8953 11.4744L17.2651 13.8527C17.391 13.9788 17.5359 14.0845 17.6944 14.166L17.9519 14.282L9.52054 14.282C9.08193 14.2657 8.69712 14.5721 8.61473 15.0032C8.53882 15.4712 8.85672 15.9122 9.32478 15.9881Z" fill="#999999"/>
</g>
<defs>
<clipPath id="clip0">
<rect width="20" height="20" fill="white" transform="translate(4.60352 5)"/>
</clipPath>
</defs>
</svg>
