<svg width="28" height="28" viewBox="0 0 28 28" fill="none" xmlns="http://www.w3.org/2000/svg">
<path d="M27.9981 5.35268C27.9956 2.78897 26.125 0.909088 23.5646 0.909088C17.1856 0.909088 10.8066 0.91077 4.42762 0.914135C4.08052 0.911563 3.73418 0.946817 3.39473 1.01927C1.35924 1.48189 0.0126167 3.18009 0.00504667 5.29801C-0.00168222 8.80713 -0.00168222 12.3163 0.00504667 15.8254C0.00504667 19.3794 0.00504667 22.9333 0.00504667 26.4873C-0.00110655 26.6661 0.0149982 26.8449 0.0529901 27.0197C0.0901527 27.1796 0.164693 27.3284 0.270494 27.4538C0.376295 27.5793 0.51034 27.6779 0.661627 27.7415C0.812915 27.8051 0.977132 27.8319 1.1408 27.8198C1.30447 27.8076 1.46292 27.7569 1.60316 27.6716C1.78205 27.56 1.95091 27.4331 2.10783 27.2923C3.96921 25.7446 5.82554 24.1902 7.6945 22.651C7.85692 22.526 8.05486 22.4559 8.25972 22.4508C13.3501 22.4407 18.44 22.4376 23.5293 22.4416C26.1191 22.4416 27.9922 20.5777 27.9947 17.9988C28.0004 13.7832 28.0015 9.56778 27.9981 5.35268Z" fill="#5DAC0D"/>
<path d="M20.5491 6.93837C20.3942 6.91334 20.2372 6.90432 20.0806 6.91145H7.67078C7.55859 6.90737 7.44627 6.90961 7.33433 6.91818C6.88182 6.9678 6.55967 7.19995 6.40322 7.6306C6.13996 8.35143 6.66481 9.06049 7.47564 9.06049C9.60618 9.06722 11.7359 9.06049 13.8681 9.06049H15.9827C17.4294 9.06049 18.8752 9.06638 20.3211 9.06049C20.5875 9.06327 20.8455 8.96668 21.0445 8.78958C21.2436 8.61248 21.3695 8.36757 21.3978 8.10262C21.4261 7.83768 21.3546 7.57171 21.1974 7.35661C21.0401 7.1415 20.8084 6.99269 20.5474 6.93921L20.5491 6.93837Z" fill="white"/>
<path d="M20.5491 11.0928C20.3942 11.0677 20.2372 11.0587 20.0806 11.0658H7.67078C7.55859 11.0618 7.44627 11.064 7.33433 11.0726C6.88182 11.1222 6.55967 11.3543 6.40322 11.785C6.13996 12.5058 6.66481 13.2149 7.47564 13.2149C9.60618 13.2216 11.7359 13.2149 13.8681 13.2149H15.9827C17.4294 13.2149 18.8752 13.2208 20.3211 13.2149C20.5875 13.2177 20.8455 13.1211 21.0445 12.944C21.2436 12.7669 21.3695 12.522 21.3978 12.257C21.4261 11.9921 21.3546 11.7261 21.1974 11.511C21.0401 11.2959 20.8084 11.1471 20.5474 11.0936L20.5491 11.0928Z" fill="white"/>
<path d="M15.9904 15.2227C14.5673 15.2118 13.1433 15.2227 11.7201 15.2227H7.48259C6.98465 15.2227 6.61372 15.4389 6.42026 15.8998C6.1183 16.6181 6.65073 17.3692 7.46829 17.3734C9.26154 17.3819 11.0548 17.3734 12.8514 17.3734C13.8938 17.3734 14.9362 17.3734 15.9787 17.3734C16.4623 17.3734 16.824 17.1573 17.0174 16.7123C17.327 15.9957 16.8038 15.2295 15.9904 15.2227Z" fill="white"/>
</svg>
