<svg width="30" height="31" viewBox="0 0 30 31" fill="none" xmlns="http://www.w3.org/2000/svg">
<circle cx="15" cy="15.9091" r="15" fill="white"/>
<path d="M15.0001 0.909088C6.71585 0.909088 0 7.65302 0 15.9719C0 23.4329 5.40783 29.6119 12.4984 30.8085V19.1144H8.87992V14.9062H12.4984V11.8032C12.4984 8.20285 14.6882 6.24088 17.8871 6.24088C19.4191 6.24088 20.7357 6.35552 21.1179 6.40601V10.1693L18.8993 10.1704C17.16 10.1704 16.8247 11.0002 16.8247 12.2183V14.904H20.9748L20.4335 19.1122H16.8247V30.9091C24.2463 30.002 30 23.6656 30 15.9676C30 7.65302 23.2841 0.909088 15.0001 0.909088Z" fill="#1D4BA0"/>
</svg>
