<svg width="30" height="31" viewBox="0 0 30 31" fill="none" xmlns="http://www.w3.org/2000/svg">
<g clip-path="url(#clip0_28_952)">
<path d="M14.9923 30.9091H15.0077C18.9838 30.9088 22.797 29.3291 25.6085 26.5176C28.42 23.7061 29.9997 19.8929 30 15.9168V15.9085C30 11.9304 28.4197 8.11525 25.6068 5.30231C22.7938 2.48938 18.9787 0.909088 15.0006 0.909088C13.0307 0.908933 11.0802 1.29679 9.2602 2.05051C7.44025 2.80423 5.78659 3.90906 4.39364 5.3019C3.00069 6.69473 1.89574 8.34831 1.14188 10.1682C0.38801 11.9881 -6.11907e-09 13.9386 0 15.9085L0 15.9168C0.000313512 19.8929 1.57996 23.7061 4.39149 26.5176C7.20303 29.3291 11.0162 30.9088 14.9923 30.9091Z" fill="#477FC2"/>
<path fill-rule="evenodd" clip-rule="evenodd" d="M14.4414 21.8151H15.5788C15.5788 21.8151 15.9216 21.7773 16.0978 21.5881C16.2739 21.3989 16.2538 21.0892 16.2538 21.0892C16.2538 21.0892 16.2314 19.5629 16.9395 19.3382C17.6477 19.1136 18.5344 20.8125 19.4838 21.4663C20.2026 21.9593 20.7488 21.8517 20.7488 21.8517L23.2895 21.8163C23.2895 21.8163 24.6184 21.7335 23.9882 20.6896C23.9362 20.6033 23.6205 19.9164 22.0966 18.5036C20.5029 17.0246 20.7169 17.2646 22.6357 14.7061C23.805 13.1491 24.272 12.1985 24.1254 11.7907C23.987 11.4029 23.1275 11.5046 23.1275 11.5046L20.2664 11.5235C20.1398 11.508 20.0113 11.5306 19.8976 11.5885C19.789 11.6678 19.702 11.7731 19.6446 11.8947C19.3483 12.6636 18.995 13.4094 18.5876 14.1256C17.3167 16.2868 16.8071 16.3968 16.5991 16.2667C16.1143 15.9534 16.2361 15.01 16.2361 14.3384C16.2361 12.2423 16.5541 11.3686 15.6166 11.1463C15.3057 11.0707 15.0763 11.021 14.2818 11.0127C13.2603 11.0033 12.3973 11.0127 11.9078 11.2563C11.5862 11.4112 11.3309 11.767 11.4846 11.7859C11.6737 11.8108 12.1017 11.9042 12.3287 12.2104C12.6219 12.6088 12.6113 13.5109 12.6113 13.5109C12.6113 13.5109 12.7803 15.9783 12.2176 16.2845C11.8322 16.4949 11.3037 16.0657 10.1675 14.1032C9.78213 13.4205 9.44132 12.7136 9.14724 11.9869C9.0945 11.8638 9.01349 11.7549 8.91078 11.6689C8.77802 11.5808 8.62882 11.5205 8.47216 11.4916L5.75295 11.5081C5.75295 11.5081 5.34507 11.5199 5.19492 11.6973C5.06251 11.8557 5.18428 12.182 5.18428 12.182C5.18428 12.182 7.31236 17.1605 9.723 19.6705C11.9327 21.9712 14.4414 21.8198 14.4414 21.8198V21.8151Z" fill="white"/>
</g>
<defs>
<clipPath id="clip0_28_952">
<rect width="30" height="30" fill="white" transform="translate(0 0.909088)"/>
</clipPath>
</defs>
</svg>
