<svg width="31" height="32" viewBox="0 0 31 32" fill="none" xmlns="http://www.w3.org/2000/svg">
<path d="M21.5376 4.82446C19.0043 3.54231 16.11 3.1429 13.3202 3.69052C10.5304 4.23814 8.00743 5.70094 6.15736 7.84351C4.3073 9.98608 3.23771 12.6838 3.12072 15.5026C3.00372 18.3213 3.84614 21.0971 5.51239 23.3833L3.92943 28.0533L8.79892 26.5064C10.237 27.4503 11.8542 28.0931 13.5515 28.3953C15.2487 28.6976 16.9903 28.6529 18.6696 28.2642C20.3489 27.8754 21.9305 27.1506 23.3175 26.1343C24.7045 25.1179 25.8678 23.8314 26.7362 22.3535C27.6045 20.8756 28.1595 19.2374 28.3673 17.5393C28.575 15.8412 28.4312 14.1188 27.9445 12.4778C27.4578 10.8367 26.6385 9.31148 25.5369 7.9955C24.4352 6.67951 23.0743 5.60047 21.5376 4.82446ZM23.3618 21.7605C23.0043 22.6478 21.3846 23.4577 20.6696 23.4957C19.9546 23.5336 19.934 24.0517 16.0428 22.3588C12.1517 20.666 9.81695 16.568 9.62423 16.2908C9.43151 16.0135 8.11043 14.1426 8.18104 12.2322C8.19263 11.6315 8.33035 11.0397 8.58543 10.4947C8.84051 9.94964 9.20733 9.46336 9.66248 9.06686C9.7989 8.92677 9.96265 8.81571 10.1437 8.74044C10.3248 8.66517 10.5195 8.62727 10.7158 8.62905C10.9792 8.63781 11.2307 8.67867 11.4602 8.68743C11.6897 8.69618 12.0178 8.57797 12.312 9.36312C12.6062 10.1483 13.3094 12.0761 13.4021 12.2716C13.4581 12.3756 13.4875 12.4916 13.4875 12.6095C13.4875 12.7274 13.4581 12.8434 13.4021 12.9473C13.2939 13.1755 13.1543 13.3877 12.9873 13.5778C12.7857 13.7952 12.5783 14.0433 12.3797 14.2287C12.1811 14.414 11.9678 14.6154 12.1796 15.0094C12.7251 16.0225 13.4192 16.9495 14.2392 17.7604C15.1304 18.6071 16.1633 19.2935 17.2918 19.7889C17.6743 19.9961 17.9038 19.9728 18.1392 19.7247C18.3746 19.4766 19.1514 18.6331 19.4265 18.2653C19.7016 17.8975 19.9561 17.9632 20.3092 18.1048C20.6622 18.2463 22.535 19.2504 22.9175 19.4576H22.9278C23.3073 19.6634 23.5677 19.783 23.6634 19.948C23.759 20.1129 23.7207 20.8717 23.3618 21.7605Z" fill="#1ABB06"/>
<path d="M27.8149 6.75965C25.4349 3.7143 21.9717 1.68632 18.134 1.0907C14.2963 0.495068 10.3742 1.37682 7.17026 3.55552C3.96635 5.73423 1.72287 9.04516 0.898898 12.8108C0.0749282 16.5764 0.732766 20.5121 2.7378 23.8124L0 31.9178L8.42083 29.2398C11.4882 30.9172 15.0447 31.4943 18.491 30.874C21.9372 30.2537 25.0626 28.4738 27.3403 25.8343C29.618 23.1948 30.9089 19.857 30.9954 16.3836C31.0818 12.9101 29.9586 9.51327 27.8149 6.76548V6.75965ZM28.0988 18.9586C27.6242 20.9223 26.6793 22.7436 25.3443 24.2682C24.0092 25.7927 22.3234 26.9754 20.4296 27.7162C18.5358 28.457 16.4899 28.7339 14.4652 28.5236C12.4406 28.3133 10.4969 27.6218 8.79891 26.5079L3.92943 28.0534L5.51238 23.3834C4.26783 21.6754 3.47624 19.6843 3.21041 17.5934C2.94458 15.5025 3.21305 13.3789 3.99113 11.4178C4.7692 9.45677 6.0319 7.7213 7.66306 6.37106C9.29422 5.02081 11.2415 4.09914 13.3257 3.69083C15.4099 3.28252 17.5642 3.40068 19.5903 4.03444C21.6164 4.6682 23.4494 5.79721 24.9206 7.31762C26.3917 8.83803 27.4538 10.701 28.0092 12.7352C28.5646 14.7694 28.5954 16.9095 28.0988 18.9586Z" fill="#1ABB06"/>
<path d="M22.9249 19.443H22.9146C22.5321 19.2358 20.6578 18.2303 20.3062 18.0902C19.9546 17.9501 19.7001 17.8756 19.4236 18.2507C19.147 18.6257 18.3717 19.4678 18.1363 19.7101C17.9009 19.9523 17.6714 19.9815 17.2889 19.7743C16.1604 19.2789 15.1275 18.5925 14.2363 17.7457C13.4163 16.9349 12.7222 16.0079 12.1767 14.9948C11.9649 14.6008 12.1767 14.4009 12.3768 14.2141C12.5769 14.0273 12.7828 13.7762 12.9844 13.5632C13.1514 13.3731 13.291 13.1609 13.3992 12.9327C13.4552 12.8288 13.4845 12.7127 13.4845 12.5949C13.4845 12.477 13.4552 12.361 13.3992 12.257C13.3065 12.0615 12.6019 10.1351 12.3091 9.34851C12.0163 8.5619 11.6853 8.68303 11.4573 8.67282C11.2293 8.6626 10.9762 8.6232 10.7129 8.61444C10.5166 8.61266 10.3219 8.65056 10.1408 8.72583C9.95974 8.8011 9.79599 8.91216 9.65957 9.05225C9.20314 9.45066 8.8358 9.9394 8.58117 10.4871C8.32654 11.0347 8.19025 11.6292 8.18107 12.2322C8.11046 14.1425 9.43155 16.0135 9.62427 16.2907C9.81699 16.568 12.1502 20.6689 16.0429 22.3588C19.9355 24.0488 19.9561 23.5336 20.6696 23.4957C21.3831 23.4577 23.0043 22.6478 23.3618 21.7605C23.7193 20.8732 23.7472 20.1012 23.656 19.9363C23.5648 19.7714 23.3044 19.6517 22.9249 19.443Z" fill="white"/>
</svg>
