<svg width="88" height="24" viewBox="0 0 88 24" fill="none" xmlns="http://www.w3.org/2000/svg">
<path d="M33.5178 21.26C31.2991 21.26 29.5485 20.454 28.2658 18.842C26.9831 17.2126 26.3418 14.9246 26.3418 11.978C26.3418 9.10061 26.9745 6.82994 28.2398 5.16593C29.5225 3.50193 31.3598 2.66992 33.7518 2.66992C34.5838 2.66992 35.3292 2.79126 35.9878 3.03392C36.6465 3.25926 37.1838 3.51926 37.5998 3.81393V6.33594C37.1318 6.04127 36.5772 5.76393 35.9358 5.50393C35.2945 5.24393 34.6185 5.11393 33.9078 5.11393C32.3825 5.11393 31.2731 5.67727 30.5798 6.80394C29.8865 7.93061 29.5398 9.65528 29.5398 11.978C29.5398 14.2313 29.8865 15.9386 30.5798 17.1C31.2731 18.244 32.3305 18.816 33.7518 18.816C34.5838 18.816 35.3032 18.6947 35.9098 18.452C36.5165 18.192 37.0798 17.8713 37.5998 17.49V20.012C37.2012 20.2893 36.6638 20.5667 35.9878 20.844C35.3118 21.1213 34.4885 21.26 33.5178 21.26Z" fill="black"/>
<path d="M39.5572 7.92194H49.7492V21H46.6552V10.366H42.6512V21H39.5572V7.92194Z" fill="black"/>
<path d="M51.3141 18.322C51.3141 18.322 51.3747 18.3653 51.4961 18.452C51.6174 18.5213 51.7908 18.556 52.0161 18.556C52.5188 18.556 52.8481 18.296 53.0041 17.776C53.1601 17.256 53.2641 16.3026 53.3161 14.916L53.5761 7.92194H62.4421V21H59.3481V10.366H56.2021L56.0201 15.046C55.9508 17.2126 55.6821 18.79 55.2141 19.778C54.7461 20.766 53.8534 21.26 52.5361 21.26C52.1721 21.26 51.8774 21.2167 51.6521 21.13C51.4267 21.0433 51.3141 21 51.3141 21V18.322Z" fill="black"/>
<path d="M65.0494 7.92194H68.0655V16.008L72.8495 7.92194H75.5275V21H72.5115V12.914L67.7275 21H65.0494V7.92194Z" fill="black"/>
<path d="M87.7197 10.366H84.0797V21H80.9857V10.366H77.3457V7.92194H87.7197V10.366Z" fill="black"/>
<g clip-path="url(#clip0_5998_5294)">
<path d="M12.0385 12.0576L20.4686 20.6903L20.2967 20.847L20.224 20.9157C17.8635 23.0213 14.7705 24.1156 11.611 23.9629C8.4515 23.8103 5.47837 22.4228 3.33186 20.0995C1.18535 17.7761 0.0371905 14.7026 0.134639 11.541C0.232087 8.3793 1.56735 5.38238 3.85287 3.1956C6.20272 1.04518 9.30519 -0.0928626 12.4882 0.02802C15.6712 0.148903 18.6784 1.51897 20.8584 3.84143L12.0385 12.0576Z" fill="#01B94F"/>
<path d="M3.85953 3.19187C6.20904 1.04332 9.31034 -0.0932206 12.4918 0.0283728C15.6732 0.149966 18.6787 1.51991 20.8574 3.84152C20.8574 3.84152 13.845 10.4068 13.7036 10.5214C13.7036 10.5214 12.133 12.0004 12.1445 12.0233C12.1559 12.0462 20.4523 20.656 20.4523 20.656L20.2842 20.8165L20.2116 20.8853C15.259 25.2417 7.66953 25.043 3.18695 20.1974C1.03427 17.8468 -0.102839 14.7411 0.0231244 11.5562C0.149088 8.37132 1.52793 5.3651 3.85953 3.19187Z" fill="url(#paint0_radial_5998_5294)"/>
<path d="M3.86264 3.18428C6.21402 1.03857 9.31548 -0.0953904 12.4963 0.0276109C15.6772 0.150612 18.6818 1.52069 20.8605 3.84157C20.8605 3.84157 14.0354 10.2616 13.7564 10.4871C13.7564 10.4871 12.2278 11.9469 12.2546 11.9928C12.3119 12.1303 20.4402 20.6178 20.4402 20.6178L20.272 20.7783L20.1994 20.8471C15.2582 25.1959 7.66499 24.9819 3.1977 20.1516C1.04825 17.8075 -0.0879413 14.709 0.0366011 11.531C0.161143 8.35305 1.53633 5.353 3.86264 3.18428Z" fill="url(#paint1_radial_5998_5294)"/>
<path d="M3.8711 3.18023C6.22259 1.03733 9.32268 -0.0945107 12.5017 0.0291895C15.6807 0.15289 18.6835 1.5222 20.8613 3.84134C20.8613 3.84134 14.2311 10.1124 13.8031 10.4525C13.8031 10.4525 12.328 11.8894 12.3548 11.9581C12.4427 12.1645 20.4257 20.5832 20.4257 20.5832L20.2537 20.7437L20.1811 20.8087C15.2553 25.146 7.66582 24.9244 3.20617 20.1055C1.06018 17.768 -0.0742793 14.6766 0.0502895 11.5058C0.174858 8.33504 1.54834 5.3422 3.8711 3.18023Z" fill="url(#paint2_radial_5998_5294)"/>
<path d="M3.87584 3.17659C6.22763 1.03535 9.32717 -0.0951074 12.5053 0.0292998C15.6834 0.153707 18.6851 1.52299 20.8623 3.84153C20.8623 3.84153 14.4231 9.95588 13.8537 10.4183C13.8537 10.4183 12.4245 11.836 12.4627 11.9278C12.5773 12.2029 20.4113 20.549 20.4113 20.549L20.2432 20.7057C20.2432 20.7057 20.1706 20.7706 20.1706 20.7745C15.2562 25.0965 7.66674 24.8596 3.21855 20.0598C1.07601 17.7294 -0.0574288 14.6459 0.0657219 11.4827C0.188873 8.31942 1.55861 5.33339 3.87584 3.17659Z" fill="url(#paint3_radial_5998_5294)"/>
<path d="M3.88297 3.16883C6.23535 1.03088 9.3338 -0.0967866 12.5101 0.0290343C15.6863 0.154855 18.6859 1.52408 20.8617 3.84141C20.8617 3.84141 14.6175 9.81818 13.9029 10.3838C13.9029 10.3838 12.5195 11.7786 12.5653 11.8932C12.7106 12.2372 20.3994 20.5106 20.3955 20.5145L20.2274 20.6712L20.1548 20.7399C15.2518 25.0429 7.66622 24.8022 3.2295 20.0139C1.09067 17.6894 -0.0411857 14.6129 0.0812594 11.4565C0.203705 8.30017 1.57049 5.32058 3.88297 3.16883Z" fill="url(#paint4_radial_5998_5294)"/>
<path d="M3.88587 3.1652C6.23854 1.0289 9.33644 -0.0973808 12.5118 0.0291468C15.6871 0.155674 18.6856 1.52487 20.8608 3.8416C20.8608 3.8416 14.8076 9.67315 13.9516 10.3381C13.9516 10.3381 12.6141 11.71 12.6714 11.8476C12.8434 12.2603 20.3831 20.4612 20.3831 20.4612L20.215 20.6561L20.1424 20.721C15.2471 24.9934 7.6653 24.745 3.23622 19.9682C1.10132 17.6504 -0.0288508 14.5815 0.0928922 11.4326C0.214635 8.28376 1.57838 5.31125 3.88587 3.1652Z" fill="url(#paint5_radial_5998_5294)"/>
<path d="M3.89425 3.16132C6.24721 1.02667 9.34457 -0.0982184 12.519 0.0290158C15.6934 0.15625 18.6908 1.52542 20.8654 3.84154C20.8654 3.84154 15.0033 9.52788 14.0059 10.338C14.0059 10.338 12.7104 11.687 12.7753 11.8475C12.9932 12.3099 20.3724 20.442 20.3686 20.442L20.2005 20.5987L20.1278 20.6675C15.2478 24.9437 7.66604 24.6838 3.24842 19.9223C1.11649 17.6115 -0.0126241 14.55 0.108429 11.4084C0.229481 8.26672 1.59083 5.30114 3.89425 3.16132Z" fill="url(#paint6_radial_5998_5294)"/>
<path d="M3.8969 3.15374C6.25064 1.02122 9.34774 -0.101613 12.5212 0.0270425C15.6948 0.155698 18.6908 1.52555 20.8642 3.8416C20.8642 3.8416 15.1931 9.3789 14.0543 10.2846C14.0543 10.2846 12.8047 11.6145 12.8812 11.8132C13.1104 12.3635 20.3559 20.4229 20.3521 20.4229C20.3483 20.4229 20.1954 20.572 20.184 20.5796L20.1114 20.6446C15.2428 24.8941 7.66104 24.6266 3.25489 19.8918C1.12099 17.5867 -0.0101159 14.5286 0.110277 11.3898C0.230669 8.25102 1.59271 5.28852 3.8969 3.15374Z" fill="url(#paint7_radial_5998_5294)"/>
<path d="M3.90554 3.14971C6.25937 1.02 9.3551 -0.100727 12.5268 0.0286272C15.6984 0.157981 18.6926 1.52707 20.8652 3.84139C20.8652 3.84139 15.389 9.23348 14.105 10.25C14.105 10.25 12.9013 11.5569 12.9892 11.7786C13.2452 12.3977 20.3417 20.3845 20.3417 20.3883L20.1735 20.545L20.1009 20.61C15.2438 24.8595 7.66204 24.5805 3.28646 19.8457C1.15503 17.5493 0.0228892 14.5005 0.138983 11.3695C0.255076 8.23857 1.6099 5.28192 3.90554 3.14971Z" fill="url(#paint8_radial_5998_5294)"/>
<path d="M3.90911 3.14608C6.26323 1.01802 9.35841 -0.101317 12.5292 0.0287432C15.6999 0.158803 18.693 1.52787 20.865 3.84159C20.865 3.84159 15.5799 9.08464 14.1392 10.2158C14.1392 10.2158 12.9927 11.5036 13.0768 11.7444C13.3749 12.4208 20.3299 20.335 20.3261 20.3389L20.158 20.4917C20.158 20.4917 20.093 20.5529 20.0854 20.5605C15.2398 24.7947 7.66179 24.5043 3.27092 19.7962C2.2195 18.6611 1.40197 17.33 0.865019 15.8789C0.328063 14.4278 0.0821961 12.8851 0.141458 11.339C0.200719 9.79284 0.563949 8.27353 1.2104 6.86779C1.85686 5.46205 2.77388 4.19741 3.90911 3.14608Z" fill="url(#paint9_radial_5998_5294)"/>
<path d="M3.91626 3.13811C6.27096 1.01333 9.36505 -0.103228 12.534 0.0282449C15.7029 0.159717 18.6939 1.52874 20.8645 3.84126C20.8645 3.84126 15.7743 8.9391 14.2036 10.1811C14.2036 10.1811 13.0916 11.4498 13.1986 11.7097C13.512 12.474 20.3142 20.3118 20.3142 20.3156L20.146 20.4685L20.0734 20.5334C15.2354 24.7447 7.66129 24.4466 3.28571 19.7424C1.16785 17.4567 0.044525 14.4235 0.16277 11.3097C0.281015 8.1959 1.63115 5.25657 3.91626 3.13811Z" fill="url(#paint10_radial_5998_5294)"/>
<path d="M3.92092 3.13459C6.27655 1.01122 9.37073 -0.104058 12.5394 0.0281175C15.708 0.160293 18.6985 1.52939 20.8691 3.84156C20.8691 3.84156 15.9662 8.80947 14.2542 10.1508C14.2542 10.1508 13.1918 11.3928 13.3026 11.6794C13.6466 12.4934 20.3036 20.2739 20.2997 20.2739L20.1316 20.4306L20.059 20.4955C15.2363 24.6991 7.66214 24.3934 3.29802 19.7045C2.24992 18.5761 1.43455 17.2522 0.898545 15.8084C0.362545 14.3646 0.116433 12.8294 0.174286 11.2904C0.232139 9.75143 0.592822 8.23897 1.23571 6.83952C1.87859 5.44007 2.79106 4.18109 3.92092 3.13459Z" fill="url(#paint11_radial_5998_5294)"/>
<path d="M3.92793 3.13057C6.28365 1.01001 9.37645 -0.103166 12.5432 0.029706C15.71 0.162578 18.6987 1.53092 20.8685 3.84136C20.8685 3.84136 16.1604 8.64495 14.3032 10.1162C14.3032 10.1162 13.2867 11.3391 13.409 11.6448C13.7911 12.539 20.2876 20.2393 20.2876 20.2431L20.1195 20.3998C20.1195 20.3998 20.0545 20.4571 20.0507 20.4648C15.2357 24.6684 7.66532 24.3359 3.30885 19.6622C-1.04762 14.9886 -0.8298 7.44501 3.92793 3.13057Z" fill="url(#paint12_radial_5998_5294)"/>
<path d="M3.93131 3.12301C6.2878 1.00457 9.38034 -0.106549 12.5462 0.0277438C15.7121 0.162036 18.6994 1.53106 20.868 3.84144C20.868 3.84144 16.3511 8.49217 14.3716 10.0743C14.3716 10.0743 13.3971 11.2742 13.5308 11.6028C13.9321 12.5659 20.2872 20.1935 20.2872 20.1973L20.119 20.3502L20.0464 20.4151C15.2276 24.592 7.64196 24.2672 3.31606 19.605C-1.00984 14.9428 -0.814946 7.42598 3.93131 3.12301Z" fill="url(#paint13_radial_5998_5294)"/>
<path d="M3.93927 3.11925C6.29584 1.00361 9.387 -0.105411 12.551 0.0295788C15.7151 0.164568 18.7005 1.53284 20.8684 3.8415C20.8684 3.8415 16.5463 8.35083 14.4063 10.0476C14.4063 10.0476 13.4776 11.2284 13.619 11.5762C14.0509 12.6041 20.2531 20.1592 20.2531 20.163L20.085 20.3158L20.0124 20.3808C15.2279 24.5424 7.64227 24.2061 3.32401 19.5592C-0.994247 14.9123 -0.799352 7.40693 3.93927 3.11925Z" fill="url(#paint14_radial_5998_5294)"/>
<path d="M3.9436 3.11539C6.30046 1.0014 9.39108 -0.106239 12.5542 0.0294565C15.7173 0.165151 18.7017 1.5334 20.8689 3.84147C20.8689 3.84147 16.7379 8.20558 14.4565 10.0131C14.4565 10.0131 13.5737 11.1596 13.7266 11.5417C14.1851 12.6308 20.2536 20.1247 20.2536 20.1286L20.0893 20.2814L20.0167 20.3464C15.2246 24.4774 7.64278 24.1487 3.33599 19.5095C-0.970805 14.8702 -0.787374 7.39161 3.9436 3.11539Z" fill="url(#paint15_radial_5998_5294)"/>
<path d="M3.95115 3.10775C6.30964 0.99772 9.39958 -0.106653 12.5612 0.0304367C15.7228 0.167526 18.7056 1.53521 20.8726 3.84147C20.8726 3.84147 16.9327 8.04508 14.5213 9.97875C14.5213 9.97875 13.6844 11.1252 13.8449 11.5073C14.3188 12.6767 20.2535 20.0865 20.2306 20.0904L20.0624 20.2432C20.0401 20.2668 20.0158 20.2886 19.9898 20.3082C15.2245 24.443 7.64268 24.0953 3.34735 19.4675C-0.947972 14.8397 -0.764542 7.37251 3.95115 3.10775Z" fill="url(#paint16_radial_5998_5294)"/>
<path d="M3.95531 3.10401C6.31662 0.997157 9.40843 -0.102387 12.5698 0.0404353C15.7312 0.183257 18.7112 1.55711 20.8729 3.86831C20.8729 3.86831 17.1241 7.91142 14.5561 9.9559C14.5561 9.9559 13.765 11.0718 13.937 11.4845C14.4529 12.7265 20.2195 20.0675 20.2156 20.0713C20.2118 20.0751 20.0743 20.2051 20.0475 20.2242L19.9787 20.2892C15.221 24.3934 7.64302 24.0265 3.35534 19.4217C-0.932345 14.8168 -0.764201 7.35348 3.95531 3.10401Z" fill="url(#paint17_radial_5998_5294)"/>
<path d="M3.96227 3.1001C6.32275 0.99464 9.4131 -0.104083 12.5729 0.0387335C15.7327 0.18155 18.7114 1.55458 20.8723 3.86439C20.8723 3.86439 17.3183 7.77375 14.6051 9.92524C14.6051 9.92524 13.8599 11.0182 14.0395 11.4538C14.586 12.7646 20.2073 20.033 20.1997 20.0368L20.0354 20.1897L19.9628 20.2547C15.2165 24.3436 7.64235 23.9691 3.36613 19.3757C-0.910097 14.7823 -0.745774 7.33429 3.96227 3.1001Z" fill="url(#paint18_radial_5998_5294)"/>
<path d="M3.96682 3.07696C6.32752 0.973575 9.41683 -0.123826 12.5754 0.0189676C15.734 0.161761 18.7117 1.53344 20.873 3.84125C20.873 3.84125 17.5101 7.6054 14.6593 9.86771C14.6593 9.86771 13.9561 10.9377 14.1472 11.3963C14.7204 12.7758 20.1928 19.9755 20.1889 19.9793L20.0208 20.1322L19.9482 20.1933C15.2172 24.2938 7.64307 23.9078 3.37449 19.3335C-0.894084 14.7592 -0.729761 7.31497 3.96682 3.07696Z" fill="url(#paint19_radial_5998_5294)"/>
<path d="M3.97457 3.0772C6.33443 0.97521 9.42229 -0.121372 12.5793 0.0214163C15.7364 0.164204 18.7126 1.53506 20.8731 3.84149C18.9732 5.9957 16.9126 8.00263 14.7091 9.84502C14.7091 9.84502 14.0518 10.8959 14.2543 11.3736C14.8543 12.8219 20.1776 19.9452 20.1738 19.9528L20.0094 20.1018L19.9368 20.1668C15.2135 24.2443 7.64318 23.8507 3.38607 19.2879C-0.871046 14.725 -0.718187 7.28081 3.97457 3.0772Z" fill="url(#paint20_radial_5998_5294)"/>
<path d="M3.97717 3.07715C6.33746 0.976084 9.42511 -0.11989 12.5819 0.022885C15.7386 0.16566 18.7147 1.53589 20.8757 3.84145C19.0024 5.98977 16.9576 7.98222 14.7614 9.79911C14.7614 9.79911 14.1537 10.8271 14.3792 11.3277C15.0097 12.8563 20.1878 19.8992 20.1802 19.9031L20.0159 20.0559L19.9433 20.1209C15.2123 24.1908 7.64196 23.7895 3.39249 19.242C-0.856986 14.6944 -0.704128 7.28077 3.97717 3.07715Z" fill="url(#paint21_radial_5998_5294)"/>
<path d="M3.98493 3.07707C6.34523 0.979229 9.43102 -0.114716 12.5856 0.028027C15.7402 0.17077 18.7146 1.53893 20.8758 3.84136C19.032 5.99123 17.0012 7.97341 14.8073 9.76464C14.8073 9.76464 14.2456 10.7735 14.4634 11.2932C15.1207 12.8944 20.1497 19.8915 20.1459 19.8915C20.1421 19.8915 20.0122 20.0176 19.9778 20.0444L19.909 20.1055C15.2086 24.141 7.64207 23.713 3.40407 19.196C-0.833943 14.6791 -0.692549 7.28069 3.98493 3.07707Z" fill="url(#paint22_radial_5998_5294)"/>
<path d="M3.98987 3.07717C6.34996 0.980485 9.43492 -0.112748 12.5886 0.0299857C15.7423 0.172719 18.7159 1.54016 20.8769 3.84146C19.0629 5.99523 17.0475 7.97097 14.8581 9.74181C14.8581 9.74181 14.3422 10.7277 14.5677 11.2704C15.2594 12.9251 20.1394 19.8381 20.1317 19.842L19.9674 19.991L19.8948 20.056C15.2059 24.0952 7.64319 23.6711 3.41665 19.1503C-0.809893 14.6295 -0.676141 7.24257 3.98987 3.07717Z" fill="url(#paint23_radial_5998_5294)"/>
<path d="M3.99407 3.07727C6.35396 0.981742 9.43808 -0.110779 12.5909 0.0319444C15.7436 0.174668 18.7164 1.54138 20.8773 3.84156C19.0943 5.99911 17.0926 7.9662 14.9044 9.71134C14.9044 9.71134 14.4343 10.6743 14.6713 11.2399C15.3897 12.9634 20.1207 19.8 20.1168 19.8077L19.9487 19.9567L19.8761 20.0217C15.2063 24.0418 7.64357 23.61 3.43995 19.1045C-0.763661 14.599 -0.660482 7.22356 3.99407 3.07727Z" fill="url(#paint24_radial_5998_5294)"/>
<path d="M4.00063 3.07723C6.36011 0.984013 9.44258 -0.107087 12.5935 0.0356177C15.7444 0.178323 18.7156 1.54359 20.8762 3.84153C19.1267 5.99981 17.1426 7.95695 14.9606 9.67691C14.9606 9.67691 14.5326 10.6208 14.781 11.2055C15.5453 12.9978 20.1311 19.7656 20.1043 19.7732L19.94 19.9223L19.8674 19.9834C15.2014 23.9921 7.6425 23.5488 3.43888 19.0586C-0.764738 14.5684 -0.650094 7.20442 4.00063 3.07723Z" fill="url(#paint25_radial_5998_5294)"/>
<path d="M4.00439 3.07731C6.36408 0.986152 9.44551 -0.103637 12.5952 0.0390452C15.7449 0.181728 18.7152 1.54566 20.8762 3.8416C19.1617 6.00457 17.1921 7.95236 15.0102 9.64259C15.0102 9.64259 14.6281 10.5636 14.8841 11.1712C15.6484 13.0322 20.0966 19.7274 20.089 19.7313C20.0813 19.7351 19.9628 19.8497 19.9246 19.8803L19.852 19.9453C15.2013 23.9425 7.64243 23.4916 3.43881 19.0128C-0.764804 14.5341 -0.634875 7.18539 4.00439 3.07731Z" fill="url(#paint26_radial_5998_5294)"/>
<path d="M4.01292 3.0543C6.3753 0.967195 9.4576 -0.117891 12.6065 0.0290648C15.7553 0.176021 18.7231 1.54347 20.8809 3.84153C20.8809 3.84153 19.0542 6.44012 15.0608 9.60812C15.0608 9.60812 14.7245 10.51 14.992 11.1367C15.7945 13.0474 20.0822 19.693 20.0784 19.6968L19.9102 19.8458L19.8414 19.9108C15.1983 23.8928 7.64331 23.4304 3.4397 18.9669C-0.763911 14.5034 -0.622516 7.1662 4.01292 3.0543Z" fill="url(#paint27_radial_5998_5294)"/>
<path d="M4.01556 3.04653C6.37911 0.962443 9.46095 -0.120005 12.6086 0.0283556C15.7563 0.176716 18.7226 1.54424 20.8797 3.84139C20.8797 3.84139 19.2479 6.27949 15.1093 9.5736C14.9551 10.0715 14.9551 10.6043 15.1093 11.1022C15.9424 13.1008 20.0772 19.6508 20.0772 19.6585L19.9129 19.8075L19.8403 19.8686C15.1933 23.843 7.64213 23.3729 3.46527 18.9247C-0.711598 14.4765 -0.608418 7.15078 4.01556 3.04653Z" fill="url(#paint28_radial_5998_5294)"/>
<path d="M4.02351 3.04288C6.38628 0.959753 9.46715 -0.121813 12.6136 0.0272681C15.76 0.17635 18.7248 1.54437 20.88 3.84156C20.88 3.84156 19.4393 6.13444 15.1478 9.52409C15.0128 10.0269 15.0274 10.5581 15.1898 11.0527C16.0497 13.1468 20.0546 19.628 20.0469 19.6357L19.8826 19.7847L19.8138 19.8459C15.1937 23.7934 7.64244 23.331 3.47322 18.879C-0.696007 14.427 -0.592828 7.13185 4.02351 3.04288Z" fill="url(#paint29_radial_5998_5294)"/>
<path d="M4.02775 3.03881C6.39079 0.957323 9.47112 -0.122869 12.6166 0.0269162C15.7621 0.176702 18.7259 1.54471 20.8804 3.84132C20.8804 3.84132 19.6346 6.00045 15.2094 9.50856C15.1029 10.0174 15.1359 10.5455 15.3049 11.0371C16.1953 13.1733 20.0435 19.5819 20.0359 19.5896L19.8715 19.7348L19.7989 19.7998C15.1903 23.7435 7.64285 23.2505 3.4851 18.8329C-0.737621 14.3542 -0.580941 7.1125 4.02775 3.03881Z" fill="url(#paint30_radial_5998_5294)"/>
<path d="M4.0349 3.0314C6.3989 0.954088 9.47793 -0.122763 12.6213 0.0284163C15.7647 0.179596 18.7262 1.54696 20.8799 3.84156C20.8799 3.84156 19.8252 5.84018 15.2586 9.45911C15.1798 9.97338 15.2323 10.4992 15.4114 10.9877C16.3286 13.1927 20.0277 19.5325 20.0201 19.5363L19.8558 19.6854L19.7832 19.7465C15.1974 23.6635 7.65001 23.1858 3.49225 18.7606C-0.665507 14.3353 -0.566149 7.09362 4.0349 3.0314Z" fill="url(#paint31_radial_5998_5294)"/>
<path d="M4.03869 3.02746C6.40359 0.951531 9.4827 -0.124058 12.6258 0.0278205C15.7689 0.1797 18.73 1.54716 20.8837 3.84143C20.8837 3.84143 20.0201 5.69102 15.312 9.42459C15.2604 9.94325 15.3311 10.4668 15.5184 10.9532C16.4623 13.2575 20.0124 19.5094 20.0048 19.5286L19.8405 19.6776L19.7717 19.7387C15.1859 23.6405 7.64233 23.1322 3.50368 18.7452C-0.699928 14.2893 -0.550891 7.07439 4.03869 3.02746Z" fill="url(#paint32_radial_5998_5294)"/>
<path d="M4.04653 3.02379C6.41107 0.94973 9.48901 -0.124381 12.6306 0.028206C15.7722 0.180793 18.7315 1.54814 20.8839 3.84158C20.8839 3.84158 20.2113 5.56124 15.3619 9.40564C15.3403 9.92776 15.4288 10.4486 15.6218 10.9342C16.5962 13.2921 20.0012 19.4867 19.9935 19.5096L19.8292 19.6548L19.7566 19.716C15.1823 23.5909 7.64253 23.075 3.51152 18.6956C-0.680627 14.2551 -0.539233 7.05543 4.04653 3.02379Z" fill="url(#paint33_radial_5998_5294)"/>
<path d="M4.05101 3.01603C6.41671 0.944999 9.49419 -0.126481 12.6346 0.0275084C15.775 0.181498 18.7328 1.54892 20.8846 3.84147C20.8846 3.84147 20.4069 5.41209 15.4122 9.37113C15.4205 9.9023 15.528 10.4272 15.7294 10.9188C16.7345 13.3302 19.9865 19.4522 19.9789 19.4598L19.8146 19.605L19.7458 19.6662C15.1829 23.5411 7.64319 23.0138 3.52365 18.6496C-0.660856 14.2244 -0.523284 7.03621 4.05101 3.01603Z" fill="url(#paint34_radial_5998_5294)"/>
<path d="M4.05832 3.01217C6.42534 0.949277 9.50009 -0.115365 12.6359 0.0421398C15.7718 0.199645 18.7244 1.56702 20.8728 3.85671C20.8728 3.85671 20.5862 5.26683 15.4501 9.33669C15.4945 9.86962 15.6235 10.3921 15.8323 10.8844C16.8679 13.3683 19.9747 19.4177 19.9671 19.4254L19.8028 19.5706C19.7769 19.5889 19.7526 19.6093 19.7302 19.6317C15.1788 23.4914 7.64285 22.9488 3.53478 18.6037C-0.642086 14.19 -0.512156 7.02089 4.05832 3.01217Z" fill="url(#paint35_radial_5998_5294)"/>
<path d="M4.06139 3.00852C6.42848 0.945195 9.50371 -0.119377 12.6399 0.0388554C15.776 0.197088 18.7285 1.56578 20.8759 3.85688C20.8759 3.85688 20.7841 5.12179 15.5029 9.30248C15.5779 9.83597 15.7218 10.3575 15.9309 10.854C17.0009 13.3953 19.9587 19.3797 19.9511 19.3873L19.7867 19.5325C19.7638 19.5325 19.7371 19.5784 19.7141 19.5937C15.1742 23.4419 7.64211 22.8954 3.54167 18.5581C-0.623732 14.1596 -0.497624 7.00195 4.06139 3.00852Z" fill="url(#paint36_radial_5998_5294)"/>
<path d="M4.0688 3.00066C6.43767 0.940109 9.51307 -0.121951 12.6487 0.0376788C15.7842 0.197309 18.7359 1.5662 20.8833 3.85667C20.8833 3.85667 20.9826 4.98782 15.5599 9.27169C15.671 9.8026 15.8349 10.3211 16.0491 10.8194C17.1382 13.4409 19.9508 19.3451 19.9394 19.3527C19.9279 19.3604 19.8285 19.4559 19.775 19.4979L19.7062 19.5591C15.1778 23.3996 7.64187 22.8341 3.5529 18.512C-0.608674 14.1249 -0.482565 6.98263 4.0688 3.00066Z" fill="url(#paint37_radial_5998_5294)"/>
<path d="M4.07325 2.997C6.44267 0.936502 9.51883 -0.124825 12.6547 0.0362459C15.7906 0.197317 18.7418 1.56823 20.8877 3.86065C20.8877 3.86065 21.1781 4.82748 15.6141 9.23746C15.7569 9.76619 15.9357 10.2846 16.1491 10.789C17.2688 13.464 19.9323 19.3109 19.9247 19.3185L19.7604 19.4637L19.6877 19.5249C15.1746 23.331 7.64249 22.7731 3.56117 18.4701C-0.588939 14.0907 -0.470473 6.96368 4.07325 2.997Z" fill="url(#paint38_radial_5998_5294)"/>
<path d="M4.08114 2.99308C6.45104 0.933069 9.52749 -0.127594 12.6634 0.0341901C15.7993 0.195974 18.7503 1.5676 20.8956 3.86056C20.8956 3.86056 21.3695 4.67835 15.6678 9.1915C15.6678 9.1915 15.878 9.83351 16.2602 10.743C17.4066 13.5021 19.9211 19.2649 19.9135 19.2725L19.7492 19.4177L19.6804 19.4751C15.171 23.2927 7.64275 22.7157 3.57288 18.4242C-0.56959 14.0562 -0.454946 6.94448 4.08114 2.99308Z" fill="url(#paint39_radial_5998_5294)"/>
<path d="M19.8945 19.2496C15.4311 23.2621 7.71551 22.7309 3.58068 18.363C-0.554144 13.995 -0.443321 6.89858 4.08512 2.97011C6.45639 0.911963 9.5332 -0.146782 12.6688 0.0164136C15.8045 0.17961 18.7548 1.55204 20.8996 3.84523C20.8996 3.84523 21.576 4.51781 15.7253 9.15325C15.7138 9.16853 19.9098 19.2381 19.8945 19.2496Z" fill="url(#paint40_radial_5998_5294)"/>
<path d="M15.5447 9.29761C13.7143 10.7994 11.4634 12.5688 8.8457 14.5521C10.7903 16.6551 13.052 18.4409 15.5486 19.8449C17.6924 20.9913 19.37 21.2053 20.1916 20.4792C21.0133 19.7531 20.9139 18.0793 19.9585 15.8935C18.8274 13.4854 17.3394 11.2617 15.5447 9.29761Z" fill="url(#paint41_linear_5998_5294)"/>
<path d="M15.7106 9.14868L14.7934 9.91298C16.4727 11.759 17.8688 13.844 18.9359 16.0999C19.8722 18.2552 19.8492 19.3367 19.5473 19.608C19.2455 19.8794 17.9423 19.9482 15.8596 18.8437C13.5525 17.5354 11.4659 15.8718 9.6765 13.9141L8.65234 14.6783L8.8931 14.9115C13.2305 19.394 17.9232 21.9468 19.9868 21.0182C20.048 20.9876 20.1091 20.957 20.1664 20.9226H20.1894C20.2692 20.8731 20.3446 20.8169 20.4148 20.7545C20.4892 20.6872 20.557 20.613 20.6174 20.5328C21.9663 18.7635 19.918 13.9981 15.8367 9.32829L15.7106 9.14868Z" fill="#84EEB1"/>
</g>
<defs>
<radialGradient id="paint0_radial_5998_5294" cx="0" cy="0" r="1" gradientUnits="userSpaceOnUse" gradientTransform="translate(15.0826 1.3597) rotate(-2.29061) scale(55.0157 40.7126)">
<stop stop-color="#03BA50"/>
<stop offset="0.8" stop-color="#01B64E"/>
</radialGradient>
<radialGradient id="paint1_radial_5998_5294" cx="0" cy="0" r="1" gradientUnits="userSpaceOnUse" gradientTransform="translate(15.0763 1.35532) rotate(-2.29061) scale(54.901 40.6277)">
<stop stop-color="#04BC50"/>
<stop offset="0.8" stop-color="#01B34D"/>
</radialGradient>
<radialGradient id="paint2_radial_5998_5294" cx="0" cy="0" r="1" gradientUnits="userSpaceOnUse" gradientTransform="translate(15.0641 1.36541) rotate(-2.29061) scale(54.7863 40.5427)">
<stop stop-color="#06BD51"/>
<stop offset="0.72" stop-color="#02B24C"/>
<stop offset="0.8" stop-color="#01B04B"/>
</radialGradient>
<radialGradient id="paint3_radial_5998_5294" cx="0" cy="0" r="1" gradientUnits="userSpaceOnUse" gradientTransform="translate(15.0444 1.38287) rotate(-2.29061) scale(54.6716 40.4579)">
<stop stop-color="#08BF52"/>
<stop offset="0.56" stop-color="#04B44D"/>
<stop offset="0.8" stop-color="#01AD4A"/>
</radialGradient>
<radialGradient id="paint4_radial_5998_5294" cx="0" cy="0" r="1" gradientUnits="userSpaceOnUse" gradientTransform="translate(15.0233 1.39933) rotate(-2.29061) scale(54.5568 40.3729)">
<stop stop-color="#0AC053"/>
<stop offset="0.48" stop-color="#05B54E"/>
<stop offset="0.8" stop-color="#01AA49"/>
</radialGradient>
<radialGradient id="paint5_radial_5998_5294" cx="0" cy="0" r="1" gradientUnits="userSpaceOnUse" gradientTransform="translate(14.9983 1.44083) rotate(-1.71836) scale(54.4192 40.283)">
<stop stop-color="#0BC253"/>
<stop offset="0.42" stop-color="#07B74E"/>
<stop offset="0.8" stop-color="#01A848"/>
</radialGradient>
<radialGradient id="paint6_radial_5998_5294" cx="0" cy="0" r="1" gradientUnits="userSpaceOnUse" gradientTransform="translate(14.9674 1.45121) rotate(-1.71836) scale(54.3045 40.198)">
<stop stop-color="#0DC354"/>
<stop offset="0.37" stop-color="#08B84F"/>
<stop offset="0.8" stop-color="#01A546"/>
</radialGradient>
<radialGradient id="paint7_radial_5998_5294" cx="0" cy="0" r="1" gradientUnits="userSpaceOnUse" gradientTransform="translate(15.3698 1.46194) rotate(-1.71836) scale(54.1898 40.0969)">
<stop stop-color="#0FC555"/>
<stop offset="0.33" stop-color="#0ABA50"/>
<stop offset="0.8" stop-color="#01A245"/>
</radialGradient>
<radialGradient id="paint8_radial_5998_5294" cx="0" cy="0" r="1" gradientUnits="userSpaceOnUse" gradientTransform="translate(15.3305 1.4811) rotate(-1.70136) scale(54.6154 40.0121)">
<stop stop-color="#11C656"/>
<stop offset="0.3" stop-color="#0CBB51"/>
<stop offset="0.8" stop-color="#019F44"/>
</radialGradient>
<radialGradient id="paint9_radial_5998_5294" cx="0" cy="0" r="1" gradientUnits="userSpaceOnUse" gradientTransform="translate(15.3168 1.5009) rotate(-1.70135) scale(54.4996 39.9272)">
<stop stop-color="#12C856"/>
<stop offset="0.28" stop-color="#0EBD51"/>
<stop offset="0.77" stop-color="#029E44"/>
<stop offset="0.8" stop-color="#019C43"/>
</radialGradient>
<radialGradient id="paint10_radial_5998_5294" cx="0" cy="0" r="1" gradientUnits="userSpaceOnUse" gradientTransform="translate(15.3029 1.52705) rotate(-1.70135) scale(54.3799 39.8395)">
<stop stop-color="#14C957"/>
<stop offset="0.26" stop-color="#0FBE52"/>
<stop offset="0.72" stop-color="#049F44"/>
<stop offset="0.8" stop-color="#019941"/>
</radialGradient>
<radialGradient id="paint11_radial_5998_5294" cx="0" cy="0" r="1" gradientUnits="userSpaceOnUse" gradientTransform="translate(15.2789 1.55984) rotate(-1.70136) scale(54.264 39.7547)">
<stop stop-color="#16CB58"/>
<stop offset="0.24" stop-color="#11C053"/>
<stop offset="0.66" stop-color="#06A145"/>
<stop offset="0.8" stop-color="#019640"/>
</radialGradient>
<radialGradient id="paint12_radial_5998_5294" cx="0" cy="0" r="1" gradientUnits="userSpaceOnUse" gradientTransform="translate(15.2497 1.59507) rotate(-1.70135) scale(54.1482 39.6698)">
<stop stop-color="#18CC59"/>
<stop offset="0.23" stop-color="#13C154"/>
<stop offset="0.62" stop-color="#07A246"/>
<stop offset="0.8" stop-color="#01933F"/>
</radialGradient>
<radialGradient id="paint13_radial_5998_5294" cx="0" cy="0" r="1" gradientUnits="userSpaceOnUse" gradientTransform="translate(15.2206 1.63745) rotate(-1.70135) scale(54.0285 39.5821)">
<stop stop-color="#19CD59"/>
<stop offset="0.21" stop-color="#15C254"/>
<stop offset="0.59" stop-color="#09A347"/>
<stop offset="0.8" stop-color="#01903E"/>
</radialGradient>
<radialGradient id="paint14_radial_5998_5294" cx="0" cy="0" r="1" gradientUnits="userSpaceOnUse" gradientTransform="translate(15.1847 1.68287) rotate(-1.70135) scale(53.9126 39.4972)">
<stop stop-color="#1BCF5A"/>
<stop offset="0.2" stop-color="#17C455"/>
<stop offset="0.56" stop-color="#0BA547"/>
<stop offset="0.8" stop-color="#018D3C"/>
</radialGradient>
<radialGradient id="paint15_radial_5998_5294" cx="0" cy="0" r="1" gradientUnits="userSpaceOnUse" gradientTransform="translate(15.1452 1.5168) rotate(-1.13442) scale(53.7836 39.4114)">
<stop stop-color="#1DD05B"/>
<stop offset="0.19" stop-color="#18C556"/>
<stop offset="0.54" stop-color="#0CA648"/>
<stop offset="0.8" stop-color="#018B3B"/>
</radialGradient>
<radialGradient id="paint16_radial_5998_5294" cx="0" cy="0" r="1" gradientUnits="userSpaceOnUse" gradientTransform="translate(15.1012 1.55126) rotate(-1.13442) scale(53.6639 39.3238)">
<stop stop-color="#1ED25B"/>
<stop offset="0.18" stop-color="#1AC756"/>
<stop offset="0.51" stop-color="#0EA848"/>
<stop offset="0.8" stop-color="#01883A"/>
</radialGradient>
<radialGradient id="paint17_radial_5998_5294" cx="0" cy="0" r="1" gradientUnits="userSpaceOnUse" gradientTransform="translate(15.0578 1.5849) rotate(-1.13442) scale(53.5481 39.2389)">
<stop stop-color="#20D35C"/>
<stop offset="0.18" stop-color="#1BC857"/>
<stop offset="0.49" stop-color="#0FA949"/>
<stop offset="0.8" stop-color="#018539"/>
</radialGradient>
<radialGradient id="paint18_radial_5998_5294" cx="0" cy="0" r="1" gradientUnits="userSpaceOnUse" gradientTransform="translate(15.0057 1.63189) rotate(-1.13442) scale(53.4323 39.154)">
<stop stop-color="#22D55D"/>
<stop offset="0.17" stop-color="#1DCA58"/>
<stop offset="0.47" stop-color="#11AB4A"/>
<stop offset="0.8" stop-color="#018237"/>
</radialGradient>
<radialGradient id="paint19_radial_5998_5294" cx="0" cy="0" r="1" gradientUnits="userSpaceOnUse" gradientTransform="translate(14.9473 1.67509) rotate(-1.13442) scale(53.3126 39.0664)">
<stop stop-color="#24D65E"/>
<stop offset="0.16" stop-color="#1FCB59"/>
<stop offset="0.45" stop-color="#13AC4B"/>
<stop offset="0.8" stop-color="#017F36"/>
</radialGradient>
<radialGradient id="paint20_radial_5998_5294" cx="0" cy="0" r="1" gradientUnits="userSpaceOnUse" gradientTransform="translate(14.8846 1.72837) rotate(-1.13442) scale(53.1968 38.9815)">
<stop stop-color="#25D85E"/>
<stop offset="0.15" stop-color="#20CD59"/>
<stop offset="0.43" stop-color="#14AE4B"/>
<stop offset="0.79" stop-color="#017D36"/>
<stop offset="0.8" stop-color="#007C35"/>
</radialGradient>
<radialGradient id="paint21_radial_5998_5294" cx="0" cy="0" r="1" gradientUnits="userSpaceOnUse" gradientTransform="translate(16.04 1.78817) rotate(-1.13442) scale(53.081 38.8862)">
<stop stop-color="#27D95F"/>
<stop offset="0.15" stop-color="#22CE5A"/>
<stop offset="0.42" stop-color="#16AF4C"/>
<stop offset="0.77" stop-color="#027E36"/>
<stop offset="0.8" stop-color="#007934"/>
</radialGradient>
<radialGradient id="paint22_radial_5998_5294" cx="0" cy="0" r="1" gradientUnits="userSpaceOnUse" gradientTransform="translate(15.6448 1.84984) rotate(-1.1233) scale(53.4855 38.7986)">
<stop stop-color="#29DB60"/>
<stop offset="0.14" stop-color="#24D05B"/>
<stop offset="0.4" stop-color="#18B14D"/>
<stop offset="0.74" stop-color="#048037"/>
<stop offset="0.8" stop-color="#007632"/>
</radialGradient>
<radialGradient id="paint23_radial_5998_5294" cx="0" cy="0" r="1" gradientUnits="userSpaceOnUse" gradientTransform="translate(15.5992 1.91857) rotate(-1.1233) scale(53.3686 38.7138)">
<stop stop-color="#2BDC61"/>
<stop offset="0.14" stop-color="#26D15C"/>
<stop offset="0.39" stop-color="#1AB24E"/>
<stop offset="0.71" stop-color="#068138"/>
<stop offset="0.8" stop-color="#007331"/>
</radialGradient>
<radialGradient id="paint24_radial_5998_5294" cx="0" cy="0" r="1" gradientUnits="userSpaceOnUse" gradientTransform="translate(15.5529 1.99404) rotate(-1.1233) scale(53.2477 38.6261)">
<stop stop-color="#2CDE61"/>
<stop offset="0.13" stop-color="#27D35C"/>
<stop offset="0.37" stop-color="#1BB44E"/>
<stop offset="0.69" stop-color="#088339"/>
<stop offset="0.8" stop-color="#007030"/>
</radialGradient>
<radialGradient id="paint25_radial_5998_5294" cx="0" cy="0" r="1" gradientUnits="userSpaceOnUse" gradientTransform="translate(15.5012 1.6114) rotate(-0.561705) scale(53.1231 38.5417)">
<stop stop-color="#2EDF62"/>
<stop offset="0.13" stop-color="#29D45D"/>
<stop offset="0.37" stop-color="#1DB54F"/>
<stop offset="0.67" stop-color="#098439"/>
<stop offset="0.8" stop-color="#006E2F"/>
</radialGradient>
<radialGradient id="paint26_radial_5998_5294" cx="0" cy="0" r="1" gradientUnits="userSpaceOnUse" gradientTransform="translate(15.4427 1.67127) rotate(-0.561705) scale(53.0062 38.4569)">
<stop stop-color="#30E163"/>
<stop offset="0.13" stop-color="#2BD65E"/>
<stop offset="0.35" stop-color="#1FB750"/>
<stop offset="0.65" stop-color="#0B8639"/>
<stop offset="0.8" stop-color="#006B2D"/>
</radialGradient>
<radialGradient id="paint27_radial_5998_5294" cx="0" cy="0" r="1" gradientUnits="userSpaceOnUse" gradientTransform="translate(15.3851 1.7377) rotate(-0.561706) scale(52.8853 38.3692)">
<stop stop-color="#31E263"/>
<stop offset="0.12" stop-color="#2CD75E"/>
<stop offset="0.34" stop-color="#20B850"/>
<stop offset="0.63" stop-color="#0D873A"/>
<stop offset="0.8" stop-color="#00682C"/>
</radialGradient>
<radialGradient id="paint28_radial_5998_5294" cx="0" cy="0" r="1" gradientUnits="userSpaceOnUse" gradientTransform="translate(15.3177 1.80696) rotate(-0.561706) scale(52.7684 38.2843)">
<stop stop-color="#33E364"/>
<stop offset="0.12" stop-color="#2ED85F"/>
<stop offset="0.34" stop-color="#22B951"/>
<stop offset="0.62" stop-color="#0E883B"/>
<stop offset="0.8" stop-color="#00652B"/>
</radialGradient>
<radialGradient id="paint29_radial_5998_5294" cx="0" cy="0" r="1" gradientUnits="userSpaceOnUse" gradientTransform="translate(15.2479 1.88226) rotate(-0.561705) scale(52.6475 38.1967)">
<stop stop-color="#35E565"/>
<stop offset="0.12" stop-color="#30DA60"/>
<stop offset="0.33" stop-color="#24BB52"/>
<stop offset="0.6" stop-color="#108A3C"/>
<stop offset="0.8" stop-color="#00622A"/>
</radialGradient>
<radialGradient id="paint30_radial_5998_5294" cx="0" cy="0" r="1" gradientUnits="userSpaceOnUse" gradientTransform="translate(15.1781 1.96001) rotate(-0.561705) scale(52.5306 38.1118)">
<stop stop-color="#37E666"/>
<stop offset="0.11" stop-color="#32DB61"/>
<stop offset="0.32" stop-color="#26BC53"/>
<stop offset="0.59" stop-color="#128B3C"/>
<stop offset="0.8" stop-color="#005F28"/>
</radialGradient>
<radialGradient id="paint31_radial_5998_5294" cx="0" cy="0" r="1" gradientUnits="userSpaceOnUse" gradientTransform="translate(15.0997 2.04501) rotate(-0.561705) scale(52.4098 38.0241)">
<stop stop-color="#38E866"/>
<stop offset="0.11" stop-color="#33DD61"/>
<stop offset="0.31" stop-color="#27BE53"/>
<stop offset="0.57" stop-color="#148D3D"/>
<stop offset="0.8" stop-color="#005C27"/>
</radialGradient>
<radialGradient id="paint32_radial_5998_5294" cx="0" cy="0" r="1" gradientUnits="userSpaceOnUse" gradientTransform="translate(15.0178 2.13533) rotate(-0.561706) scale(52.2928 37.9393)">
<stop stop-color="#3AE967"/>
<stop offset="0.11" stop-color="#35DE62"/>
<stop offset="0.3" stop-color="#29BF54"/>
<stop offset="0.56" stop-color="#158E3E"/>
<stop offset="0.8" stop-color="#005926"/>
</radialGradient>
<radialGradient id="paint33_radial_5998_5294" cx="0" cy="0" r="1" gradientUnits="userSpaceOnUse" gradientTransform="translate(14.9361 2.22884) rotate(-0.561705) scale(52.1759 37.8545)">
<stop stop-color="#3CEB68"/>
<stop offset="0.11" stop-color="#37E063"/>
<stop offset="0.29" stop-color="#2BC155"/>
<stop offset="0.54" stop-color="#17903F"/>
<stop offset="0.8" stop-color="#005625"/>
</radialGradient>
<radialGradient id="paint34_radial_5998_5294" cx="0" cy="0" r="1" gradientUnits="userSpaceOnUse" gradientTransform="translate(14.8431 2.32886) rotate(-0.561705) scale(52.055 37.7668)">
<stop stop-color="#3EEC69"/>
<stop offset="0.1" stop-color="#39E164"/>
<stop offset="0.29" stop-color="#2DC256"/>
<stop offset="0.53" stop-color="#19913F"/>
<stop offset="0.8" stop-color="#005323"/>
</radialGradient>
<radialGradient id="paint35_radial_5998_5294" cx="0" cy="0" r="1" gradientUnits="userSpaceOnUse" gradientTransform="translate(14.7493 1.7342) scale(51.9356 37.6787)">
<stop stop-color="#3FEE69"/>
<stop offset="0.1" stop-color="#3AE364"/>
<stop offset="0.28" stop-color="#2EC456"/>
<stop offset="0.52" stop-color="#1A9340"/>
<stop offset="0.8" stop-color="#005122"/>
</radialGradient>
<radialGradient id="paint36_radial_5998_5294" cx="0" cy="0" r="1" gradientUnits="userSpaceOnUse" gradientTransform="translate(15.9746 1.81798) scale(52.3228 37.5911)">
<stop stop-color="#41EF6A"/>
<stop offset="0.1" stop-color="#3CE465"/>
<stop offset="0.28" stop-color="#30C557"/>
<stop offset="0.51" stop-color="#1C9441"/>
<stop offset="0.79" stop-color="#015022"/>
<stop offset="0.8" stop-color="#004E21"/>
</radialGradient>
<radialGradient id="paint37_radial_5998_5294" cx="0" cy="0" r="1" gradientUnits="userSpaceOnUse" gradientTransform="translate(15.8988 1.90802) scale(52.2086 37.5091)">
<stop stop-color="#43F16B"/>
<stop offset="0.1" stop-color="#3EE666"/>
<stop offset="0.27" stop-color="#32C758"/>
<stop offset="0.5" stop-color="#1E9642"/>
<stop offset="0.77" stop-color="#035223"/>
<stop offset="0.8" stop-color="#004B20"/>
</radialGradient>
<radialGradient id="paint38_radial_5998_5294" cx="0" cy="0" r="1" gradientUnits="userSpaceOnUse" gradientTransform="translate(15.8277 2.0041) scale(52.0905 37.4243)">
<stop stop-color="#45F26C"/>
<stop offset="0.1" stop-color="#40E767"/>
<stop offset="0.27" stop-color="#34C859"/>
<stop offset="0.49" stop-color="#209742"/>
<stop offset="0.76" stop-color="#055323"/>
<stop offset="0.8" stop-color="#00481E"/>
</radialGradient>
<radialGradient id="paint39_radial_5998_5294" cx="0" cy="0" r="1" gradientUnits="userSpaceOnUse" gradientTransform="translate(15.7522 2.10658) scale(51.9685 37.3366)">
<stop stop-color="#46F46C"/>
<stop offset="0.09" stop-color="#41E967"/>
<stop offset="0.26" stop-color="#35CA59"/>
<stop offset="0.48" stop-color="#229943"/>
<stop offset="0.74" stop-color="#065524"/>
<stop offset="0.8" stop-color="#00451D"/>
</radialGradient>
<radialGradient id="paint40_radial_5998_5294" cx="0" cy="0" r="1" gradientUnits="userSpaceOnUse" gradientTransform="translate(15.6804 2.21476) scale(51.8464 37.2489)">
<stop stop-color="#48F56D"/>
<stop offset="0.09" stop-color="#43EA68"/>
<stop offset="0.25" stop-color="#37CB5A"/>
<stop offset="0.47" stop-color="#239A44"/>
<stop offset="0.73" stop-color="#085625"/>
<stop offset="0.8" stop-color="#00421C"/>
</radialGradient>
<linearGradient id="paint41_linear_5998_5294" x1="16.523" y1="28.9973" x2="12.0519" y2="-3.06485" gradientUnits="userSpaceOnUse">
<stop offset="0.1" stop-color="#FF8475"/>
<stop offset="0.37" stop-color="#E84E43"/>
<stop offset="0.6" stop-color="#D6261F"/>
<stop offset="0.79" stop-color="#CC0E08"/>
<stop offset="0.9" stop-color="#C80500"/>
</linearGradient>
<clipPath id="clip0_5998_5294">
<rect width="24" height="24" fill="white"/>
</clipPath>
</defs>
</svg>
