<svg width="25" height="26" viewBox="0 0 25 26" fill="none" xmlns="http://www.w3.org/2000/svg">
<path d="M4.16666 23.4167H18.75C19.3025 23.4167 19.8324 23.1972 20.2231 22.8065C20.6138 22.4158 20.8333 21.8859 20.8333 21.3334V7.79171L15.625 2.58337H6.24999C5.69746 2.58337 5.16755 2.80287 4.77685 3.19357C4.38615 3.58427 4.16666 4.11417 4.16666 4.66671V8.83337" stroke="white" stroke-width="1.5" stroke-linecap="round" stroke-linejoin="round"/>
<path d="M14.5833 2.58337V6.75004C14.5833 7.30258 14.8028 7.83248 15.1935 8.22318C15.5842 8.61388 16.1141 8.83337 16.6667 8.83337H20.8333M2.08333 16.125H12.5M12.5 16.125L9.37499 19.25M12.5 16.125L9.37499 13" stroke="white" stroke-width="1.5" stroke-linecap="round" stroke-linejoin="round"/>
</svg>
