<svg width="508" height="140" viewBox="0 0 508 140" fill="none" xmlns="http://www.w3.org/2000/svg">
<path d="M470.206 41.9161C469.173 42.7167 468.193 43.5853 467.273 44.5161C466.767 44.2148 466.24 43.9492 465.697 43.721C463.858 43.0564 461.911 42.7463 459.958 42.8066C458.08 42.8013 456.214 43.1185 454.441 43.7448C452.696 44.3622 451.063 45.2647 449.609 46.4163C448.163 47.5598 446.935 48.9578 445.983 50.5428C445.013 52.1608 444.395 53.9685 444.17 55.846C443.94 57.0667 443.963 58.3223 444.239 59.5334C444.514 60.7446 445.036 61.8849 445.77 62.8824C447.553 65.0015 449.783 66.6912 452.297 67.8278C454.157 68.7024 455.954 69.5134 457.688 70.2608C459.116 70.8795 460.399 71.7921 461.456 72.9402C462.355 73.9658 462.654 75.5162 462.339 77.5834C462.11 79.6755 461.155 81.6185 459.643 83.0695C458.257 84.4487 456.388 85.2202 454.441 85.2162C452.144 85.2162 450.518 84.6862 449.562 83.6261C449.066 83.0191 448.712 82.3072 448.526 81.5432C448.34 80.7792 448.328 79.9829 448.49 79.2134C448.677 77.7125 449.182 76.2698 449.972 74.9835L449.506 73.8625C448.414 73.5546 447.264 73.5219 446.156 73.7671C445.147 74.0014 444.187 74.4131 443.319 74.9835C442.481 75.5495 441.769 76.2862 441.23 77.1462C440.693 77.9646 440.343 78.8935 440.205 79.8653C440.205 80.0323 440.205 80.1993 440.166 80.3662C438.858 81.8293 437.369 83.1172 435.736 84.1985C434.311 85.0513 432.656 85.4296 431.006 85.2798L431.369 85.0254C434.506 82.5694 436.547 78.9574 437.044 74.9835C437.412 71.9834 436.792 69.5611 435.184 67.7165C433.332 65.684 431.083 64.0598 428.579 62.946C427.459 62.4425 426.235 61.9575 424.906 61.491C423.788 61.1214 422.713 60.6337 421.697 60.036C420.51 59.3507 419.559 58.316 418.97 57.0704C418.484 55.6506 418.403 54.122 418.734 52.6577C418.991 51.0221 419.755 49.5107 420.917 48.3404C421.47 47.7425 422.141 47.267 422.885 46.944C423.63 46.621 424.434 46.4576 425.244 46.464C427.168 46.464 428.531 46.9172 429.335 47.8236C429.754 48.3501 430.048 48.9663 430.194 49.6251C430.341 50.2839 430.335 50.9677 430.179 51.6241C429.918 53.4032 429.344 55.1211 428.484 56.6967L428.673 57.6349C431.464 58.3266 433.647 58.1199 435.231 57.0306C435.977 56.5398 436.615 55.8987 437.103 55.1475C437.591 54.3963 437.92 53.5513 438.069 52.6656C438.184 51.5406 438.055 50.4038 437.691 49.3342C437.288 48.1284 436.604 47.0378 435.697 46.1539C434.601 45.1025 433.302 44.2905 431.881 43.7687C430.048 43.0993 428.108 42.7811 426.159 42.8305C424.28 42.8251 422.414 43.1424 420.641 43.7687C418.9 44.3778 417.27 45.2723 415.817 46.4163C414.371 47.5617 413.14 48.9593 412.183 50.5428C411.217 52.1625 410.599 53.9694 410.37 55.846C410.147 57.0689 410.176 58.3253 410.457 59.5363C410.738 60.7472 411.264 61.8865 412.002 62.8824C413.785 65.0042 416.018 66.6944 418.537 67.8278C420.397 68.7024 422.194 69.5134 423.928 70.2608C425.354 70.8817 426.637 71.7941 427.696 72.9402C428.594 73.9685 428.889 75.5162 428.579 77.5834C428.349 79.6755 427.394 81.6185 425.883 83.0695C424.49 84.439 422.618 85.199 420.673 85.1844C418.379 85.1844 416.731 84.6517 415.793 83.5943C415.294 82.9891 414.938 82.2772 414.753 81.5127C414.567 80.7481 414.556 79.9509 414.721 79.1816C414.909 77.6896 415.418 76.2569 416.211 74.9835L415.746 73.8625C414.654 73.5546 413.504 73.5219 412.396 73.7671C411.387 74.0014 410.426 74.4131 409.559 74.9835C408.72 75.5513 408.006 76.2875 407.462 77.1462C406.927 77.9651 406.579 78.894 406.445 79.8653C406.323 80.9044 406.417 81.9577 406.721 82.9582V83.0218C406.224 83.4193 405.688 83.8169 405.144 84.1985C402.165 86.1703 398.302 85.089 398.302 85.089C397.941 85.0125 397.598 84.8638 397.294 84.6517C396.802 84.2946 396.441 83.7828 396.269 83.1967C396.02 82.2968 395.911 81.3634 395.946 80.4298C396.084 76.5941 396.455 72.7706 397.057 68.9807C397.246 67.8596 397.459 66.4682 397.711 64.8065C397.964 63.1448 398.224 61.4592 398.5 59.7418C398.775 58.0245 399.059 56.3309 399.343 54.6772C399.627 53.0234 399.847 51.6241 400.037 50.503C400.156 49.7126 400.235 48.9164 400.273 48.1178C400.309 47.4168 400.212 46.7154 399.989 46.0506C399.737 45.3812 399.302 44.7971 398.736 44.365C397.954 43.8054 397.057 43.4329 396.111 43.2757H393.139L391.65 44.683C390.961 49.7503 390.249 54.8468 389.514 59.9724C388.778 65.098 388.063 70.1972 387.37 75.2698C386.149 77.4757 384.547 79.444 382.64 81.0818C380.811 82.672 379.185 83.4538 377.761 83.4273C375.659 83.4273 374.28 82.5368 373.623 80.7558C372.932 78.6572 372.664 76.4406 372.834 74.2362C372.898 72.9879 373.071 71.2785 373.347 69.1238C373.623 66.9691 373.985 64.6475 374.356 62.2623C374.726 59.877 375.105 57.4441 375.475 55.1065C375.846 52.769 376.153 50.8528 376.405 49.2865C376.533 48.6054 376.625 47.9181 376.681 47.2273C376.747 46.5016 376.62 45.7712 376.311 45.1124C375.923 44.3802 375.301 43.8026 374.545 43.4745C373.274 42.9625 371.907 42.7373 370.541 42.8146H369.611C369.143 42.8301 368.677 42.8779 368.215 42.9577C367.601 43.0452 366.757 43.1565 365.709 43.2837C364.66 43.4109 363.226 43.6256 361.429 43.9436L361.153 46.0029C362.284 46.1856 363.401 46.4513 364.495 46.7979C365.187 47.0079 365.812 47.3972 366.308 47.927C366.717 48.4003 366.963 48.9944 367.009 49.6205C367.067 50.4166 367.036 51.2168 366.915 52.0057C366.421 55.7161 365.908 59.5007 365.378 63.3595C364.847 67.2183 364.337 70.971 363.849 74.6178C363.633 76.1797 363.586 77.7604 363.707 79.3326C362.205 81.2295 360.414 82.8745 358.402 84.2065C356.977 85.0593 355.322 85.4376 353.672 85.2878L352.758 85.1288C352.08 85.0285 351.431 84.7876 350.85 84.4211C350.318 84.0651 349.917 83.5428 349.708 82.9343C349.42 82.0121 349.294 81.046 349.337 80.08C349.392 78.7045 349.518 76.9633 349.708 74.8722C349.897 72.7812 350.204 70.1972 350.638 67.1281C351.132 63.5026 351.549 60.423 351.891 57.8893C352.23 55.353 352.545 53.1983 352.821 51.4174C353.097 49.6364 353.365 48.1814 353.609 47.0524C353.854 45.9233 354.106 44.9613 354.398 44.1424L351.788 42.8305L346.271 46.305C345.161 44.9496 343.668 43.9677 341.991 43.4904C340.384 43.0529 338.728 42.831 337.064 42.8305C334.233 42.8156 331.439 43.4806 328.914 44.7705C326.328 46.1064 323.994 47.8877 322.017 50.0339C319.928 52.2891 318.187 54.8488 316.854 57.6269C315.45 60.5065 314.455 63.5712 313.898 66.7306C313.531 69.3641 313.451 72.0304 313.661 74.6814C313.835 77.1341 314.449 79.5345 315.474 81.7656C316.417 83.8012 317.878 85.5487 319.707 86.8302C321.797 88.1978 324.257 88.8784 326.746 88.7782C328.901 88.7381 331.034 88.3266 333.052 87.5617C335.312 86.7401 337.527 84.9883 339.697 82.3062H339.886C339.891 83.0303 339.968 83.7521 340.115 84.4609C340.25 85.2127 340.528 85.9309 340.934 86.5758C341.371 87.2384 341.961 87.7841 342.653 88.166C343.499 88.6054 344.444 88.8163 345.396 88.7782H345.664C349.101 89.0565 354.642 88.7782 357.748 87.4742C360.38 86.3691 362.611 83.9043 364.117 81.8451C364.345 82.7591 364.692 83.6386 365.149 84.4609C365.896 85.7885 366.986 86.8875 368.302 87.6412C369.86 88.4746 371.608 88.8778 373.37 88.81C375.526 88.7708 377.659 88.3593 379.676 87.5935C381.941 86.7719 384.159 85.0201 386.329 82.338H386.51C386.515 83.0626 386.594 83.7848 386.747 84.4927C386.901 85.2492 387.201 85.9678 387.63 86.6076C388.071 87.2665 388.659 87.8113 389.348 88.1978C390.195 88.6372 391.14 88.8481 392.091 88.81H392.462C395.898 89.0883 401.44 88.81 404.553 87.5061C405.805 86.9247 406.949 86.1314 407.935 85.1606C408.136 85.3942 408.352 85.6146 408.581 85.8205C409.702 86.7729 410.998 87.4918 412.396 87.9354C414.352 88.5496 416.394 88.8343 418.442 88.7782C419.495 88.777 420.547 88.7212 421.595 88.6112C424.685 89.1121 431.511 88.9769 435.105 87.4742C437.232 86.4468 439.091 84.9332 440.536 83.0536C440.882 84.1261 441.511 85.0828 442.357 85.8205C443.478 86.7729 444.774 87.4918 446.172 87.9354C448.128 88.549 450.171 88.8337 452.218 88.7782C457.673 88.7782 461.982 87.5273 465.145 85.0254C468.276 82.5665 470.311 78.9549 470.805 74.9835C471.173 71.9834 470.552 69.5611 468.944 67.7165C467.094 65.6822 464.844 64.0578 462.339 62.946C461.228 62.4451 459.974 61.9601 458.666 61.491C457.549 61.1214 456.473 60.6337 455.458 60.036C454.26 59.3449 453.302 58.2983 452.715 57.0386C452.227 55.619 452.147 54.089 452.486 52.6259C452.737 50.988 453.502 49.4746 454.669 48.3086C455.221 47.7105 455.89 47.2349 456.633 46.9118C457.377 46.5888 458.179 46.4254 458.989 46.4322C460.912 46.4322 462.279 46.8854 463.088 47.7918C463.397 48.1467 463.633 48.5603 463.781 49.0083C463.225 49.7839 462.831 50.6658 462.623 51.6002C461.953 54.0809 462.292 55.1065 462.97 56.3707C463.647 57.6349 467.407 58.0404 468.992 56.9511C469.74 56.4629 470.379 55.8224 470.867 55.0708C471.356 54.3191 471.684 53.4729 471.829 52.5861C471.921 51.7352 471.867 50.8747 471.672 50.0419C471.808 48.811 472.111 47.6046 472.57 46.4561C472.866 45.7091 473.33 45.0416 473.925 44.5063C474.52 43.9709 475.23 43.5823 475.999 43.3711V40C475.999 40 472.381 40.2226 470.206 41.9161ZM342.913 58.9468L340.548 75.2698C339.384 77.4119 337.858 79.3329 336.039 80.9466C334.337 82.4202 332.76 83.1543 331.31 83.149C330.446 83.2007 329.581 83.0735 328.768 82.7755C327.954 82.4774 327.21 82.0147 326.581 81.4157C325.42 80.1737 324.591 78.6557 324.169 77.003C323.653 75.1083 323.416 73.1473 323.467 71.1831C323.49 69.2231 323.63 67.2664 323.885 65.3233C324.186 62.9738 324.733 60.6631 325.516 58.43C326.224 56.3435 327.191 54.3559 328.394 52.5146C329.447 50.8947 330.782 49.4805 332.335 48.3404C333.741 47.3082 335.435 46.7516 337.175 46.7502C338.256 46.719 339.317 47.0488 340.193 47.6884C341.084 48.376 341.788 49.2782 342.243 50.3122C342.79 51.5412 343.106 52.8624 343.173 54.2081C343.279 55.7924 343.192 57.3839 342.913 58.9468V58.9468Z" fill="white"/>
<path d="M314.035 43.4273V40.1675H311.773C307.769 40.1675 302.716 46.2816 302.716 46.2816C301.606 44.9262 300.113 43.9444 298.436 43.4671C296.83 43.0295 295.173 42.8076 293.509 42.8071C290.679 42.8009 287.888 43.4741 285.367 44.771C282.771 46.1014 280.426 47.8801 278.438 50.0265C276.349 52.2817 274.609 54.8414 273.275 57.6195C271.882 60.5033 270.897 63.5706 270.351 66.7311C269.984 69.3647 269.904 72.0309 270.114 74.6819C270.288 77.1346 270.903 79.535 271.927 81.7661C272.87 83.8017 274.331 85.5492 276.16 86.8308C278.249 88.1868 280.702 88.8588 283.183 88.7548C285.286 88.7205 287.365 88.3086 289.324 87.5384C291.494 86.7168 293.664 84.965 295.835 82.2829H296.008C295.22 91.0288 294.148 99.4725 292.855 104.418C291.562 109.363 289.631 112.798 287.093 114.754C286.49 115.213 285.813 115.562 285.091 115.788C284.519 115.967 283.913 115.999 283.325 115.883C282.78 115.74 282.312 115.386 282.025 114.897C281.641 114.196 281.463 113.399 281.512 112.599C281.532 111.436 281.721 110.281 282.072 109.173L280.858 107.821C280.251 107.169 278.493 105.714 276.917 105.714C274.41 105.714 272.03 107.018 272.03 110.906C272.03 112.051 272.463 115.629 277.185 117.807C278.312 118.338 279.497 118.733 280.716 118.984C281.866 119.219 283.035 119.344 284.208 119.357C285.775 119.358 287.337 119.169 288.859 118.793C290.46 118.393 291.973 117.695 293.32 116.734C295.275 115.243 296.889 113.345 298.05 111.168C299.543 108.366 300.709 105.399 301.526 102.327C302.503 98.8365 303.386 93.0324 304.159 88.2142C304.931 83.396 305.735 77.7986 306.523 71.4221C306.954 67.7117 307.34 64.5314 307.682 61.8811C308.029 59.2256 308.336 56.8642 308.659 54.797C309.448 49.5812 310.835 45.7012 311.521 44.7789C311.805 44.3704 312.181 44.0351 312.618 43.8003C313.055 43.5655 313.54 43.4377 314.035 43.4273V43.4273ZM299.366 58.9473L297.041 75.2703C295.876 77.4124 294.35 79.3334 292.532 80.9472C290.829 82.4207 289.253 83.1548 287.803 83.1495C286.939 83.2012 286.074 83.0741 285.26 82.776C284.447 82.4779 283.703 82.0152 283.073 81.4163C281.913 80.1742 281.083 78.6562 280.661 77.0036C280.149 75.1081 279.913 73.1476 279.96 71.1836C279.983 69.2237 280.122 67.2669 280.377 65.3238C280.678 62.9743 281.225 60.6636 282.009 58.4305C282.716 56.344 283.683 54.3564 284.886 52.5151C285.939 50.8952 287.275 49.481 288.827 48.3409C290.234 47.3088 291.928 46.7521 293.667 46.7507C294.759 46.7125 295.833 47.0426 296.718 47.6889C297.611 48.3832 298.316 49.2939 298.767 50.3366C299.314 51.5656 299.63 52.8868 299.697 54.2325C299.778 55.8118 299.667 57.3952 299.366 58.9473Z" fill="white"/>
<path d="M66.324 87H58.806C57.826 84.62 57.014 82.464 56.37 80.532H44.274L42.384 87H35.118C38.002 77.48 41.474 67.722 45.534 57.726H55.992C59.212 68.366 62.656 78.124 66.324 87ZM50.952 63.606H49.86C48.796 66.322 47.522 70.018 46.038 74.694H54.396C53.052 70.578 51.904 66.882 50.952 63.606ZM95.155 87H87.133C85.957 83.584 84.767 80.854 83.563 78.81C82.443 76.85 81.309 75.492 80.161 74.736C79.041 73.98 77.655 73.518 76.003 73.35V87H69.241V57.726H76.003V71.754C79.531 67.806 82.975 63.13 86.335 57.726H94.399C89.807 64.81 86.615 69.192 84.823 70.872C85.775 71.236 86.587 71.684 87.259 72.216C87.931 72.72 88.687 73.504 89.527 74.568C91.263 76.78 93.139 80.924 95.155 87ZM98.915 57.726H105.677V80.784H116.681V57.726H123.443V80.784H128.567L127.643 93.468H121.637V87H98.915V57.726ZM151.125 57.726H159.357V87H152.721V67.722C148.857 74.89 145.175 81.316 141.675 87H132.855V57.726H139.491V77.802C143.915 70.55 147.793 63.858 151.125 57.726ZM176.278 71.04H183.754V63.522H176.194C174.542 63.522 173.716 64.796 173.716 67.344C173.716 69.808 174.57 71.04 176.278 71.04ZM173.464 74.4C168.592 74.12 166.156 71.418 166.156 66.294C166.156 60.582 168.844 57.726 174.22 57.726H190.558V87H183.754V76.584H179.554C178.322 76.64 177.37 76.92 176.698 77.424C176.026 77.9 175.368 78.838 174.724 80.238C174.108 81.638 173.352 83.892 172.456 87H164.644C165.764 83.584 166.814 80.952 167.794 79.104C168.802 77.228 169.67 76.038 170.398 75.534C171.21 74.946 172.232 74.568 173.464 74.4ZM218.804 87.588C215.192 87.588 212.546 86.748 210.866 85.068C209.214 83.332 208.388 80.35 208.388 76.122C208.388 71.922 209.214 68.996 210.866 67.344C212.518 65.72 215.164 64.908 218.804 64.908C222.5 64.908 225.16 65.72 226.784 67.344C228.464 68.968 229.304 71.894 229.304 76.122C229.304 80.35 228.464 83.332 226.784 85.068C225.104 86.748 222.444 87.588 218.804 87.588ZM218.804 69.948C217.208 69.948 216.158 70.326 215.654 71.082C215.15 71.782 214.898 73.504 214.898 76.248C214.898 78.88 215.15 80.588 215.654 81.372C216.186 82.156 217.236 82.548 218.804 82.548C220.372 82.548 221.422 82.156 221.954 81.372C222.486 80.588 222.752 78.88 222.752 76.248C222.696 74.26 222.556 72.86 222.332 72.048C222.108 71.208 221.758 70.662 221.282 70.41C220.806 70.13 219.98 69.976 218.804 69.948ZM252.397 71.04H245.509V87H239.083V71.04H232.153V65.496H252.397V71.04Z" fill="white"/>
</svg>
