<svg width="340" height="208" viewBox="0 0 340 208" fill="none" xmlns="http://www.w3.org/2000/svg">
<rect width="340" height="14" fill="#FF5100"/>
<path fill-rule="evenodd" clip-rule="evenodd" d="M51.0684 98.0584V44H290.459V51.1897H287.04V47.4499H54.4496V98.0584H51.0684ZM51.0684 180.548V146.675H54.4964V177.136H287.04V111.419H290.459V180.548H51.0684Z" fill="white"/>
<path fill-rule="evenodd" clip-rule="evenodd" d="M89.264 89.8126C93.8721 88.8777 96.5602 88.9712 97.2908 90.2708L113.213 86.1009L114.759 84.9042L114.984 84.8387C117.512 84.7452 119.176 85.3685 119.976 86.7086L120.21 87.12C118.699 90.4422 115.346 95.5407 110.151 102.416L109.692 102.575L109.326 102.434L109.102 102.004L111.246 91.7854C106.286 92.6033 101.4 93.8195 96.6352 95.4223C94.7619 95.9926 92.6639 98.6759 90.4254 103.416C87.8965 106.533 84.1188 114.72 79.0923 127.977L78.9799 128.248L79.0923 128.473C90.0882 124.265 97.9652 120.943 102.723 118.506C104.54 118.777 105.777 119.441 106.395 120.554L106.62 120.965C104.839 124.764 102.201 128.098 98.9112 130.707L98.5646 130.567L98.4335 130.342C98.2462 130.025 98.5271 128.388 99.2296 125.453L99.1172 125.247L96.7476 125.976C83.1541 130.576 76.6165 133.312 77.1347 134.185C73.3071 147.137 72.8669 156.175 75.8141 161.298L76.067 161.728C76.7538 162.931 78.2962 163.682 80.6939 163.982C80.825 164.206 80.4597 164.552 79.6168 165.029C76.5447 165.964 73.0604 164.683 69.0892 161.177L67.9278 159.587C65.2865 154.988 64.9899 147.726 67.038 137.803L65.5113 138.504L64.3218 138.869C60.3755 139.711 57.8529 139.181 56.7539 137.28L56.9787 137.214L59.6949 136.616L60.1726 136.485C66.4479 134.55 69.2765 133.026 68.6021 131.904C73.8472 116.427 78.1213 106.049 81.4245 100.77L80.9468 100.901C76.4697 102.297 69.2328 106.243 59.2359 112.737C49.3203 121.208 45.5738 127.516 47.9965 131.661L48.4742 132.502C49.0455 133.437 50.9375 134.372 54.1501 135.139L53.8035 136.008C46.398 137.255 41.4651 135.743 39.005 131.474C35.8829 126.076 40.0352 118.998 51.462 110.241C61.4486 103.574 72.3608 98.4047 83.8503 94.8987L87.475 90.598L89.264 89.8126Z" fill="white"/>
<path fill-rule="evenodd" clip-rule="evenodd" d="M121.783 112.148L122.448 111.942C125.567 111.942 129.005 113.466 132.686 116.477L133.622 117.589C134.737 120.506 134.718 122.143 133.529 122.507L133.238 122.367L133.098 122.143C133.197 121.016 132.994 119.883 132.508 118.861L132.395 118.665C131.543 117.225 129.745 116.926 126.869 117.861C120.101 119.936 114.734 126.774 110.769 138.373C109.72 143.908 109.767 147.61 110.862 149.593C114.965 140.785 119.108 133.929 123.291 129.024C123.085 128.669 123.657 128.164 125.024 127.547C126.523 127.098 128.668 127.752 131.449 129.529L131.543 129.716C130.4 130.071 130.269 133.194 131.178 139.131L132.817 142.87C133.371 143.839 134.13 144.675 135.04 145.321C135.951 145.966 136.992 146.406 138.09 146.61L138.315 147.003L137.65 147.199C134.671 148.115 131.708 147.243 128.761 144.581L126.279 141.646C124.88 138.996 124.027 136.094 123.769 133.109L123.516 133.184C121.424 135.222 118.589 140.929 115.012 150.303C114.187 154.127 113.438 156.128 112.726 156.352C111.153 156.832 108.677 155.586 105.299 152.612L104.952 152.023C100.875 144.937 102.214 135.372 108.97 123.33C112.717 117.337 117.016 113.625 121.783 112.111V112.148Z" fill="white"/>
<path fill-rule="evenodd" clip-rule="evenodd" d="M143.605 105.435C147.502 105.501 149.918 106.277 150.836 107.689C151.754 109.1 150.124 116.29 145.975 129.192C154.093 112.644 159.512 103.849 162.235 102.808C162.471 102.666 162.737 102.58 163.012 102.556C166.909 102.556 169.353 103.444 170.327 105.155C170.721 105.778 169.884 109.359 167.817 115.897C166.206 123.452 166.319 128.874 168.21 132.147C169.784 134.886 171.564 135.952 173.521 135.335C173.564 135.362 173.599 135.399 173.624 135.443C173.648 135.487 173.661 135.537 173.662 135.587C173.708 136.429 173.09 137.018 171.788 137.457L171.545 137.523C167.096 138.28 163.518 136.588 160.783 132.38L160.277 131.52C157.748 127.157 157.689 119.849 160.099 109.596L160.165 109.166L159.978 109.39C155.9 114.875 150.855 124.87 144.842 139.374C144.08 142.422 143.768 144.263 143.905 144.899C143.928 145.182 144.02 145.454 144.174 145.692C144.328 145.93 144.538 146.127 144.786 146.264C140.983 147.022 138.473 146.404 137.293 144.394L136.693 143.272C135.875 141.839 136.468 136.332 138.473 126.752L141.648 110.175L141.507 109.979L141.283 110.045C139.915 111.786 138.461 113.459 136.927 115.056C136.801 115.166 136.645 115.238 136.479 115.261C136.312 115.284 136.143 115.258 135.991 115.187C135.691 115.056 135.579 114.691 135.625 114.074C138.342 109.11 140.983 106.221 143.587 105.426L143.605 105.435Z" fill="white"/>
<path fill-rule="evenodd" clip-rule="evenodd" d="M181.98 127.603C182.157 127.818 182.381 127.991 182.633 128.109C182.886 128.227 183.162 128.287 183.441 128.285C186.776 126.06 191.131 118.496 196.507 105.594C197.6 101.63 197.753 98.7379 196.966 96.9179C196.74 96.6807 196.447 96.5173 196.126 96.4489C195.805 96.3805 195.471 96.4104 195.168 96.5346L194.297 96.8057C188.939 98.4699 184.537 104.905 181.09 116.112C180.166 121.142 180.478 124.972 182.027 127.603H181.98ZM204.674 96.6468L204.88 96.5813C212.998 79.8957 217.497 68.8166 218.377 63.3441V61.4742L218.152 61.5397C215.464 65.2794 212.158 72.2167 208.234 82.3702C205.499 91.221 204.312 95.9705 204.674 96.6187V96.6468ZM213.001 55.7711C214.668 55.2662 217.562 56.2198 221.693 58.66L221.918 59.0247C224.066 63.4875 218.471 77.8232 205.133 102.032C203.447 110.858 203.835 117.421 206.295 121.722C207.662 124.087 209.236 124.976 210.978 124.424L211.324 125.022L209.976 125.434C206.716 126.453 203.419 124.929 200.057 120.899L199.486 119.88C198.268 117.766 197.464 115.441 197.116 113.027C193.625 124.184 190.363 130.495 187.328 131.96C184.518 132.829 180.856 131.483 176.407 127.93L175.471 126.359C172.461 121.08 173.082 113.666 177.334 104.117C181.081 96.8057 185.268 92.4426 189.895 91.0278C191.29 90.6257 193.753 91.5513 197.266 93.8326L197.491 94.244L200.816 79.1353C205.58 64.5876 209.639 56.7964 212.992 55.7617L213.001 55.7711Z" fill="white"/>
<path fill-rule="evenodd" clip-rule="evenodd" d="M226.975 79.846C229.345 79.1261 233.204 80.5752 238.58 84.2402L238.88 84.3805L239.011 84.5861C241.09 88.2262 238.53 93.0443 231.33 99.0404C229.682 100.233 227.868 101.178 225.945 101.845C223.959 102.285 222.798 102.257 222.526 101.761C222.704 101.368 224.119 100.396 226.816 98.844C231.855 92.7856 233.887 87.8958 232.857 84.2122L232.632 84.2776C228.661 86.3906 224.549 91.8382 220.297 100.62C218.311 106.691 218.099 111.095 219.66 113.831C221.14 115.701 222.732 116.318 224.4 115.795C228.071 114.355 232.32 109.315 237.147 100.677L237.212 100.405L237.465 100.34L237.812 100.471L237.924 100.658C238.421 104.005 236.126 109.437 230.993 116.954C230.083 117.967 228.974 118.782 227.734 119.347C224.147 120.46 220.025 119.114 215.37 115.364L213.366 113.242C209.551 106.623 211.736 97.4198 219.922 85.6333C222.798 82.3329 225.149 80.3976 226.947 79.846H226.975Z" fill="white"/>
<path fill-rule="evenodd" clip-rule="evenodd" d="M257.35 70.5427L257.603 70.4492C259.373 69.9069 262.689 71.1785 267.494 74.2731L267.728 74.6564C264.98 80.0791 262.629 83.7534 260.675 85.6794L260.469 85.7449C260.132 85.1559 260.609 81.8088 261.93 75.7503L261.677 75.8251C254.653 81.8586 250.444 89.1574 249.052 97.7215C248.799 100.526 249.136 102.817 250.072 104.453L250.297 104.846C251.646 106.388 253.107 106.912 254.793 106.416C258.721 104.752 262.932 99.6693 267.428 91.1675L268.411 91.5041C268.177 95.9451 265.92 101.106 261.63 107.024C260.687 108.447 259.302 109.522 257.687 110.081C254.384 111.097 250.172 109.595 245.052 105.575L243.806 103.836L243.479 103.294C240.357 97.8025 242.014 89.6155 248.452 78.7328C252.152 73.9272 255.14 71.1972 257.35 70.5146V70.5427Z" fill="white"/>
<path fill-rule="evenodd" clip-rule="evenodd" d="M287.218 59.7075C289.298 59.0717 293.007 60.2497 298.392 63.2789C299.329 64.1017 299.329 64.5785 298.392 64.7562C296.667 64.3257 294.864 64.3033 293.128 64.6907C286.772 66.6479 281.823 73.0211 278.283 83.8103C277.3 88.7935 277.627 92.7764 279.22 95.7869L279.604 96.3572C280.465 97.6568 281.973 98.1149 284.165 97.769C289.241 96.2045 292.972 89.1613 295.358 76.6393C295.635 74.0938 295.111 71.5253 293.859 69.2906C293.578 68.8606 292.716 68.4959 291.274 68.178L291.143 67.9724C290.937 67.6077 291.143 67.2618 291.78 66.9439C292.563 66.5671 293.382 66.2695 294.224 66.0557C297.034 65.5135 299.376 66.5793 301.268 69.2252C302.699 71.3052 303.463 73.7701 303.459 76.2934V76.7234C303.391 81.4418 301.205 87.0857 296.903 93.6552C293.85 97.5259 290.915 99.8913 288.099 100.751L287.396 100.957C283.65 102.257 280.596 102.257 278.227 101.004C275.879 99.7858 274.004 97.822 272.897 95.4223L272.42 94.5808C268.729 88.1858 269.688 79.9677 275.295 69.9264C278.939 64.4196 282.929 61.007 287.218 59.6888V59.7075Z" fill="white"/>
<path d="M214.406 148.938H211.035C211.349 148.444 211.61 147.918 211.812 147.368C212.078 146.726 212.291 146.063 212.449 145.386C212.627 144.656 212.786 143.89 212.908 143.086H214.406V148.938ZM208.421 153.099H210.21V150.528H215.708V153.099H217.535V148.938H216.28V141.534H211.465C211.244 143.059 210.909 144.565 210.463 146.04C210.161 147.092 209.658 148.076 208.983 148.938H208.421V153.099Z" fill="white"/>
<path d="M214.406 148.938H211.035C211.349 148.444 211.61 147.918 211.812 147.368C212.078 146.726 212.291 146.063 212.449 145.386C212.627 144.656 212.786 143.89 212.908 143.086H214.406V148.938ZM208.421 153.099H210.21V150.528H215.708V153.099H217.535V148.938H216.28V141.534H211.465C211.244 143.059 210.909 144.565 210.463 146.04C210.161 147.092 209.658 148.076 208.983 148.938H208.421V153.099Z" stroke="white"/>
<path d="M220.775 150.528H225.974V148.957H222.639V146.769H225.487V145.199H222.639V143.132H225.487L225.974 141.534H220.775V150.528Z" fill="white"/>
<path d="M220.775 150.528H225.974V148.957H222.639V146.769H225.487V145.199H222.639V143.132H225.487L225.974 141.534H220.775V150.528Z" stroke="white"/>
<path d="M229.598 150.528H231.471V146.723H232.679C232.78 146.724 232.879 146.756 232.96 146.817C233.068 146.887 233.161 146.98 233.232 147.088C233.355 147.268 233.461 147.459 233.55 147.658L234.871 150.528H237.044L235.171 146.929C235.056 146.678 234.901 146.447 234.712 146.246C234.568 146.092 234.387 145.976 234.187 145.91C234.393 145.787 234.566 145.617 234.693 145.414C234.833 145.203 234.955 144.981 235.058 144.75C235.171 144.498 235.264 144.273 235.348 144.049C235.433 143.825 235.536 143.638 235.629 143.479C235.697 143.377 235.791 143.297 235.901 143.245C236.012 143.181 236.139 143.152 236.266 143.161C236.357 143.152 236.448 143.152 236.538 143.161C236.649 143.173 236.757 143.205 236.856 143.254V141.609C236.705 141.542 236.544 141.501 236.379 141.487H235.873C235.54 141.476 235.21 141.558 234.921 141.723C234.631 141.888 234.393 142.13 234.234 142.422C234.196 142.506 234.156 142.591 234.115 142.675C234.034 142.843 233.953 143.011 233.897 143.18C233.812 143.432 233.709 143.703 233.616 143.928C233.522 144.152 233.41 144.404 233.297 144.61C233.198 144.804 233.049 144.968 232.866 145.087C232.685 145.213 232.469 145.278 232.248 145.274H231.471V141.534H229.598V150.528Z" fill="white"/>
<path d="M229.598 150.528H231.471V146.723H232.679C232.78 146.724 232.879 146.756 232.96 146.817C233.068 146.887 233.161 146.98 233.232 147.088C233.355 147.268 233.461 147.459 233.55 147.658L234.871 150.528H237.044L235.171 146.929C235.056 146.678 234.901 146.447 234.712 146.246C234.568 146.092 234.387 145.976 234.187 145.91C234.393 145.787 234.566 145.617 234.693 145.414C234.833 145.203 234.955 144.981 235.058 144.75C235.171 144.498 235.264 144.273 235.348 144.049C235.433 143.825 235.536 143.638 235.629 143.479C235.697 143.377 235.791 143.297 235.901 143.245C236.012 143.181 236.139 143.152 236.266 143.161C236.357 143.152 236.448 143.152 236.538 143.161C236.649 143.173 236.757 143.205 236.856 143.254V141.609C236.705 141.542 236.544 141.501 236.379 141.487H235.873C235.54 141.476 235.21 141.558 234.921 141.723C234.631 141.888 234.393 142.13 234.234 142.422C234.196 142.506 234.156 142.591 234.115 142.675C234.034 142.843 233.953 143.011 233.897 143.18C233.812 143.432 233.709 143.703 233.616 143.928C233.522 144.152 233.41 144.404 233.297 144.61C233.198 144.804 233.049 144.968 232.866 145.087C232.685 145.213 232.469 145.278 232.248 145.274H231.471V141.534H229.598V150.528Z" stroke="white"/>
<path d="M244.397 149.116C243.927 149.113 243.468 148.973 243.076 148.714C242.667 148.473 242.341 148.115 242.14 147.686C241.92 147.162 241.811 146.599 241.821 146.031C241.809 145.46 241.917 144.893 242.14 144.367C242.349 143.938 242.673 143.575 243.076 143.32C243.494 143.087 243.966 142.971 244.444 142.983C244.924 142.968 245.399 143.091 245.811 143.338C246.218 143.581 246.544 143.939 246.748 144.367C246.972 144.892 247.08 145.46 247.066 146.031C247.084 146.601 246.969 147.168 246.729 147.686C246.549 148.114 246.237 148.474 245.839 148.714C245.43 148.969 244.954 149.096 244.472 149.079L244.397 149.116ZM244.397 150.668C245.036 150.675 245.671 150.564 246.27 150.341C246.817 150.134 247.315 149.816 247.731 149.406C248.148 148.995 248.467 148.497 248.668 147.947C248.886 147.348 248.994 146.715 248.986 146.078C248.992 145.44 248.884 144.807 248.668 144.208C248.461 143.662 248.142 143.165 247.731 142.749C247.312 142.343 246.815 142.025 246.27 141.814C245.674 141.578 245.038 141.464 244.397 141.478C243.757 141.47 243.121 141.585 242.524 141.814C241.981 142.013 241.491 142.333 241.091 142.749C240.684 143.168 240.366 143.664 240.154 144.208C239.919 144.803 239.801 145.438 239.807 146.078C239.796 146.718 239.914 147.354 240.154 147.947C240.361 148.493 240.68 148.99 241.091 149.406C241.497 149.815 241.985 150.134 242.524 150.341C243.124 150.559 243.758 150.669 244.397 150.668Z" fill="white"/>
<path d="M244.397 149.116C243.927 149.113 243.468 148.973 243.076 148.714C242.667 148.473 242.341 148.115 242.14 147.686C241.92 147.162 241.811 146.599 241.821 146.031C241.809 145.46 241.917 144.893 242.14 144.367C242.349 143.938 242.673 143.575 243.076 143.32C243.494 143.087 243.966 142.971 244.444 142.983C244.924 142.968 245.399 143.091 245.811 143.338C246.218 143.581 246.544 143.939 246.748 144.367C246.972 144.892 247.08 145.46 247.066 146.031C247.084 146.601 246.969 147.168 246.729 147.686C246.549 148.114 246.237 148.474 245.839 148.714C245.43 148.969 244.954 149.096 244.472 149.079L244.397 149.116ZM244.397 150.668C245.036 150.675 245.671 150.564 246.27 150.341C246.817 150.134 247.315 149.816 247.731 149.406C248.148 148.995 248.467 148.497 248.668 147.947C248.886 147.348 248.994 146.715 248.986 146.078C248.992 145.44 248.884 144.807 248.668 144.208C248.461 143.662 248.142 143.165 247.731 142.749C247.312 142.343 246.815 142.025 246.27 141.814C245.674 141.578 245.038 141.464 244.397 141.478C243.757 141.47 243.121 141.585 242.524 141.814C241.981 142.013 241.491 142.333 241.091 142.749C240.684 143.168 240.366 143.664 240.154 144.208C239.919 144.803 239.801 145.438 239.807 146.078C239.796 146.718 239.914 147.354 240.154 147.947C240.361 148.493 240.68 148.99 241.091 149.406C241.497 149.815 241.985 150.134 242.524 150.341C243.124 150.559 243.758 150.669 244.397 150.668Z" stroke="white"/>
<path d="M254.381 145.993V143.104H254.793C254.989 143.079 255.187 143.079 255.383 143.104C255.539 143.124 255.69 143.179 255.823 143.263C256.032 143.391 256.203 143.572 256.319 143.787C256.429 144.014 256.484 144.264 256.479 144.516C256.493 144.79 256.438 145.063 256.319 145.311C256.21 145.536 256.024 145.715 255.795 145.816C255.659 145.883 255.514 145.93 255.364 145.956C255.18 145.976 254.995 145.976 254.812 145.956L254.381 145.993ZM252.507 150.528H254.381V147.527H254.699C255.06 147.523 255.42 147.492 255.776 147.433C256.071 147.386 256.36 147.307 256.638 147.199C257.038 147.052 257.398 146.812 257.687 146.498C257.949 146.237 258.145 145.916 258.258 145.563C258.367 145.225 258.42 144.871 258.417 144.516C258.444 143.961 258.311 143.409 258.033 142.927C257.772 142.488 257.383 142.139 256.919 141.926C256.623 141.782 256.307 141.681 255.982 141.627C255.605 141.56 255.223 141.529 254.84 141.534H252.498V150.528H252.507Z" fill="white"/>
<path d="M254.381 145.993V143.104H254.793C254.989 143.079 255.187 143.079 255.383 143.104C255.539 143.124 255.69 143.179 255.823 143.263C256.032 143.391 256.203 143.572 256.319 143.787C256.429 144.014 256.484 144.264 256.479 144.516C256.493 144.79 256.438 145.063 256.319 145.311C256.21 145.536 256.024 145.715 255.795 145.816C255.659 145.883 255.514 145.93 255.364 145.956C255.18 145.976 254.995 145.976 254.812 145.956L254.381 145.993ZM252.507 150.528H254.381V147.527H254.699C255.06 147.523 255.42 147.492 255.776 147.433C256.071 147.386 256.36 147.307 256.638 147.199C257.038 147.052 257.398 146.812 257.687 146.498C257.949 146.237 258.145 145.916 258.258 145.563C258.367 145.225 258.42 144.871 258.417 144.516C258.444 143.961 258.311 143.409 258.033 142.927C257.772 142.488 257.383 142.139 256.919 141.926C256.623 141.782 256.307 141.681 255.982 141.627C255.605 141.56 255.223 141.529 254.84 141.534H252.498V150.528H252.507Z" stroke="white"/>
<path d="M266.632 150.528H268.364L272.064 145.61C272.242 145.386 272.401 145.18 272.542 144.974C272.635 144.837 272.737 144.7 272.839 144.563C272.89 144.494 272.941 144.426 272.991 144.357V144.75V145.227V150.528H274.865V141.534H272.991L269.413 146.274C269.235 146.498 269.076 146.704 268.936 146.91C268.88 146.992 268.82 147.074 268.761 147.156C268.672 147.28 268.584 147.403 268.505 147.527V147.003V141.534H266.632V150.528Z" fill="white"/>
<path d="M266.632 150.528H268.364L272.064 145.61C272.242 145.386 272.401 145.18 272.542 144.974C272.635 144.837 272.737 144.7 272.839 144.563C272.89 144.494 272.941 144.426 272.991 144.357V144.75V145.227V150.528H274.865V141.534H272.991L269.413 146.274C269.235 146.498 269.076 146.704 268.936 146.91C268.88 146.992 268.82 147.074 268.761 147.156C268.672 147.28 268.584 147.403 268.505 147.527V147.003V141.534H266.632V150.528Z" stroke="white"/>
<path d="M184.43 163.776C184.435 163.776 184.439 163.776 184.444 163.776H184.416C184.421 163.776 184.426 163.776 184.43 163.776ZM184.43 163.776C183.956 163.786 183.488 163.666 183.076 163.43C182.669 163.191 182.343 162.836 182.14 162.411C181.917 161.878 181.808 161.305 181.821 160.728C181.807 160.157 181.916 159.589 182.14 159.064C182.343 158.636 182.669 158.278 183.076 158.035C183.492 157.796 183.964 157.671 184.444 157.671C184.924 157.671 185.395 157.796 185.811 158.035C186.21 158.275 186.521 158.635 186.701 159.064C186.935 159.587 187.053 160.155 187.048 160.728C187.052 161.307 186.934 161.88 186.701 162.411C186.504 162.84 186.176 163.196 185.764 163.43C185.36 163.665 184.898 163.785 184.43 163.776ZM184.444 165.346C185.085 165.358 185.722 165.241 186.317 165C186.867 164.802 187.366 164.485 187.78 164.073C188.195 163.662 188.514 163.164 188.715 162.616C189.173 161.412 189.173 160.081 188.715 158.877C188.516 158.327 188.196 157.828 187.778 157.418C187.362 157.008 186.864 156.69 186.317 156.483C185.715 156.269 185.083 156.152 184.444 156.137C183.804 156.145 183.171 156.262 182.571 156.483C182.024 156.69 181.526 157.008 181.109 157.418C180.698 157.833 180.379 158.33 180.173 158.877C179.939 159.472 179.822 160.107 179.826 160.746C179.824 161.386 179.942 162.02 180.173 162.616C180.386 163.159 180.704 163.655 181.109 164.075C181.527 164.483 182.025 164.801 182.571 165.01C183.166 165.248 183.803 165.366 184.444 165.356V165.346Z" fill="white"/>
<path d="M184.43 163.776C184.435 163.776 184.439 163.776 184.444 163.776H184.416C184.421 163.776 184.426 163.776 184.43 163.776ZM184.43 163.776C183.956 163.786 183.488 163.666 183.076 163.43C182.669 163.191 182.343 162.836 182.14 162.411C181.917 161.878 181.808 161.305 181.821 160.728C181.807 160.157 181.916 159.589 182.14 159.064C182.343 158.636 182.669 158.278 183.076 158.035C183.492 157.796 183.964 157.671 184.444 157.671C184.924 157.671 185.395 157.796 185.811 158.035C186.21 158.275 186.521 158.635 186.701 159.064C186.935 159.587 187.053 160.155 187.048 160.728C187.052 161.307 186.934 161.88 186.701 162.411C186.504 162.84 186.176 163.196 185.764 163.43C185.36 163.665 184.898 163.785 184.43 163.776ZM184.444 165.346C185.085 165.358 185.722 165.241 186.317 165C186.867 164.802 187.366 164.485 187.78 164.073C188.195 163.662 188.514 163.164 188.715 162.616C189.173 161.412 189.173 160.081 188.715 158.877C188.516 158.327 188.196 157.828 187.778 157.418C187.362 157.008 186.864 156.69 186.317 156.483C185.715 156.269 185.083 156.152 184.444 156.137C183.804 156.145 183.171 156.262 182.571 156.483C182.024 156.69 181.526 157.008 181.109 157.418C180.698 157.833 180.379 158.33 180.173 158.877C179.939 159.472 179.822 160.107 179.826 160.746C179.824 161.386 179.942 162.02 180.173 162.616C180.386 163.159 180.704 163.655 181.109 164.075C181.527 164.483 182.025 164.801 182.571 165.01C183.166 165.248 183.803 165.366 184.444 165.356V165.346Z" stroke="white"/>
<path d="M199.336 163.14C199.009 163.325 198.664 163.476 198.305 163.589C197.912 163.727 197.495 163.79 197.078 163.776C196.542 163.799 196.01 163.662 195.552 163.383C195.149 163.13 194.825 162.771 194.615 162.345C194.387 161.852 194.262 161.317 194.25 160.774C194.253 160.372 194.317 159.972 194.437 159.587C194.548 159.24 194.734 158.921 194.98 158.652C195.24 158.361 195.56 158.128 195.917 157.97C196.324 157.812 196.755 157.727 197.191 157.717C197.604 157.726 198.016 157.779 198.418 157.876C198.816 157.973 199.2 158.121 199.56 158.316V156.605C199.228 156.449 198.874 156.342 198.511 156.287C198.06 156.203 197.603 156.156 197.144 156.146C196.457 156.154 195.778 156.287 195.14 156.539C194.562 156.754 194.04 157.096 193.613 157.54C193.182 157.955 192.846 158.459 192.629 159.017C192.395 159.612 192.277 160.247 192.283 160.887C192.267 161.523 192.368 162.157 192.583 162.757C192.776 163.29 193.079 163.777 193.472 164.187C193.876 164.6 194.365 164.919 194.905 165.122C195.549 165.363 196.232 165.481 196.919 165.468C197.408 165.469 197.895 165.416 198.371 165.309C198.914 165.185 199.437 164.987 199.926 164.72L199.401 163.261L199.336 163.14Z" fill="white"/>
<path d="M199.336 163.14C199.009 163.325 198.664 163.476 198.305 163.589C197.912 163.727 197.495 163.79 197.078 163.776C196.542 163.799 196.01 163.662 195.552 163.383C195.149 163.13 194.825 162.771 194.615 162.345C194.387 161.852 194.262 161.317 194.25 160.774C194.253 160.372 194.317 159.972 194.437 159.587C194.548 159.24 194.734 158.921 194.98 158.652C195.24 158.361 195.56 158.128 195.917 157.97C196.324 157.812 196.755 157.727 197.191 157.717C197.604 157.726 198.016 157.779 198.418 157.876C198.816 157.973 199.2 158.121 199.56 158.316V156.605C199.228 156.449 198.874 156.342 198.511 156.287C198.06 156.203 197.603 156.156 197.144 156.146C196.457 156.154 195.778 156.287 195.14 156.539C194.562 156.754 194.04 157.096 193.613 157.54C193.182 157.955 192.846 158.459 192.629 159.017C192.395 159.612 192.277 160.247 192.283 160.887C192.267 161.523 192.368 162.157 192.583 162.757C192.776 163.29 193.079 163.777 193.472 164.187C193.876 164.6 194.365 164.919 194.905 165.122C195.549 165.363 196.232 165.481 196.919 165.468C197.408 165.469 197.895 165.416 198.371 165.309C198.914 165.185 199.437 164.987 199.926 164.72L199.401 163.261L199.336 163.14Z" stroke="white"/>
<path d="M203.111 165.254H203.092L203.111 165.282V165.254ZM203.111 165.254H206.164C206.639 165.259 207.111 165.183 207.559 165.029C207.931 164.891 208.271 164.681 208.562 164.412C208.825 164.177 209.027 163.882 209.152 163.552C209.289 163.237 209.359 162.896 209.358 162.552C209.354 162.232 209.294 161.916 209.18 161.617C209.048 161.328 208.852 161.073 208.608 160.869C208.333 160.651 208.014 160.494 207.672 160.411V160.364C207.899 160.26 208.101 160.106 208.262 159.915C208.422 159.728 208.546 159.512 208.627 159.28C208.705 159.051 208.747 158.811 208.749 158.569C208.753 158.281 208.699 157.994 208.59 157.728C208.466 157.452 208.288 157.203 208.065 156.998C207.811 156.77 207.515 156.592 207.194 156.475C206.781 156.353 206.351 156.293 205.92 156.297H203.111V165.254ZM204.965 159.934V157.793H205.611C205.861 157.785 206.11 157.83 206.342 157.924C206.518 158.013 206.667 158.149 206.773 158.317C206.868 158.491 206.917 158.688 206.913 158.887C206.913 159.071 206.865 159.251 206.773 159.41C206.661 159.57 206.514 159.702 206.342 159.794C206.128 159.893 205.894 159.941 205.658 159.934H204.965ZM204.965 163.73V161.458H206.108C206.466 161.427 206.823 161.531 207.11 161.748C207.232 161.841 207.33 161.964 207.394 162.104C207.457 162.244 207.485 162.398 207.475 162.552C207.497 162.719 207.472 162.889 207.405 163.044C207.337 163.199 207.229 163.332 207.091 163.431C206.749 163.659 206.34 163.764 205.93 163.73H204.965Z" fill="white"/>
<path d="M203.111 165.254H203.092L203.111 165.282V165.254ZM203.111 165.254H206.164C206.639 165.259 207.111 165.183 207.559 165.029C207.931 164.891 208.271 164.681 208.562 164.412C208.825 164.177 209.027 163.882 209.152 163.552C209.289 163.237 209.359 162.896 209.358 162.552C209.354 162.232 209.294 161.916 209.18 161.617C209.048 161.328 208.852 161.073 208.608 160.869C208.333 160.651 208.014 160.494 207.672 160.411V160.364C207.899 160.26 208.101 160.106 208.262 159.915C208.422 159.728 208.546 159.512 208.627 159.28C208.705 159.051 208.747 158.811 208.749 158.569C208.753 158.281 208.699 157.994 208.59 157.728C208.466 157.452 208.288 157.203 208.065 156.998C207.811 156.77 207.515 156.592 207.194 156.475C206.781 156.353 206.351 156.293 205.92 156.297H203.111V165.254ZM204.965 159.934V157.793H205.611C205.861 157.785 206.11 157.83 206.342 157.924C206.518 158.013 206.667 158.149 206.773 158.317C206.868 158.491 206.917 158.688 206.913 158.887C206.913 159.071 206.865 159.251 206.773 159.41C206.661 159.57 206.514 159.702 206.342 159.794C206.128 159.893 205.894 159.941 205.658 159.934H204.965ZM204.965 163.73V161.458H206.108C206.466 161.427 206.823 161.531 207.11 161.748C207.232 161.841 207.33 161.964 207.394 162.104C207.457 162.244 207.485 162.398 207.475 162.552C207.497 162.719 207.472 162.889 207.405 163.044C207.337 163.199 207.229 163.332 207.091 163.431C206.749 163.659 206.34 163.764 205.93 163.73H204.965Z" stroke="white"/>
<path d="M212.787 165.207H217.995V163.618H214.66V161.43H217.517V159.859H214.66V157.793H217.517L217.995 156.222H212.787V165.207Z" fill="white"/>
<path d="M212.787 165.207H217.995V163.618H214.66V161.43H217.517V159.859H214.66V157.793H217.517L217.995 156.222H212.787V165.207Z" stroke="white"/>
<path d="M221.619 165.207H232.175V167.778H234.001V163.618H232.746V156.222H230.873V163.618H228.119V156.222H226.246V163.618H223.483V156.222H221.619V165.207Z" fill="white"/>
<path d="M221.619 165.207H232.175V167.778H234.001V163.618H232.746V156.222H230.873V163.618H228.119V156.222H226.246V163.618H223.483V156.222H221.619V165.207Z" stroke="white"/>
<path d="M237.232 165.207H242.44V163.618H239.106V161.43H241.953V159.859H239.106V157.793H241.953L242.44 156.222H237.232V165.207Z" fill="white"/>
<path d="M237.232 165.207H242.44V163.618H239.106V161.43H241.953V159.859H239.106V157.793H241.953L242.44 156.222H237.232V165.207Z" stroke="white"/>
<path d="M246.064 165.207H247.928V161.43H252.012V165.207H253.904V156.222H252.012V159.812H247.928V156.222H246.064V165.207Z" fill="white"/>
<path d="M246.064 165.207H247.928V161.43H252.012V165.207H253.904V156.222H252.012V159.812H247.928V156.222H246.064V165.207Z" stroke="white"/>
<path d="M257.781 165.206H259.514L263.204 160.27C263.381 160.072 263.541 159.859 263.682 159.634C263.755 159.545 263.821 159.455 263.886 159.368C263.97 159.255 264.051 159.145 264.141 159.045V159.428V159.886V165.206H266.014V156.193H264.141L260.563 160.924C260.54 160.953 260.517 160.981 260.495 161.01C260.342 161.201 260.2 161.381 260.085 161.56C259.993 161.704 259.883 161.848 259.78 161.983C259.736 162.04 259.694 162.096 259.654 162.149V161.653V156.193H257.781V165.178V165.206Z" fill="white"/>
<path d="M257.781 165.206H259.514L263.204 160.27C263.381 160.072 263.541 159.859 263.682 159.634C263.755 159.545 263.821 159.455 263.886 159.368C263.97 159.255 264.051 159.145 264.141 159.045V159.428V159.886V165.206H266.014V156.193H264.141L260.563 160.924C260.54 160.953 260.517 160.981 260.495 161.01C260.342 161.201 260.2 161.381 260.085 161.56C259.993 161.704 259.883 161.848 259.78 161.983C259.736 162.04 259.694 162.096 259.654 162.149V161.653V156.193H257.781V165.178V165.206Z" stroke="white"/>
<path d="M269.893 165.207H275.091V163.618H271.785V161.43H274.632V159.859H271.785V157.793H274.613L275.11 156.222H269.893V165.207Z" fill="white"/>
<path d="M269.893 165.207H275.091V163.618H271.785V161.43H274.632V159.859H271.785V157.793H274.613L275.11 156.222H269.893V165.207Z" stroke="white"/>
</svg>
