<svg width="340" height="208" viewBox="0 0 340 208" fill="none" xmlns="http://www.w3.org/2000/svg">
<rect width="340" height="14" fill="#00CDE9"/>
<path d="M285.151 80.2697C283.928 81.218 282.767 82.2468 281.678 83.3494C281.078 82.9926 280.454 82.6779 279.811 82.4076C277.632 81.6204 275.327 81.253 273.014 81.3245C270.788 81.3182 268.578 81.694 266.478 82.4358C264.411 83.1671 262.477 84.2361 260.754 85.6002C259.042 86.9547 257.587 88.6107 256.459 90.4881C255.31 92.4047 254.578 94.546 254.312 96.7699C254.039 98.2158 254.067 99.7031 254.393 101.138C254.719 102.572 255.337 103.923 256.207 105.105C258.319 107.615 260.96 109.616 263.938 110.963C266.142 111.999 268.27 112.959 270.325 113.845C272.015 114.577 273.535 115.658 274.788 117.018C275.852 118.233 276.207 120.07 275.833 122.518C275.562 124.996 274.431 127.298 272.64 129.017C270.999 130.65 268.784 131.564 266.478 131.56C263.758 131.56 261.831 130.932 260.698 129.676C260.111 128.957 259.691 128.114 259.471 127.209C259.252 126.304 259.237 125.361 259.428 124.449C259.65 122.671 260.249 120.962 261.184 119.439L260.633 118.111C259.339 117.746 257.977 117.707 256.665 117.998C255.469 118.275 254.331 118.763 253.303 119.439C252.311 120.109 251.468 120.982 250.829 122C250.193 122.97 249.778 124.07 249.615 125.221C249.615 125.419 249.615 125.617 249.569 125.815C248.019 127.548 246.256 129.073 244.321 130.354C242.634 131.364 240.674 131.812 238.719 131.635L239.149 131.334C242.864 128.424 245.282 124.146 245.871 119.439C246.307 115.885 245.573 113.016 243.668 110.831C241.474 108.423 238.81 106.499 235.844 105.18C234.518 104.584 233.067 104.009 231.493 103.457C230.169 103.019 228.895 102.441 227.692 101.733C226.286 100.921 225.159 99.6957 224.462 98.2202C223.887 96.5384 223.79 94.7278 224.182 92.9933C224.487 91.0559 225.392 89.2657 226.768 87.8794C227.423 87.1712 228.217 86.6079 229.1 86.2253C229.982 85.8428 230.934 85.6491 231.894 85.6567C234.172 85.6567 235.788 86.1936 236.74 87.2672C237.236 87.8908 237.584 88.6208 237.757 89.4011C237.931 90.1815 237.924 90.9915 237.739 91.769C237.43 93.8764 236.75 95.9112 235.732 97.7776L235.956 98.8889C239.261 99.7082 241.847 99.4634 243.724 98.1731C244.607 97.5918 245.362 96.8323 245.941 95.9425C246.519 95.0527 246.909 94.0518 247.085 93.0027C247.222 91.6701 247.069 90.3235 246.637 89.0566C246.16 87.6283 245.35 86.3364 244.275 85.2894C242.977 84.0441 241.439 83.0822 239.756 82.4641C237.584 81.6711 235.286 81.2942 232.977 81.3528C230.752 81.3464 228.542 81.7222 226.441 82.4641C224.379 83.1856 222.448 84.2452 220.727 85.6002C219.014 86.957 217.557 88.6125 216.423 90.4881C215.278 92.4067 214.546 94.5471 214.275 96.7699C214.01 98.2185 214.045 99.7068 214.378 101.141C214.71 102.576 215.334 103.925 216.208 105.105C218.32 107.618 220.966 109.62 223.948 110.963C226.152 111.999 228.281 112.959 230.335 113.845C232.024 114.58 233.544 115.661 234.798 117.018C235.862 118.236 236.211 120.07 235.844 122.518C235.572 124.996 234.441 127.298 232.65 129.017C231 130.639 228.783 131.539 226.479 131.522C223.762 131.522 221.81 130.891 220.699 129.638C220.108 128.921 219.686 128.078 219.466 127.173C219.246 126.267 219.234 125.323 219.429 124.411C219.652 122.644 220.254 120.947 221.194 119.439L220.643 118.111C219.35 117.746 217.987 117.707 216.675 117.998C215.479 118.275 214.342 118.763 213.314 119.439C212.32 120.111 211.475 120.983 210.83 122C210.196 122.97 209.785 124.071 209.626 125.221C209.482 126.452 209.593 127.7 209.952 128.885V128.96C209.364 129.431 208.729 129.902 208.085 130.354C204.556 132.69 199.981 131.409 199.981 131.409C199.552 131.318 199.146 131.142 198.786 130.891C198.203 130.468 197.776 129.862 197.572 129.167C197.277 128.101 197.148 126.996 197.189 125.89C197.353 121.347 197.793 116.817 198.505 112.328C198.73 111 198.982 109.352 199.28 107.384C199.579 105.415 199.887 103.419 200.214 101.385C200.541 99.3504 200.877 97.3444 201.213 95.3854C201.549 93.4265 201.811 91.769 202.035 90.441C202.176 89.5047 202.27 88.5617 202.315 87.6157C202.357 86.7854 202.243 85.9546 201.979 85.167C201.679 84.3742 201.165 83.6823 200.494 83.1704C199.569 82.5076 198.505 82.0663 197.385 81.8802H193.865L192.1 83.5471C191.285 89.5495 190.442 95.5863 189.57 101.658C188.699 107.729 187.852 113.769 187.03 119.778C185.584 122.391 183.687 124.722 181.428 126.662C179.262 128.546 177.336 129.472 175.649 129.441C173.159 129.441 171.525 128.386 170.747 126.276C169.929 123.79 169.612 121.165 169.813 118.553C169.888 117.075 170.093 115.05 170.42 112.498C170.747 109.945 171.176 107.195 171.615 104.37C172.054 101.545 172.502 98.6629 172.941 95.894C173.38 93.1251 173.744 90.8554 174.043 89.0001C174.194 88.1933 174.303 87.3791 174.37 86.5609C174.448 85.7012 174.297 84.8361 173.931 84.0557C173.472 83.1884 172.735 82.5042 171.839 82.1156C170.334 81.5091 168.715 81.2423 167.096 81.3339H165.995C165.44 81.3523 164.888 81.4089 164.342 81.5035C163.614 81.6071 162.615 81.7389 161.373 81.8896C160.131 82.0403 158.432 82.2946 156.303 82.6713L155.976 85.1105C157.317 85.327 158.64 85.6417 159.935 86.0523C160.754 86.301 161.495 86.7621 162.082 87.3896C162.567 87.9504 162.858 88.6541 162.913 89.3957C162.982 90.3387 162.945 91.2865 162.801 92.221C162.216 96.616 161.609 101.099 160.981 105.67C160.352 110.241 159.748 114.686 159.169 119.006C158.914 120.856 158.858 122.728 159.001 124.59C157.222 126.837 155.101 128.786 152.718 130.363C151.03 131.374 149.07 131.822 147.115 131.644L146.032 131.456C145.23 131.337 144.46 131.052 143.773 130.618C143.143 130.196 142.667 129.577 142.419 128.857C142.078 127.764 141.929 126.62 141.98 125.476C142.046 123.846 142.195 121.784 142.419 119.307C142.643 116.83 143.007 113.769 143.521 110.134C144.106 105.839 144.601 102.191 145.005 99.1903C145.407 96.186 145.78 93.6337 146.107 91.5241C146.434 89.4145 146.751 87.691 147.041 86.3537C147.33 85.0163 147.629 83.8768 147.974 82.9067L144.884 81.3528L138.348 85.4684C137.034 83.8629 135.265 82.6998 133.278 82.1345C131.376 81.6162 129.413 81.3534 127.443 81.3528C124.089 81.3352 120.78 82.1229 117.788 83.6507C114.726 85.2332 111.961 87.3431 109.619 89.8854C107.144 92.5567 105.082 95.5887 103.503 98.8795C101.84 102.29 100.661 105.921 100.002 109.663C99.5666 112.782 99.4726 115.941 99.7216 119.081C99.9274 121.986 100.655 124.829 101.869 127.472C102.986 129.883 104.716 131.953 106.883 133.471C109.359 135.091 112.272 135.897 115.221 135.779C117.774 135.731 120.3 135.244 122.69 134.338C125.367 133.365 127.99 131.29 130.561 128.113H130.785C130.791 128.97 130.882 129.825 131.056 130.665C131.216 131.555 131.546 132.406 132.027 133.17C132.544 133.955 133.243 134.601 134.062 135.054C135.065 135.574 136.185 135.824 137.312 135.779H137.629C141.7 136.108 148.264 135.779 151.943 134.234C155.061 132.925 157.703 130.006 159.487 127.566C159.757 128.649 160.169 129.691 160.71 130.665C161.595 132.237 162.886 133.539 164.445 134.432C166.29 135.419 168.361 135.897 170.448 135.816C173.001 135.77 175.528 135.283 177.918 134.376C180.6 133.402 183.227 131.327 185.798 128.15H186.013C186.018 129.009 186.112 129.864 186.293 130.703C186.475 131.599 186.831 132.45 187.339 133.208C187.861 133.988 188.558 134.634 189.374 135.091C190.377 135.612 191.496 135.862 192.623 135.816H193.062C197.133 136.146 203.697 135.816 207.385 134.272C208.867 133.583 210.222 132.644 211.39 131.494C211.629 131.77 211.885 132.031 212.156 132.275C213.483 133.404 215.019 134.255 216.675 134.78C218.991 135.508 221.411 135.845 223.836 135.779C225.084 135.777 226.33 135.711 227.571 135.581C231.231 136.174 239.317 136.014 243.574 134.234C246.093 133.017 248.296 131.224 250.008 128.998C250.417 130.268 251.163 131.402 252.164 132.275C253.492 133.404 255.028 134.255 256.683 134.78C259 135.507 261.42 135.845 263.845 135.779C270.306 135.779 275.41 134.297 279.157 131.334C282.866 128.421 285.277 124.143 285.861 119.439C286.297 115.885 285.562 113.016 283.658 110.831C281.465 108.421 278.801 106.497 275.833 105.18C274.517 104.587 273.032 104.012 271.482 103.457C270.159 103.019 268.885 102.441 267.682 101.733C266.263 100.914 265.129 99.6747 264.433 98.1825C263.855 96.501 263.761 94.6887 264.162 92.9556C264.459 91.0156 265.366 89.2229 266.749 87.8417C267.402 87.1333 268.194 86.5698 269.075 86.1872C269.956 85.8045 270.906 85.611 271.865 85.6191C274.143 85.6191 275.762 86.1559 276.72 87.2295C277.086 87.65 277.366 88.1399 277.542 88.6705C276.883 89.5893 276.416 90.6339 276.169 91.7407C275.376 94.6791 275.777 95.894 276.58 97.3914C277.383 98.8889 281.837 99.3692 283.714 98.0789C284.6 97.5006 285.357 96.742 285.935 95.8517C286.514 94.9613 286.902 93.9589 287.075 92.9085C287.183 91.9005 287.12 90.8814 286.888 89.8948C287.05 88.4368 287.408 87.0078 287.953 85.6473C288.303 84.7625 288.852 83.9719 289.557 83.3378C290.261 82.7036 291.103 82.2433 292.014 81.9932V78C292.014 78 287.728 78.2637 285.151 80.2697ZM134.371 100.443L131.57 119.778C130.19 122.315 128.383 124.591 126.229 126.502C124.212 128.248 122.345 129.117 120.627 129.111C119.604 129.172 118.579 129.022 117.615 128.668C116.652 128.315 115.77 127.767 115.025 127.058C113.65 125.587 112.667 123.788 112.168 121.831C111.557 119.587 111.277 117.264 111.337 114.937C111.364 112.615 111.529 110.298 111.831 107.996C112.188 105.213 112.836 102.476 113.764 99.8307C114.602 97.3592 115.747 95.0048 117.172 92.8238C118.42 90.905 120.001 89.2299 121.841 87.8794C123.506 86.6568 125.513 85.9974 127.573 85.9958C128.854 85.9588 130.111 86.3495 131.149 87.1071C132.204 87.9216 133.039 88.9903 133.577 90.215C134.225 91.6708 134.599 93.2358 134.679 94.8298C134.804 96.7065 134.701 98.5916 134.371 100.443V100.443Z" fill="white"/>
<path d="M100.161 82.0591V78.1978H97.4809C92.7378 78.1978 86.7528 85.4401 86.7528 85.4401C85.4383 83.8346 83.6697 82.6715 81.6829 82.1062C79.7803 81.5879 77.8182 81.3251 75.8474 81.3245C72.495 81.3171 69.1889 82.1145 66.2024 83.6507C63.1274 85.2266 60.3498 87.3335 57.9953 89.8759C55.5207 92.5473 53.459 95.5793 51.8797 98.87C50.2287 102.286 49.0626 105.919 48.4157 109.663C47.9806 112.782 47.8867 115.941 48.1356 119.081C48.3414 121.986 49.0691 124.829 50.2831 127.472C51.3998 129.883 53.1298 131.953 55.297 133.471C57.7709 135.078 60.6765 135.874 63.6161 135.751C66.1062 135.71 68.5692 135.222 70.8895 134.31C73.4603 133.336 76.031 131.261 78.6018 128.084H78.8072C77.8735 138.444 76.6037 148.446 75.0724 154.304C73.5412 160.162 71.2537 164.23 68.2472 166.547C67.5328 167.09 66.7304 167.505 65.8756 167.771C65.1986 167.983 64.4798 168.022 63.7842 167.884C63.138 167.715 62.5843 167.296 62.2436 166.717C61.7885 165.886 61.5779 164.942 61.6367 163.995C61.6601 162.616 61.8835 161.249 62.2996 159.936L60.8617 158.335C60.1428 157.562 58.0607 155.839 56.1933 155.839C53.2242 155.839 50.4045 157.383 50.4045 161.989C50.4045 163.345 50.918 167.583 56.5108 170.164C57.8457 170.793 59.2497 171.261 60.6937 171.557C62.0556 171.835 63.4405 171.984 64.8299 172C66.6861 172.001 68.5356 171.776 70.3387 171.331C72.2356 170.858 74.028 170.03 75.6233 168.892C77.9393 167.127 79.8502 164.878 81.2254 162.3C82.994 158.981 84.3757 155.466 85.343 151.827C86.5008 147.692 87.5465 140.817 88.4615 135.11C89.3765 129.403 90.3289 122.773 91.2625 115.22C91.773 110.824 92.2305 107.057 92.6351 103.918C93.0459 100.772 93.41 97.9753 93.7928 95.5267C94.7265 89.3485 96.3698 84.7526 97.1821 83.6601C97.5191 83.1762 97.9644 82.779 98.4818 82.5009C98.9993 82.2227 99.5744 82.0714 100.161 82.0591V82.0591ZM82.7847 100.443L80.0303 119.778C78.6508 122.315 76.8436 124.591 74.6896 126.502C72.6729 128.248 70.8055 129.117 69.0875 129.111C68.0643 129.172 67.0395 129.021 66.0761 128.668C65.1127 128.315 64.231 127.767 63.4854 127.058C62.1111 125.587 61.1282 123.788 60.6283 121.831C60.0218 119.586 59.7419 117.263 59.7973 114.937C59.8249 112.615 59.9901 110.298 60.2922 107.996C60.6485 105.213 61.2964 102.476 62.2249 99.8307C63.0629 97.3592 64.208 95.0048 65.6329 92.8237C66.8805 90.905 68.4621 89.2299 70.3013 87.8793C71.9672 86.6567 73.974 85.9974 76.0341 85.9958C77.3276 85.9504 78.5992 86.3415 79.6475 87.1071C80.7058 87.9294 81.5408 89.0082 82.0751 90.2432C82.7235 91.699 83.0972 93.264 83.1768 94.858C83.2724 96.7288 83.1407 98.6043 82.7847 100.443Z" fill="white"/>
</svg>
