<svg width="103" height="40" viewBox="0 0 103 40" fill="none" xmlns="http://www.w3.org/2000/svg">
<path d="M100.103 0.958072C99.5863 1.35837 99.0965 1.79264 98.6367 2.25803C98.3833 2.10742 98.1199 1.97459 97.8484 1.86049C96.9289 1.52822 95.9556 1.37314 94.9792 1.40332C94.0399 1.40063 93.107 1.55927 92.2204 1.87241C91.348 2.18108 90.5317 2.63234 89.8045 3.20815C89.0817 3.7799 88.4674 4.47892 87.9915 5.27138C87.5064 6.08041 87.1974 6.98427 87.085 7.92298C86.9699 8.53333 86.9816 9.16114 87.1193 9.76671C87.257 10.3723 87.5178 10.9425 87.8851 11.4412C88.7763 12.5007 89.8913 13.3456 91.1484 13.9139C92.0785 14.3512 92.9771 14.7567 93.8442 15.1304C94.5578 15.4397 95.1995 15.8961 95.7281 16.4701C96.1774 16.9829 96.3271 17.7581 96.1695 18.7917C96.0548 19.8377 95.5774 20.8092 94.8216 21.5347C94.1287 22.2244 93.1938 22.6101 92.2204 22.6081C91.0722 22.6081 90.259 22.3431 89.7808 21.813C89.5328 21.5096 89.3558 21.1536 89.263 20.7716C89.1702 20.3896 89.164 19.9914 89.2448 19.6067C89.3384 18.8562 89.5911 18.1349 89.9858 17.4918L89.7532 16.9312C89.2072 16.7773 88.632 16.7609 88.0782 16.8835C87.5735 17.0007 87.0933 17.2066 86.6594 17.4918C86.2403 17.7747 85.8845 18.1431 85.615 18.5731C85.3463 18.9823 85.1713 19.4467 85.1026 19.9327C85.1026 20.0161 85.1026 20.0996 85.0829 20.1831C84.4288 20.9147 83.6844 21.5586 82.868 22.0993C82.1556 22.5257 81.3282 22.7148 80.5032 22.6399L80.6845 22.5127C82.2529 21.2847 83.2736 19.4787 83.5222 17.4918C83.7061 15.9917 83.3961 14.7805 82.5921 13.8583C81.666 12.842 80.5415 12.0299 79.2894 11.473C78.7297 11.2212 78.1175 10.9787 77.4528 10.7455C76.8942 10.5607 76.3565 10.3168 75.8487 10.018C75.255 9.67536 74.7793 9.15802 74.485 8.53519C74.2422 7.82528 74.2013 7.06101 74.3668 6.32884C74.4955 5.51104 74.8777 4.75537 75.4585 4.1702C75.7351 3.87126 76.0703 3.63351 76.4427 3.47201C76.8152 3.31052 77.2168 3.22879 77.6222 3.232C78.5839 3.232 79.2657 3.4586 79.6677 3.9118C79.8772 4.17503 80.0241 4.48316 80.0972 4.81255C80.1703 5.14194 80.1676 5.48384 80.0894 5.81204C79.9589 6.70161 79.6719 7.56053 79.2421 8.34834L79.3366 8.81744C80.7318 9.1633 81.8235 9.05994 82.6157 8.51531C82.9887 8.26991 83.3073 7.94934 83.5514 7.57374C83.7956 7.19814 83.9601 6.77564 84.0345 6.33282C84.0922 5.77031 84.0277 5.2019 83.8454 4.66712C83.6439 4.06422 83.302 3.5189 82.8483 3.07696C82.3005 2.55126 81.6511 2.14525 80.9407 1.88434C80.0242 1.54963 79.0538 1.39054 78.0794 1.41524C77.1401 1.41256 76.2071 1.57119 75.3206 1.88434C74.4499 2.18888 73.635 2.63615 72.9086 3.20815C72.1856 3.78087 71.5702 4.47967 71.0917 5.27138C70.6083 6.08123 70.2994 6.98471 70.1852 7.92298C70.0733 8.53445 70.088 9.16267 70.2284 9.76814C70.3688 10.3736 70.6318 10.9432 71.001 11.4412C71.8925 12.5021 73.0092 13.3472 74.2683 13.9139C75.1984 14.3512 76.097 14.7567 76.964 15.1304C77.677 15.4409 78.3185 15.897 78.8479 16.4701C79.2972 16.9842 79.4444 17.7581 79.2894 18.7917C79.1746 19.8377 78.6972 20.8092 77.9415 21.5347C77.245 22.2195 76.3089 22.5995 75.3363 22.5922C74.1894 22.5922 73.3657 22.3259 72.8967 21.7971C72.6472 21.4946 72.4692 21.1386 72.3763 20.7563C72.2835 20.3741 72.2781 19.9755 72.3607 19.5908C72.4547 18.8448 72.7089 18.1284 73.1056 17.4918L72.8731 16.9312C72.327 16.7773 71.7519 16.7609 71.1981 16.8835C70.6934 17.0007 70.2131 17.2066 69.7793 17.4918C69.3598 17.7757 69.0029 18.1438 68.7309 18.5731C68.4634 18.9825 68.2897 19.447 68.2225 19.9327C68.1617 20.4522 68.2086 20.9788 68.3604 21.4791V21.5109C68.1121 21.7097 67.8441 21.9084 67.5722 22.0993C66.0824 23.0852 64.1512 22.5445 64.1512 22.5445C63.9703 22.5063 63.7988 22.4319 63.6468 22.3259C63.4008 22.1473 63.2206 21.8914 63.1344 21.5984C63.0101 21.1484 62.9555 20.6817 62.9728 20.2149C63.042 18.2971 63.2276 16.3853 63.5285 14.4903C63.6231 13.9298 63.7295 13.2341 63.8556 12.4033C63.9818 11.5724 64.1118 10.7296 64.2498 9.87092C64.3877 9.01224 64.5296 8.16548 64.6715 7.33859C64.8133 6.51171 64.9237 5.81204 65.0183 5.25151C65.078 4.85628 65.1175 4.45821 65.1365 4.05889C65.1543 3.70841 65.1061 3.35771 64.9946 3.02528C64.8683 2.69061 64.6511 2.39854 64.368 2.1825C63.9772 1.90271 63.5284 1.71645 63.0556 1.63787H61.5697L60.8249 2.34151C60.4807 4.87517 60.1246 7.4234 59.7568 9.98621C59.389 12.549 59.0316 15.0986 58.6848 17.6349C58.0744 18.7379 57.2736 19.722 56.3201 20.5409C55.4057 21.336 54.5925 21.7269 53.8805 21.7136C52.8295 21.7136 52.1398 21.2684 51.8113 20.3779C51.4661 19.3286 51.3321 18.2203 51.4172 17.1181C51.4488 16.4939 51.5355 15.6392 51.6734 14.5619C51.8113 13.4846 51.9926 12.3237 52.1779 11.1311C52.3631 9.9385 52.5523 8.72203 52.7375 7.55326C52.9228 6.3845 53.0765 5.42642 53.2026 4.64327C53.2663 4.30272 53.3124 3.95904 53.3405 3.61364C53.3737 3.25078 53.3098 2.88559 53.1553 2.55618C52.9617 2.19008 52.6503 1.90129 52.2725 1.73725C51.6369 1.48125 50.9536 1.36863 50.2703 1.40729H49.8053C49.5714 1.41505 49.3383 1.43896 49.1077 1.47885C48.8003 1.52258 48.3786 1.57823 47.8544 1.64184C47.3302 1.70545 46.6129 1.81278 45.7143 1.9718L45.5764 3.00143C46.1422 3.09279 46.7007 3.22566 47.2474 3.39897C47.5933 3.50394 47.9059 3.69858 48.1539 3.96348C48.3583 4.20017 48.4814 4.49721 48.5047 4.81024C48.5337 5.2083 48.5179 5.6084 48.4574 6.00286C48.2104 7.85804 47.9542 9.75034 47.6889 11.6797C47.4235 13.6091 47.1686 15.4855 46.9243 17.3089C46.8166 18.0898 46.7928 18.8802 46.8533 19.6663C46.1023 20.6148 45.207 21.4373 44.2009 22.1032C43.4886 22.5296 42.6612 22.7188 41.8362 22.6439L41.379 22.5644C41.0402 22.5143 40.7155 22.3938 40.4252 22.2106C40.1592 22.0325 39.9584 21.7714 39.8538 21.4672C39.7098 21.006 39.6471 20.523 39.6685 20.04C39.6961 19.3523 39.7592 18.4816 39.8538 17.4361C39.9484 16.3906 40.1021 15.0986 40.3188 13.5641C40.5658 11.7513 40.7747 10.2115 40.9455 8.94465C41.1149 7.6765 41.2726 6.59917 41.4105 5.70868C41.5485 4.81819 41.6825 4.09069 41.8047 3.52618C41.9268 2.96167 42.053 2.48065 42.1988 2.07118L40.8942 1.41524L38.1354 3.15249C37.5805 2.47478 36.834 1.98385 35.9953 1.7452C35.1922 1.52643 34.364 1.41549 33.5321 1.41524C32.1166 1.40781 30.7197 1.7403 29.4569 2.38524C28.1642 3.05321 26.9971 3.94383 26.0083 5.01696C24.9638 6.14455 24.0935 7.42441 23.4269 8.81347C22.7249 10.2533 22.2273 11.7856 21.9489 13.3653C21.7653 14.6821 21.7256 16.0152 21.8307 17.3407C21.9176 18.567 22.2247 19.7672 22.7372 20.8828C23.2085 21.9006 23.9388 22.7743 24.8536 23.4151C25.8987 24.0989 27.1283 24.4392 28.3731 24.3891C29.4507 24.369 30.5171 24.1633 31.526 23.7809C32.6558 23.3701 33.7633 22.4941 34.8484 21.1531H34.943C34.9457 21.5152 34.984 21.876 35.0573 22.2304C35.1249 22.6064 35.2641 22.9655 35.4672 23.2879C35.6856 23.6192 35.9804 23.892 36.3264 24.083C36.7497 24.3027 37.2222 24.4081 37.6979 24.3891H37.8319C39.5503 24.5282 42.321 24.3891 43.8738 23.7371C45.1901 23.1845 46.3055 21.9522 47.0583 20.9225C47.1725 21.3795 47.3461 21.8193 47.5746 22.2304C47.9482 22.8943 48.4929 23.4437 49.151 23.8206C49.9299 24.2373 50.8042 24.4389 51.6852 24.405C52.7629 24.3854 53.8294 24.1797 54.8382 23.7968C55.9706 23.386 57.0794 22.51 58.1646 21.169H58.2552C58.2573 21.5313 58.2969 21.8924 58.3734 22.2463C58.4504 22.6246 58.6004 22.9839 58.8149 23.3038C59.0353 23.6333 59.3297 23.9057 59.674 24.0989C60.0974 24.3186 60.5699 24.424 61.0456 24.405H61.2308C62.9492 24.5441 65.7198 24.405 67.2766 23.753C67.9024 23.4623 68.4743 23.0657 68.9674 22.5803C69.068 22.6971 69.176 22.8073 69.2905 22.9102C69.8508 23.3865 70.4992 23.7459 71.1981 23.9677C72.1759 24.2748 73.1972 24.4172 74.221 24.3891C74.7475 24.3885 75.2737 24.3606 75.7975 24.3056C77.3424 24.5561 80.7555 24.4885 82.5527 23.7371C83.6159 23.2234 84.5457 22.4666 85.2681 21.5268C85.4409 22.063 85.7557 22.5414 86.1786 22.9102C86.7388 23.3865 87.3872 23.7459 88.0861 23.9677C89.064 24.2745 90.0853 24.4169 91.109 24.3891C93.8363 24.3891 95.9908 23.7636 97.5726 22.5127C99.138 21.2833 100.156 19.4774 100.402 17.4918C100.586 15.9917 100.276 14.7805 99.4722 13.8583C98.5469 12.8411 97.4222 12.0289 96.1695 11.473C95.6138 11.2226 94.9871 10.9801 94.3329 10.7455C93.7743 10.5607 93.2366 10.3168 92.7288 10.018C92.1298 9.67245 91.6509 9.14914 91.3573 8.51929C91.1133 7.8095 91.0737 7.04451 91.243 6.31294C91.3683 5.49402 91.751 4.73732 92.3347 4.15429C92.6104 3.85527 92.9449 3.61743 93.3167 3.4559C93.6885 3.29438 94.0896 3.21271 94.4945 3.2161C95.4561 3.2161 96.1393 3.4427 96.5439 3.89589C96.6984 4.07337 96.8164 4.28015 96.8907 4.50413C96.6124 4.89197 96.4153 5.33292 96.3114 5.80011C95.9764 7.04044 96.1458 7.55326 96.4848 8.18535C96.8237 8.81744 98.7037 9.02019 99.4959 8.47556C99.8699 8.23144 100.189 7.91121 100.434 7.53539C100.678 7.15957 100.842 6.73643 100.915 6.29306C100.96 5.86758 100.934 5.43737 100.836 5.02093C100.904 4.40549 101.055 3.8023 101.285 3.22803C101.433 2.85455 101.665 2.52081 101.962 2.25314C102.26 1.98546 102.615 1.79116 103 1.68557V0C103 0 101.191 0.111311 100.103 0.958072ZM36.4565 9.47338L35.2741 17.6349C34.6918 18.7059 33.9289 19.6664 33.0197 20.4733C32.1684 21.2101 31.3802 21.5772 30.655 21.5745C30.2231 21.6003 29.7905 21.5368 29.3838 21.3877C28.9772 21.2387 28.605 21.0073 28.2903 20.7079C27.7102 20.0868 27.2953 19.3278 27.0843 18.5015C26.8264 17.5542 26.7082 16.5736 26.7335 15.5915C26.7452 14.6116 26.8149 13.6332 26.9424 12.6617C27.0928 11.4869 27.3663 10.3316 27.7582 9.21498C28.112 8.17175 28.5953 7.17793 29.1968 6.25728C29.7234 5.44735 30.391 4.74026 31.1674 4.1702C31.8706 3.65412 32.7176 3.3758 33.5873 3.37512C34.1279 3.35952 34.6585 3.52442 35.0967 3.84421C35.5419 4.18801 35.8942 4.63912 36.1215 5.1561C36.3952 5.7706 36.5529 6.43121 36.5865 7.10404C36.6395 7.89622 36.5958 8.69195 36.4565 9.47338Z" fill="white"/>
<path d="M22.0176 1.7139V0.0839844H20.8865C18.8843 0.0839844 16.358 3.14107 16.358 3.14107C15.8032 2.46335 15.0566 1.97242 14.218 1.73378C13.4148 1.51501 12.5866 1.40407 11.7547 1.40382C10.3396 1.40071 8.9441 1.73729 7.68345 2.38574C6.38546 3.05095 5.21298 3.94029 4.21915 5.01348C3.17456 6.14108 2.30431 7.42093 1.63766 8.80999C0.940766 10.2519 0.448543 11.7855 0.17548 13.3658C-0.00817239 14.6826 -0.0478223 16.0157 0.0572442 17.3412C0.144126 18.5676 0.451276 19.7678 0.963719 20.8833C1.43511 21.9011 2.16534 22.7748 3.08014 23.4156C4.12443 24.0936 5.35089 24.4296 6.59174 24.3777C7.64284 24.3605 8.68249 24.1545 9.66193 23.7694C10.7471 23.3586 11.8322 22.4827 12.9174 21.1417H13.0041C12.6099 25.5146 12.0739 29.7365 11.4276 32.2092C10.7812 34.6819 9.81564 36.3993 8.54658 37.3772C8.24501 37.6066 7.90631 37.7814 7.54551 37.894C7.25971 37.9835 6.95633 37.9999 6.66269 37.9417C6.38994 37.8704 6.1562 37.6932 6.01239 37.4488C5.82027 37.0982 5.73139 36.6997 5.75621 36.2999C5.7661 35.7181 5.86038 35.1408 6.03604 34.5865L5.42909 33.9107C5.12562 33.5847 4.24673 32.8572 3.45849 32.8572C2.2052 32.8572 1.01495 33.5092 1.01495 35.4531C1.01495 36.0256 1.23172 37.8145 3.5925 38.9038C4.15597 39.1695 4.74865 39.367 5.35815 39.4921C5.93303 39.6095 6.51759 39.6721 7.1041 39.679C7.88762 39.6793 8.66833 39.5845 9.4294 39.3967C10.2301 39.1969 10.9867 38.8476 11.6601 38.3671C12.6377 37.622 13.4443 36.6728 14.0248 35.5843C14.7714 34.1834 15.3546 32.6999 15.7629 31.1637C16.2516 29.4185 16.693 26.5164 17.0793 24.1073C17.4655 21.6982 17.8675 18.8996 18.2616 15.7113C18.4771 13.8561 18.6702 12.2659 18.841 10.9408C19.0144 9.61302 19.1681 8.43233 19.3297 7.39873C19.7238 4.79086 20.4175 2.85086 20.7603 2.38972C20.9026 2.18543 21.0905 2.0178 21.309 1.90039C21.5274 1.78298 21.7701 1.71909 22.0176 1.7139ZM14.683 9.47389L13.5204 17.6354C12.9381 18.7064 12.1752 19.6669 11.266 20.4738C10.4147 21.2106 9.62646 21.5777 8.90128 21.575C8.46937 21.6008 8.03678 21.5373 7.63012 21.3882C7.22345 21.2392 6.85131 21.0078 6.53657 20.7084C5.95645 20.0873 5.54158 19.3283 5.33056 18.502C5.07454 17.5543 4.95638 16.574 4.9798 15.592C4.99143 14.6121 5.06118 13.6337 5.18868 12.6622C5.33908 11.4874 5.61255 10.3321 6.00451 9.21548C6.35824 8.17225 6.8416 7.17844 7.44304 6.25778C7.96968 5.44785 8.63731 4.74076 9.41364 4.1707C10.1168 3.65462 10.9639 3.3763 11.8335 3.37562C12.3795 3.35647 12.9163 3.52155 13.3588 3.84472C13.8055 4.19184 14.158 4.64721 14.3835 5.16852C14.6572 5.78303 14.8149 6.44364 14.8485 7.11647C14.8889 7.90614 14.8333 8.69783 14.683 9.47389Z" fill="white"/>
</svg>
