<svg width="16" height="27" viewBox="0 0 16 27" fill="none" xmlns="http://www.w3.org/2000/svg">
<path d="M2.96678 1.18762L2.96701 1.18784L14.788 12.426C15.4038 13.0114 15.4042 13.9885 14.7879 14.573C14.7879 14.573 14.7878 14.5731 14.7878 14.5731L2.96569 25.8122L2.79344 25.631L2.96569 25.8122C2.35148 26.3961 1.35867 26.3958 0.743461 25.8124L0.743232 25.8122C0.120679 25.2203 0.120678 24.2571 0.743231 23.6653L11.4359 13.5L0.744777 3.33372L2.96678 1.18762ZM2.96678 1.18762C2.35156 0.604241 1.35875 0.603936 0.744547 1.18784M2.96678 1.18762L0.744547 1.18784M0.744547 1.18784C0.122002 1.77841 0.121993 2.7429 0.744524 3.33348L0.744547 1.18784Z" fill="white" stroke="white" stroke-width="0.5"/>
</svg>
