<svg width="16" height="27" viewBox="0 0 16 27" fill="none" xmlns="http://www.w3.org/2000/svg">
<path d="M12.397 25.8077L12.3967 25.8075L1.18736 14.5694C0.60434 13.9849 0.604015 13.0151 1.18758 12.4315L12.398 1.19248C12.9866 0.602383 13.943 0.602705 14.5326 1.19225L14.5328 1.19247C15.1221 1.78334 15.1222 2.73925 14.5328 3.33011L4.38868 13.5L14.5313 23.6709C14.5314 23.671 14.5314 23.671 14.5315 23.6711L14.5316 23.6712L14.3545 23.8477C14.8466 24.3397 14.8466 25.1389 14.3545 25.631L12.397 25.8077ZM12.397 25.8077C12.9865 26.3973 13.9428 26.3976 14.5314 25.8076L12.397 25.8077Z" fill="white" stroke="white" stroke-width="0.5"/>
</svg>
