<svg width="18" height="25" viewBox="0 0 18 25" fill="none" xmlns="http://www.w3.org/2000/svg">
<path d="M11.7781 17.7124C10.7663 19.1576 9.75444 20.4354 9.07101 21.2549L9 21.3342L8.929 21.2549C8.25444 20.4354 7.23374 19.1664 6.22191 17.7124C3.63908 13.9937 2.27222 10.883 2.27222 8.71521C2.27222 6.98803 2.96452 5.3754 4.216 4.15933C5.48522 2.93444 7.18048 2.25591 9.00888 2.25591C10.8284 2.25591 12.5325 2.93444 13.8018 4.15933C15.0532 5.3754 15.7455 6.98803 15.7455 8.71521C15.7367 10.883 14.3698 13.9937 11.7781 17.7124Z" fill="white"/>
<path d="M15.3816 2.54671C13.6863 0.90765 11.423 0 8.99997 0C6.58578 0 4.32247 0.90765 2.62721 2.54671C0.931949 4.18577 0 6.37999 0 8.71521C0 11.3853 1.47337 14.8573 4.3846 19.0254C6.52365 22.1009 8.64494 24.3744 8.7337 24.4713L8.99997 24.7621L9.26624 24.4713C9.28399 24.4449 11.4408 22.1449 13.6153 19.0254C16.5266 14.8573 17.9999 11.3853 17.9999 8.71521C18.0088 6.37999 17.0769 4.18577 15.3816 2.54671ZM11.7781 17.7124C10.7662 19.1576 9.7544 20.4354 9.07097 21.2549L8.99997 21.3342L8.92896 21.2549C8.25441 20.4354 7.2337 19.1664 6.22187 17.7124C3.63904 13.9937 2.27218 10.883 2.27218 8.71521C2.27218 6.98803 2.96449 5.37541 4.21596 4.15933C5.48519 2.93444 7.18045 2.25591 9.00884 2.25591C10.8284 2.25591 12.5325 2.93444 13.8017 4.15933C15.0532 5.37541 15.7455 6.98803 15.7455 8.71521C15.7366 10.883 14.3698 13.9937 11.7781 17.7124Z" fill="#2399E2"/>
<path d="M8.99989 5.06699C7.05611 5.06699 5.48511 6.63555 5.48511 8.5566C5.48511 10.4776 7.06498 12.0462 8.99989 12.0462C10.9348 12.0462 12.5147 10.4776 12.5147 8.5566C12.5147 6.63555 10.9437 5.06699 8.99989 5.06699Z" fill="#2399E2"/>
</svg>
