<svg width="18" height="25" viewBox="0 0 18 25" fill="none" xmlns="http://www.w3.org/2000/svg">
<path d="M14.7351 2.54921C13.1252 0.907937 10.9814 0 8.67917 0C6.38527 0 4.24151 0.907937 2.63161 2.54921C1.02171 4.19048 0.137512 6.38175 0.137512 8.72143C0.137512 11.3841 1.53054 14.8413 4.27488 18.9881C6.3102 22.0611 8.35385 24.3746 8.37054 24.3921L8.68751 24.75L9.00449 24.3921C9.02117 24.3659 11.0648 22.0611 13.1001 18.9881C15.8445 14.8413 17.2375 11.3929 17.2375 8.72143C17.2292 6.38175 16.345 4.19048 14.7351 2.54921ZM8.67917 11.777C6.87742 11.777 5.41766 10.2754 5.41766 8.43333C5.41766 6.59127 6.87742 5.08968 8.67917 5.08968C10.4809 5.08968 11.9407 6.59127 11.9407 8.43333C11.9407 10.2754 10.4809 11.777 8.67917 11.777Z" fill="#DE5617"/>
</svg>
