<svg width="103" height="76" viewBox="0 0 103 76" fill="none" xmlns="http://www.w3.org/2000/svg">
<path fill-rule="evenodd" clip-rule="evenodd" d="M102 3C102 1.89543 101.105 1 100 1H3C1.89543 1 1 1.89543 1 3V65C1 66.1046 1.89543 67 3 67H13.5963C14.265 67 14.8895 67.3342 15.2604 67.8906L19.6692 74.5038C20.4609 75.6913 22.2058 75.6913 22.9974 74.5038L27.4063 67.8906C27.7772 67.3342 28.4017 67 29.0704 67H100C101.105 67 102 66.1046 102 65V3Z" fill="#DE5617"/>
<path d="M27.4063 67.8906L27.8223 68.1679L27.4063 67.8906ZM22.9974 74.5038L23.4135 74.7812L22.9974 74.5038ZM15.2604 67.8906L14.8444 68.168L15.2604 67.8906ZM3 1.5H100V0.5H3V1.5ZM1.5 65V3H0.5V65H1.5ZM13.5963 66.5H3V67.5H13.5963V66.5ZM20.0853 74.2265L15.6764 67.6133L14.8444 68.168L19.2532 74.7812L20.0853 74.2265ZM26.9902 67.6133L22.5814 74.2265L23.4135 74.7812L27.8223 68.1679L26.9902 67.6133ZM100 66.5H29.0704V67.5H100V66.5ZM101.5 3V65H102.5V3H101.5ZM100 67.5C101.381 67.5 102.5 66.3807 102.5 65H101.5C101.5 65.8284 100.828 66.5 100 66.5V67.5ZM27.8223 68.1679C28.1005 67.7506 28.5688 67.5 29.0704 67.5V66.5C28.2345 66.5 27.4539 66.9178 26.9902 67.6133L27.8223 68.1679ZM19.2532 74.7812C20.2428 76.2655 22.4239 76.2655 23.4135 74.7812L22.5814 74.2265C21.9877 75.1171 20.679 75.1171 20.0853 74.2265L19.2532 74.7812ZM13.5963 67.5C14.0978 67.5 14.5662 67.7507 14.8444 68.168L15.6764 67.6133C15.2128 66.9178 14.4322 66.5 13.5963 66.5V67.5ZM0.5 65C0.5 66.3807 1.61929 67.5 3 67.5V66.5C2.17157 66.5 1.5 65.8284 1.5 65H0.5ZM100 1.5C100.828 1.5 101.5 2.17157 101.5 3H102.5C102.5 1.61929 101.381 0.5 100 0.5V1.5ZM3 0.5C1.61929 0.5 0.5 1.61929 0.5 3H1.5C1.5 2.17157 2.17157 1.5 3 1.5V0.5Z" fill="#CCCCCC"/>
<path fill-rule="evenodd" clip-rule="evenodd" d="M15.0283 30.52V14H88.8254V16.1971H87.7716V15.0543H16.0706V30.52H15.0283ZM15.0283 55.7286V45.3771H16.0851V54.6857H87.7716V34.6029H88.8254V55.7286H15.0283Z" fill="white"/>
<path fill-rule="evenodd" clip-rule="evenodd" d="M26.8032 28.0001C28.2237 27.7144 29.0524 27.7429 29.2776 28.1401L34.1861 26.8658L34.6625 26.5001L34.7318 26.4801C35.5113 26.4515 36.0243 26.642 36.2707 27.0515L36.3429 27.1772C35.8771 28.1925 34.8434 29.7506 33.2419 31.8515L33.1004 31.9001L32.9878 31.8572L32.9185 31.7258L33.5797 28.6029C32.0505 28.8529 30.5442 29.2246 29.0755 29.7144C28.498 29.8887 27.8513 30.7087 27.1612 32.1572C26.3816 33.1096 25.2171 35.6115 23.6675 39.6629L23.6329 39.7458L23.6675 39.8144C27.0573 38.5287 29.4855 37.5134 30.9523 36.7687C31.5124 36.8515 31.8935 37.0544 32.0841 37.3944L32.1534 37.5201C31.6046 38.681 30.7912 39.7001 29.7771 40.4972L29.6703 40.4544L29.6299 40.3858C29.5721 40.2887 29.6587 39.7887 29.8753 38.8915L29.8406 38.8287L29.1102 39.0515C24.9197 40.4572 22.9043 41.2934 23.0641 41.5601C21.8841 45.5182 21.7484 48.2801 22.657 49.8458L22.7349 49.9772C22.9467 50.3448 23.4221 50.5744 24.1613 50.6658C24.2017 50.7344 24.0891 50.8401 23.8292 50.9858C22.8822 51.2715 21.8081 50.8801 20.5839 49.8087L20.2259 49.3229C19.4116 47.9172 19.3202 45.6982 19.9516 42.6658L19.4809 42.8801L19.1142 42.9915C17.8977 43.2487 17.1201 43.0868 16.7813 42.5058L16.8506 42.4858L17.6879 42.3029L17.8352 42.2629C19.7697 41.6715 20.6416 41.2058 20.4337 40.8629C22.0506 36.1334 23.3682 32.962 24.3865 31.3487L24.2392 31.3887C22.8591 31.8153 20.6282 33.021 17.5464 35.0058C14.4897 37.5944 13.3348 39.522 14.0816 40.7887L14.2289 41.0458C14.405 41.3315 14.9882 41.6172 15.9786 41.8515L15.8718 42.1172C13.5889 42.4982 12.0682 42.0363 11.3098 40.7315C10.3474 39.082 11.6274 36.9191 15.1499 34.2429C18.2285 32.2054 21.5924 30.6258 25.1343 29.5544L26.2517 28.2401L26.8032 28.0001Z" fill="white"/>
<path fill-rule="evenodd" clip-rule="evenodd" d="M36.8278 34.8258L37.0328 34.7629C37.9943 34.7629 39.054 35.2287 40.1887 36.1487L40.4774 36.4887C40.821 37.3801 40.8152 37.8801 40.4485 37.9915L40.359 37.9487L40.3157 37.8801C40.3465 37.5357 40.2837 37.1895 40.1338 36.8772L40.0992 36.8172C39.8364 36.3772 39.282 36.2858 38.3956 36.5715C36.3091 37.2058 34.6546 39.2953 33.4323 42.8401C33.1089 44.5315 33.1234 45.6629 33.4612 46.2687C34.7259 43.5772 36.003 41.482 37.2927 39.9829C37.2292 39.8744 37.4053 39.7201 37.8268 39.5315C38.2888 39.3944 38.95 39.5944 39.8075 40.1372L39.8364 40.1944C39.4842 40.3029 39.4437 41.2572 39.7238 43.0715L40.2291 44.2144C40.3999 44.5103 40.6338 44.7658 40.9145 44.9632C41.1953 45.1605 41.5161 45.295 41.8547 45.3572L41.924 45.4772L41.719 45.5372C40.8008 45.8172 39.8874 45.5506 38.9789 44.7372L38.2137 43.8401C37.7825 43.0304 37.5194 42.1434 37.4399 41.2315L37.362 41.2544C36.7171 41.8772 35.8432 43.621 34.7403 46.4858C34.4862 47.6544 34.2552 48.2658 34.0358 48.3344C33.5507 48.481 32.7875 48.1001 31.7461 47.1915L31.6393 47.0115C30.3824 44.8458 30.7952 41.9229 32.878 38.2429C34.0329 36.4115 35.3582 35.2772 36.8278 34.8144V34.8258Z" fill="white"/>
<path fill-rule="evenodd" clip-rule="evenodd" d="M43.555 32.7743C44.7561 32.7943 45.501 33.0314 45.784 33.4629C46.0669 33.8943 45.5645 36.0914 44.2854 40.0343C46.7878 34.9771 48.4586 32.2895 49.2978 31.9714C49.3708 31.928 49.4527 31.9017 49.5375 31.8943C50.7386 31.8943 51.4922 32.1657 51.7925 32.6886C51.9138 32.879 51.6558 33.9733 51.0187 35.9714C50.5221 38.28 50.5567 39.9371 51.14 40.9371C51.625 41.7743 52.1736 42.1 52.7771 41.9114C52.7903 41.9196 52.8012 41.931 52.8087 41.9445C52.8163 41.958 52.8203 41.9731 52.8204 41.9886C52.8348 42.2457 52.6442 42.4257 52.2429 42.56L52.1678 42.58C50.7964 42.8114 49.6934 42.2943 48.8503 41.0086L48.6944 40.7457C47.9148 39.4124 47.8965 37.179 48.6395 34.0457L48.6597 33.9143L48.602 33.9829C47.345 35.659 45.7897 38.7133 43.9361 43.1457C43.7012 44.0771 43.605 44.64 43.6473 44.8343C43.6544 44.9206 43.6829 45.0038 43.7302 45.0765C43.7775 45.1493 43.8423 45.2094 43.9188 45.2514C42.7465 45.4829 41.9727 45.2943 41.6089 44.68L41.4241 44.3371C41.1719 43.899 41.3548 42.2162 41.9727 39.2886L42.9515 34.2229L42.9082 34.1629L42.8389 34.1829C42.4173 34.715 41.9692 35.2261 41.4963 35.7143C41.4573 35.7481 41.4093 35.7699 41.358 35.777C41.3067 35.7841 41.2544 35.7762 41.2076 35.7543C41.1152 35.7143 41.0805 35.6029 41.095 35.4143C41.9323 33.8971 42.7465 33.0143 43.5492 32.7714L43.555 32.7743Z" fill="white"/>
<path fill-rule="evenodd" clip-rule="evenodd" d="M55.3852 39.5486C55.4399 39.6143 55.5087 39.6672 55.5866 39.7033C55.6645 39.7394 55.7496 39.7578 55.8356 39.7571C56.8635 39.0771 58.2061 36.7657 59.8635 32.8228C60.2003 31.6114 60.2475 30.7276 60.0049 30.1714C59.9352 30.0989 59.845 30.049 59.7461 30.0281C59.6471 30.0072 59.5442 30.0163 59.4506 30.0543L59.1821 30.1371C57.5305 30.6457 56.1735 32.6124 55.1109 36.0371C54.8261 37.5743 54.9223 38.7448 55.3997 39.5486H55.3852ZM62.3812 30.0886L62.4447 30.0686C64.9471 24.9695 66.334 21.5838 66.6054 19.9114V19.34L66.5361 19.36C65.7074 20.5029 64.6882 22.6229 63.4784 25.7257C62.6353 28.4305 62.2696 29.8819 62.3812 30.08V30.0886ZM64.948 17.5971C65.462 17.4429 66.3542 17.7343 67.6275 18.48L67.6968 18.5914C68.3589 19.9552 66.6342 24.3362 62.5227 31.7343C62.003 34.4314 62.1223 36.4371 62.8807 37.7514C63.3023 38.4743 63.7873 38.7457 64.3244 38.5771L64.4312 38.76L64.0154 38.8857C63.0106 39.1971 61.9943 38.7314 60.9578 37.5L60.7816 37.1886C60.4063 36.5425 60.1584 35.8319 60.0511 35.0943C58.9751 38.5038 57.9694 40.4324 57.0339 40.88C56.1677 41.1457 55.0387 40.7343 53.6673 39.6486L53.3785 39.1686C52.4507 37.5552 52.6423 35.2895 53.9531 32.3714C55.108 30.1371 56.3987 28.8038 57.825 28.3714C58.2552 28.2486 59.0146 28.5314 60.0973 29.2286L60.1666 29.3543L61.1916 24.7371C62.6603 20.2914 63.9115 17.9105 64.9452 17.5943L64.948 17.5971Z" fill="white"/>
<path fill-rule="evenodd" clip-rule="evenodd" d="M69.2561 24.9544C69.9866 24.7344 71.1762 25.1772 72.8335 26.2972L72.9259 26.3401L72.9663 26.4029C73.6073 27.5153 72.8181 28.9877 70.5987 30.8201C70.0905 31.1844 69.5312 31.4732 68.9385 31.6772C68.3264 31.8115 67.9684 31.8029 67.8846 31.6515C67.9395 31.5315 68.3755 31.2344 69.207 30.7601C70.7604 28.9086 71.3869 27.4144 71.0693 26.2886L71 26.3086C69.7758 26.9544 68.5083 28.6191 67.1974 31.3029C66.5853 33.1582 66.5199 34.5039 67.0011 35.3401C67.4573 35.9115 67.9481 36.1001 68.4621 35.9401C69.5939 35.5001 70.9038 33.9601 72.3917 31.3201L72.4119 31.2372L72.4899 31.2172L72.5967 31.2572L72.6314 31.3144C72.7844 32.3372 72.077 33.9972 70.4948 36.2944C70.2142 36.604 69.8722 36.853 69.49 37.0258C68.3841 37.3658 67.1137 36.9544 65.6787 35.8086L65.0608 35.1601C63.8847 33.1372 64.5584 30.3248 67.0819 26.7229C67.9684 25.7144 68.6931 25.1229 69.2474 24.9544H69.2561Z" fill="white"/>
<path fill-rule="evenodd" clip-rule="evenodd" d="M78.6187 22.1114L78.6967 22.0828C79.2424 21.9171 80.2645 22.3057 81.7457 23.2514L81.8178 23.3685C80.9709 25.0257 80.2462 26.1485 79.6437 26.7371L79.5802 26.7571C79.4762 26.5771 79.6235 25.5542 80.0306 23.7028L79.9526 23.7257C77.7871 25.5695 76.4898 27.7999 76.0605 30.4171C75.9826 31.2742 76.0865 31.9742 76.3752 32.4742L76.4445 32.5942C76.8603 33.0657 77.3107 33.2257 77.8305 33.0742C79.0412 32.5657 80.3395 31.0123 81.7255 28.4142L82.0286 28.5171C81.9564 29.8742 81.2606 31.4514 79.9382 33.2599C79.6475 33.6949 79.2204 34.0232 78.7226 34.1942C77.7044 34.5047 76.406 34.0457 74.8276 32.8171L74.4436 32.2857L74.3426 32.1199C73.3801 30.4418 73.8912 27.9399 75.8757 24.6142C77.0162 23.1457 77.9373 22.3114 78.6187 22.1028V22.1114Z" fill="white"/>
<path fill-rule="evenodd" clip-rule="evenodd" d="M87.8272 18.8C88.4681 18.6058 89.6115 18.9658 91.2717 19.8915C91.5605 20.1429 91.5605 20.2886 91.2717 20.3429C90.7398 20.2113 90.1841 20.2045 89.6491 20.3229C87.6895 20.921 86.1641 22.8686 85.0726 26.1658C84.7695 27.6886 84.8705 28.9058 85.3614 29.8258L85.4798 30C85.7454 30.3972 86.2102 30.5372 86.8859 30.4315C88.4508 29.9534 89.6009 27.801 90.3362 23.9743C90.4218 23.1964 90.2603 22.4115 89.8743 21.7286C89.7876 21.5972 89.522 21.4858 89.0774 21.3886L89.0369 21.3258C88.9734 21.2143 89.0369 21.1086 89.2333 21.0115C89.4747 20.8963 89.7271 20.8054 89.9869 20.74C90.8531 20.5743 91.5749 20.9 92.1581 21.7086C92.5993 22.3442 92.8349 23.0975 92.8338 23.8686V24C92.8126 25.4419 92.1389 27.1667 90.8126 29.1743C89.8714 30.3572 88.9667 31.08 88.0986 31.3429L87.882 31.4058C86.7271 31.8029 85.7858 31.8029 85.0553 31.42C84.3315 31.0478 83.7534 30.4477 83.4124 29.7143L83.2652 29.4572C82.1276 27.5029 82.423 24.9915 84.1516 21.9229C85.2748 20.24 86.5048 19.1972 87.8272 18.7943V18.8Z" fill="white"/>
<path fill-rule="evenodd" clip-rule="evenodd" d="M65.3811 46.0688H64.3417C64.4386 45.9177 64.519 45.7568 64.5813 45.5888C64.6634 45.3925 64.7291 45.1899 64.7776 44.9831C64.8325 44.7602 64.8816 44.5259 64.9191 44.2802H65.3811V46.0773V46.0688ZM63.5332 47.3402H64.0876V46.5545H65.7824V47.3402H66.3455V46.0688H65.9586V43.8059H64.4745C64.4062 44.2719 64.3029 44.7322 64.1655 45.1831C64.0722 45.5045 63.9174 45.8052 63.7093 46.0688H63.5361V47.3402H63.5332Z" fill="white"/>
<path fill-rule="evenodd" clip-rule="evenodd" d="M67.3438 46.5545H68.9462V46.0745H67.9183V45.4059H68.7961V44.9259H67.9183V44.2945H68.7961L68.9462 43.8059H67.3438V46.5545Z" fill="white"/>
<path fill-rule="evenodd" clip-rule="evenodd" d="M70.0635 46.5544H70.6409V45.3916H71.0134C71.0446 45.3918 71.0749 45.4018 71.1 45.4201C71.1334 45.4417 71.1619 45.47 71.1838 45.503C71.2217 45.5581 71.2545 45.6164 71.2819 45.6773L71.689 46.5544H72.3589L71.7814 45.4544C71.746 45.3778 71.6982 45.3073 71.64 45.2459C71.5956 45.1988 71.54 45.1634 71.4783 45.143C71.5417 45.1055 71.5951 45.0536 71.6342 44.9916C71.6773 44.9271 71.715 44.8593 71.7468 44.7887C71.7814 44.7116 71.8103 44.643 71.8363 44.5744C71.8623 44.5059 71.894 44.4487 71.9229 44.4001C71.9437 44.3692 71.9726 44.3445 72.0066 44.3287C72.0407 44.3092 72.08 44.3002 72.1192 44.303C72.1471 44.3002 72.1751 44.3002 72.203 44.303C72.2372 44.3067 72.2704 44.3163 72.3012 44.3316V43.8287C72.2545 43.8083 72.2047 43.7958 72.1539 43.7916C72.0962 43.7916 72.0471 43.7916 71.998 43.7916C71.8953 43.7882 71.7936 43.8131 71.7044 43.8635C71.6152 43.914 71.5419 43.988 71.4927 44.0773C71.4581 44.1544 71.4147 44.2316 71.3888 44.3087C71.3628 44.3859 71.331 44.4687 71.3021 44.5373C71.2733 44.6059 71.2386 44.683 71.204 44.7459C71.1732 44.805 71.1275 44.8552 71.0712 44.8916C71.0153 44.93 70.9486 44.95 70.8806 44.9487H70.6409V43.8059H70.0635V46.5544Z" fill="white"/>
<path fill-rule="evenodd" clip-rule="evenodd" d="M74.626 46.123C74.4811 46.1219 74.3397 46.0792 74.2188 46.0001C74.0928 45.9265 73.9922 45.8169 73.9301 45.6858C73.8624 45.5258 73.829 45.3536 73.8319 45.1801C73.8281 45.0056 73.8616 44.8323 73.9301 44.6715C73.9946 44.5405 74.0946 44.4297 74.2188 44.3515C74.3475 44.2805 74.4931 44.245 74.6404 44.2487C74.7885 44.244 74.9349 44.2817 75.0619 44.3572C75.1875 44.4314 75.288 44.5408 75.3507 44.6715C75.4197 44.8322 75.4532 45.0056 75.4488 45.1801C75.4543 45.3544 75.4187 45.5275 75.3449 45.6858C75.2893 45.8166 75.1933 45.9267 75.0706 46.0001C74.9444 46.0779 74.7976 46.1167 74.6491 46.1115L74.626 46.123ZM74.626 46.5972C74.823 46.5995 75.0188 46.5656 75.2034 46.4972C75.372 46.434 75.5254 46.3367 75.6538 46.2115C75.7822 46.0859 75.8808 45.9337 75.9426 45.7658C76.0099 45.5828 76.0431 45.3892 76.0407 45.1944C76.0426 44.9997 76.0093 44.8062 75.9426 44.623C75.8787 44.4561 75.7804 44.3043 75.6538 44.1772C75.5246 44.053 75.3714 43.9558 75.2034 43.8915C75.0198 43.8194 74.8235 43.7844 74.626 43.7887C74.4286 43.7864 74.2326 43.8213 74.0485 43.8915C73.8812 43.9524 73.7302 44.0501 73.6067 44.1772C73.4815 44.3053 73.3833 44.4569 73.318 44.623C73.2454 44.8048 73.2092 44.9989 73.2112 45.1944C73.2077 45.39 73.244 45.5844 73.318 45.7658C73.3819 45.9326 73.4802 46.0844 73.6067 46.2115C73.732 46.3365 73.8825 46.4339 74.0485 46.4972C74.2336 46.5637 74.429 46.5976 74.626 46.5972Z" fill="white"/>
<path fill-rule="evenodd" clip-rule="evenodd" d="M77.7034 45.1687V44.2858H77.8304C77.8908 44.2781 77.952 44.2781 78.0123 44.2858C78.0606 44.2919 78.107 44.3085 78.148 44.3344C78.2124 44.3735 78.2651 44.4287 78.3011 44.4944C78.335 44.5638 78.3518 44.6401 78.3502 44.7172C78.3545 44.801 78.3376 44.8844 78.3011 44.9601C78.2673 45.0288 78.21 45.0835 78.1394 45.1144C78.0975 45.135 78.0527 45.1494 78.0066 45.1572C77.95 45.1634 77.8928 45.1634 77.8362 45.1572L77.7034 45.1687ZM77.1259 46.5544H77.7034V45.6372H77.8016C77.9128 45.6361 78.0238 45.6265 78.1336 45.6087C78.2244 45.5941 78.3135 45.5702 78.3992 45.5372C78.5227 45.4922 78.6336 45.4188 78.7226 45.3229C78.8035 45.243 78.8639 45.145 78.8988 45.0372C78.9322 44.9338 78.9487 44.8258 78.9478 44.7172C78.9561 44.5474 78.915 44.3789 78.8295 44.2315C78.7489 44.0975 78.6291 43.9908 78.4859 43.9258C78.3946 43.8817 78.2973 43.8509 78.1971 43.8344C78.0809 43.814 77.9629 43.8044 77.8449 43.8058H77.123V46.5544H77.1259Z" fill="white"/>
<path fill-rule="evenodd" clip-rule="evenodd" d="M81.4717 46.5545H82.0145L83.155 45.0516C83.2098 44.9831 83.2589 44.9202 83.3022 44.8573C83.3456 44.7945 83.3946 44.7316 83.4408 44.6688C83.4408 44.7031 83.4408 44.7459 83.4408 44.7888C83.4408 44.8316 83.4408 44.8859 83.4408 44.9345V46.5545H84.0183V43.8059H83.4408L82.3379 45.2545C82.283 45.3231 82.2339 45.3859 82.1906 45.4488C82.1473 45.5116 82.0982 45.5745 82.0578 45.6373C82.0578 45.5888 82.0578 45.5316 82.0578 45.4773V43.8059H81.4803V46.5545H81.4717Z" fill="white"/>
<path fill-rule="evenodd" clip-rule="evenodd" d="M56.1442 50.6028C55.9965 50.6067 55.8506 50.5701 55.7226 50.4971C55.5972 50.4241 55.4966 50.3156 55.4339 50.1857C55.3652 50.023 55.3317 49.8477 55.3357 49.6714C55.3314 49.4969 55.3649 49.3235 55.4339 49.1628C55.4966 49.0321 55.5971 48.9227 55.7226 48.8486C55.8509 48.7756 55.9962 48.7372 56.1442 48.7372C56.2921 48.7372 56.4375 48.7756 56.5657 48.8486C56.6886 48.9218 56.7846 49.0319 56.84 49.1628C56.9122 49.3228 56.9486 49.4963 56.9469 49.6714C56.9482 49.8484 56.9118 50.0236 56.84 50.1857C56.7792 50.3169 56.6782 50.4258 56.5513 50.4971C56.4253 50.5697 56.2813 50.6063 56.1355 50.6028H56.1442ZM56.1442 51.0828C56.3419 51.0865 56.5383 51.0505 56.7216 50.9771C56.8911 50.9164 57.045 50.8197 57.1727 50.6938C57.3004 50.5679 57.3987 50.416 57.4608 50.2486C57.6019 49.8804 57.6019 49.4739 57.4608 49.1057C57.3995 48.9376 57.3008 48.7853 57.1721 48.66C57.0436 48.5348 56.8902 48.4375 56.7216 48.3743C56.5361 48.3087 56.3411 48.2731 56.1442 48.2686C55.947 48.271 55.7517 48.3068 55.5667 48.3743C55.3981 48.4375 55.2447 48.5348 55.1163 48.66C54.9895 48.7869 54.8911 48.9387 54.8276 49.1057C54.7556 49.2877 54.7194 49.4817 54.7207 49.6771C54.7201 49.8725 54.7564 50.0663 54.8276 50.2486C54.8932 50.4145 54.9914 50.5659 55.1163 50.6943C55.2451 50.8189 55.3984 50.9162 55.5667 50.98C55.7502 51.0528 55.9465 51.0888 56.1442 51.0857V51.0828Z" fill="white"/>
<path fill-rule="evenodd" clip-rule="evenodd" d="M60.7352 50.4086C60.6345 50.4652 60.528 50.5112 60.4176 50.5458C60.2962 50.588 60.168 50.6074 60.0394 50.6029C59.8739 50.61 59.7101 50.5682 59.5687 50.4829C59.4447 50.4057 59.3447 50.2959 59.28 50.1658C59.2096 50.0151 59.1713 49.8517 59.1674 49.6858C59.1685 49.5627 59.188 49.4404 59.2251 49.3229C59.2595 49.2168 59.3166 49.1194 59.3926 49.0372C59.4727 48.9481 59.5712 48.877 59.6813 48.8286C59.8067 48.7805 59.9396 48.7544 60.074 48.7515C60.2015 48.7541 60.3283 48.7703 60.4523 48.8001C60.575 48.8298 60.6934 48.8749 60.8045 48.9343V48.4115C60.702 48.364 60.5931 48.3313 60.4811 48.3143C60.342 48.2887 60.201 48.2744 60.0596 48.2715C59.8479 48.2738 59.6385 48.3145 59.4417 48.3915C59.2635 48.457 59.1027 48.5615 58.9711 48.6972C58.8382 48.8242 58.7347 48.9782 58.6679 49.1486C58.5955 49.3305 58.5592 49.5246 58.5611 49.7201C58.5561 49.9145 58.5874 50.1082 58.6534 50.2915C58.7131 50.4545 58.8065 50.6034 58.9277 50.7286C59.052 50.8548 59.2028 50.9524 59.3695 51.0143C59.5678 51.0881 59.7785 51.1239 59.9903 51.1201C60.1408 51.1206 60.291 51.1043 60.4378 51.0715C60.6052 51.0336 60.7665 50.9731 60.9171 50.8915L60.7554 50.4458L60.7352 50.4086Z" fill="white"/>
<path fill-rule="evenodd" clip-rule="evenodd" d="M62.47 49.4286V48.7743H62.6693C62.7463 48.7719 62.8231 48.7856 62.8945 48.8143C62.9489 48.8417 62.9948 48.8832 63.0273 48.9343C63.0567 48.9877 63.0717 49.0478 63.0706 49.1086C63.0706 49.1648 63.0557 49.22 63.0273 49.2686C62.993 49.3175 62.9475 49.3576 62.8945 49.3858C62.8286 49.4162 62.7564 49.4309 62.6837 49.4286H62.47ZM62.47 50.5886V49.8943H62.8223C62.9328 49.885 63.0429 49.9165 63.1312 49.9829C63.169 50.0115 63.199 50.0489 63.2187 50.0918C63.2383 50.1347 63.247 50.1817 63.2438 50.2286C63.2505 50.2798 63.2429 50.3318 63.2221 50.3791C63.2012 50.4264 63.1679 50.4672 63.1255 50.4972C63.02 50.5669 62.8938 50.5991 62.7674 50.5886H62.47ZM61.8926 51.0543H62.8396C62.9859 51.056 63.1314 51.0328 63.2698 50.9858C63.3843 50.9435 63.4892 50.8794 63.5788 50.7972C63.6599 50.7254 63.7223 50.6352 63.7607 50.5343C63.803 50.4379 63.8246 50.3338 63.8242 50.2286C63.8231 50.1309 63.8045 50.0342 63.7693 49.9429C63.7286 49.8547 63.6684 49.7766 63.5932 49.7143C63.5083 49.6476 63.4098 49.5998 63.3045 49.5743V49.5601C63.3745 49.5281 63.4367 49.4813 63.4864 49.4229C63.5358 49.3657 63.574 49.2998 63.599 49.2286C63.6231 49.1587 63.6358 49.0854 63.6365 49.0115C63.6378 48.9234 63.6211 48.8359 63.5874 48.7543C63.5493 48.67 63.4943 48.5942 63.4257 48.5315C63.3474 48.4616 63.2563 48.4073 63.1572 48.3715C63.0298 48.3343 62.8974 48.316 62.7645 48.3172H61.8984V51.0629L61.8926 51.0543Z" fill="white"/>
<path fill-rule="evenodd" clip-rule="evenodd" d="M64.8809 51.0401H66.4862V50.5544H65.4583V49.8859H66.339V49.4059H65.4583V48.7744H66.339L66.4862 48.2944H64.8809V51.0401Z" fill="white"/>
<path fill-rule="evenodd" clip-rule="evenodd" d="M67.6035 51.0401H70.8575V51.8259H71.4206V50.5544H71.0337V48.2944H70.4562V50.5544H69.6073V48.2944H69.0299V50.5544H68.1781V48.2944H67.6035V51.0401Z" fill="white"/>
<path fill-rule="evenodd" clip-rule="evenodd" d="M72.417 51.0401H74.0223V50.5544H72.9945V49.8859H73.8722V49.4059H72.9945V48.7744H73.8722L74.0223 48.2944H72.417V51.0401Z" fill="white"/>
<path fill-rule="evenodd" clip-rule="evenodd" d="M75.1396 51.0401H75.7142V49.8859H76.9731V51.0401H77.5563V48.2944H76.9731V49.3916H75.7142V48.2944H75.1396V51.0401Z" fill="white"/>
<path fill-rule="evenodd" clip-rule="evenodd" d="M78.752 51.0402H79.2861L80.4237 49.5316C80.4783 49.4711 80.5275 49.4061 80.571 49.3373C80.6229 49.2745 80.6634 49.2116 80.7124 49.1573C80.7124 49.1916 80.7124 49.2259 80.7124 49.2745C80.7124 49.323 80.7124 49.3659 80.7124 49.4145V51.0402H81.2899V48.2859H80.7124L79.6095 49.7316C79.5546 49.8002 79.5027 49.863 79.4622 49.9259C79.4218 49.9887 79.3698 50.0516 79.3294 50.1059C79.3294 50.0573 79.3294 50.0087 79.3294 49.9545V48.2859H78.752V51.0316V51.0402Z" fill="white"/>
<path fill-rule="evenodd" clip-rule="evenodd" d="M82.4854 51.0401H84.0878V50.5544H83.0686V49.8859H83.9463V49.4059H83.0686V48.7744H83.9406L84.0936 48.2944H82.4854V51.0401Z" fill="white"/>
</svg>
