<svg width="19" height="18" viewBox="0 0 19 18" fill="none" xmlns="http://www.w3.org/2000/svg">
<path d="M11.5463 8.99941L18.4488 2.26917C18.6387 2.0839 18.7435 1.83673 18.7438 1.57317C18.7438 1.30946 18.639 1.062 18.4488 0.877024L17.844 0.287415C17.6538 0.101707 17.4003 0 17.1297 0C16.8595 0 16.606 0.101707 16.4158 0.287415L9.5133 7.01722L2.61048 0.287415C2.42061 0.101707 2.16695 0 1.89649 0C1.62632 0 1.37266 0.101707 1.18279 0.287415L0.577611 0.877024C0.183765 1.26102 0.183765 1.88561 0.577611 2.26917L7.48028 8.99941L0.577611 15.7294C0.387592 15.9149 0.282977 16.1621 0.282977 16.4257C0.282977 16.6892 0.387592 16.9364 0.577611 17.1218L1.18264 17.7114C1.37251 17.897 1.62632 17.9988 1.89634 17.9988C2.1668 17.9988 2.42046 17.897 2.61033 17.7114L9.51315 10.9815L16.4157 17.7114C16.6058 17.897 16.8593 17.9988 17.1295 17.9988H17.1298C17.4001 17.9988 17.6536 17.897 17.8438 17.7114L18.4487 17.1218C18.6386 16.9365 18.7433 16.6892 18.7433 16.4257C18.7433 16.1621 18.6386 15.9149 18.4487 15.7295L11.5463 8.99941Z" fill="white"/>
</svg>
