<svg width="26" height="18" viewBox="0 0 26 18" fill="none" xmlns="http://www.w3.org/2000/svg">
<path fill-rule="evenodd" clip-rule="evenodd" d="M24.1367 0H1.91449C0.970415 0 0.205084 0.671578 0.205084 1.5C0.205084 2.32842 0.970415 3 1.91449 3H24.1367C25.0808 3 25.8461 2.32842 25.8461 1.5C25.8461 0.671578 25.0808 0 24.1367 0ZM24.2438 7.02875H1.80708C0.922324 7.02875 0.205078 7.72806 0.205078 8.5907C0.205078 9.45333 0.922324 10.1526 1.80708 10.1526H24.2438C25.1286 10.1526 25.8458 9.45333 25.8458 8.5907C25.8458 7.72806 25.1286 7.02875 24.2438 7.02875ZM1.80715 14.0576H24.2143C25.099 14.0576 25.8163 14.7569 25.8163 15.6195C25.8163 16.4821 25.099 17.1815 24.2143 17.1815H1.80715C0.922391 17.1815 0.205146 16.4821 0.205146 15.6195C0.205146 14.7569 0.922391 14.0576 1.80715 14.0576Z" fill="#DE5617"/>
</svg>
