<svg width="42" height="40" viewBox="0 0 42 40" fill="none" xmlns="http://www.w3.org/2000/svg">
<path d="M26.3173 10.472C24.7724 8.88042 22.7151 8 20.5057 8C18.3043 8 16.2471 8.88042 14.7021 10.472C13.1571 12.0635 12.3086 14.1884 12.3086 16.4571C12.3086 19.0392 13.6454 22.3915 16.2791 26.4127C18.2323 29.3926 20.1935 31.636 20.2095 31.6529L20.5137 32L20.8179 31.6529C20.8339 31.6275 22.7951 29.3926 24.7484 26.4127C27.382 22.3915 28.7188 19.0476 28.7188 16.4571C28.7108 14.1884 27.8623 12.0635 26.3173 10.472ZM20.5057 19.4201C18.7766 19.4201 17.3758 17.964 17.3758 16.1778C17.3758 14.3915 18.7766 12.9354 20.5057 12.9354C22.2348 12.9354 23.6357 14.3915 23.6357 16.1778C23.6357 17.964 22.2348 19.4201 20.5057 19.4201Z" fill="white"/>
</svg>
