<svg width="9" height="8" viewBox="0 0 9 8" fill="none" xmlns="http://www.w3.org/2000/svg">
<g clip-path="url(#clip0)">
<path d="M2.5336 0.127872L2.26973 0.389922C2.18732 0.472394 2.14192 0.582119 2.14192 0.699388C2.14192 0.816592 2.18732 0.926447 2.26973 1.00892L5.25915 3.99821L2.26641 6.99095C2.18401 7.07329 2.13867 7.18315 2.13867 7.30035C2.13867 7.41756 2.18401 7.52748 2.26641 7.60988L2.52866 7.872C2.6992 8.04267 2.97699 8.04267 3.14753 7.872L6.72355 4.30878C6.8059 4.22644 6.86391 4.11672 6.86391 3.99847L6.86391 3.99711C6.86391 3.87984 6.80583 3.77011 6.72355 3.68777L3.15722 0.127872C3.07488 0.0453993 2.96183 0.000130284 2.84463 9.25751e-08C2.72736 7.71971e-08 2.61588 0.0453993 2.5336 0.127872Z" fill="#999999"/>
</g>
<defs>
<clipPath id="clip0">
<rect width="8" height="8" fill="white" transform="translate(8.64209) rotate(90)"/>
</clipPath>
</defs>
</svg>
