<svg width="20" height="20" viewBox="0 0 20 20" fill="none" xmlns="http://www.w3.org/2000/svg">
<path d="M10 1C5.02961 1 1 5.02961 1 10C1 14.9704 5.02961 19 10 19C14.9704 19 19 14.9704 19 10C19 5.02961 14.9704 1 10 1ZM14.5 15.0625C9.22656 15.0625 4.9375 10.7734 4.9375 5.5C4.9375 5.35082 4.99676 5.20774 5.10225 5.10225C5.20774 4.99676 5.35082 4.9375 5.5 4.9375H7.57668C7.72586 4.9375 7.86894 4.99676 7.97443 5.10225C8.07992 5.20774 8.13918 5.35082 8.13918 5.5C8.13524 6.45312 8.35094 7.39434 8.76953 8.25063C8.8021 8.31721 8.82118 8.38957 8.82569 8.46356C8.8302 8.53754 8.82004 8.61168 8.7958 8.68173C8.77156 8.75177 8.73371 8.81634 8.68444 8.87171C8.63516 8.92708 8.57543 8.97216 8.50867 9.00437L7.66773 9.40937C8.36546 10.625 9.37385 11.6333 10.5896 12.3309L10.9946 11.4927C11.0267 11.4259 11.0716 11.366 11.127 11.3166C11.1823 11.2671 11.2468 11.2292 11.3169 11.2048C11.3869 11.1804 11.4611 11.1701 11.5352 11.1745C11.6092 11.1789 11.6817 11.198 11.7483 11.2305C12.605 11.6489 13.5466 11.8646 14.5 11.8608C14.6492 11.8608 14.7923 11.9201 14.8977 12.0256C15.0032 12.1311 15.0625 12.2741 15.0625 12.4233V14.5C15.0625 14.6492 15.0032 14.7923 14.8977 14.8977C14.7923 15.0032 14.6492 15.0625 14.5 15.0625Z" fill="#DE5617"/>
</svg>
