<svg width="42" height="40" viewBox="0 0 42 40" fill="none" xmlns="http://www.w3.org/2000/svg">
<path d="M20.5128 8C13.7157 8 8.20508 13.3728 8.20508 20C8.20508 26.6272 13.7157 32 20.5128 32C27.3099 32 32.8205 26.6272 32.8205 20C32.8205 13.3728 27.3099 8 20.5128 8ZM26.6666 26.75C19.4551 26.75 13.5897 21.0312 13.5897 14C13.5897 13.8011 13.6707 13.6103 13.815 13.4697C13.9593 13.329 14.1549 13.25 14.3589 13.25H17.1988C17.4028 13.25 17.5985 13.329 17.7428 13.4697C17.887 13.6103 17.9681 13.8011 17.9681 14C17.9627 15.2708 18.2576 16.5258 18.8301 17.6675C18.8746 17.7563 18.9007 17.8528 18.9069 17.9514C18.913 18.0501 18.8991 18.1489 18.866 18.2423C18.8328 18.3357 18.7811 18.4218 18.7137 18.4956C18.6463 18.5694 18.5646 18.6296 18.4733 18.6725L17.3233 19.2125C18.2775 20.8333 19.6565 22.1777 21.319 23.1078L21.8729 21.9903C21.9167 21.9011 21.9783 21.8213 22.0539 21.7554C22.1296 21.6895 22.2178 21.6389 22.3136 21.6064C22.4094 21.5739 22.5109 21.5602 22.6121 21.566C22.7134 21.5719 22.8125 21.5973 22.9036 21.6406C24.0752 22.1985 25.3628 22.4861 26.6666 22.4811C26.8706 22.4811 27.0663 22.5601 27.2105 22.7008C27.3548 22.8414 27.4358 23.0322 27.4358 23.2311V26C27.4358 26.1989 27.3548 26.3897 27.2105 26.5303C27.0663 26.671 26.8706 26.75 26.6666 26.75Z" fill="#DE5617"/>
</svg>
