<svg width="25" height="18" viewBox="0 0 25 18" fill="none" xmlns="http://www.w3.org/2000/svg">
    <path fill-rule="evenodd" clip-rule="evenodd" d="M6.66667 0H23.3333C24.2538 0 25 0.671578 25 1.5C25 2.32842 24.2538 3 23.3333 3H6.66667C5.7462 3 5 2.32842 5 1.5C5 0.671578 5.7462 0 6.66667 0ZM2.67188 0.460729C2.96518 0.752325 3.13089 1.14833 3.13265 1.5619C3.14432 1.66309 3.14432 1.7653 3.13265 1.86648C3.10463 1.96943 3.06534 2.06895 3.0155 2.16325C2.97358 2.25575 2.92394 2.34459 2.86712 2.42879C2.81104 2.51635 2.74558 2.59752 2.67188 2.67089C2.37901 2.96136 1.98315 3.12419 1.5707 3.12385C1.46951 3.13518 1.3673 3.13518 1.26612 3.12385C1.152 3.09984 1.04164 3.0604 0.93811 3.00671C0.844003 2.96805 0.754825 2.91821 0.672578 2.85832C0.587891 2.80453 0.509355 2.74166 0.438286 2.67089C0.364581 2.59752 0.299126 2.51635 0.243042 2.42879C0.186226 2.34459 0.136585 2.25575 0.0946567 2.16325C0.0552174 2.06778 0.0264189 1.96825 0.00874936 1.86648C-0.00291645 1.7653 -0.00291645 1.66309 0.00874936 1.5619C0.0104577 1.14833 0.176171 0.752325 0.469525 0.460729C1.07873 -0.144869 2.06267 -0.144869 2.67188 0.460729ZM3.13269 8.59071C3.14431 8.48953 3.14431 8.38732 3.13269 8.28613C3.1057 8.18534 3.06636 8.0883 3.01554 7.99717C2.97532 7.90135 2.92559 7.80979 2.86716 7.72383C2.81303 7.63724 2.74733 7.55841 2.67191 7.48954C2.06271 6.88394 1.07877 6.88394 0.469564 7.48954C0.176211 7.78113 0.0104974 8.17714 0.00878906 8.59071C0.0118153 8.79655 0.0514986 9.00014 0.125935 9.19206C0.165082 9.28446 0.212136 9.3733 0.266511 9.45759C0.325914 9.54248 0.393956 9.62101 0.469564 9.69189C0.538583 9.76715 0.617364 9.83285 0.703857 9.88713C0.786103 9.94707 0.875232 9.99691 0.969389 10.0355C1.06462 10.0756 1.16424 10.1044 1.26616 10.1214C1.36608 10.1438 1.46833 10.1543 1.57074 10.1527C1.67192 10.1643 1.77413 10.1643 1.87532 10.1527C1.9747 10.1356 2.07174 10.1068 2.16428 10.0668C2.26098 10.0284 2.35274 9.97855 2.43762 9.91837C2.52412 9.86409 2.6029 9.79839 2.67191 9.72313C2.74718 9.65411 2.81288 9.57533 2.86716 9.48883C2.9272 9.40664 2.97703 9.31751 3.01554 9.2233C3.06889 9.11963 3.10828 9.00931 3.13269 8.89529C3.1447 8.79411 3.1447 8.6919 3.13269 8.59071ZM3.13279 15.3149C3.14435 15.4161 3.14435 15.5183 3.13279 15.6195C3.14479 15.7206 3.14479 15.8229 3.13279 15.924C3.10833 16.0381 3.06894 16.1483 3.01564 16.252C2.97718 16.3463 2.92734 16.4354 2.86725 16.5176C2.81298 16.6041 2.74728 16.6829 2.67201 16.7519C2.60299 16.8271 2.52421 16.8928 2.43772 16.9471C2.35284 17.0073 2.26107 17.0571 2.16438 17.0955C2.07183 17.1355 1.97479 17.1644 1.87542 17.1814C1.77423 17.1931 1.67202 17.1931 1.57084 17.1814C1.46843 17.1831 1.36617 17.1726 1.26626 17.1502C1.16434 17.1332 1.06471 17.1043 0.969485 17.0643C0.875328 17.0257 0.786199 16.9758 0.703953 16.9159C0.61746 16.8616 0.538679 16.7959 0.46966 16.7206C0.176355 16.429 0.010642 16.033 0.00888481 15.6195C0.00766453 15.5171 0.0181101 15.4149 0.0401238 15.3149C0.0566707 15.2129 0.085518 15.1132 0.126031 15.0181C0.16796 14.9256 0.2176 14.8368 0.274416 14.7526C0.328694 14.6661 0.394394 14.5873 0.46966 14.5183C1.07887 13.9127 2.0628 13.9127 2.67201 14.5183C2.74728 14.5873 2.81298 14.6661 2.86725 14.7526C2.92407 14.8368 2.97371 14.9256 3.01564 15.0181C3.06645 15.112 3.10579 15.2116 3.13279 15.3149ZM23.4378 7.02875H6.25629C5.39365 7.02875 4.69434 7.72806 4.69434 8.5907C4.69434 9.45333 5.39365 10.1526 6.25629 10.1526H23.4378C24.3004 10.1526 24.9997 9.45333 24.9997 8.5907C24.9997 7.72806 24.3004 7.02875 23.4378 7.02875ZM6.25629 14.0576H16.409C17.2716 14.0576 17.9709 14.7569 17.9709 15.6195C17.9709 16.4821 17.2716 17.1815 16.409 17.1815H6.25629C5.39365 17.1815 4.69434 16.4821 4.69434 15.6195C4.69434 14.7569 5.39365 14.0576 6.25629 14.0576Z" fill="#8D8D8D"/>
</svg>