<svg width="73" height="26" viewBox="0 0 73 26" fill="none" xmlns="http://www.w3.org/2000/svg">
<g clip-path="url(#clip0)">
<path fill-rule="evenodd" clip-rule="evenodd" d="M69.0048 10.1935C69.0167 9.92392 69.1073 9.66377 69.2655 9.44535C69.4236 9.22693 69.6422 9.05985 69.8943 8.96485C70.1463 8.86985 70.4206 8.85111 70.6832 8.91096C70.9457 8.97081 71.185 9.10662 71.3712 9.30152C71.5575 9.49642 71.6825 9.74184 71.7308 10.0073C71.7791 10.2728 71.7485 10.5466 71.6429 10.7949C71.5373 11.0431 71.3613 11.2548 71.1367 11.4037C70.9121 11.5525 70.6489 11.6321 70.3796 11.6323C70.1943 11.6308 70.0112 11.5921 69.8411 11.5185C69.671 11.4449 69.5173 11.3378 69.3892 11.2037C69.261 11.0696 69.161 10.9111 69.0949 10.7376C69.0289 10.5641 68.9983 10.3791 69.0048 10.1935ZM70.3796 11.3194C70.5202 11.3151 70.6586 11.2832 70.7869 11.2254C70.9152 11.1675 71.0309 11.0849 71.1273 10.9822C71.2237 10.8796 71.299 10.7589 71.3489 10.627C71.3987 10.4952 71.4222 10.3548 71.4178 10.2138C71.4234 9.93011 71.3178 9.6555 71.1237 9.44885C70.9296 9.2422 70.6625 9.11996 70.3796 9.10832C70.087 9.10832 69.8065 9.22479 69.5996 9.43212C69.3927 9.63944 69.2765 9.92063 69.2765 10.2138C69.2765 10.507 69.3927 10.7882 69.5996 10.9956C69.8065 11.2029 70.087 11.3194 70.3796 11.3194ZM70.193 10.8398H69.901V9.57166H70.4202C70.528 9.55954 70.637 9.58081 70.7324 9.63263C70.7817 9.66765 70.8211 9.7149 70.8467 9.76977C70.8723 9.82463 70.8832 9.88521 70.8784 9.94559C70.8811 10.0129 70.8625 10.0793 70.8254 10.1355C70.7883 10.1917 70.7345 10.2347 70.6716 10.2585L70.8987 10.8235H70.5662L70.3796 10.3236H70.1728V10.8438L70.193 10.8398ZM70.193 10.1325H70.3593C70.4156 10.1374 70.4722 10.1305 70.5256 10.1122C70.5474 10.0951 70.5644 10.0726 70.575 10.047C70.5857 10.0214 70.5896 9.99347 70.5864 9.96591C70.5872 9.94154 70.5821 9.91733 70.5715 9.89538C70.5609 9.87343 70.5452 9.8544 70.5256 9.83991C70.4719 9.82296 70.4155 9.81607 70.3593 9.81959H70.2133L70.193 10.1325Z" fill="#8D8D8D"/>
<path fill-rule="evenodd" clip-rule="evenodd" d="M49.348 0.585284L48.9749 3.04425C48.3518 2.66421 47.6398 2.45534 46.9106 2.43865C45.2032 2.43865 43.9987 4.19041 43.9987 6.6697C43.9987 8.38081 44.8098 9.4213 46.14 9.4213C46.8287 9.38436 47.4988 9.18374 48.0948 8.83603L47.6893 11.421C47.0346 11.6364 46.3505 11.7488 45.6615 11.7543C43.1876 11.7543 41.6465 9.87651 41.6465 6.87698C41.6505 2.84509 43.7716 9.82289e-06 46.8295 9.82289e-06C47.1756 -0.0044235 47.5207 0.0379575 47.8555 0.126006L48.8126 0.377999C49.0641 0.483674 49.1249 0.503996 49.3318 0.585284H49.348Z" fill="#8D8D8D"/>
<path fill-rule="evenodd" clip-rule="evenodd" d="M41.7109 2.272C41.6366 2.25409 41.5601 2.24724 41.4838 2.25167C40.7335 2.25167 40.2996 2.65811 39.5898 3.75144L39.7967 2.35328H37.7162L36.3008 11.551H38.6084C39.4398 5.92183 39.6466 4.96263 40.7497 4.96263H40.916C41.0671 4.03269 41.3612 3.13187 41.788 2.29232L41.7068 2.272H41.7109Z" fill="#8D8D8D"/>
<path fill-rule="evenodd" clip-rule="evenodd" d="M27.9581 11.4251C27.4317 11.62 26.8766 11.7258 26.3156 11.738C25.1517 11.738 24.5068 11.0308 24.5068 9.70583C24.508 9.42702 24.5283 9.14863 24.5677 8.87263L24.7137 7.97439L24.8191 7.2428L25.8168 0.979553H28.1041L27.8324 2.333H29.0166L28.6841 4.56436H27.5242L26.9199 8.40116C26.8996 8.5678 26.8793 8.69379 26.8793 8.77508C26.8793 9.25468 27.1308 9.46197 27.6702 9.46197C27.8818 9.47186 28.0935 9.44294 28.2947 9.37661L27.9622 11.4088L27.9581 11.4251Z" fill="#8D8D8D"/>
<path fill-rule="evenodd" clip-rule="evenodd" d="M18.8902 5.25528C18.8902 6.42176 19.4296 7.21432 20.6382 7.81992C21.5547 8.2792 21.721 8.42552 21.721 8.84009C21.721 9.40504 21.3155 9.67329 20.4111 9.67329C19.7073 9.67558 19.0091 9.54885 18.3509 9.29936L18.0386 11.425L18.144 11.4454L18.5496 11.5307C18.6956 11.551 18.8821 11.5917 19.1539 11.612C19.6932 11.6527 20.1312 11.6974 20.4232 11.6974C22.8566 11.6974 23.9597 10.7178 23.9597 8.6328C23.9597 7.38096 23.5014 6.63311 22.3375 6.06816C21.3804 5.60888 21.2749 5.50321 21.2749 5.06832C21.2749 4.56704 21.6494 4.3164 22.3983 4.3164C22.9513 4.33149 23.5027 4.38309 24.0489 4.47085L24.3815 2.34517C23.7108 2.23455 23.0332 2.17207 22.3537 2.1582C19.7541 2.1582 18.8578 3.55636 18.8781 5.26341L18.8902 5.25528Z" fill="#8D8D8D"/>
<path fill-rule="evenodd" clip-rule="evenodd" d="M67.6743 11.5307H65.4883L65.5938 10.6325C65.3413 10.9534 65.0189 11.2122 64.6513 11.389C64.2836 11.5659 63.8805 11.656 63.4727 11.6526C61.7856 11.6526 60.6865 10.1326 60.6865 7.83616C60.6865 4.7716 62.3939 2.18664 64.4298 2.18664C65.3261 2.18664 65.9912 2.59308 66.636 3.43847L67.1349 0.186951H69.4019L67.6743 11.5063V11.5307ZM64.2838 9.3847C65.3666 9.3847 66.1129 8.11254 66.1129 6.27949C66.1129 5.11301 65.6749 4.46677 64.8962 4.46677C63.858 4.46677 63.1077 5.75925 63.1077 7.55165C63.1077 8.77097 63.5132 9.3847 64.2919 9.3847H64.2838Z" fill="#8D8D8D"/>
<path fill-rule="evenodd" clip-rule="evenodd" d="M35.2425 11.3437C34.4763 11.5929 33.6756 11.7191 32.87 11.7177C30.3109 11.7177 28.9604 10.2992 28.9604 7.58823C28.9604 4.41799 30.6678 2.10535 32.9754 2.10535C34.8694 2.10535 36.0739 3.41815 36.0739 5.46255C36.062 6.22445 35.964 6.98255 35.7819 7.72235H31.2072C31.1921 7.81913 31.1853 7.91704 31.1869 8.01499C31.1869 9.10019 31.8723 9.64075 33.2147 9.64075C34.0467 9.63321 34.8656 9.4329 35.6075 9.05548L35.2547 11.3275L35.2425 11.3437ZM33.9528 5.85679C33.9682 5.70421 33.975 5.55087 33.9731 5.39751C33.9731 4.6456 33.5676 4.21071 32.8903 4.21071C32.213 4.21071 31.6331 4.79598 31.4343 5.85679H33.9528Z" fill="#8D8D8D"/>
<path fill-rule="evenodd" clip-rule="evenodd" d="M9.65172 11.5308H7.36439L8.67433 2.83701L5.72189 11.5308H4.1605L3.97394 2.89798L2.57883 11.5308H0.4375L2.226 0.227661H5.53128L5.61645 7.2347L7.86322 0.227661H11.4402L9.65172 11.5308Z" fill="#8D8D8D"/>
<path fill-rule="evenodd" clip-rule="evenodd" d="M15.5813 7.44191C15.3298 7.42159 15.2284 7.40127 15.0622 7.40127C13.7522 7.40127 13.1074 7.88087 13.1074 8.79942C13.0912 8.91839 13.1006 9.03945 13.1349 9.15447C13.1693 9.26949 13.2278 9.37582 13.3066 9.46629C13.3853 9.55677 13.4825 9.62931 13.5915 9.67903C13.7006 9.72875 13.819 9.7545 13.9388 9.75456C14.8553 9.75456 15.561 8.81568 15.5813 7.46224V7.44191ZM17.2441 11.5266H15.3339L15.3744 10.5674C15.0942 10.9418 14.7244 11.2394 14.2991 11.4326C13.8738 11.6258 13.4067 11.7085 12.9411 11.673C11.692 11.673 10.8403 10.6528 10.8403 9.16929C10.8403 6.9176 12.3368 5.62512 14.8959 5.62512C15.2038 5.62866 15.5112 5.65038 15.8165 5.69015C15.8665 5.49194 15.8951 5.2889 15.9017 5.08456C15.9017 4.47896 15.4961 4.25136 14.4254 4.25136C13.7777 4.25102 13.1332 4.34271 12.5112 4.52367L12.2192 4.62934L12.0124 4.69031L12.3247 2.62559C13.2078 2.31461 14.1345 2.14587 15.0703 2.12567C17.0453 2.12567 18.0876 3.06455 18.0876 4.81631C18.0707 5.4311 18.0083 6.04379 17.9011 6.64935L17.4387 9.92526L17.3536 10.5105L17.3089 10.9739L17.2684 11.3072L17.2481 11.5348L17.2441 11.5266Z" fill="#8D8D8D"/>
<path fill-rule="evenodd" clip-rule="evenodd" d="M53.318 7.44195C53.0909 7.42162 52.9652 7.4013 52.7989 7.4013C51.4889 7.4013 50.8238 7.8809 50.8238 8.79946C50.8076 8.91842 50.817 9.03948 50.8514 9.1545C50.8857 9.26953 50.9442 9.37585 51.023 9.46633C51.1017 9.5568 51.1989 9.62934 51.308 9.67906C51.417 9.72878 51.5354 9.75454 51.6552 9.75459C52.592 9.75459 53.2774 8.81571 53.318 7.46227V7.44195ZM54.9808 11.5267H53.0665L53.1274 10.5675C52.8472 10.9419 52.4773 11.2394 52.052 11.4326C51.6267 11.6259 51.1597 11.7085 50.694 11.673C49.4449 11.673 48.5933 10.6528 48.5933 9.16932C48.5933 6.91764 50.0898 5.62516 52.6488 5.62516C52.962 5.62734 53.2748 5.64769 53.5857 5.68612C53.6343 5.48776 53.6615 5.28473 53.6668 5.08053C53.6668 4.47493 53.2612 4.24732 52.1905 4.24732C51.5428 4.24705 50.8984 4.33873 50.2763 4.51964L49.9438 4.60499L49.7369 4.66596L50.0492 2.60124C50.9323 2.29025 51.859 2.12152 52.7948 2.10132C54.7699 2.10132 55.8121 3.0402 55.8121 4.79195C55.7952 5.40675 55.7328 6.01944 55.6256 6.625L55.147 9.87652L55.0862 10.4618L55.0254 10.9211L54.9848 11.234L55.0051 11.5267H54.9808Z" fill="#8D8D8D"/>
<path fill-rule="evenodd" clip-rule="evenodd" d="M61.4126 2.272C61.3383 2.25409 61.2617 2.24724 61.1855 2.25167C60.4352 2.25167 60.0012 2.65811 59.2915 3.75144L59.4983 2.35328H57.4178L56.0024 11.547H58.3101C59.1415 5.91777 59.3483 4.95857 60.4514 4.95857H60.6177C60.7782 4.03096 61.0719 3.13152 61.4896 2.28825L61.4045 2.26793L61.4126 2.272Z" fill="#8D8D8D"/>
<path fill-rule="evenodd" clip-rule="evenodd" d="M47.3892 14.7619L47.0444 17.2209C46.4744 16.8456 45.8119 16.636 45.1302 16.6153C43.5283 16.6153 42.4049 18.367 42.4049 20.8463C42.4049 22.5574 43.1552 23.5979 44.4002 23.5979C45.051 23.5654 45.6823 23.3652 46.2333 23.0167L45.8521 25.6057C45.2369 25.8225 44.59 25.9351 43.9379 25.939C41.6303 25.939 40.1743 24.0613 40.1743 21.0617C40.1743 16.9973 42.1697 14.1807 45.041 14.1807C45.3645 14.1746 45.6871 14.2171 45.9981 14.3067L46.87 14.5587C47.0591 14.6007 47.2408 14.6705 47.4094 14.766L47.3892 14.7619Z" fill="#8D8D8D"/>
<path fill-rule="evenodd" clip-rule="evenodd" d="M33.1825 16.4283C33.1082 16.4104 33.0317 16.4036 32.9554 16.408C32.2497 16.408 31.8523 16.8144 31.1872 17.9078L31.394 16.5096H29.4595L28.1455 25.7073H30.2868C31.0615 20.0781 31.2683 19.1027 32.2862 19.1027C32.3423 19.1014 32.3983 19.1083 32.4525 19.123C32.5952 18.1989 32.8683 17.2997 33.2636 16.4527L33.1825 16.412V16.4283Z" fill="#8D8D8D"/>
<path fill-rule="evenodd" clip-rule="evenodd" d="M61.239 25.6057H59.2112L59.3166 24.7075C59.0899 25.0253 58.7903 25.2838 58.4431 25.4613C58.0958 25.6389 57.7111 25.7302 57.3213 25.7277C55.7599 25.7277 54.7217 24.2076 54.7217 21.9112C54.7217 18.8466 56.3439 16.2617 58.2176 16.2617C59.049 16.2617 59.6938 16.6681 60.2778 17.5338L60.7563 14.2823H62.8612L61.239 25.6057ZM58.0553 23.4394C59.0733 23.4394 59.7627 22.1672 59.7627 20.3342C59.7627 19.1677 59.3572 18.5418 58.6191 18.5418C57.6417 18.5418 56.9563 19.8139 56.9563 21.6267C56.9563 22.846 57.3294 23.4394 58.0594 23.4394H58.0553Z" fill="#8D8D8D"/>
<path fill-rule="evenodd" clip-rule="evenodd" d="M13.0427 25.5814C12.3338 25.8303 11.5878 25.9567 10.8365 25.9553C8.44375 25.9553 7.18652 24.5368 7.18652 21.8259C7.19869 18.6963 8.80063 16.347 10.9501 16.347C12.7183 16.347 13.8417 17.6395 13.8417 19.7042C13.8284 20.4689 13.7374 21.2301 13.57 21.9762H9.29947C9.28432 22.073 9.27754 22.1709 9.27919 22.2689C9.27919 23.3338 9.92402 23.8743 11.1731 23.8743C11.9468 23.8653 12.7063 23.6643 13.3834 23.289L13.0306 25.5814H13.0427ZM11.8261 20.0985C11.8261 19.9115 11.8464 19.7449 11.8464 19.6392C11.8464 18.8873 11.4732 18.4524 10.8284 18.4524C10.1836 18.4524 9.66447 19.0377 9.45358 20.0985H11.8261Z" fill="#8D8D8D"/>
<path fill-rule="evenodd" clip-rule="evenodd" d="M38.5926 25.5814C37.8836 25.8303 37.1376 25.9567 36.3863 25.9553C33.953 25.9553 32.7363 24.5368 32.7363 21.8258C32.7363 18.6759 34.3383 16.343 36.4796 16.343C38.2478 16.343 39.3915 17.6354 39.3915 19.7002C39.3782 20.4648 39.2872 21.2261 39.1198 21.9722H34.8452C34.8301 22.0689 34.8233 22.1668 34.8249 22.2648C34.8249 23.3297 35.4698 23.8702 36.7189 23.8702C37.4936 23.8632 38.2545 23.6635 38.9332 23.289L38.5804 25.5814H38.5926ZM37.3759 20.0985C37.3913 19.9459 37.3981 19.7925 37.3962 19.6392C37.3962 18.8873 37.023 18.4524 36.3782 18.4524C35.7334 18.4524 35.2143 19.0377 35.0034 20.0985H37.3759Z" fill="#8D8D8D"/>
<path fill-rule="evenodd" clip-rule="evenodd" d="M68.5388 25.5814C67.829 25.8268 67.0835 25.9532 66.3326 25.9553C63.9398 25.9553 62.6826 24.5368 62.6826 21.8258C62.6826 18.6759 64.3048 16.343 66.4462 16.343C68.2144 16.343 69.3378 17.6354 69.3378 19.7002C69.3245 20.4648 69.2335 21.2261 69.0661 21.9722H64.8037C64.7886 22.0689 64.7818 22.1669 64.7834 22.2648C64.7834 23.3297 65.4282 23.8702 66.6773 23.8702C67.4565 23.864 68.2219 23.6628 68.9038 23.285L68.5388 25.5814ZM67.3222 20.0985C67.3222 19.9115 67.3424 19.7449 67.3424 19.6392C67.3424 18.8873 66.9693 18.4524 66.3245 18.4524C65.6797 18.4524 65.1606 19.0377 64.9497 20.0985H67.3222Z" fill="#8D8D8D"/>
<path fill-rule="evenodd" clip-rule="evenodd" d="M6.6795 16.8469C6.15215 16.4906 5.52674 16.3087 4.891 16.3267C4.01906 16.3267 3.32961 16.5137 3.32961 17.4322C3.32961 19.058 6.49294 18.4524 6.49294 21.9559C6.49294 25.1465 4.41244 25.9797 2.5185 25.9797C1.64657 25.952 0.789503 25.746 0 25.3741L0.519111 23.037C1.1029 23.4778 1.81602 23.7122 2.54689 23.7036C3.23228 23.7036 4.27456 23.5166 4.27456 22.3258C4.27456 20.4683 1.11122 21.1593 1.11122 17.9037C1.11122 14.9204 2.96461 14.0466 4.76122 14.0466C5.75889 14.0466 6.716 14.1929 7.25944 14.5668L6.69572 16.8388L6.6795 16.8469Z" fill="#8D8D8D"/>
<path fill-rule="evenodd" clip-rule="evenodd" d="M19.3249 25.5814C18.7211 25.841 18.0671 25.9618 17.4107 25.935C15.537 25.935 14.373 24.0572 14.373 21.7649C14.373 18.7613 16.0602 16.3877 18.534 16.3877C19.2482 16.4265 19.943 16.634 20.5618 16.9933L20.0752 19.1799C19.661 18.8799 19.1665 18.7114 18.6557 18.6963C17.512 18.6963 16.6807 19.7612 16.6807 21.6348C16.6807 22.72 17.2849 23.6142 18.2218 23.6142C18.7292 23.6185 19.2273 23.4775 19.6574 23.2078L19.3452 25.5854L19.3249 25.5814Z" fill="#8D8D8D"/>
<path fill-rule="evenodd" clip-rule="evenodd" d="M27.3587 23.2687C27.2533 24.0612 27.1519 24.8335 27.087 25.6464H25.0268L25.193 24.1669H25.1728C24.5279 25.1668 23.8628 25.8577 22.6745 25.8577C21.3849 25.8577 20.6792 24.4799 20.6792 22.7078C20.6861 22.065 20.7416 21.4237 20.8455 20.7894L21.4295 16.538H23.7371L23.1166 20.8057C23.036 21.2678 22.9872 21.735 22.9706 22.2038C22.9706 22.7444 23.222 23.289 23.8425 23.2443C24.7794 23.2443 25.339 22.0981 25.5053 20.7406L26.1501 16.5299H28.3888L27.3587 23.2687Z" fill="#8D8D8D"/>
<path fill-rule="evenodd" clip-rule="evenodd" d="M70.6922 25.5407H70.3353V24.0166H69.8364V23.6833H71.191V24.0166H70.6922V25.5407Z" fill="#8D8D8D"/>
<path fill-rule="evenodd" clip-rule="evenodd" d="M72.9997 25.5407H72.6671V23.9962L72.3548 25.5407H72.0223L71.71 23.9962V25.5407H71.3774V23.6833H71.8965L72.1885 25.1424H72.2088L72.5008 23.6833H72.9997V25.5407Z" fill="#8D8D8D"/>
<path fill-rule="evenodd" clip-rule="evenodd" d="M51.7609 20.4724C51.7609 22.5574 51.1161 23.7889 50.0981 23.7889C49.3479 23.8093 48.9139 22.9761 48.9139 21.7567C48.9139 20.2976 49.579 18.6312 50.6213 18.6312C51.473 18.6312 51.765 19.5295 51.765 20.4887L51.7609 20.4724ZM54.028 20.4927C54.028 18.1801 52.8843 16.3633 50.7389 16.3633C48.265 16.3633 46.6631 18.554 46.6631 21.7852C46.6631 24.0978 47.6202 25.9959 49.9481 25.9959C52.276 25.9959 54.0239 24.3295 54.0239 20.4927H54.028Z" fill="#8D8D8D"/>
</g>
<defs>
<clipPath id="clip0">
<rect width="73" height="26" fill="white"/>
</clipPath>
</defs>
</svg>
