<svg width="73" height="18" viewBox="0 0 73 18" fill="none" xmlns="http://www.w3.org/2000/svg">
<path d="M17.6497 3.65517C17.6834 3.16958 17.6121 2.68239 17.4406 2.22765C17.2692 1.77291 17.0019 1.3616 16.6573 1.02245C15.9627 0.340822 15.0537 0.055727 13.9303 0.167165C13.5548 0.19268 13.1846 0.271454 12.8307 0.401184C12.5482 0.500619 12.2843 0.647542 12.05 0.835792C11.8736 0.983176 11.7116 1.14737 11.5662 1.32612C11.4585 1.44845 11.3762 1.59152 11.3242 1.7468C11.294 1.86381 11.294 1.93903 11.3242 1.96967C11.5207 2.21235 11.6724 2.48885 11.7723 2.78595C11.9471 3.23453 12.0707 3.70189 12.1407 4.17893C12.223 4.72092 12.1554 5.27541 11.9455 5.78085C11.7195 6.33812 11.312 6.80019 10.7909 7.09024L8.3883 0.869223V0.835792L8.31958 0.777287C8.29327 0.755004 8.26038 0.742257 8.22611 0.74107H2.38446C2.26076 0.74107 2.21402 0.796789 2.24701 0.905441L5.98841 8.45257C4.4256 8.88851 2.99131 9.70423 1.80992 10.829C0.668161 11.9266 0.064295 13.0763 -0.0016813 14.278C-0.0420518 14.755 0.0157819 15.2353 0.168156 15.6885C0.32053 16.1417 0.564122 16.5579 0.8835 16.9107C1.19205 17.2648 1.57356 17.5458 2.00108 17.7341C2.42859 17.9223 2.89167 18.0131 3.35761 18C3.7508 18.0015 4.14134 17.9346 4.5122 17.8022C4.84401 17.69 5.15587 17.5244 5.43586 17.3119C5.66717 17.1316 5.87992 16.9281 6.07088 16.7045C6.22211 16.5336 6.34636 16.34 6.43925 16.1306C6.50889 15.9598 6.52081 15.8428 6.47499 15.7796C6.29754 15.5737 6.16039 15.3354 6.07088 15.0776C5.92759 14.7033 5.82347 14.3149 5.76025 13.9186C5.68847 13.4376 5.75628 12.9459 5.95543 12.5033C6.18782 11.9748 6.5598 11.5217 7.03029 11.1939L9.52364 17.3732C9.52713 17.4069 9.5434 17.438 9.56904 17.4598C9.59468 17.4816 9.62769 17.4925 9.66109 17.4902H15.8931C15.9866 17.4902 16.0086 17.4512 15.9618 17.3732L11.9208 9.5976C13.469 9.16724 14.8786 8.3324 16.0086 7.17661C17.0642 6.06037 17.6112 4.88656 17.6497 3.65517Z" fill="#8D8D8D"/>
<path d="M31.1348 5.64437C31.1382 5.61984 31.1333 5.59488 31.1208 5.5736C31.1083 5.55232 31.089 5.536 31.0661 5.52736H26.4478L26.401 5.54964C26.378 5.55395 26.3574 5.56688 26.3433 5.58586C26.3322 5.59614 26.3233 5.60861 26.3172 5.62251C26.311 5.6364 26.3078 5.65143 26.3076 5.66665L26.0986 7.2825C25.4664 5.79666 24.4117 5.05374 22.9345 5.05374C22.2364 5.04601 21.5458 5.20013 20.9154 5.50433C20.2851 5.80853 19.7317 6.25475 19.2976 6.80889C18.2967 8.03319 17.681 9.53346 17.53 11.116C17.3896 12.1527 17.4325 13.2064 17.6564 14.2279C17.8515 15.1715 18.2941 16.0444 18.9375 16.7547C19.2304 17.0859 19.5901 17.3494 19.9923 17.5272C20.3946 17.7051 20.8298 17.7932 21.2686 17.7855C22.7934 17.7855 24.1175 16.9042 25.2409 15.1417C25.2455 15.5074 25.3226 15.8686 25.4676 16.2036C25.6126 16.5386 25.8225 16.8406 26.0849 17.0918C26.628 17.5776 27.3348 17.833 28.0587 17.805C28.704 17.7962 29.3352 17.6125 29.8868 17.2729C30.3814 17.0298 30.786 16.6324 31.0414 16.139C31.0651 16.0995 31.0758 16.0533 31.0718 16.0072C31.0679 15.9611 31.0495 15.9175 31.0194 15.8827C30.9299 15.8018 30.8289 15.7351 30.7197 15.6849C30.5539 15.5863 30.4209 15.4398 30.3376 15.2642C30.1939 14.9704 30.1009 14.6538 30.0627 14.3282C30.0041 13.7472 30.0198 13.161 30.1094 12.5842C30.2542 11.5144 30.596 9.20109 31.1348 5.64437ZM25.755 11.4001C25.6826 12.2042 25.4297 12.9809 25.0155 13.6707C24.649 14.2632 24.1908 14.5594 23.641 14.5594C23.0912 14.5594 22.7064 14.2632 22.4864 13.6707C22.2426 12.9405 22.1793 12.1608 22.3023 11.4001C22.3729 10.5938 22.6219 9.81388 23.0307 9.11844C23.4083 8.51853 23.8664 8.21858 24.4052 8.21858C24.9441 8.21858 25.3307 8.51853 25.5653 9.11844C25.8146 9.85124 25.8797 10.6354 25.755 11.4001Z" fill="#8D8D8D"/>
<path d="M45.7761 5.73631H45.798C42.4872 5.01872 39.064 5.01872 35.7532 5.73631C35.6927 5.73631 35.6597 5.77531 35.6597 5.85332L35.5222 6.85905C35.4453 7.51467 35.3106 8.30681 35.1181 9.23546C34.9739 9.98598 34.7773 10.7252 34.5299 11.4475C34.2753 12.1358 33.95 12.795 33.5595 13.4144C33.3091 13.8338 33.0019 14.2154 32.6468 14.5483C32.392 14.7581 32.1804 14.9374 32.0118 15.0859C31.8911 15.1715 31.796 15.2891 31.7369 15.4258C31.6745 15.8474 31.8706 16.3814 32.3251 17.0278C32.7796 17.6741 33.4687 17.9982 34.3924 18C36.302 18 37.5849 16.6581 38.241 13.9744C38.7219 11.9804 38.9983 9.94138 39.0657 7.88985H40.9598L39.8052 17.3621C39.8052 17.4401 39.8354 17.4791 39.8987 17.4791H44.3548C44.382 17.4749 44.4067 17.4606 44.424 17.439C44.4413 17.4173 44.45 17.3899 44.4483 17.3621L45.8558 5.82546C45.8484 5.76603 45.8219 5.73631 45.7761 5.73631Z" fill="#8D8D8D"/>
<path d="M55.1719 2.56402e-05C53.8883 0.0300437 52.6432 0.450326 51.5982 1.20634C50.5029 1.97539 49.5917 2.98357 48.9316 4.15666C48.2486 5.36441 47.7176 6.65413 47.351 7.99569C46.9818 9.3013 46.7912 10.6521 46.7847 12.0102C46.7847 13.6948 47.2621 15.0989 48.2169 16.2226C49.1717 17.3463 50.4876 17.9034 52.1645 17.8942C53.0129 17.9199 53.858 17.7748 54.6507 17.4673C55.4435 17.1598 56.1681 16.696 56.7828 16.1028C58.0144 14.9086 58.5642 13.3837 58.4322 11.5283C58.3935 10.7933 58.127 10.0895 57.6708 9.51682C57.2409 8.98193 56.6683 8.58352 56.0214 8.36901C55.3505 8.14854 54.6483 8.04216 53.9431 8.0542C53.2239 8.05961 52.5101 8.18189 51.8291 8.41637L51.9446 7.94833C52.8272 7.85331 53.7001 7.68086 54.5534 7.43293C56.7233 6.77731 58.0859 5.74 58.6412 4.32103C58.851 3.83667 58.9253 3.30315 58.856 2.77885C58.7867 2.25456 58.5763 1.75969 58.2481 1.34842C57.5205 0.404917 56.4951 -0.0445495 55.1719 2.56402e-05ZM52.181 10.3582C52.3845 10.3311 52.5905 10.3311 52.794 10.3582C53.8405 10.5439 54.3252 11.3082 54.2482 12.651C54.2034 13.2411 54.0256 13.8129 53.7287 14.3226C53.397 14.9466 52.97 15.2587 52.4476 15.2587C52.2608 15.2598 52.0777 15.2062 51.9202 15.1044C51.7627 15.0026 51.6375 14.8569 51.5597 14.6847C51.3371 14.2352 51.2302 13.7359 51.2491 13.2333C51.2491 12.6482 51.2683 12.1412 51.3068 11.7121C51.3453 11.2831 51.3957 10.881 51.458 10.5058L51.6669 10.4585C51.8352 10.4103 52.0071 10.3768 52.181 10.3582ZM54.93 3.69976C54.8875 3.99351 54.7721 4.27152 54.5946 4.50769C54.4207 4.76062 54.2145 4.98918 53.9816 5.18746C53.7499 5.37827 53.5066 5.55413 53.2531 5.714C52.9837 5.88487 52.8004 5.99817 52.7033 6.05389L52.4614 6.18204C53.0405 4.10372 53.6673 3.06457 54.3417 3.06457C54.4252 3.05034 54.5108 3.05743 54.5908 3.08521C54.6709 3.11299 54.7429 3.16057 54.8002 3.22365C54.8575 3.28673 54.8984 3.3633 54.9191 3.44644C54.9399 3.52958 54.9398 3.61665 54.919 3.69976H54.93Z" fill="#8D8D8D"/>
<path d="M72.5731 15.6933C72.4074 15.5945 72.2744 15.4481 72.191 15.2726C72.0474 14.9787 71.9544 14.6621 71.9161 14.3365C71.8574 13.7556 71.8732 13.1694 71.9628 12.5925C72.1021 11.5171 72.4412 9.20014 72.98 5.64156C72.9834 5.61704 72.9784 5.59207 72.9659 5.57079C72.9534 5.54951 72.9341 5.53319 72.9112 5.52455H68.3121L68.2654 5.54684C68.2424 5.55115 68.2218 5.56407 68.2077 5.58305C68.1966 5.59333 68.1877 5.6058 68.1816 5.6197C68.1754 5.63359 68.1721 5.64862 68.1719 5.66385L67.963 7.27969C67.3307 5.79386 66.276 5.05094 64.7989 5.05094C64.1008 5.0432 63.4102 5.19732 62.7798 5.50152C62.1495 5.80572 61.5961 6.25194 61.162 6.80608C60.1611 8.03039 59.5454 9.53066 59.3944 11.1132C59.2539 12.1498 59.2967 13.2036 59.5208 14.2251C59.7158 15.1688 60.1584 16.0417 60.8018 16.7519C61.0947 17.0831 61.4545 17.3466 61.8567 17.5244C62.259 17.7023 62.6942 17.7904 63.133 17.7827C64.6578 17.7827 65.9819 16.9014 67.1053 15.1389C67.1099 15.5046 67.187 15.8657 67.332 16.2008C67.4769 16.5358 67.6869 16.8378 67.9493 17.089C68.4924 17.5748 69.1992 17.8302 69.9231 17.8022C70.5672 17.7937 71.1974 17.611 71.7484 17.2729C72.243 17.0298 72.6477 16.6324 72.903 16.139C72.9267 16.0995 72.9374 16.0533 72.9334 16.0072C72.9295 15.9611 72.9111 15.9175 72.881 15.8827C72.7884 15.8041 72.6846 15.7402 72.5731 15.6933ZM67.6249 11.4001C67.5559 12.2033 67.3067 12.9799 66.8964 13.6707C66.5189 14.2631 66.0534 14.5594 65.4999 14.5594C64.9464 14.5594 64.5616 14.2631 64.3453 13.6707C64.1014 12.9405 64.0382 12.1608 64.1611 11.4001C64.2276 10.5949 64.4719 9.81508 64.8759 9.11842C65.2534 8.51851 65.7116 8.21856 66.2504 8.21856C66.7892 8.21856 67.1777 8.51851 67.416 9.11842C67.6717 9.84956 67.7435 10.6338 67.6249 11.4001Z" fill="#8D8D8D"/>
</svg>
