<svg width="73" height="31" viewBox="0 0 73 31" fill="none" xmlns="http://www.w3.org/2000/svg">
<path d="M37.9417 14.0788H39.6605L41.9335 20.929H40.2493L39.838 19.4917H37.7555L37.354 20.929H35.6709L37.9417 14.0788ZM39.457 18.1509L39.0836 16.8191C38.9624 16.3885 38.813 15.6404 38.813 15.6404H38.7946C38.7946 15.6404 38.6452 16.3873 38.524 16.8191L38.1409 18.1509H39.457Z" fill="#999999"/>
<path d="M45.3508 13.9634C46.2481 13.9634 47.2005 14.2697 47.8554 14.9312L47.0977 16.1965C46.6648 15.8135 46.0229 15.4972 45.4255 15.4972C44.0898 15.4972 43.5378 16.465 43.5378 17.4517C43.5378 18.4673 44.1353 19.5117 45.4255 19.5117C46.089 19.5117 46.7427 19.1376 47.2005 18.6682L48.0415 19.889C47.6949 20.2613 47.2769 20.5561 46.8139 20.7549C46.3508 20.9537 45.8527 21.0523 45.3508 21.0444C43.2023 21.0444 41.8472 19.5205 41.8472 17.4928C41.8493 15.4961 43.2878 13.9634 45.3508 13.9634Z" fill="#999999"/>
<path d="M51.6945 13.9634C52.5918 13.9634 53.5443 14.2697 54.1991 14.9312L53.4415 16.1965C53.0085 15.8135 52.3667 15.4972 51.7692 15.4972C50.4336 15.4972 49.8816 16.465 49.8816 17.4517C49.8816 18.4673 50.479 19.5117 51.7692 19.5117C52.4327 19.5117 53.0865 19.1376 53.5443 18.6682L54.3853 19.889C54.0381 20.2603 53.62 20.5541 53.1569 20.7519C52.6939 20.9498 52.1961 21.0475 51.6945 21.0389C49.546 21.0389 48.1909 19.515 48.1909 17.4872C48.1909 15.4961 49.6294 13.9634 51.6945 13.9634Z" fill="#999999"/>
<path d="M54.8555 14.0788H59.041V15.5161H56.4909V16.7592H58.5279V18.202H56.4909V19.495H59.1719V20.9323H54.8555V14.0788Z" fill="#999999"/>
<path d="M69.3363 15.5161H67.3091V14.0788H72.9991V15.5161H70.9718V20.929H69.3363V15.5161Z" fill="#999999"/>
<path d="M69.5819 22.2064H24.2893C23.4774 23.5085 22.4295 24.6388 21.2024 25.5361C19.3115 26.9232 17.045 27.6694 14.7201 27.6704C9.92308 27.6704 5.80576 24.5283 4.09455 20.0888C3.45867 18.4302 3.17503 16.6516 3.26257 14.8717C3.3501 13.0918 3.8068 11.3515 4.60218 9.76693C6.53744 5.93896 10.3474 3.32963 14.7201 3.32963C18.5181 3.32963 21.8908 5.29856 23.9808 8.32408C24.1547 8.57566 24.3192 8.83463 24.4744 9.101H28.1252C28.0112 8.83833 27.891 8.57936 27.7647 8.32408C25.3013 3.38069 20.3787 0 14.7201 0C8.52574 0 3.2135 4.04994 1.04445 9.76693C-0.200343 13.0678 -0.335938 16.7 0.659127 20.0888C2.52079 26.4029 8.11769 31 14.7201 31C19.2043 31 23.2264 28.8768 25.928 25.5361H71.9771V24.6626C71.9771 24.0112 71.7248 23.3864 71.2756 22.9258C70.8264 22.4652 70.2171 22.2064 69.5819 22.2064Z" fill="#999999"/>
<path d="M15.1793 10.5883C15.1793 10.5883 13.7971 10.5883 13.4291 11.9467C13.0957 13.2009 12.1433 16.6482 12.1216 16.7459H11.8597C11.8597 16.7459 10.8855 13.2187 10.5468 11.9456C10.1734 10.5838 8.79226 10.5883 8.79226 10.5883H5.64258V20.9579H8.79226V14.7991H9.05527L10.8953 20.9579H13.0827L14.9228 14.8036H15.1858V20.9579H18.3355V10.5883H15.1793Z" fill="#999999"/>
<path d="M28.499 14.6637C28.9283 14.784 29.3713 14.8448 29.8162 14.8446H35.2151C35.2628 14.6069 35.2864 14.3648 35.2854 14.1221C35.2879 13.6602 35.2015 13.2024 35.0312 12.7748C34.861 12.3471 34.6103 11.9581 34.2933 11.6299C33.9764 11.3017 33.5995 11.0408 33.1841 10.8621C32.7688 10.6833 32.3232 10.5903 31.8727 10.5883H24.8677C25.0377 11.5491 25.4687 12.4412 26.1111 13.1622C26.7534 13.8831 27.5811 14.4035 28.499 14.6637Z" fill="#999999"/>
<path d="M64.6015 18.7203C65.0714 18.7193 65.5294 18.5683 65.9119 18.2883C66.2944 18.0083 66.5824 17.6131 66.7359 17.1576H60.2417V20.9134H62.3317V18.7203H64.6015Z" fill="#999999"/>
<path d="M62.3626 16.7359C62.6472 16.8156 62.941 16.8559 63.236 16.8557H66.8187C66.8503 16.698 66.8659 16.5373 66.8652 16.3763C66.8668 16.0699 66.8094 15.7663 66.6964 15.4826C66.5835 15.199 66.4171 14.941 66.2068 14.7234C65.9965 14.5058 65.7464 14.3329 65.4708 14.2145C65.1953 14.096 64.8997 14.0345 64.6009 14.0333H59.9521C60.065 14.6708 60.3511 15.2627 60.7776 15.7408C61.204 16.2189 61.7534 16.5638 62.3626 16.7359Z" fill="#999999"/>
<path d="M23.4857 10.5883H20.335V20.9579H23.3104L23.5431 20.9512L23.4857 10.5883Z" fill="#999999"/>
<path d="M35.0881 15.2974H25.3101V20.9578H28.4597V17.647H29.4739L31.2436 20.899H34.9236L32.6506 17.5538C33.2087 17.4172 33.7244 17.139 34.1503 16.7447C34.5762 16.3505 34.8987 15.8528 35.0881 15.2974Z" fill="#999999"/>
</svg>
