<svg width="73" height="31" viewBox="0 0 73 31" fill="none" xmlns="http://www.w3.org/2000/svg">
<path d="M29.5227 16.5459L25.8621 26.2601L25.478 24.2855C24.5677 21.8645 22.5934 19.3263 20.2964 18.2973L23.642 30.7806H27.5983L33.479 16.5459H29.5227Z" fill="#8D8D8D"/>
<path d="M32.6567 30.7881L34.996 16.5308H38.7333L36.3941 30.7881H32.6567Z" fill="#8D8D8D"/>
<path d="M49.9573 16.8826C48.8894 16.4739 47.7535 16.2648 46.6078 16.266C42.9089 16.266 40.3123 18.2028 40.2892 20.9718C40.2662 23.0221 42.1483 24.1683 43.5619 24.8492C44.9754 25.5301 45.5093 25.984 45.5054 26.6157C45.5054 27.5728 44.3531 28.0078 43.2661 28.0078C42.0496 28.0404 40.8433 27.7807 39.7515 27.2512L39.2675 27.0243L38.7451 30.2132C40.0736 30.7215 41.4875 30.9782 42.9127 30.9697C46.8383 30.9697 49.3888 29.0556 49.4195 26.1013C49.4195 24.4747 48.4362 23.2453 46.2775 22.2277C44.9754 21.5657 44.1687 21.1307 44.1803 20.4573C44.1803 19.8672 44.8563 19.2317 46.3236 19.2317C47.2854 19.2095 48.2402 19.3968 49.1199 19.7802L49.4541 19.9429L49.9611 16.8523L49.9573 16.8826Z" fill="#8D8D8D"/>
<path d="M59.5371 16.5459H56.6562C55.7613 16.5459 55.0891 16.7956 54.6934 17.7299L49.1431 30.7919H53.0687C53.0687 30.7919 53.7101 29.0329 53.8369 28.6471H58.6229C58.7381 29.1426 59.0761 30.7806 59.0761 30.7806H62.5331L59.5371 16.5459ZM54.9278 25.723C55.2389 24.9059 56.4181 21.7359 56.4181 21.7359C56.4181 21.7359 56.7254 20.9112 56.9136 20.3779L57.1633 21.6073L58.0352 25.723H54.9278Z" fill="#8D8D8D"/>
<path d="M22.4708 16.5384H16.4403L16.4058 16.7843C21.0957 17.9645 24.1993 20.8621 25.4746 24.2893L24.1648 17.7375C23.9381 16.8372 23.2852 16.5687 22.4708 16.5384Z" fill="#999999"/>
<path d="M5.1317 13.0922H2.75022L0 0.885156L2.63499 0.450134L4.51713 10.0055L9.30697 0.578749H11.8383L5.1317 13.0922Z" fill="#8D8D8D"/>
<path d="M17.5308 9.10139H11.846C11.6923 10.7999 12.4913 11.5375 13.8472 11.5375C14.9995 11.5375 15.9828 11.1214 17.0622 10.4556V12.1541C15.956 12.8523 14.6694 13.2226 13.3555 13.2209C10.8818 13.2209 9.24554 11.8288 9.7372 8.6815C10.1789 5.84819 12.1725 4.14215 14.481 4.14215C17.139 4.14215 18.0224 6.1092 17.6383 8.58315C17.6114 8.76473 17.5577 8.98034 17.5385 9.10518L17.5308 9.10139ZM14.1852 5.63257C13.3056 5.63257 12.4836 6.31726 12.0956 7.74715H15.6179C15.6832 6.39291 15.2338 5.63257 14.189 5.63257H14.1852Z" fill="#8D8D8D"/>
<path d="M21.2336 8.03464L20.4654 13.0355H18.2529L19.6165 4.31237H21.4871V6.05245C22.2323 5.04245 23.2463 4.19132 24.633 4.11945V6.26807C23.9737 6.31752 23.3314 6.49825 22.7452 6.7993C22.1589 7.10035 21.6407 7.51547 21.2221 8.01951L21.2336 8.03464Z" fill="#8D8D8D"/>
<path d="M24.6138 13.0393L25.9774 4.31618H28.1783L26.8147 13.0393H24.6138ZM27.3256 2.85224C27.1633 2.86677 26.9999 2.844 26.8481 2.78575C26.6963 2.72749 26.5603 2.63533 26.4509 2.51652C26.3414 2.39771 26.2614 2.25549 26.2172 2.10107C26.1731 1.94664 26.1659 1.78423 26.1963 1.62661C26.2568 1.26995 26.4451 0.946446 26.7269 0.714677C27.0088 0.482909 27.3656 0.358207 27.7327 0.363158C27.8939 0.358022 28.0542 0.389032 28.2014 0.453844C28.3486 0.518656 28.4789 0.615574 28.5825 0.737275C28.6861 0.858976 28.7603 1.00228 28.7994 1.15634C28.8385 1.31041 28.8415 1.47122 28.8082 1.62661C28.7466 1.97225 28.5628 2.28526 28.2893 2.51026C28.0159 2.73526 27.6704 2.85774 27.3141 2.85602L27.3256 2.85224Z" fill="#8D8D8D"/>
<path d="M34.2739 1.93299C34.1127 1.91302 33.9491 1.92596 33.7932 1.971C33.6373 2.01603 33.4925 2.09221 33.3678 2.19477C33.2431 2.29734 33.1412 2.42409 33.0684 2.56714C32.9957 2.71019 32.9536 2.86646 32.9449 3.02622L32.7451 4.30859H34.4314V6.07894H32.4686L31.3815 13.0393H29.1921L30.2791 6.0865H29.0039L29.2805 4.31615H30.5634L30.7977 2.80304C31.1011 0.870028 32.4609 0.15508 34.2739 0.15508C34.5712 0.153773 34.8681 0.177821 35.1612 0.226953V1.9973C34.8615 1.94905 34.5583 1.92501 34.2547 1.92543L34.2739 1.93299Z" fill="#8D8D8D"/>
<path d="M34.2969 13.0393L35.6605 4.31615H37.8614L36.4901 13.0393H34.2969ZM37.0048 2.85221C36.8429 2.86611 36.6799 2.84288 36.5286 2.78435C36.3773 2.72582 36.2419 2.63357 36.1328 2.51484C36.0238 2.39611 35.9442 2.25413 35.9002 2.10002C35.8563 1.94591 35.8491 1.78386 35.8794 1.62658C35.94 1.26993 36.1282 0.946417 36.41 0.714649C36.6919 0.48288 37.0487 0.358179 37.4158 0.363129C37.5795 0.353194 37.7434 0.380661 37.8945 0.443385C38.0456 0.506109 38.18 0.602391 38.2871 0.724713C38.3942 0.847034 38.4711 0.992083 38.5119 1.14853C38.5527 1.30498 38.5561 1.46859 38.5221 1.62658C38.4604 1.97222 38.2766 2.28524 38.0031 2.51024C37.7297 2.73523 37.3842 2.85771 37.0279 2.85599L37.0048 2.85221Z" fill="#8D8D8D"/>
<path d="M46.3884 9.10139H40.7151C40.5615 10.7999 41.3604 11.5375 42.7163 11.5375C43.8686 11.5375 44.852 11.1214 45.9313 10.4556V12.1541C44.8251 12.8523 43.5385 13.2226 42.2247 13.2209C39.751 13.2209 38.1147 11.8288 38.6063 8.6815C39.0481 5.84819 41.0416 4.14215 43.3501 4.14215C46.0081 4.14215 46.8916 6.1092 46.5075 8.58315C46.4806 8.76473 46.4268 8.98034 46.4076 9.10518L46.3884 9.10139ZM43.0428 5.63257C42.1632 5.63257 41.3412 6.31726 40.9533 7.74715H44.4717C44.537 6.39291 44.0876 5.63257 43.0428 5.63257Z" fill="#8D8D8D"/>
<path d="M52.9075 13.0393V11.8288C52.5402 12.2442 52.091 12.5818 51.5872 12.8211C51.0834 13.0604 50.5355 13.1964 49.9767 13.2209C48.1253 13.2209 46.8501 11.8666 47.311 8.92361C47.818 5.67419 49.8615 4.22916 51.9203 4.22916C52.6016 4.22085 53.2791 4.33097 53.9215 4.55448L54.5822 0.344234L56.8484 0L54.8127 13.0393H52.9075ZM53.6411 6.33996C53.1312 6.06929 52.5567 5.93863 51.9779 5.96168C50.8256 5.96168 49.8346 6.8809 49.535 8.79878C49.27 10.4973 49.8807 11.2916 50.8525 11.2916C51.6591 11.2916 52.3544 10.8226 53.0573 10.1001L53.645 6.34375L53.6411 6.33996Z" fill="#8D8D8D"/>
<path d="M61.5384 13.1187C60.623 13.1279 59.7131 12.9794 58.8496 12.6799L60.3054 3.40451L62.0108 3.14349L61.3847 7.1873C61.9323 6.65877 62.6585 6.34764 63.4244 6.31348C64.8417 6.31348 65.7905 7.35374 65.4448 9.57046C65.0607 12.0066 63.5242 13.1414 61.5384 13.1414V13.1187ZM62.7675 7.74337C62.1395 7.81643 61.5643 8.12539 61.1619 8.60585L60.6895 11.6018C61.0158 11.733 61.3668 11.7936 61.7189 11.7796C62.7752 11.7796 63.5127 11.1517 63.747 9.64612C63.9467 8.3751 63.5165 7.75472 62.7675 7.75472V7.74337Z" fill="#8D8D8D"/>
<path d="M69.3704 13.3949C68.5176 15.0215 67.6764 15.5284 66.3858 15.5284C66.1838 15.535 65.9818 15.512 65.7866 15.4603V14.106C66.0372 14.1716 66.2956 14.2035 66.5548 14.2006C66.7992 14.204 67.0397 14.1408 67.2499 14.0179C67.46 13.8951 67.6316 13.7174 67.7456 13.5046L67.9684 13.0658L66.5548 6.55558L68.3256 6.33618L69.1399 11.042L71.3485 6.43075H72.981L69.3704 13.3949Z" fill="#8D8D8D"/>
</svg>
