<svg width="20" height="20" viewBox="0 0 20 20" fill="none" xmlns="http://www.w3.org/2000/svg">
<path d="M10 1C5.02961 1 1 5.02961 1 10C1 14.9704 5.02961 19 10 19C14.9704 19 19 14.9704 19 10C19 5.02961 14.9704 1 10 1Z" fill="#DE5617"/>
<path d="M13.5366 4.41623C12.5951 3.50441 11.3415 3 9.99512 3C8.65366 3 7.4 3.50441 6.45854 4.41623C5.51707 5.32804 5 6.54541 5 7.84524C5 9.32451 5.81463 11.2451 7.41951 13.5489C8.60976 15.2562 9.80488 16.5414 9.81463 16.5511L10 16.75L10.1854 16.5511C10.1951 16.5366 11.3902 15.2562 12.5805 13.5489C14.1854 11.2451 15 9.32936 15 7.84524C14.9951 6.54541 14.478 5.32804 13.5366 4.41623ZM9.99512 9.54277C8.94146 9.54277 8.0878 8.70855 8.0878 7.68518C8.0878 6.66182 8.94146 5.8276 9.99512 5.8276C11.0488 5.8276 11.9024 6.66182 11.9024 7.68518C11.9024 8.70855 11.0488 9.54277 9.99512 9.54277Z" fill="white"/>
</svg>
