<svg width="20" height="18" viewBox="0 0 20 18" fill="none" xmlns="http://www.w3.org/2000/svg">
<path d="M11.7679 7.85726C12.7442 8.8336 12.7442 10.4166 11.7679 11.3929C10.7916 12.3692 9.2086 12.3692 8.23226 11.3929C7.25591 10.4166 7.25591 8.8336 8.23226 7.85726C9.2086 6.88091 10.7916 6.88091 11.7679 7.85726Z" fill="#999999"/>
<path d="M17.5 2.74984H15.7726L14.522 0.249756H5.47686L4.22741 2.75107L2.5025 2.75414C1.12735 2.7566 0.00790247 3.87723 0.00671505 5.253L0 15.2496C0 16.6285 1.12125 17.7503 2.50009 17.7503H17.5C18.8788 17.7503 20 16.6291 20 15.2502V5.24989C20 3.87109 18.8787 2.74984 17.5 2.74984ZM9.99969 14.6252C7.24263 14.6252 4.99952 12.3821 4.99952 9.62503C4.99952 6.86797 7.24263 4.62486 9.99969 4.62486C12.7568 4.62486 14.9999 6.86797 14.9999 9.62503C14.9999 12.3821 12.7568 14.6252 9.99969 14.6252Z" fill="#999999"/>
</svg>
