<svg width="24" height="34" viewBox="0 0 24 34" fill="none" xmlns="http://www.w3.org/2000/svg">
<path d="M20.4878 3.89894C18.2283 1.71058 15.2195 0.5 11.9883 0.5C8.76878 0.5 5.76 1.71058 3.50049 3.89894C1.24098 6.0873 0 9.009 0 12.1286C0 15.6788 1.95512 20.2884 5.80683 25.8175C8.66341 29.9148 11.5317 32.9995 11.5551 33.0228L12 33.5L12.4449 33.0228C12.4683 32.9878 15.3366 29.9148 18.1932 25.8175C22.0449 20.2884 24 15.6905 24 12.1286C23.9883 9.009 22.7473 6.0873 20.4878 3.89894ZM11.9883 16.2026C9.45951 16.2026 7.41073 14.2005 7.41073 11.7444C7.41073 9.28836 9.45951 7.28624 11.9883 7.28624C14.5171 7.28624 16.5659 9.28836 16.5659 11.7444C16.5659 14.2005 14.5171 16.2026 11.9883 16.2026Z" fill="#DE5617"/>
</svg>
