<svg xmlns="http://www.w3.org/2000/svg" xmlns:xlink="http://www.w3.org/1999/xlink" version="1.1">


	<symbol id="jivo_chat2" viewBox="0 0 50 42">
			<g clip-path="url(#clip0_48_929)">
				<path d="M37.0473 8.94611V23.3938C37.0476 24.4149 36.7918 25.4197 36.3032 26.3169C36.0196 26.836 35.6628 27.3119 35.2437 27.7299C35.1054 27.8679 34.9591 28.0002 34.807 28.1257C34.655 28.2512 34.4973 28.3686 34.3338 28.4781C34.1704 28.5876 34.0012 28.6914 33.8275 28.786C33.4764 28.9768 33.1073 29.1327 32.7256 29.2514C32.5336 29.3107 32.337 29.3654 32.137 29.403C31.9352 29.4444 31.7315 29.4752 31.5266 29.4954C31.3178 29.5174 31.1079 29.5284 30.8979 29.5285H17.9944C17.9521 29.5401 17.9108 29.5554 17.871 29.5741C17.8309 29.5934 17.7926 29.6163 17.7567 29.6425L17.4047 29.8775L16.3222 30.6063L15.5747 31.1092L14.7986 31.6293C14.8146 31.6681 14.8329 31.7057 14.85 31.7433C15.1468 32.4315 15.6139 33.0332 16.2074 33.492C16.801 33.9508 17.5016 34.2517 18.2436 34.3664C18.3579 34.3836 18.4642 34.3961 18.5762 34.4052C18.6883 34.4144 18.8048 34.4189 18.9134 34.4189H31.9541C32.0021 34.4246 32.0501 34.4315 32.097 34.4406C32.2388 34.4659 32.3781 34.504 32.513 34.5546C32.6929 34.623 32.8634 34.7139 33.0205 34.8249L33.3908 35.0758C33.7646 35.3279 34.143 35.5834 34.5339 35.8445L35.326 36.3771L35.8975 36.7626C37.0896 37.561 38.3938 38.4266 39.8912 39.4188C39.9674 39.469 40.0436 39.5158 40.1198 39.5591C40.2747 39.6449 40.4373 39.7159 40.6056 39.7712C40.6901 39.7986 40.7759 39.8225 40.8627 39.8419C40.921 39.8533 40.977 39.8613 41.0376 39.867C41.0982 39.8727 41.1428 39.875 41.1965 39.875C41.29 39.8747 41.3833 39.8663 41.4754 39.8499C41.5664 39.8339 41.6558 39.8102 41.7429 39.7792C41.8302 39.7485 41.9147 39.7103 41.9955 39.6652C42.0758 39.6185 42.1522 39.5655 42.2241 39.5066C42.3316 39.4167 42.4286 39.3149 42.5132 39.2033C42.5976 39.0932 42.6696 38.9742 42.7281 38.8486C42.7857 38.7228 42.8298 38.5913 42.8596 38.4562C42.8747 38.3881 42.8858 38.3192 42.8927 38.2498C42.9002 38.1801 42.9036 38.1101 42.903 38.04C42.9122 37.1173 42.9099 36.2152 42.903 35.2515V34.4189H43.9637C44.1164 34.4191 44.2691 34.4111 44.4209 34.395C44.9299 34.3433 45.4261 34.204 45.8874 33.9832C46.0803 33.8901 46.2663 33.7833 46.4441 33.6639C46.5035 33.624 46.5584 33.5829 46.6178 33.5396C46.7317 33.4552 46.8412 33.365 46.9459 33.2693C47.1036 33.1282 47.2507 32.9758 47.3859 32.8131C47.5674 32.5939 47.7274 32.3579 47.8637 32.1083C47.9323 31.9828 47.994 31.854 48.05 31.7217C48.106 31.5894 48.1563 31.4536 48.1997 31.3156C48.2215 31.2461 48.2409 31.1765 48.2592 31.1058C48.2935 30.9746 48.3209 30.8423 48.3426 30.7066C48.3563 30.6234 48.3678 30.5378 48.3769 30.4523C48.3918 30.304 48.3998 30.1535 48.3998 29.9961V13.3712C48.3989 12.1987 47.9319 11.0743 47.1014 10.2448C46.2709 9.41526 45.1446 8.94822 43.9694 8.94611H37.0473Z" fill="#5DAC0D"/>
				<path d="M35.383 5.82459C35.3464 5.68317 35.303 5.54517 35.2538 5.40945C35.0809 4.93982 34.8293 4.50289 34.5098 4.11728C34.4195 4.00323 34.3234 3.90287 34.224 3.8025C34.1246 3.70214 34.0183 3.60748 33.9085 3.51738C33.6889 3.33631 33.4523 3.17668 33.2021 3.04066C33.0124 2.93851 32.8157 2.84972 32.6135 2.77492C32.4775 2.72588 32.3392 2.68254 32.1974 2.64605C32.0557 2.60955 31.9117 2.5799 31.7642 2.55709C31.6168 2.53428 31.4693 2.51945 31.3185 2.51147C31.2419 2.51147 31.1664 2.50577 31.0899 2.50577H6.03385C5.95727 2.50577 5.88183 2.50577 5.80525 2.51147C5.65437 2.51945 5.50578 2.53542 5.35947 2.55709C5.21316 2.57876 5.068 2.60955 4.92627 2.64605C4.78453 2.68254 4.64623 2.72588 4.51021 2.77492C4.03954 2.94752 3.60165 3.19857 3.21518 3.51738C3.10088 3.60748 3.00029 3.70328 2.8997 3.8025C2.48748 4.21277 2.16048 4.7002 1.93746 5.23684C1.71444 5.77348 1.5998 6.34877 1.6001 6.92972V23.5546C1.6 24.2071 1.74478 24.8515 2.02404 25.4416C2.30329 26.0316 2.71009 26.5525 3.21518 26.967C3.37948 27.1029 3.5537 27.2264 3.73639 27.3365C3.79697 27.3741 3.85869 27.4095 3.92156 27.4437C4.04729 27.511 4.17645 27.5737 4.30904 27.6296C4.44163 27.6855 4.57765 27.7357 4.71595 27.779C4.99787 27.8661 5.28769 27.9253 5.58121 27.9558C5.72981 27.9706 5.88068 27.9786 6.03842 27.9786H7.09914V28.8123V29.5228C7.09914 29.9915 7.09914 30.4512 7.09914 30.9108V31.6008C7.09566 31.8802 7.15422 32.1569 7.27062 32.4111C7.38702 32.6653 7.55837 32.8906 7.77237 33.0709C8.06218 33.3089 8.42569 33.4395 8.80108 33.4404C8.91312 33.4406 9.0249 33.4299 9.13484 33.4084C9.39483 33.3503 9.64506 33.255 9.8778 33.1256C9.954 33.0823 10.0302 33.0355 10.1064 32.9853L10.6208 32.6432L12.0792 31.6749L12.8794 31.1411L12.9845 31.0704L13.8486 30.4945L14.6739 29.9425L15.466 29.4099C15.9849 29.0609 16.4867 28.7256 16.9782 28.3903C17.1747 28.2513 17.3918 28.1439 17.6217 28.0721C17.7595 28.0285 17.9011 27.998 18.0446 27.9809H31.0899C31.4635 27.981 31.8357 27.9338 32.1974 27.8406C32.2866 27.8178 32.3735 27.7915 32.4603 27.763C32.5472 27.7345 32.6604 27.6946 32.7575 27.6547L32.9038 27.592C33.0055 27.5463 33.105 27.4984 33.2021 27.446C33.265 27.4118 33.3267 27.3764 33.3873 27.3388C33.632 27.1919 33.8617 27.0215 34.0731 26.8301C34.5307 26.4157 34.8964 25.9105 35.1468 25.3468C35.3971 24.7831 35.5267 24.1735 35.527 23.5569V6.92972C35.526 6.55675 35.4776 6.18541 35.383 5.82459ZM20.1878 18.9892C20.111 19.0662 20.0237 19.1319 19.9283 19.1843C19.8969 19.2024 19.8644 19.2188 19.8312 19.2333C19.6932 19.2934 19.545 19.3267 19.3945 19.3314H9.03997C9.01254 19.3314 8.98625 19.3314 8.95996 19.3314H8.90281C8.88224 19.3314 8.86281 19.3314 8.84223 19.3246L8.78737 19.3166L8.72907 19.3029L8.67535 19.2892C8.65636 19.2841 8.63766 19.2781 8.61935 19.2709L8.57248 19.2481C8.55419 19.2413 8.53705 19.2322 8.51876 19.2242L8.47075 19.2014L8.41932 19.1729C8.40332 19.1637 8.38846 19.1558 8.3736 19.1455C8.35651 19.1351 8.34009 19.1237 8.32445 19.1113L8.28216 19.0816L8.22958 19.0428L8.19072 19.0086C8.17586 18.9949 8.16214 18.9801 8.14842 18.9653L8.11528 18.9288C8.1027 18.914 8.09013 18.8969 8.07756 18.8809C8.06498 18.8649 8.05584 18.8547 8.0467 18.841C8.03755 18.8273 8.02384 18.8068 8.0124 18.7897L7.98497 18.7475C7.97469 18.7292 7.96554 18.7098 7.9564 18.6916C7.94725 18.6733 7.9404 18.6619 7.93354 18.6471C7.92668 18.6323 7.91753 18.606 7.90953 18.5855C7.90153 18.565 7.89696 18.557 7.89125 18.5422C7.88553 18.5273 7.87867 18.4977 7.87181 18.4749C7.86496 18.4521 7.86267 18.4464 7.85924 18.4315C7.85581 18.4167 7.8501 18.3802 7.84552 18.3551C7.84259 18.3423 7.8403 18.3294 7.83867 18.3164C7.83867 18.2776 7.83067 18.2388 7.82838 18.2023C7.82366 18.048 7.84951 17.8944 7.90445 17.7501C7.95939 17.6058 8.04234 17.4738 8.14853 17.3616C8.25472 17.2494 8.38208 17.1592 8.52328 17.0962C8.66449 17.0332 8.81677 16.9987 8.97139 16.9945H19.3991C19.4374 16.9959 19.4755 16.9993 19.5134 17.0048C19.5912 17.0149 19.6678 17.0328 19.742 17.0584C19.9213 17.1205 20.0829 17.2249 20.2129 17.3629C20.4217 17.5848 20.5359 17.8791 20.5312 18.1834C20.5265 18.4878 20.4033 18.7784 20.1878 18.9938V18.9892ZM28.8747 13.1933C28.8233 13.2441 28.7674 13.2903 28.7078 13.3313C28.6178 13.3935 28.5193 13.4423 28.4152 13.4761C28.3075 13.5123 28.195 13.5322 28.0814 13.5354H9.03997C9.01254 13.5354 8.98625 13.5354 8.95996 13.5354H8.90281C8.88224 13.5354 8.86281 13.5354 8.84223 13.5286L8.78737 13.5206L8.72907 13.5069L8.67535 13.4932C8.65636 13.4882 8.63766 13.4821 8.61935 13.475L8.57248 13.4545C8.55419 13.4476 8.53705 13.4385 8.51876 13.4305L8.47075 13.4077L8.41932 13.3792C8.40332 13.3701 8.38846 13.3621 8.3736 13.3518C8.35651 13.3415 8.34009 13.33 8.32445 13.3176L8.28216 13.2879L8.23758 13.2492L8.19872 13.215C8.18386 13.2013 8.17014 13.1864 8.15642 13.1716L8.12099 13.134C8.10842 13.1192 8.09585 13.102 8.08327 13.0861C8.0707 13.0701 8.06155 13.0598 8.05241 13.0462C8.04327 13.0325 8.02955 13.0119 8.01812 12.9948L7.99069 12.9526C7.9804 12.9344 7.97126 12.915 7.96211 12.8968C7.95297 12.8785 7.94611 12.8671 7.93925 12.8523C7.93239 12.8375 7.92325 12.8112 7.91525 12.7907C7.90725 12.7702 7.90268 12.7622 7.89696 12.7474C7.89125 12.7325 7.88439 12.7029 7.87753 12.6801C7.87067 12.6573 7.86838 12.6516 7.86496 12.6367C7.86153 12.6219 7.85581 12.5854 7.85124 12.5603C7.8483 12.5475 7.84601 12.5346 7.84438 12.5215C7.84438 12.4828 7.83638 12.444 7.8341 12.4075C7.83167 12.328 7.83742 12.2485 7.85124 12.1703C7.86389 12.0923 7.88458 12.0159 7.91296 11.9422C7.97411 11.7832 8.06946 11.6395 8.1923 11.5213C8.31514 11.403 8.46247 11.3131 8.62392 11.2579C8.73437 11.2196 8.84996 11.1981 8.96682 11.194C8.99082 11.194 9.01597 11.194 9.03997 11.194H28.0814C28.2738 11.2004 28.4617 11.2539 28.6285 11.3498C28.7953 11.4456 28.936 11.5809 29.0381 11.7437C29.0784 11.8077 29.1124 11.8752 29.1399 11.9456C29.1677 12.0195 29.1884 12.0959 29.2016 12.1737C29.2156 12.2519 29.221 12.3315 29.2176 12.4109C29.2067 12.7056 29.0842 12.9852 28.8747 13.1933Z" fill="#DE5617"/>
				<path d="M12.8795 31.1423L12.0794 31.676L10.6186 32.6443L10.1042 32.9865C10.028 33.0366 9.95184 33.0834 9.87564 33.1267C9.64289 33.2562 9.39267 33.3514 9.13268 33.4096C9.02274 33.4311 8.91095 33.4418 8.79892 33.4415C8.42417 33.4398 8.06154 33.3089 7.7725 33.0709C7.5587 32.8905 7.38757 32.6651 7.27137 32.411C7.15517 32.1568 7.09679 31.8801 7.1004 31.6008V30.9108C7.1004 30.4546 7.1004 29.9915 7.1004 29.5228V28.8123V27.9786H6.03397C5.88081 27.9786 5.72993 27.9706 5.57677 27.9558C5.28324 27.9253 4.99342 27.8661 4.7115 27.779C4.5732 27.7357 4.43718 27.6855 4.30459 27.6296C4.172 27.5737 4.04284 27.5155 3.91711 27.4437C3.85424 27.4095 3.79252 27.3741 3.73194 27.3365C3.54925 27.2264 3.37503 27.1029 3.21073 26.967C2.70647 26.5521 2.30054 26.0309 2.02209 25.4409C1.74364 24.851 1.59956 24.2068 1.60022 23.5546V6.92973C1.59992 6.34878 1.71456 5.77349 1.93758 5.23685C2.1606 4.70021 2.4876 4.21277 2.89983 3.80251C3.00041 3.70328 3.10557 3.60748 3.2153 3.51739C3.60177 3.19857 4.03966 2.94752 4.51033 2.77493C4.64635 2.72589 4.78466 2.68255 4.92639 2.64605C5.06812 2.60956 5.21214 2.5799 5.35959 2.55709C5.50704 2.53428 5.65449 2.51946 5.80537 2.51147C5.88195 2.51147 5.95739 2.50577 6.03397 2.50577H31.09C31.1666 2.50577 31.242 2.50577 31.3186 2.51147C31.4695 2.51946 31.6181 2.53542 31.7644 2.55709C31.9107 2.57876 32.0558 2.60956 32.1976 2.64605C32.3393 2.68255 32.4776 2.72589 32.6136 2.77493C32.8158 2.84972 33.0125 2.93852 33.2023 3.04066C33.4525 3.17668 33.689 3.33632 33.9087 3.51739C34.023 3.60748 34.1235 3.70328 34.2241 3.80251C34.3247 3.90173 34.4196 4.0078 34.5099 4.11728C34.8294 4.5029 35.081 4.93983 35.254 5.40946C35.3031 5.54517 35.3466 5.68317 35.3831 5.82459C35.4766 6.18557 35.5238 6.5569 35.5237 6.92973V7.34943H37.124V6.92973C37.12 5.33416 36.483 3.80506 35.3523 2.67682C34.2216 1.54858 32.6891 0.913003 31.09 0.909088L6.03397 0.909088C4.43507 0.913002 2.90275 1.54842 1.77205 2.67641C0.641338 3.80441 0.00422511 5.33321 0 6.92859L0 23.5546C0.00385535 25.0571 0.569019 26.5042 1.58507 27.6131C2.60111 28.722 3.99503 29.4131 5.49447 29.5513C5.49447 30.2425 5.49447 30.9199 5.49447 31.5973C5.491 32.1101 5.6012 32.6173 5.81719 33.0827C6.03317 33.548 6.34958 33.9599 6.74378 34.2889L6.75178 34.2957L6.76093 34.3026C7.33576 34.7749 8.05657 35.0344 8.80121 35.0371C9.01607 35.0373 9.23044 35.0167 9.4413 34.9755H9.46644H9.49045C10.0311 34.8533 10.5437 34.6304 11.0015 34.3186C11.8953 33.7255 12.7229 33.1781 13.5036 32.6569C13.4361 32.52 13.3733 32.3786 13.315 32.2337L12.8795 31.1423Z" fill="white"/>
				<path d="M29.1401 11.9422C29.1126 11.8718 29.0786 11.8042 29.0383 11.7403C28.9577 11.6129 28.8533 11.5022 28.7309 11.4141C28.5412 11.2779 28.3152 11.2013 28.0816 11.194H9.04016C9.01616 11.194 8.99101 11.194 8.96701 11.194C8.85015 11.1981 8.73456 11.2196 8.6241 11.2579C8.46288 11.3135 8.31576 11.4036 8.19297 11.5218C8.07019 11.6399 7.9747 11.7834 7.91315 11.9422C7.88476 12.0159 7.86408 12.0923 7.85142 12.1703C7.8376 12.2485 7.83186 12.328 7.83428 12.4075C7.83428 12.4474 7.83428 12.4862 7.84457 12.5215C7.8462 12.5346 7.84849 12.5475 7.85142 12.5603C7.85142 12.5854 7.85943 12.6116 7.86514 12.6367C7.87086 12.6618 7.87428 12.6652 7.87771 12.6801C7.88114 12.6949 7.89029 12.7257 7.89714 12.7473C7.904 12.769 7.90972 12.777 7.91543 12.7907C7.92115 12.8044 7.93029 12.8329 7.93944 12.8523C7.94858 12.8717 7.9543 12.8819 7.9623 12.8967C7.9703 12.9116 7.98059 12.9344 7.99087 12.9526L8.0183 12.9948C8.02973 13.0119 8.04002 13.0302 8.05259 13.0462C8.06517 13.0621 8.07317 13.0735 8.08346 13.0861C8.09374 13.0986 8.1086 13.1191 8.12118 13.134L8.15661 13.1716C8.17033 13.1864 8.18404 13.2013 8.1989 13.2149L8.23776 13.2492L8.28234 13.2879L8.32463 13.3176C8.34028 13.33 8.35669 13.3414 8.37378 13.3518C8.38864 13.3621 8.4035 13.3701 8.4195 13.3792L8.47094 13.4077L8.51894 13.4305C8.53723 13.4385 8.55438 13.4476 8.57267 13.4544L8.6241 13.4727C8.64242 13.4798 8.66112 13.4859 8.68011 13.4909L8.73383 13.5046L8.79213 13.5183L8.84699 13.5263C8.86756 13.5263 8.887 13.5263 8.90757 13.5331H8.96472C8.99101 13.5331 9.0173 13.5331 9.04473 13.5331H28.0816C28.1952 13.53 28.3077 13.51 28.4154 13.4738C28.5195 13.44 28.618 13.3912 28.708 13.329C28.7676 13.288 28.8235 13.2418 28.8749 13.191C29.0865 12.9807 29.2092 12.6974 29.2178 12.3995C29.2212 12.3201 29.2158 12.2405 29.2018 12.1623C29.1881 12.0872 29.1674 12.0135 29.1401 11.9422Z" fill="white"/>
				<path d="M20.2132 17.3584C20.0831 17.2204 19.9216 17.1159 19.7422 17.0539C19.6681 17.0283 19.5915 17.0103 19.5136 17.0003C19.4757 16.9948 19.4376 16.9914 19.3993 16.99H8.96705C8.81243 16.9941 8.66015 17.0287 8.51894 17.0917C8.37773 17.1547 8.25038 17.2448 8.14418 17.357C8.03799 17.4693 7.95504 17.6013 7.9001 17.7456C7.84517 17.8898 7.81931 18.0435 7.82403 18.1978C7.82403 18.2377 7.82403 18.2765 7.83432 18.3118C7.83595 18.3248 7.83824 18.3378 7.84118 18.3506C7.84118 18.3757 7.84918 18.4019 7.8549 18.427C7.86061 18.4521 7.86404 18.4555 7.86747 18.4703C7.8709 18.4852 7.88004 18.516 7.8869 18.5376C7.89376 18.5593 7.89947 18.5673 7.90519 18.581C7.9109 18.5947 7.92005 18.6232 7.92919 18.6426C7.93834 18.6619 7.94405 18.6722 7.95205 18.687C7.96005 18.7019 7.97034 18.7247 7.98063 18.7429L8.00806 18.7851C8.01949 18.8022 8.02978 18.8205 8.04235 18.8364C8.05492 18.8524 8.06292 18.8638 8.07321 18.8764C8.0835 18.8889 8.09836 18.9094 8.11093 18.9243L8.14636 18.9619C8.16008 18.9767 8.1738 18.9915 8.18866 19.0052L8.22752 19.0394L8.2721 19.0782L8.31439 19.1079C8.33003 19.1203 8.34645 19.1317 8.36354 19.1421C8.3784 19.1524 8.39325 19.1603 8.40926 19.1695L8.46069 19.198L8.5087 19.2208C8.52699 19.2288 8.54413 19.2379 8.56242 19.2447L8.61386 19.263C8.63217 19.2701 8.65087 19.2762 8.66986 19.2812L8.72359 19.2949L8.78188 19.3086L8.83674 19.3166C8.85732 19.3166 8.87675 19.3166 8.89732 19.3234H8.95447C8.98076 19.3234 9.00705 19.3234 9.03449 19.3234H19.389C19.5395 19.3188 19.6877 19.2855 19.8257 19.2253C19.859 19.2108 19.8914 19.1945 19.9228 19.1763C20.0182 19.124 20.1056 19.0583 20.1823 18.9813C20.3984 18.7662 20.5219 18.4755 20.5266 18.1709C20.5313 17.8664 20.4168 17.572 20.2074 17.3504L20.2132 17.3584Z" fill="white"/>
				<path d="M43.9728 7.34943H37.1239V8.94611H43.9694C45.1445 8.94822 46.2709 9.41526 47.1014 10.2448C47.9319 11.0743 48.3988 12.1987 48.3997 13.3712V29.9915C48.3997 30.1444 48.3917 30.2949 48.3769 30.4477C48.3677 30.5333 48.3563 30.6188 48.3426 30.7021C48.3209 30.8378 48.2934 30.9701 48.2591 31.1012C48.2408 31.172 48.2214 31.2415 48.1997 31.3111C48.1563 31.4491 48.106 31.5848 48.05 31.7171C47.994 31.8494 47.9357 31.9783 47.8637 32.1037C47.7273 32.3534 47.5673 32.5894 47.3859 32.8086C47.2506 32.9712 47.1035 33.1237 46.9458 33.2647C46.8412 33.3604 46.7317 33.4506 46.6178 33.535C46.5606 33.5784 46.5035 33.6194 46.444 33.6594C46.2663 33.7788 46.0803 33.8855 45.8874 33.9787C45.4258 34.2003 44.9293 34.3404 44.4198 34.3927C44.2679 34.4088 44.1153 34.4168 43.9625 34.4166H42.9018V35.2492C42.9087 36.2129 42.911 37.115 42.9018 38.0377C42.9024 38.1078 42.899 38.1778 42.8915 38.2475C42.8846 38.3169 42.8735 38.3859 42.8584 38.454C42.8286 38.589 42.7845 38.7205 42.7269 38.8463C42.6684 38.972 42.5964 39.0909 42.5121 39.201C42.4274 39.3127 42.3304 39.4144 42.2229 39.5044C42.151 39.5632 42.0746 39.6162 41.9943 39.6629C41.9135 39.708 41.829 39.7462 41.7417 39.7769C41.6547 39.808 41.5652 39.8316 41.4742 39.8476C41.3821 39.864 41.2888 39.8724 41.1953 39.8727C41.1416 39.8727 41.089 39.8727 41.0364 39.8648C40.9839 39.8568 40.9221 39.8511 40.8615 39.8397C40.7747 39.8203 40.689 39.7963 40.6044 39.769C40.4361 39.7136 40.2735 39.6426 40.1186 39.5568C40.0424 39.5135 39.9662 39.4667 39.89 39.4165C38.3926 38.4243 37.0885 37.5575 35.8963 36.7603L35.3248 36.3749L34.5327 35.8422C34.1429 35.5811 33.7646 35.3256 33.3897 35.0736L33.0193 34.8227C32.8622 34.7116 32.6917 34.6208 32.5118 34.5524C32.3769 34.5018 32.2377 34.4636 32.0958 34.4383C32.0489 34.4292 32.0009 34.4223 31.9529 34.4166H18.9134C18.7991 34.4166 18.6848 34.4166 18.5762 34.403C18.4676 34.3893 18.3476 34.3813 18.2436 34.3642C17.7013 34.2803 17.1793 34.097 16.7039 33.8236C15.8764 33.3494 15.2258 32.6197 14.85 31.7445L13.5012 32.6443C13.9955 33.6554 14.7647 34.5074 15.7211 35.1032C16.6775 35.6989 17.7825 36.0143 18.91 36.0133H31.8317C31.9277 36.0328 32.0187 36.0716 32.0992 36.1274L32.1106 36.1354L32.1221 36.1422C34.0652 37.4549 36.1809 38.8725 38.9984 40.7384C39.4566 41.052 39.9707 41.2753 40.5129 41.3964H40.5335H40.5541C40.7645 41.4382 40.9785 41.4596 41.193 41.4603H41.201C41.9468 41.458 42.6688 41.1985 43.2447 40.7258H43.2505H43.2562C43.6489 40.397 43.9643 39.9861 44.1802 39.5222C44.3961 39.0582 44.5071 38.5526 44.5055 38.0411C44.5112 37.4184 44.5135 36.7649 44.5055 35.9882C46.0033 35.8482 47.3951 35.1564 48.4095 34.048C49.4238 32.9395 49.988 31.4937 49.9919 29.9927V13.3712C49.988 11.7781 49.3531 10.2511 48.2256 9.1231C47.0981 7.9951 45.5695 7.35755 43.9728 7.34943Z" fill="#FBFBFB"/>
				<path d="M14.7985 31.6327L15.5746 31.1126L16.3222 30.6097L17.4046 29.8809L17.7566 29.6426C17.7925 29.6163 17.8308 29.5934 17.8709 29.5741C17.9107 29.5554 17.952 29.5401 17.9944 29.5285H30.8979C31.1078 29.5284 31.3177 29.5174 31.5265 29.4954C31.7314 29.4752 31.9352 29.4444 32.1369 29.4031C32.3369 29.362 32.5335 29.3107 32.7255 29.2514C33.1072 29.1327 33.4763 28.9768 33.8274 28.7861C34.0011 28.691 34.1699 28.5884 34.3338 28.4781C34.4972 28.3641 34.6561 28.25 34.807 28.1257C34.9578 28.0014 35.1053 27.868 35.2436 27.73C35.6627 27.3119 36.0195 26.836 36.3032 26.3169C36.7917 25.4197 37.0475 24.4149 37.0473 23.3938V8.94611H37.1238V7.34943H35.5236V23.5581C35.5227 24.3183 35.3256 25.0656 34.9515 25.7279C34.5773 26.3903 34.0387 26.9454 33.3873 27.3399C33.3268 27.3776 33.265 27.4129 33.2022 27.4471C33.105 27.4996 33.0056 27.5475 32.9038 27.5931L32.7575 27.6558C32.6604 27.6957 32.5609 27.7311 32.4604 27.7642C32.3598 27.7972 32.2866 27.8189 32.1975 27.8417C31.8357 27.935 31.4635 27.9821 31.0899 27.982H18.0447C17.9011 27.9991 17.7595 28.0297 17.6218 28.0732C17.3919 28.145 17.1747 28.2524 16.9782 28.3914C16.4867 28.7245 15.985 29.0621 15.466 29.411L14.6739 29.9436L13.8487 30.4956L12.9846 31.0716L12.8794 31.1423L13.3126 32.2246C13.3709 32.3695 13.4338 32.5109 13.5012 32.6477L14.8499 31.7479C14.8328 31.7091 14.8145 31.6715 14.7985 31.6327Z" fill="white"/>
			</g>
			<defs>
				<clipPath id="clip0_48_929">
					<rect width="50" height="40.566" fill="white" transform="translate(0 0.909088)"/>
				</clipPath>
			</defs>
	</symbol>

	<symbol id="jivo_chat_chat" viewBox="0 0 28 27">
		<path d="M27.9981 5.35268C27.9956 2.78897 26.125 0.909088 23.5646 0.909088C17.1856 0.909088 10.8066 0.91077 4.42762 0.914135C4.08052 0.911563 3.73418 0.946817 3.39473 1.01927C1.35924 1.48189 0.0126167 3.18009 0.00504667 5.29801C-0.00168222 8.80713 -0.00168222 12.3163 0.00504667 15.8254C0.00504667 19.3794 0.00504667 22.9333 0.00504667 26.4873C-0.00110655 26.6661 0.0149982 26.8449 0.0529901 27.0197C0.0901527 27.1796 0.164693 27.3284 0.270494 27.4538C0.376295 27.5793 0.51034 27.6779 0.661627 27.7415C0.812915 27.8051 0.977132 27.8319 1.1408 27.8198C1.30447 27.8076 1.46292 27.7569 1.60316 27.6716C1.78205 27.56 1.95091 27.4331 2.10783 27.2923C3.96921 25.7446 5.82554 24.1902 7.6945 22.651C7.85692 22.526 8.05486 22.4559 8.25972 22.4508C13.3501 22.4407 18.44 22.4376 23.5293 22.4416C26.1191 22.4416 27.9922 20.5777 27.9947 17.9988C28.0004 13.7832 28.0015 9.56778 27.9981 5.35268Z" fill="#5DAC0D"/>
		<path d="M20.5491 6.93837C20.3942 6.91334 20.2372 6.90432 20.0806 6.91145H7.67078C7.55859 6.90737 7.44627 6.90961 7.33433 6.91818C6.88182 6.9678 6.55967 7.19995 6.40322 7.6306C6.13996 8.35143 6.66481 9.06049 7.47564 9.06049C9.60618 9.06722 11.7359 9.06049 13.8681 9.06049H15.9827C17.4294 9.06049 18.8752 9.06638 20.3211 9.06049C20.5875 9.06327 20.8455 8.96668 21.0445 8.78958C21.2436 8.61248 21.3695 8.36757 21.3978 8.10262C21.4261 7.83768 21.3546 7.57171 21.1974 7.35661C21.0401 7.1415 20.8084 6.99269 20.5474 6.93921L20.5491 6.93837Z" fill="white"/>
		<path d="M20.5491 11.0928C20.3942 11.0677 20.2372 11.0587 20.0806 11.0658H7.67078C7.55859 11.0618 7.44627 11.064 7.33433 11.0726C6.88182 11.1222 6.55967 11.3543 6.40322 11.785C6.13996 12.5058 6.66481 13.2149 7.47564 13.2149C9.60618 13.2216 11.7359 13.2149 13.8681 13.2149H15.9827C17.4294 13.2149 18.8752 13.2208 20.3211 13.2149C20.5875 13.2177 20.8455 13.1211 21.0445 12.944C21.2436 12.7669 21.3695 12.522 21.3978 12.257C21.4261 11.9921 21.3546 11.7261 21.1974 11.511C21.0401 11.2959 20.8084 11.1471 20.5474 11.0936L20.5491 11.0928Z" fill="white"/>
		<path d="M15.9904 15.2227C14.5673 15.2118 13.1433 15.2227 11.7201 15.2227H7.48259C6.98465 15.2227 6.61372 15.4389 6.42026 15.8998C6.1183 16.6181 6.65073 17.3692 7.46829 17.3734C9.26154 17.3819 11.0548 17.3734 12.8514 17.3734C13.8938 17.3734 14.9362 17.3734 15.9787 17.3734C16.4623 17.3734 16.824 17.1573 17.0174 16.7123C17.327 15.9957 16.8038 15.2295 15.9904 15.2227Z" fill="white"/>
	</symbol>

	<symbol id="jivo_chat_wa" viewBox="0 0 31 31">
		<path d="M21.5376 4.82446C19.0043 3.54231 16.11 3.1429 13.3202 3.69052C10.5304 4.23814 8.00743 5.70094 6.15736 7.84351C4.3073 9.98608 3.23771 12.6838 3.12072 15.5026C3.00372 18.3213 3.84614 21.0971 5.51239 23.3833L3.92943 28.0533L8.79892 26.5064C10.237 27.4503 11.8542 28.0931 13.5515 28.3953C15.2487 28.6976 16.9903 28.6529 18.6696 28.2642C20.3489 27.8754 21.9305 27.1506 23.3175 26.1343C24.7045 25.1179 25.8678 23.8314 26.7362 22.3535C27.6045 20.8756 28.1595 19.2374 28.3673 17.5393C28.575 15.8412 28.4312 14.1188 27.9445 12.4778C27.4578 10.8367 26.6385 9.31148 25.5369 7.9955C24.4352 6.67951 23.0743 5.60047 21.5376 4.82446ZM23.3618 21.7605C23.0043 22.6478 21.3846 23.4577 20.6696 23.4957C19.9546 23.5336 19.934 24.0517 16.0428 22.3588C12.1517 20.666 9.81695 16.568 9.62423 16.2908C9.43151 16.0135 8.11043 14.1426 8.18104 12.2322C8.19263 11.6315 8.33035 11.0397 8.58543 10.4947C8.84051 9.94964 9.20733 9.46336 9.66248 9.06686C9.7989 8.92677 9.96265 8.81571 10.1437 8.74044C10.3248 8.66517 10.5195 8.62727 10.7158 8.62905C10.9792 8.63781 11.2307 8.67867 11.4602 8.68743C11.6897 8.69618 12.0178 8.57797 12.312 9.36312C12.6062 10.1483 13.3094 12.0761 13.4021 12.2716C13.4581 12.3756 13.4875 12.4916 13.4875 12.6095C13.4875 12.7274 13.4581 12.8434 13.4021 12.9473C13.2939 13.1755 13.1543 13.3877 12.9873 13.5778C12.7857 13.7952 12.5783 14.0433 12.3797 14.2287C12.1811 14.414 11.9678 14.6154 12.1796 15.0094C12.7251 16.0225 13.4192 16.9495 14.2392 17.7604C15.1304 18.6071 16.1633 19.2935 17.2918 19.7889C17.6743 19.9961 17.9038 19.9728 18.1392 19.7247C18.3746 19.4766 19.1514 18.6331 19.4265 18.2653C19.7016 17.8975 19.9561 17.9632 20.3092 18.1048C20.6622 18.2463 22.535 19.2504 22.9175 19.4576H22.9278C23.3073 19.6634 23.5677 19.783 23.6634 19.948C23.759 20.1129 23.7207 20.8717 23.3618 21.7605Z" fill="#1ABB06"/>
		<path d="M27.8149 6.75965C25.4349 3.7143 21.9717 1.68632 18.134 1.0907C14.2963 0.495068 10.3742 1.37682 7.17026 3.55552C3.96635 5.73423 1.72287 9.04516 0.898898 12.8108C0.0749282 16.5764 0.732766 20.5121 2.7378 23.8124L0 31.9178L8.42083 29.2398C11.4882 30.9172 15.0447 31.4943 18.491 30.874C21.9372 30.2537 25.0626 28.4738 27.3403 25.8343C29.618 23.1948 30.9089 19.857 30.9954 16.3836C31.0818 12.9101 29.9586 9.51327 27.8149 6.76548V6.75965ZM28.0988 18.9586C27.6242 20.9223 26.6793 22.7436 25.3443 24.2682C24.0092 25.7927 22.3234 26.9754 20.4296 27.7162C18.5358 28.457 16.4899 28.7339 14.4652 28.5236C12.4406 28.3133 10.4969 27.6218 8.79891 26.5079L3.92943 28.0534L5.51238 23.3834C4.26783 21.6754 3.47624 19.6843 3.21041 17.5934C2.94458 15.5025 3.21305 13.3789 3.99113 11.4178C4.7692 9.45677 6.0319 7.7213 7.66306 6.37106C9.29422 5.02081 11.2415 4.09914 13.3257 3.69083C15.4099 3.28252 17.5642 3.40068 19.5903 4.03444C21.6164 4.6682 23.4494 5.79721 24.9206 7.31762C26.3917 8.83803 27.4538 10.701 28.0092 12.7352C28.5646 14.7694 28.5954 16.9095 28.0988 18.9586Z" fill="#1ABB06"/>
		<path d="M22.9249 19.443H22.9146C22.5321 19.2358 20.6578 18.2303 20.3062 18.0902C19.9546 17.9501 19.7001 17.8756 19.4236 18.2507C19.147 18.6257 18.3717 19.4678 18.1363 19.7101C17.9009 19.9523 17.6714 19.9815 17.2889 19.7743C16.1604 19.2789 15.1275 18.5925 14.2363 17.7457C13.4163 16.9349 12.7222 16.0079 12.1767 14.9948C11.9649 14.6008 12.1767 14.4009 12.3768 14.2141C12.5769 14.0273 12.7828 13.7762 12.9844 13.5632C13.1514 13.3731 13.291 13.1609 13.3992 12.9327C13.4552 12.8288 13.4845 12.7127 13.4845 12.5949C13.4845 12.477 13.4552 12.361 13.3992 12.257C13.3065 12.0615 12.6019 10.1351 12.3091 9.34851C12.0163 8.5619 11.6853 8.68303 11.4573 8.67282C11.2293 8.6626 10.9762 8.6232 10.7129 8.61444C10.5166 8.61266 10.3219 8.65056 10.1408 8.72583C9.95974 8.8011 9.79599 8.91216 9.65957 9.05225C9.20314 9.45066 8.8358 9.9394 8.58117 10.4871C8.32654 11.0347 8.19025 11.6292 8.18107 12.2322C8.11046 14.1425 9.43155 16.0135 9.62427 16.2907C9.81699 16.568 12.1502 20.6689 16.0429 22.3588C19.9355 24.0488 19.9561 23.5336 20.6696 23.4957C21.3831 23.4577 23.0043 22.6478 23.3618 21.7605C23.7193 20.8732 23.7472 20.1012 23.656 19.9363C23.5648 19.7714 23.3044 19.6517 22.9249 19.443Z" fill="white"/>
	</symbol>

	<symbol id="jivo_chat_fb" viewBox="0 0 30 30">
		<path d="M15.0001 0.909088C6.71585 0.909088 0 7.65302 0 15.9719C0 23.4329 5.40783 29.6119 12.4984 30.8085V19.1144H8.87992V14.9062H12.4984V11.8032C12.4984 8.20285 14.6882 6.24088 17.8871 6.24088C19.4191 6.24088 20.7357 6.35552 21.1179 6.40601V10.1693L18.8993 10.1704C17.16 10.1704 16.8247 11.0002 16.8247 12.2183V14.904H20.9748L20.4335 19.1122H16.8247V30.9091C24.2463 30.002 30 23.6656 30 15.9676C30 7.65302 23.2841 0.909088 15.0001 0.909088Z" fill="#1D4BA0"/>
	</symbol>

	<symbol id="jivo_chat_vk" viewBox="0 0 30 31">
		<g clip-path="url(#clip0_48_952)">
			<path d="M14.9923 30.9091H15.0077C18.9838 30.9088 22.797 29.3291 25.6085 26.5176C28.42 23.7061 29.9997 19.8929 30 15.9168V15.9085C30 11.9304 28.4197 8.11525 25.6068 5.30231C22.7938 2.48938 18.9787 0.909088 15.0006 0.909088V0.909088C13.0307 0.908933 11.0802 1.29679 9.2602 2.05051C7.44025 2.80423 5.78659 3.90906 4.39364 5.3019C3.00069 6.69473 1.89574 8.34831 1.14188 10.1682C0.38801 11.9881 -6.11907e-09 13.9386 0 15.9085L0 15.9168C0.000313512 19.8929 1.57996 23.7061 4.39149 26.5176C7.20303 29.3291 11.0162 30.9088 14.9923 30.9091V30.9091Z" fill="#477FC2"/>
			<path fill-rule="evenodd" clip-rule="evenodd" d="M14.4414 21.8151H15.5788C15.5788 21.8151 15.9216 21.7773 16.0978 21.5881C16.2739 21.3989 16.2538 21.0892 16.2538 21.0892C16.2538 21.0892 16.2314 19.5629 16.9395 19.3382C17.6477 19.1136 18.5344 20.8125 19.4838 21.4663C20.2026 21.9593 20.7488 21.8517 20.7488 21.8517L23.2895 21.8163C23.2895 21.8163 24.6184 21.7335 23.9882 20.6896C23.9362 20.6033 23.6205 19.9164 22.0966 18.5036C20.5029 17.0246 20.7169 17.2646 22.6357 14.7061C23.805 13.1491 24.272 12.1985 24.1254 11.7907C23.987 11.4029 23.1275 11.5046 23.1275 11.5046L20.2664 11.5235C20.1398 11.508 20.0113 11.5306 19.8976 11.5885C19.789 11.6678 19.702 11.7731 19.6446 11.8947C19.3483 12.6636 18.995 13.4094 18.5876 14.1256C17.3167 16.2868 16.8071 16.3968 16.5991 16.2667C16.1143 15.9534 16.2361 15.01 16.2361 14.3384C16.2361 12.2423 16.5541 11.3686 15.6166 11.1463C15.3057 11.0707 15.0763 11.021 14.2818 11.0127C13.2603 11.0033 12.3973 11.0127 11.9078 11.2563C11.5862 11.4112 11.3309 11.767 11.4846 11.7859C11.6737 11.8108 12.1017 11.9042 12.3287 12.2104C12.6219 12.6088 12.6113 13.5109 12.6113 13.5109C12.6113 13.5109 12.7803 15.9783 12.2176 16.2845C11.8322 16.4949 11.3037 16.0657 10.1675 14.1032C9.78213 13.4205 9.44132 12.7136 9.14724 11.9869C9.0945 11.8638 9.01349 11.7549 8.91078 11.6689C8.77802 11.5808 8.62882 11.5205 8.47216 11.4916L5.75295 11.5081C5.75295 11.5081 5.34507 11.5199 5.19492 11.6973C5.06251 11.8557 5.18428 12.182 5.18428 12.182C5.18428 12.182 7.31236 17.1605 9.723 19.6705C11.9327 21.9712 14.4414 21.8198 14.4414 21.8198V21.8151Z" fill="white"/>
		</g>
		<defs>
		<clipPath id="clip0_48_952">
		<rect width="30" height="30" fill="white" transform="translate(0 0.909088)"/>
		</clipPath>
		</defs>
	</symbol>

	<view id="jivo_chat2-view" class="jivo_chat2-view" viewBox="0 0 50 40.566"/>
	<view id="jivo_chat_chat-view" class="jivo_chat_chat-view" viewBox="0 50 28 27"/>
	<view id="jivo_chat_wa-view" class="jivo_chat_wa-view" viewBox="0 100 31 31"/>
	<view id="jivo_chat_fb-view" class="jivo_chat_fb-view" viewBox="0 150 30 30"/>
	<view id="jivo_chat_vk-view" class="jivo_chat_vk-view" viewBox="0 200 30 30"/>

	<use xlink:href="#jivo_chat2" width="50" height="40.566" x="0" y="0"/>
	<use xlink:href="#jivo_chat_chat" width="28" height="27" x="0" y="50"/>
	<use xlink:href="#jivo_chat_wa" width="31" height="31" x="0" y="100"/>
	<use xlink:href="#jivo_chat_fb" width="30" height="30" x="0" y="150"/>
	<use xlink:href="#jivo_chat_vk" width="30" height="30" x="0" y="200"/>
</svg>
