<svg width="77" height="52" viewBox="0 0 77 52" fill="none" xmlns="http://www.w3.org/2000/svg">
<g clip-path="url(#clip0)">
<rect width="77" height="52" fill="white"/>
<path fill-rule="evenodd" clip-rule="evenodd" d="M3.79643 21.4108V5.50262H73.3386V7.61839H72.3455V6.51786H4.77866V21.4108H3.79643ZM3.79643 45.6857V35.7176H4.79226V44.6815H72.3455V25.3424H73.3386V45.6857H3.79643Z" fill="#DE5617"/>
<path fill-rule="evenodd" clip-rule="evenodd" d="M14.892 18.9841C16.2307 18.709 17.0115 18.7365 17.2238 19.1189L21.8492 17.8918L22.2982 17.5397L22.3635 17.5204C23.0981 17.4929 23.5815 17.6763 23.8137 18.0707L23.8817 18.1917C23.4427 19.1694 22.4687 20.6697 20.9595 22.6929L20.8262 22.7396L20.7201 22.6984L20.6548 22.5718L21.2778 19.5646C19.8368 19.8053 18.4174 20.1632 17.0333 20.6349C16.4891 20.8027 15.8797 21.5923 15.2294 22.9873C14.4948 23.9044 13.3974 26.3136 11.9372 30.215L11.9045 30.2948L11.9372 30.3608C15.1314 29.1227 17.4197 28.1451 18.8019 27.4279C19.3297 27.5077 19.6889 27.703 19.8684 28.0304L19.9337 28.1515C19.4166 29.2694 18.6501 30.2507 17.6945 31.0184L17.5938 30.9771L17.5557 30.9111C17.5013 30.8175 17.5829 30.336 17.787 29.4721L17.7543 29.4116L17.066 29.6262C13.1171 30.9799 11.218 31.7851 11.3685 32.0419C10.2566 35.8534 10.1287 38.513 10.9849 40.0207L11.0583 40.1473C11.2579 40.5013 11.7059 40.7223 12.4024 40.8103C12.4405 40.8764 12.3344 40.9782 12.0895 41.1185C11.1971 41.3936 10.1849 41.0167 9.0313 39.9849L8.69392 39.5172C7.92664 38.1636 7.84048 36.0267 8.43543 33.1066L7.99194 33.313L7.64639 33.4203C6.5 33.6679 5.76719 33.512 5.44794 32.9526L5.51324 32.9333L6.30229 32.7572L6.44105 32.7187C8.26402 32.1492 9.08572 31.7007 8.88982 31.3705C10.4135 26.8162 11.6551 23.7622 12.6147 22.2086L12.4759 22.2472C11.1753 22.658 9.07302 23.8191 6.16897 25.7303C3.2885 28.223 2.20016 30.0793 2.90395 31.299L3.04271 31.5466C3.20869 31.8218 3.7583 32.0969 4.69155 32.3225L4.59088 32.5784C2.43959 32.9452 1.00661 32.5004 0.291936 31.244C-0.615013 29.6556 0.59123 27.5728 3.91066 24.9957C6.81173 23.0337 9.9817 21.5125 13.3194 20.4808L14.3723 19.2152L14.892 18.9841Z" fill="#DE5617"/>
<path fill-rule="evenodd" clip-rule="evenodd" d="M24.3388 25.5571L24.532 25.4965C25.438 25.4965 26.4366 25.945 27.5059 26.8309L27.778 27.1583C28.1018 28.0167 28.0963 28.4982 27.7508 28.6055L27.6664 28.5642L27.6256 28.4982C27.6546 28.1666 27.5954 27.8332 27.4542 27.5325L27.4215 27.4747C27.174 27.051 26.6515 26.963 25.8162 27.2381C23.85 27.8489 22.2909 29.861 21.1391 33.2745C20.8344 34.9033 20.848 35.9928 21.1663 36.5761C22.358 33.9844 23.5616 31.9667 24.7769 30.5232C24.717 30.4186 24.883 30.2701 25.2802 30.0885C25.7156 29.9564 26.3386 30.149 27.1467 30.6718L27.1739 30.7268C26.842 30.8313 26.8039 31.7503 27.0678 33.4974L27.544 34.5979C27.7049 34.8828 27.9254 35.1289 28.1899 35.319C28.4544 35.509 28.7568 35.6385 29.0758 35.6984L29.1411 35.814L28.9479 35.8718C28.0827 36.1414 27.222 35.8846 26.3659 35.1014L25.6448 34.2375C25.2384 33.4578 24.9905 32.6037 24.9156 31.7255L24.8422 31.7475C24.2345 32.3473 23.411 34.0265 22.3717 36.7852C22.1322 37.9105 21.9146 38.4993 21.7078 38.5653C21.2507 38.7065 20.5315 38.3397 19.5501 37.4648L19.4495 37.2914C18.265 35.2059 18.6541 32.3913 20.6167 28.8476C21.705 27.084 22.9539 25.9918 24.3388 25.546V25.5571Z" fill="#DE5617"/>
<path fill-rule="evenodd" clip-rule="evenodd" d="M30.6783 23.5815C31.8101 23.6008 32.5121 23.8292 32.7788 24.2446C33.0454 24.6601 32.572 26.7758 31.3666 30.5726C33.7247 25.7028 35.2992 23.1147 36.09 22.8084C36.1588 22.7666 36.236 22.7412 36.3159 22.7341C37.4477 22.7341 38.1579 22.9955 38.4409 23.499C38.5551 23.6824 38.3121 24.7362 37.7117 26.6603C37.2437 28.8833 37.2763 30.4791 37.8259 31.4421C38.2831 32.2482 38.8 32.5618 39.3687 32.3803C39.3811 32.3882 39.3914 32.3991 39.3985 32.4121C39.4057 32.4251 39.4094 32.4397 39.4095 32.4545C39.4231 32.7022 39.2435 32.8755 38.8653 33.0048L38.7946 33.0241C37.5022 33.2469 36.4628 32.7489 35.6683 31.5108L35.5214 31.2577C34.7868 29.9738 34.7695 27.8232 35.4697 24.8059L35.4887 24.6793L35.4343 24.7453C34.2498 26.3595 32.7842 29.3006 31.0374 33.5688C30.8161 34.4658 30.7254 35.0078 30.7653 35.1949C30.772 35.2779 30.7988 35.3581 30.8434 35.4281C30.888 35.4982 30.9491 35.5561 31.0211 35.5966C29.9164 35.8194 29.1872 35.6378 28.8444 35.0463L28.6703 34.7161C28.4327 34.2943 28.605 32.6737 29.1872 29.8545L30.1096 24.9765L30.0688 24.9187L30.0035 24.9379C29.6062 25.4504 29.184 25.9426 28.7383 26.4126C28.7016 26.4452 28.6563 26.4662 28.608 26.473C28.5596 26.4799 28.5103 26.4723 28.4662 26.4512C28.3792 26.4126 28.3465 26.3053 28.3601 26.1238C29.1492 24.6628 29.9164 23.8126 30.6728 23.5788L30.6783 23.5815Z" fill="#DE5617"/>
<path fill-rule="evenodd" clip-rule="evenodd" d="M41.8257 30.105C41.8772 30.1683 41.942 30.2192 42.0154 30.254C42.0889 30.2887 42.1691 30.3064 42.2501 30.3058C43.2188 29.651 44.484 27.4252 46.0457 23.6284C46.3632 22.4618 46.4076 21.6107 46.1791 21.0751C46.1133 21.0053 46.0283 20.9572 45.9351 20.9371C45.8419 20.917 45.7448 20.9258 45.6567 20.9623L45.4036 21.0421C43.8473 21.5319 42.5685 23.4257 41.5672 26.7236C41.2988 28.2038 41.3895 29.3309 41.8393 30.105H41.8257ZM48.4183 20.9954L48.4782 20.9761C50.8362 16.0659 52.1432 12.8056 52.3989 11.1951V10.6449L52.3336 10.6641C51.5527 11.7647 50.5923 13.8061 49.4522 16.7941C48.6577 19.3987 48.3131 20.7963 48.4183 20.9871V20.9954ZM50.8371 8.96657C51.3215 8.818 52.1622 9.09863 53.3621 9.81673L53.4274 9.92403C54.0514 11.2373 52.4261 15.456 48.5516 22.5801C48.0619 25.1774 48.1743 27.1088 48.889 28.3744C49.2863 29.0705 49.7434 29.3319 50.2494 29.1695L50.3501 29.3456L49.9583 29.4667C49.0115 29.7666 48.0537 29.3181 47.0769 28.1323L46.911 27.8324C46.5573 27.2103 46.3237 26.5259 46.2226 25.8157C45.2086 29.0989 44.2609 30.9561 43.3793 31.3871C42.563 31.643 41.4992 31.2468 40.2068 30.2013L39.9347 29.7391C39.0604 28.1855 39.2409 26.0037 40.4762 23.1937C41.5645 21.0421 42.7807 19.7582 44.1248 19.3418C44.5302 19.2235 45.2458 19.4959 46.2661 20.1672L46.3314 20.2883L47.2973 15.8421C48.6813 11.5611 49.8604 9.2683 50.8344 8.96382L50.8371 8.96657Z" fill="#DE5617"/>
<path fill-rule="evenodd" clip-rule="evenodd" d="M54.8968 16.0512C55.5851 15.8394 56.7061 16.2658 58.2679 17.3443L58.355 17.3856L58.393 17.4461C58.9971 18.5173 58.2534 19.9352 56.1619 21.6997C55.6831 22.0505 55.156 22.3286 54.5975 22.5251C54.0206 22.6544 53.6833 22.6461 53.6043 22.5003C53.656 22.3848 54.0669 22.0986 54.8505 21.6419C56.3143 19.859 56.9047 18.4201 56.6054 17.3361L56.5401 17.3553C55.3865 17.9771 54.192 19.5802 52.9568 22.1646C52.38 23.9512 52.3183 25.247 52.7718 26.0523C53.2017 26.6025 53.6642 26.7841 54.1485 26.63C55.2151 26.2063 56.4494 24.7234 57.8516 22.1812L57.8706 22.1014L57.9441 22.0821L58.0448 22.1206L58.0774 22.1757C58.2216 23.1606 57.555 24.7591 56.064 26.9712C55.7996 27.2693 55.4773 27.5091 55.1171 27.6755C54.0751 28.003 52.8779 27.6068 51.5256 26.5035L50.9434 25.8789C49.8351 23.931 50.4699 21.2228 52.848 17.7543C53.6833 16.7831 54.3662 16.2135 54.8886 16.0512H54.8968Z" fill="#DE5617"/>
<path fill-rule="evenodd" clip-rule="evenodd" d="M63.7203 13.3137L63.7938 13.2861C64.308 13.1266 65.2712 13.5007 66.667 14.4114L66.735 14.5242C65.9369 16.12 65.254 17.2013 64.6862 17.768L64.6264 17.7873C64.5284 17.614 64.6672 16.629 65.0508 14.8461L64.9774 14.8681C62.9367 16.6437 61.7142 18.7915 61.3097 21.3117C61.2362 22.1371 61.3342 22.8112 61.6062 23.2927L61.6715 23.4083C62.0633 23.8622 62.4878 24.0163 62.9775 23.8705C64.1185 23.3807 65.342 21.8849 66.648 19.3831L66.9337 19.4821C66.8656 20.789 66.2099 22.3077 64.9638 24.0493C64.6899 24.4681 64.2874 24.7843 63.8183 24.949C62.8587 25.248 61.6353 24.8059 60.1479 23.6229L59.786 23.1111L59.6908 22.9515C58.7838 21.3356 59.2654 18.9263 61.1355 15.7238C62.2103 14.3096 63.0782 13.5062 63.7203 13.3054V13.3137Z" fill="#DE5617"/>
<path fill-rule="evenodd" clip-rule="evenodd" d="M72.3972 10.1249C73.0012 9.93778 74.0787 10.2844 75.6432 11.1759C75.9153 11.418 75.9153 11.5583 75.6432 11.6106C75.1419 11.4839 74.6183 11.4773 74.1141 11.5913C72.2675 12.1673 70.83 14.0428 69.8015 17.2178C69.5158 18.6842 69.6111 19.8563 70.0736 20.7422L70.1852 20.9101C70.4355 21.2925 70.8735 21.4273 71.5102 21.3255C72.9849 20.8651 74.0687 18.7925 74.7616 15.1075C74.8422 14.3584 74.6901 13.6026 74.3263 12.945C74.2447 12.8184 73.9944 12.7111 73.5753 12.6176L73.5373 12.557C73.4774 12.4497 73.5373 12.3479 73.7223 12.2544C73.9498 12.1435 74.1877 12.0559 74.4324 11.993C75.2487 11.8334 75.9289 12.1471 76.4785 12.9257C76.8942 13.5378 77.1162 14.2632 77.1152 15.0057V15.1323C77.0952 16.5208 76.4604 18.1817 75.2106 20.1149C74.3236 21.254 73.471 21.9501 72.653 22.2032L72.4489 22.2637C71.3606 22.6461 70.4736 22.6461 69.7852 22.2775C69.1031 21.919 68.5584 21.3411 68.237 20.6349L68.0983 20.3873C67.0263 18.5054 67.3047 16.087 68.9336 13.1321C69.992 11.5115 71.1511 10.5073 72.3972 10.1194V10.1249Z" fill="#DE5617"/>
</g>
<defs>
<clipPath id="clip0">
<rect width="77" height="52" fill="white"/>
</clipPath>
</defs>
</svg>
