<svg width="34" height="34" viewBox="0 0 34 34" fill="none" xmlns="http://www.w3.org/2000/svg">
<circle cx="17" cy="17" r="17" fill="#DE5617"/>
<rect x="5" y="5" width="24" height="24" fill="#DE5617"/>
<path fill-rule="evenodd" clip-rule="evenodd" d="M19.2243 9.07715C20.2333 8.87505 20.8219 8.89526 20.9818 9.17618L24.4681 8.27481L24.8065 8.01612L24.8557 8.00198C25.4094 7.98177 25.7737 8.1165 25.9487 8.40618L26 8.4951C25.6691 9.21323 24.935 10.3153 23.7975 11.8015L23.697 11.8358L23.617 11.8055L23.5678 11.7125L24.0374 9.50358C22.9513 9.68038 21.8815 9.94328 20.8383 10.2897C20.4281 10.413 19.9688 10.9931 19.4786 12.0177C18.9249 12.6914 18.0978 14.4611 16.9972 17.3269L16.9726 17.3855L16.9972 17.434C19.4048 16.5245 21.1295 15.8064 22.1713 15.2796C22.5691 15.3382 22.8398 15.4817 22.9752 15.7222L23.0244 15.8111C22.6346 16.6323 22.0569 17.3531 21.3366 17.917L21.2607 17.8867L21.232 17.8382C21.191 17.7695 21.2525 17.4158 21.4063 16.7812L21.3817 16.7367L20.8629 16.8944C17.8866 17.8887 16.4551 18.4802 16.5686 18.6688C15.7306 21.4685 15.6342 23.4222 16.2795 24.5297L16.3348 24.6227C16.4852 24.8827 16.8229 25.045 17.3479 25.1097C17.3766 25.1582 17.2966 25.233 17.1121 25.3361C16.4394 25.5382 15.6765 25.2613 14.807 24.5034L14.5527 24.1598C13.9744 23.1655 13.9095 21.5959 14.3579 19.4509L14.0236 19.6025L13.7632 19.6813C12.8992 19.8632 12.3468 19.7487 12.1062 19.3377L12.1554 19.3236L12.7501 19.1943L12.8547 19.166C14.2287 18.7476 14.848 18.4182 14.7004 18.1757C15.8488 14.8302 16.7846 12.5869 17.5079 11.4458L17.4033 11.474C16.423 11.7759 14.8385 12.6287 12.6496 14.0326C10.4786 15.8637 9.65829 17.2272 10.1888 18.1231L10.2933 18.305C10.4184 18.5071 10.8327 18.7092 11.5361 18.8749L11.4602 19.0629C9.83876 19.3324 8.7587 19.0056 8.22004 18.0827C7.53646 16.9159 8.44562 15.386 10.9475 13.493C13.1341 12.0518 15.5234 10.9344 18.039 10.1766L18.8326 9.24691L19.2243 9.07715Z" fill="white" stroke="white" stroke-width="0.4"/>
</svg>
