<svg width="24" height="24" viewBox="0 0 24 24" fill="none" xmlns="http://www.w3.org/2000/svg">
<rect width="24" height="24" fill="#DE5617"/>
<path fill-rule="evenodd" clip-rule="evenodd" d="M14.2243 4.07715C15.2333 3.87505 15.8219 3.89526 15.9818 4.17618L19.4681 3.27481L19.8065 3.01612L19.8557 3.00198C20.4094 2.98177 20.7737 3.1165 20.9487 3.40618L21 3.4951C20.6691 4.21323 19.935 5.31534 18.7975 6.80145L18.697 6.83581L18.617 6.80549L18.5678 6.71253L19.0374 4.50358C17.9513 4.68038 16.8815 4.94328 15.8383 5.28975C15.4281 5.41303 14.9688 5.99305 14.4786 7.0177C13.9249 7.69136 13.0978 9.46108 11.9972 12.3269L11.9726 12.3855L11.9972 12.434C14.4048 11.5245 16.1295 10.8064 17.1713 10.2796C17.5691 10.3382 17.8398 10.4817 17.9752 10.7222L18.0244 10.8111C17.6346 11.6323 17.0569 12.3531 16.3366 12.917L16.2607 12.8867L16.232 12.8382C16.191 12.7695 16.2525 12.4158 16.4063 11.7812L16.3817 11.7367L15.8629 11.8944C12.8866 12.8887 11.4551 13.4802 11.5686 13.6688C10.7306 16.4685 10.6342 18.4222 11.2795 19.5297L11.3348 19.6227C11.4852 19.8827 11.8229 20.045 12.3479 20.1097C12.3766 20.1582 12.2966 20.233 12.1121 20.3361C11.4394 20.5382 10.6765 20.2613 9.80703 19.5034L9.55274 19.1598C8.97443 18.1655 8.90949 16.5959 9.35792 14.4509L9.02365 14.6025L8.7632 14.6813C7.89915 14.8632 7.34682 14.7487 7.1062 14.3377L7.15542 14.3236L7.75013 14.1943L7.85472 14.166C9.22872 13.7476 9.84805 13.4182 9.70039 13.1757C10.8488 9.83025 11.7846 7.58694 12.5079 6.44576L12.4033 6.47405C11.423 6.77585 9.83848 7.62871 7.64965 9.03263C5.47859 10.8637 4.65829 12.2272 5.18875 13.1231L5.29334 13.305C5.41844 13.5071 5.83269 13.7092 6.53609 13.8749L6.46021 14.0629C4.83876 14.3324 3.7587 14.0056 3.22004 13.0827C2.53646 11.9159 3.44562 10.386 5.94753 8.49302C8.1341 7.0518 10.5234 5.93442 13.039 5.17657L13.8326 4.24691L14.2243 4.07715Z" fill="white" stroke="white" stroke-width="0.4"/>
</svg>
