<svg width="12" height="8" viewBox="0 0 12 8" fill="none" xmlns="http://www.w3.org/2000/svg">
<path d="M11.8082 0.837881L11.4151 0.442072C11.2914 0.318462 11.1268 0.250364 10.9509 0.250364C10.7751 0.250363 10.6103 0.318462 10.4866 0.442072L6.00268 4.9262L1.51357 0.437095C1.39006 0.313484 1.22528 0.245484 1.04947 0.245484C0.873666 0.245484 0.708786 0.313484 0.585176 0.437095L0.192001 0.830464C-0.0640007 1.08627 -0.0640007 1.50296 0.192001 1.75876L5.53682 7.12281C5.66034 7.24632 5.82492 7.33335 6.00229 7.33335L6.00434 7.33335C6.18024 7.33335 6.34483 7.24622 6.46834 7.12281L11.8082 1.7733C11.9319 1.64979 11.9998 1.48023 12 1.30442C12 1.12852 11.9319 0.961296 11.8082 0.837881Z" fill="#999999"/>
</svg>
