<svg width="27" height="27" viewBox="0 0 27 27" fill="none" xmlns="http://www.w3.org/2000/svg">
<path d="M26.5021 24.0605L26.4082 23.9665L18.6281 16.4534L18.3465 16.1716L18.6093 15.9086L18.6281 15.8899C20.1766 13.7298 20.7866 11.1002 20.3549 8.48937C19.9044 5.82218 18.4122 3.47431 16.1692 1.88715C11.5612 -1.36231 5.15128 -0.310464 1.87592 4.23502C0.308635 6.37628 -0.301388 8.99651 0.139706 11.6355C0.590184 14.3121 2.07301 16.6318 4.31602 18.172C7.55383 20.426 12.0211 20.6044 15.4372 18.6322L15.7188 18.4913L15.9721 18.7449L23.8461 26.4365C24.2028 26.7934 24.7002 27 25.2163 27C25.6856 27 26.1079 26.831 26.4082 26.5398L26.4176 26.5304C26.7836 26.2111 26.9901 25.7697 26.9995 25.3095C27.0089 24.8306 26.8399 24.3892 26.5021 24.0605ZM17.6614 10.1235C17.6614 12.0675 16.9013 13.8801 15.5123 15.2231C14.1327 16.5661 12.2745 17.308 10.2849 17.308C8.29524 17.308 6.4464 16.5661 5.06681 15.2231C3.67784 13.8707 2.91766 12.0581 2.91766 10.1235C2.91766 8.17945 3.67784 6.36689 5.06681 5.0239C6.4464 3.68092 8.30463 2.93899 10.2849 2.93899C14.3485 2.9296 17.6614 6.16028 17.6614 10.1235Z" fill="#999999"/>
</svg>
