<svg width="40" height="40" viewBox="0 0 40 40" fill="none" xmlns="http://www.w3.org/2000/svg">
<path d="M27.2 20C27.2 21.9096 26.4414 23.7409 25.0912 25.0912C23.7409 26.4414 21.9096 27.2 20 27.2C18.0904 27.2 16.2591 26.4414 14.9088 25.0912C13.5586 23.7409 12.8 21.9096 12.8 20C12.8 18.0905 13.5586 16.2591 14.9088 14.9089C16.2591 13.5586 18.0904 12.8 20 12.8C20.684 12.8 21.35 12.899 21.98 13.079L23.393 11.666C22.3169 11.2228 21.1638 10.9965 20 11C18.8181 11 17.6478 11.2328 16.5558 11.6851C15.4639 12.1374 14.4718 12.8003 13.636 13.6361C11.9482 15.3239 11 17.6131 11 20C11 22.387 11.9482 24.6761 13.636 26.364C14.4718 27.1997 15.4639 27.8626 16.5558 28.3149C17.6478 28.7672 18.8181 29 20 29C22.3869 29 24.6761 28.0518 26.364 26.364C28.0518 24.6761 29 22.387 29 20H27.2ZM16.319 18.272L15.05 19.55L19.1 23.6L28.1 14.6L26.831 13.322L19.1 21.053L16.319 18.272Z" fill="#B5B5B5" stroke="#B5B5B5"/>
</svg>
