<svg width="12" height="12" viewBox="0 0 12 12" fill="none" xmlns="http://www.w3.org/2000/svg">
<path d="M4.0216 6L0.310868 2.28599C-0.0992479 1.87587 -0.0992479 1.20984 0.310868 0.803008L0.806289 0.307587C1.2164 -0.102529 1.88243 -0.102529 2.29255 0.307587L6 4.01832L9.71401 0.307587C10.1241 -0.102529 10.7869 -0.102529 11.197 0.307587L11.6924 0.803008C12.1025 1.21312 12.1025 1.87587 11.6924 2.28599L7.9784 6L11.6924 9.71073C12.1025 10.1208 12.1025 10.7869 11.6924 11.197L11.197 11.6924C10.7869 12.1025 10.1208 12.1025 9.71401 11.6924L6.00328 7.98168L2.28927 11.6891C1.87915 12.0992 1.21312 12.0992 0.803008 11.6891L0.307588 11.1937C-0.102529 10.7836 -0.102529 10.1176 0.307588 9.70745L4.0216 6Z" fill="#B5B5B5"/>
</svg>