<svg width="137" height="151" viewBox="0 0 137 151" fill="none" xmlns="http://www.w3.org/2000/svg">
<path d="M57.8205 2.75926C60.9576 0.951534 64.5148 0 68.1355 0C71.7562 0 75.3133 0.951534 78.4505 2.75926L125.72 30.0593C128.859 31.8681 131.466 34.4723 133.278 37.6096C135.09 40.7469 136.043 44.3064 136.04 47.9293V102.509C136.041 106.132 135.087 109.69 133.275 112.827C131.464 115.964 128.858 118.569 125.72 120.379L78.4505 147.669C75.315 149.482 71.7572 150.436 68.1355 150.436C64.5137 150.436 60.956 149.482 57.8205 147.669L10.5505 120.379C7.41281 118.569 4.80716 115.964 2.99556 112.827C1.18396 109.69 0.230295 106.132 0.230473 102.509V47.9293C0.228264 44.3064 1.18107 40.7469 2.99287 37.6096C4.80468 34.4723 7.41145 31.8681 10.5505 30.0593L57.8205 2.75926Z" fill="#DE5717"/>
<g clip-path="url(#clip0)">
<path d="M105.42 104C105.42 104.912 105.058 105.787 104.413 106.432C103.768 107.078 102.893 107.44 101.98 107.44H85.4805V113H101.98C104.357 112.984 106.631 112.029 108.306 110.343C109.981 108.657 110.921 106.377 110.92 104V87.52H105.42V104Z" fill="white"/>
<path d="M33.7305 104V87.52H28.2305V104C28.2304 106.377 29.1704 108.657 30.8453 110.343C32.5201 112.029 34.7939 112.984 37.1705 113H53.6805V107.5H37.1705C36.7136 107.5 36.2613 107.409 35.84 107.233C35.4187 107.056 35.0368 106.797 34.7166 106.471C34.3963 106.146 34.1442 105.759 33.9749 105.335C33.8056 104.911 33.7225 104.457 33.7305 104Z" fill="white"/>
<path d="M28.2305 46.94V63.45H33.7305V46.94C33.7305 46.0277 34.0929 45.1527 34.738 44.5076C35.3831 43.8624 36.2581 43.5 37.1705 43.5H53.6805V38H37.1705C34.8043 38.0157 32.5395 38.9627 30.8663 40.6358C29.1931 42.309 28.2462 44.5738 28.2305 46.94V46.94Z" fill="white"/>
<path d="M101.98 38H85.4805V43.5H101.98C102.893 43.5 103.768 43.8624 104.413 44.5076C105.058 45.1527 105.42 46.0277 105.42 46.94V63.45H110.92V46.94C110.905 44.5738 109.958 42.309 108.285 40.6358C106.611 38.9627 104.347 38.0157 101.98 38V38Z" fill="white"/>
<path d="M51.8314 54.5801H39.9414V97.0701H51.8314V54.5801Z" fill="white"/>
<path d="M72.7103 54.5801H60.8203V97.0701H72.7103V54.5801Z" fill="white"/>
<path d="M100.04 54.5801H94.0898V97.0701H100.04V54.5801Z" fill="white"/>
<path d="M92.8199 54.5801H91.1699V97.0701H92.8199V54.5801Z" fill="white"/>
<path d="M89.2105 54.5801H87.5605V97.0701H89.2105V54.5801Z" fill="white"/>
<path d="M58.2911 54.5801H54.3711V97.0701H58.2911V54.5801Z" fill="white"/>
<path d="M79.1602 54.5801H75.2402V97.0701H79.1602V54.5801Z" fill="white"/>
<path d="M85.6114 54.5801H81.6914V97.0701H85.6114V54.5801Z" fill="white"/>
</g>
<defs>
<clipPath id="clip0">
<rect x="28.2305" y="38" width="82.69" height="74.97" fill="white"/>
</clipPath>
</defs>
</svg>
