<svg width="137" height="151" viewBox="0 0 137 151" fill="none" xmlns="http://www.w3.org/2000/svg">
<path d="M58.2814 2.75926C61.4186 0.951534 64.9757 0 68.5964 0C72.2171 0 75.7743 0.951534 78.9114 2.75926L126.181 30.0593C129.32 31.8681 131.927 34.4723 133.739 37.6096C135.551 40.7469 136.504 44.3064 136.501 47.9293V102.509C136.502 106.132 135.548 109.69 133.736 112.827C131.925 115.964 129.319 118.569 126.181 120.379L78.9114 147.669C75.7759 149.482 72.2181 150.436 68.5964 150.436C64.9747 150.436 61.4169 149.482 58.2814 147.669L11.0114 120.379C7.87375 118.569 5.26809 115.964 3.4565 112.827C1.6449 109.69 0.691233 106.132 0.69141 102.509V47.9293C0.689202 44.3064 1.64201 40.7469 3.45381 37.6096C5.26561 34.4723 7.87238 31.8681 11.0114 30.0593L58.2814 2.75926Z" fill="#DE5717"/>
<path d="M102.261 65.0001L94.2614 57.1801V40.7601C94.2535 40.0219 93.9533 39.3169 93.4266 38.7995C92.8999 38.2822 92.1897 37.9947 91.4514 38.0001H47.3214C46.9563 37.9974 46.5943 38.0667 46.256 38.204C45.9177 38.3413 45.6098 38.5439 45.3498 38.8002C45.0898 39.0564 44.8828 39.3614 44.7407 39.6977C44.5985 40.034 44.524 40.395 44.5214 40.7601V57.1601L36.4914 65.0001C36.2371 65.255 36.0356 65.5576 35.8983 65.8905C35.7611 66.2233 35.6907 66.58 35.6914 66.9401V105.77C35.7125 107.665 36.4848 109.473 37.8385 110.799C39.1922 112.125 41.0168 112.859 42.9114 112.84H95.9114C97.806 112.859 99.6306 112.125 100.984 110.799C102.338 109.473 103.11 107.665 103.131 105.77V66.9301C103.121 66.5668 103.039 66.2093 102.89 65.878C102.74 65.5467 102.527 65.2483 102.261 65.0001ZM94.2614 65.0001L96.2614 67.0001L94.2614 69.0001V65.0001ZM50.1314 43.5201H88.6914V74.4201L77.0514 85.7501H61.6914L50.1314 74.4201V43.5201ZM44.5214 64.9401V68.9401L42.5214 66.9401L44.5214 64.9401ZM41.3014 103.45V73.5701L56.5814 88.5101L41.3014 103.45ZM45.3014 107.33L61.6914 91.2701H77.0514L93.4814 107.33H45.3014ZM97.4814 103.45L82.1914 88.5101L97.4714 73.5701L97.4814 103.45Z" fill="white"/>
<path d="M76.4316 76.42C76.6943 76.2992 76.9305 76.1279 77.127 75.9157C77.3234 75.7036 77.4761 75.4549 77.5764 75.1837C77.6767 74.9126 77.7226 74.6243 77.7115 74.3354C77.7003 74.0466 77.6324 73.7627 77.5116 73.5C77.3908 73.2374 77.2194 73.0011 77.0073 72.8047C76.7952 72.6083 76.5464 72.4556 76.2753 72.3553C76.0042 72.255 75.7159 72.2091 75.427 72.2202C75.1381 72.2313 74.8543 72.2992 74.5916 72.42C72.8424 73.2875 70.9001 73.6924 68.95 73.5961C66.9999 73.4998 65.1069 72.9056 63.4516 71.87C61.857 70.8322 60.5588 69.3985 59.6839 67.709C58.809 66.0195 58.3873 64.1319 58.4599 62.2307C58.5326 60.3295 59.0971 58.4796 60.0984 56.8618C61.0997 55.2439 62.5035 53.9135 64.1726 53.0004C65.8418 52.0872 67.7193 51.6226 69.6216 51.652C71.524 51.6814 73.3863 52.2036 75.0265 53.1678C76.6667 54.132 78.0287 55.5052 78.9796 57.1531C79.9305 58.8011 80.4377 60.6675 80.4516 62.57C80.4139 63.1292 80.1653 63.6531 79.7559 64.0358C79.3465 64.4186 78.807 64.6315 78.2466 64.6315C77.6862 64.6315 77.1467 64.4186 76.7374 64.0358C76.328 63.6531 76.0793 63.1292 76.0416 62.57C76.0443 61.0515 75.5256 59.578 74.5723 58.396C73.6189 57.214 72.2887 56.3951 70.8041 56.0762C69.3194 55.7573 67.7702 55.9577 66.4155 56.6439C65.0609 57.3301 63.9829 58.4606 63.3617 59.8463C62.7405 61.232 62.6139 62.7889 63.0029 64.2568C63.3919 65.7247 64.273 67.0145 65.4989 67.9107C66.7249 68.8068 68.2213 69.255 69.738 69.1803C71.2547 69.1055 72.6998 68.5124 73.8316 67.5C74.7834 68.3456 75.9591 68.8983 77.2175 69.0917C78.4758 69.2851 79.7632 69.111 80.925 68.5903C82.0868 68.0696 83.0735 67.2245 83.7665 66.1565C84.4595 65.0885 84.8294 63.8432 84.8316 62.57C84.8359 59.886 84.1409 57.2471 82.8151 54.9133C81.4892 52.5796 79.5782 50.6315 77.2704 49.261C74.9625 47.8905 72.3375 47.1449 69.6538 47.0976C66.9702 47.0503 64.3205 47.703 61.9658 48.9913C59.6111 50.2797 57.6327 52.1592 56.2254 54.4448C54.8182 56.7304 54.0306 59.3432 53.9404 62.0257C53.8501 64.7083 54.4603 67.3681 55.7108 69.7431C56.9612 72.1181 58.8089 74.1264 61.0716 75.57C63.3456 77.0132 65.9516 77.8491 68.6408 77.9979C71.3299 78.1467 74.0123 77.6035 76.4316 76.42ZM71.5616 62.93C71.4844 63.4763 71.203 63.973 70.774 64.32C70.3451 64.6669 69.8005 64.8384 69.2502 64.7997C68.6998 64.761 68.1846 64.5151 67.8084 64.1115C67.4322 63.7079 67.2231 63.1767 67.2231 62.625C67.2231 62.0733 67.4322 61.5421 67.8084 61.1386C68.1846 60.735 68.6998 60.4891 69.2502 60.4504C69.8005 60.4117 70.3451 60.5831 70.774 60.9301C71.203 61.2771 71.4844 61.7738 71.5616 62.32C71.5315 62.5223 71.5315 62.7278 71.5616 62.93Z" fill="white"/>
</svg>
