<svg width="137" height="151" viewBox="0 0 137 151" fill="none" xmlns="http://www.w3.org/2000/svg">
<path d="M58.5119 2.75926C61.649 0.951534 65.2062 0 68.8269 0C72.4476 0 76.0047 0.951534 79.1419 2.75926L126.412 30.0593C129.551 31.8681 132.158 34.4723 133.969 37.6096C135.781 40.7469 136.734 44.3064 136.732 47.9293V102.509C136.732 106.132 135.778 109.69 133.967 112.827C132.155 115.964 129.55 118.569 126.412 120.379L79.1419 147.669C76.0064 149.482 72.4486 150.436 68.8269 150.436C65.2052 150.436 61.6474 149.482 58.5119 147.669L11.2419 120.379C8.10422 118.569 5.49856 115.964 3.68697 112.827C1.87537 109.69 0.921701 106.132 0.921879 102.509V47.9293C0.919671 44.3064 1.87248 40.7469 3.68428 37.6096C5.49608 34.4723 8.10285 31.8681 11.2419 30.0593L58.5119 2.75926Z" fill="#5DAC0D"/>
<path d="M34.239 113.312H103.239C103.666 113.336 104.093 113.273 104.494 113.127C104.895 112.98 105.262 112.753 105.573 112.459C105.883 112.166 106.131 111.812 106.3 111.42C106.469 111.027 106.556 110.605 106.556 110.177C106.556 109.75 106.469 109.327 106.3 108.935C106.131 108.542 105.883 108.189 105.573 107.895C105.262 107.602 104.895 107.375 104.494 107.228C104.093 107.081 103.666 107.018 103.239 107.042H100.099V60.0023C100.098 59.4857 99.9703 58.9772 99.7261 58.5219C99.4819 58.0666 99.1291 57.6786 98.699 57.3923L70.499 38.5323C69.985 38.1854 69.3791 38 68.759 38C68.1389 38 67.533 38.1854 67.019 38.5323L38.769 57.3623C38.3359 57.6519 37.9819 58.045 37.7392 58.506C37.4965 58.967 37.3727 59.4813 37.379 60.0023V107.002H34.239C33.8124 106.978 33.3854 107.041 32.9841 107.188C32.5828 107.335 32.2156 107.562 31.9051 107.855C31.5946 108.149 31.3472 108.502 31.1781 108.895C31.0091 109.287 30.9219 109.71 30.9219 110.137C30.9219 110.565 31.0091 110.987 31.1781 111.38C31.3472 111.772 31.5946 112.126 31.9051 112.419C32.2156 112.713 32.5828 112.94 32.9841 113.087C33.3854 113.233 33.8124 113.296 34.239 113.272V113.312ZM56.239 88.2123H81.309V94.4823H56.199L56.239 88.2123ZM81.349 81.9323H56.199V75.6623H81.309L81.349 81.9323ZM56.199 100.762H81.309V107.002H56.199V100.762ZM43.649 61.6523L68.759 44.9123L93.859 61.6523V107.002H87.589V72.5223C87.5864 71.6903 87.2547 70.8932 86.6664 70.3049C86.0781 69.7166 85.281 69.3849 84.449 69.3823H53.099C52.2662 69.3823 51.4676 69.7131 50.8787 70.302C50.2898 70.8909 49.959 71.6895 49.959 72.5223V107.002H43.649V61.6523Z" fill="white"/>
</svg>
