<svg width="137" height="151" viewBox="0 0 137 151" fill="none" xmlns="http://www.w3.org/2000/svg">
<path d="M58.0509 2.75926C61.1881 0.951534 64.7452 0 68.3659 0C71.9867 0 75.5438 0.951534 78.6809 2.75926L125.951 30.0593C129.09 31.8681 131.697 34.4723 133.509 37.6096C135.32 40.7469 136.273 44.3064 136.271 47.9293V102.509C136.271 106.132 135.317 109.69 133.506 112.827C131.694 115.964 129.089 118.569 125.951 120.379L78.6809 147.669C75.5455 149.482 71.9877 150.436 68.3659 150.436C64.7442 150.436 61.1864 149.482 58.0509 147.669L10.7809 120.379C7.64328 118.569 5.03763 115.964 3.22603 112.827C1.41443 109.69 0.460764 106.132 0.460941 102.509V47.9293C0.458733 44.3064 1.41154 40.7469 3.22334 37.6096C5.03514 34.4723 7.64192 31.8681 10.7809 30.0593L58.0509 2.75926Z" fill="#DE5717"/>
<path d="M98.861 56.8025C98.1148 57.1651 97.5424 57.8082 97.2688 58.5914C96.9953 59.3746 97.0428 60.2342 97.401 60.9825C99.4496 65.2432 100.5 69.915 100.471 74.6425C100.471 80.8506 98.6295 86.9192 95.1797 92.0805C91.7298 97.2417 86.8266 101.264 81.0903 103.638C75.354 106.012 69.0425 106.631 62.9543 105.417C56.8661 104.203 51.2748 101.21 46.8878 96.8174C42.5008 92.4248 39.5153 86.8297 38.3091 80.7399C37.1028 74.6501 37.7299 68.3394 40.1111 62.6062C42.4923 56.8729 46.5206 51.9748 51.6863 48.5316C56.852 45.0883 62.9229 43.2546 69.131 43.2625C76.2066 43.2299 83.0806 45.6188 88.611 50.0325C89.2687 50.4572 90.0613 50.6208 90.8334 50.4914C91.6055 50.3619 92.3014 49.9487 92.7846 49.3328C93.2678 48.7168 93.5036 47.9426 93.4455 47.1619C93.3875 46.3812 93.0399 45.6503 92.471 45.1125C85.7822 39.8267 77.498 36.9668 68.9729 37.0003C60.4477 37.0338 52.1862 39.9589 45.5393 45.2971C38.8923 50.6354 34.2533 58.0709 32.3807 66.3879C30.5081 74.7049 31.5128 83.4112 35.2306 91.083C38.9483 98.7549 45.159 104.938 52.8471 108.622C60.5353 112.306 69.2459 113.273 77.5545 111.364C85.8632 109.454 93.2783 104.783 98.5873 98.1124C103.896 91.442 106.785 83.1677 106.781 74.6425C106.803 68.9695 105.527 63.3666 103.051 58.2625C102.872 57.8909 102.622 57.5581 102.315 57.2834C102.007 57.0087 101.649 56.7975 101.259 56.6618C100.87 56.5261 100.458 56.4687 100.046 56.4929C99.6345 56.517 99.2318 56.6223 98.861 56.8025Z" fill="white"/>
<path d="M69.1202 50.5327C68.2892 50.5354 67.4931 50.8674 66.9064 51.4559C66.3197 52.0445 65.9902 52.8417 65.9902 53.6727V75.6727C65.9902 76.0838 66.0712 76.4908 66.2285 76.8705C66.3858 77.2503 66.6163 77.5953 66.907 77.886C67.1976 78.1766 67.5427 78.4072 67.9224 78.5645C68.3022 78.7218 68.7092 78.8027 69.1202 78.8027H84.8102C85.2368 78.8268 85.6638 78.7636 86.0652 78.6169C86.4665 78.4703 86.8336 78.2433 87.1441 77.9498C87.4547 77.6563 87.702 77.3025 87.8711 76.9102C88.0402 76.5178 88.1274 76.095 88.1274 75.6677C88.1274 75.2404 88.0402 74.8177 87.8711 74.4253C87.702 74.0329 87.4547 73.6791 87.1441 73.3856C86.8336 73.0922 86.4665 72.8651 86.0652 72.7185C85.6638 72.5718 85.2368 72.5086 84.8102 72.5327H72.2602V53.6727C72.2602 52.8399 71.9294 52.0413 71.3405 51.4524C70.7517 50.8635 69.953 50.5327 69.1202 50.5327Z" fill="white"/>
</svg>
