<svg width="136" height="151" viewBox="0 0 136 151" fill="none" xmlns="http://www.w3.org/2000/svg">
<path d="M57.59 2.75926C60.7271 0.951534 64.2843 0 67.905 0C71.5257 0 75.0829 0.951534 78.22 2.75926L125.49 30.0593C128.629 31.8681 131.236 34.4723 133.048 37.6096C134.859 40.7469 135.812 44.3064 135.81 47.9293V102.509C135.81 106.132 134.857 109.69 133.045 112.827C131.233 115.964 128.628 118.569 125.49 120.379L78.22 147.669C75.0845 149.482 71.5267 150.436 67.905 150.436C64.2833 150.436 60.7255 149.482 57.59 147.669L10.32 120.379C7.18234 118.569 4.57669 115.964 2.76509 112.827C0.953493 109.69 -0.000173534 106.132 3.82967e-06 102.509V47.9293C-0.00220441 44.3064 0.950605 40.7469 2.76241 37.6096C4.57421 34.4723 7.18098 31.8681 10.32 30.0593L57.59 2.75926Z" fill="#DE5717"/>
<path d="M50.5405 64.3313C49.9773 64.3388 49.4288 64.512 48.9632 64.8291C48.4977 65.1462 48.1358 65.5932 47.9226 66.1146C47.7094 66.6359 47.6542 67.2085 47.7641 67.7609C47.874 68.3133 48.144 68.8212 48.5405 69.2213L53.8805 74.5613C54.1416 74.8268 54.4528 75.0379 54.7962 75.1821C55.1395 75.3263 55.5081 75.4008 55.8805 75.4013C56.6318 75.3959 57.3506 75.094 57.8805 74.5613L68.5705 63.8913C69.0933 63.3568 69.3861 62.6389 69.3861 61.8913C69.3861 61.1436 69.0933 60.4257 68.5705 59.8913C68.0309 59.3551 67.3012 59.0542 66.5405 59.0542C65.7798 59.0542 65.0501 59.3551 64.5105 59.8913L55.8705 68.5413L52.5705 65.2313C52.3096 64.9531 51.9954 64.73 51.6467 64.5754C51.2981 64.4208 50.9219 64.3378 50.5405 64.3313Z" fill="white"/>
<path d="M64.5108 81.1715L55.8708 89.8215L52.5708 86.5115C52.0324 85.9731 51.3022 85.6706 50.5408 85.6706C49.7794 85.6706 49.0492 85.9731 48.5108 86.5115C47.9724 87.0498 47.6699 87.7801 47.6699 88.5415C47.6699 89.3028 47.9724 90.0331 48.5108 90.5715L53.8508 95.9015C54.3807 96.4341 55.0994 96.736 55.8508 96.7415C56.6012 96.7318 57.3185 96.4305 57.8508 95.9015L68.5708 85.2315C68.8372 84.9658 69.0485 84.6502 69.1927 84.3027C69.3369 83.9552 69.4111 83.5827 69.4111 83.2065C69.4111 82.8302 69.3369 82.4577 69.1927 82.1102C69.0485 81.7627 68.8372 81.4471 68.5708 81.1815C68.0325 80.644 67.3035 80.3412 66.5428 80.3394C65.7822 80.3375 65.0517 80.6366 64.5108 81.1715Z" fill="white"/>
<path d="M77.2098 70.0711H87.8798C88.641 70.0711 89.371 69.7687 89.9092 69.2304C90.4475 68.6922 90.7498 67.9622 90.7498 67.2011C90.7498 66.4399 90.4475 65.7099 89.9092 65.1717C89.371 64.6334 88.641 64.3311 87.8798 64.3311H77.2098C76.4487 64.3311 75.7187 64.6334 75.1804 65.1717C74.6422 65.7099 74.3398 66.4399 74.3398 67.2011C74.3398 67.9622 74.6422 68.6922 75.1804 69.2304C75.7187 69.7687 76.4487 70.0711 77.2098 70.0711Z" fill="white"/>
<path d="M77.2093 91.401H87.8793C88.2697 91.4241 88.6608 91.3671 89.0285 91.2336C89.3961 91.1 89.7326 90.8927 90.0172 90.6244C90.3018 90.3561 90.5286 90.0325 90.6836 89.6733C90.8386 89.3142 90.9186 88.9272 90.9186 88.536C90.9186 88.1449 90.8386 87.7578 90.6836 87.3987C90.5286 87.0396 90.3018 86.7159 90.0172 86.4476C89.7326 86.1793 89.3961 85.972 89.0285 85.8385C88.6608 85.7049 88.2697 85.6479 87.8793 85.671H77.2093C76.8188 85.6479 76.4277 85.7049 76.0601 85.8385C75.6924 85.972 75.3559 86.1793 75.0713 86.4476C74.7867 86.7159 74.5599 87.0396 74.4049 87.3987C74.2499 87.7578 74.1699 88.1449 74.1699 88.536C74.1699 88.9272 74.2499 89.3142 74.4049 89.6733C74.5599 90.0325 74.7867 90.3561 75.0713 90.6244C75.3559 90.8927 75.6924 91.1 76.0601 91.2336C76.4277 91.3671 76.8188 91.4241 77.2093 91.401Z" fill="white"/>
<path d="M95.88 37.6613H85.41V35.1912C85.4074 34.4309 85.1041 33.7024 84.5665 33.1648C84.0288 32.6271 83.3004 32.3239 82.54 32.3212H76.89C76.3023 30.7579 75.2519 29.4109 73.8787 28.4602C72.5056 27.5094 70.8752 27 69.205 27C67.5348 27 65.9044 27.5094 64.5313 28.4602C63.1581 29.4109 62.1077 30.7579 61.52 32.3212H55.87C55.1096 32.3239 54.3812 32.6271 53.8435 33.1648C53.3059 33.7024 53.0026 34.4309 53 35.1912V37.6613H42.53C41.0642 37.6639 39.6591 38.2474 38.6226 39.2839C37.5861 40.3204 37.0026 41.7254 37 43.1913V107.191C37.0026 108.657 37.5861 110.062 38.6226 111.099C39.6591 112.135 41.0642 112.719 42.53 112.721H95.88C97.3458 112.719 98.7509 112.135 99.7874 111.099C100.824 110.062 101.407 108.657 101.41 107.191V43.1913C101.407 41.7254 100.824 40.3204 99.7874 39.2839C98.7509 38.2474 97.3458 37.6639 95.88 37.6613ZM74.54 38.0612H79.68V42.9913H58.74V38.0612H63.87C64.6304 38.0586 65.3588 37.7554 65.8965 37.2177C66.4341 36.6801 66.7374 35.9516 66.74 35.1912C66.7799 34.5646 67.057 33.9767 67.5149 33.5471C67.9728 33.1175 68.5771 32.8783 69.205 32.8783C69.8329 32.8783 70.4372 33.1175 70.8951 33.5471C71.353 33.9767 71.6301 34.5646 71.67 35.1912C71.6726 35.9516 71.9759 36.6801 72.5135 37.2177C73.0512 37.7554 73.7796 38.0586 74.54 38.0612ZM55.87 48.7313H82.54C83.3004 48.7286 84.0288 48.4254 84.5665 47.8877C85.1041 47.3501 85.4074 46.6216 85.41 45.8613V43.3913H95.68V106.991H42.73V43.3913H53V45.8613C53.0026 46.6216 53.3059 47.3501 53.8435 47.8877C54.3812 48.4254 55.1096 48.7286 55.87 48.7313Z" fill="white"/>
</svg>
