<svg width="136" height="151" viewBox="0 0 136 151" fill="none" xmlns="http://www.w3.org/2000/svg">
<path d="M57.7423 2.75926C60.8795 0.951534 64.4366 0 68.0574 0C71.6781 0 75.2352 0.951534 78.3724 2.75926L125.642 30.0593C128.781 31.8681 131.388 34.4723 133.2 37.6096C135.012 40.7469 135.965 44.3064 135.962 47.9293V102.509C135.963 106.132 135.009 109.69 133.197 112.827C131.386 115.964 128.78 118.569 125.642 120.379L78.3724 147.669C75.2369 149.482 71.6791 150.436 68.0574 150.436C64.4356 150.436 60.8778 149.482 57.7423 147.669L10.4723 120.379C7.33469 118.569 4.72903 115.964 2.91743 112.827C1.10584 109.69 0.15217 106.132 0.152348 102.509V47.9293C0.150139 44.3064 1.10295 40.7469 2.91475 37.6096C4.72655 34.4723 7.33332 31.8681 10.4723 30.0593L57.7423 2.75926Z" fill="#5DAC0D"/>
<path d="M100.592 56.9324H96.8523L77.7923 37.8724C77.2303 37.3136 76.4699 37 75.6773 37C74.8848 37 74.1244 37.3136 73.5623 37.8724L68.2023 43.2324L62.8423 37.8724C62.2803 37.3136 61.5199 37 60.7273 37C59.9348 37 59.1744 37.3136 58.6123 37.8724L39.5423 56.9324H34.1523C33.3567 56.9324 32.5936 57.2484 32.031 57.8111C31.4684 58.3737 31.1523 59.1367 31.1523 59.9324V109.762C31.1523 110.558 31.4684 111.321 32.031 111.884C32.5936 112.446 33.3567 112.762 34.1523 112.762H100.592C102.714 112.762 104.749 111.92 106.249 110.419C107.749 108.919 108.592 106.884 108.592 104.762V64.9024C108.584 62.7858 107.738 60.7587 106.239 59.2649C104.739 57.7711 102.709 56.9324 100.592 56.9324ZM98.3523 62.9324H100.592C101.123 62.9324 101.631 63.1431 102.007 63.5182C102.382 63.8932 102.592 64.4019 102.592 64.9324V71.9324H98.5923V64.9324C98.6006 64.2515 98.52 63.5724 98.3523 62.9124V62.9324ZM92.6223 71.9324H85.6223C83.8348 71.7918 82.0375 72.0226 80.3435 72.6101C78.6494 73.1977 77.0952 74.1293 75.7786 75.3465C74.4619 76.5637 73.4113 78.0401 72.6928 79.6829C71.9743 81.3257 71.6033 83.0993 71.6033 84.8924C71.6033 86.6854 71.9743 88.4591 72.6928 90.1019C73.4113 91.7447 74.4619 93.2211 75.7786 94.4382C77.0952 95.6554 78.6494 96.5871 80.3435 97.1746C82.0375 97.7622 83.8348 97.9929 85.6223 97.8524H92.6223V104.852C92.6223 105.383 92.4116 105.892 92.0366 106.267C91.6615 106.642 91.1528 106.852 90.6223 106.852H37.1523V62.9124H90.6523C91.1828 62.9124 91.6915 63.1231 92.0666 63.4982C92.4416 63.8732 92.6523 64.3819 92.6523 64.9124L92.6223 71.9324ZM78.6723 84.9324C78.6723 83.0759 79.4098 81.2954 80.7226 79.9826C82.0354 78.6699 83.8158 77.9324 85.6723 77.9324H102.592V91.9324H85.6523C84.7272 91.9298 83.8116 91.7439 82.9588 91.3853C82.1059 91.0267 81.3326 90.5026 80.6835 89.8433C80.0344 89.184 79.5225 88.4026 79.1773 87.5442C78.8321 86.6858 78.6604 85.7675 78.6723 84.8424V84.9324ZM72.4323 47.4624L75.6723 44.2124L88.3923 56.9324H81.8923L72.4323 47.4624ZM48.0123 56.9324L60.7223 44.2124L73.4423 56.9324H48.0123ZM98.6123 104.772V97.7724H102.612V104.772C102.612 105.303 102.402 105.812 102.027 106.187C101.651 106.562 101.143 106.772 100.612 106.772H98.3523C98.5242 106.12 98.6116 105.447 98.6123 104.772Z" fill="white"/>
<path d="M88.6328 84.8423C88.6328 84.2489 88.4569 83.6689 88.1272 83.1756C87.7976 82.6822 87.329 82.2977 86.7809 82.0706C86.2327 81.8436 85.6295 81.7842 85.0475 81.8999C84.4656 82.0157 83.9311 82.3014 83.5115 82.721C83.0919 83.1405 82.8062 83.6751 82.6905 84.257C82.5747 84.839 82.6341 85.4422 82.8612 85.9903C83.0882 86.5385 83.4728 87.0071 83.9661 87.3367C84.4595 87.6663 85.0395 87.8423 85.6328 87.8423C86.4285 87.8423 87.1915 87.5262 87.7541 86.9636C88.3167 86.401 88.6328 85.6379 88.6328 84.8423Z" fill="white"/>
</svg>
