<svg width="75" height="13" viewBox="0 0 75 13" fill="none" xmlns="http://www.w3.org/2000/svg">
<g clip-path="url(#clip0)">
<path fill-rule="evenodd" clip-rule="evenodd" d="M2.79171 1.20887C3.82471 0.520942 5.03918 0.153763 6.28156 0.153763C7.94692 0.155744 9.5435 0.815979 10.7211 1.98964C11.8987 3.16331 12.5611 4.75457 12.5631 6.41438C12.5631 7.65261 12.1947 8.86304 11.5045 9.89259C10.8143 10.9221 9.83321 11.7246 8.68541 12.1984C7.5376 12.6723 6.27459 12.7963 5.05609 12.5547C3.83759 12.3131 2.71832 11.7169 1.83983 10.8413C0.961337 9.96574 0.363076 8.85021 0.120701 7.63577C-0.121674 6.42133 0.00272169 5.16252 0.478158 4.01855C0.953594 2.87457 1.75872 1.89679 2.79171 1.20887ZM3.34425 10.7957C4.21369 11.3747 5.23589 11.6838 6.28156 11.6838C7.68324 11.6821 9.02703 11.1264 10.0182 10.1385C11.0093 9.1507 11.5669 7.81139 11.5686 6.41438C11.5686 5.37219 11.2585 4.35341 10.6776 3.48686C10.0966 2.62031 9.27089 1.94492 8.30481 1.54609C7.33874 1.14726 6.27569 1.04291 5.25011 1.24623C4.22453 1.44955 3.28247 1.95142 2.54307 2.68835C1.80367 3.42529 1.30013 4.36421 1.09613 5.38637C0.892126 6.40854 0.996826 7.46804 1.39699 8.43089C1.79715 9.39375 2.4748 10.2167 3.34425 10.7957ZM18.7354 3.02757C19.1907 2.84377 19.6784 2.75301 20.1696 2.76065C20.6607 2.75315 21.1484 2.84403 21.6036 3.02789C22.0588 3.21175 22.4723 3.48485 22.8196 3.831C23.1669 4.17715 23.4409 4.58929 23.6254 5.04297C23.8099 5.49666 23.901 5.98265 23.8935 6.47211C23.9012 6.96167 23.8101 7.44778 23.6257 7.90159C23.4413 8.3554 23.1673 8.76766 22.82 9.11393C22.4727 9.46019 22.0591 9.73339 21.6038 9.91732C21.1485 10.1012 20.6608 10.1922 20.1696 10.1846C19.6784 10.1923 19.1905 10.1015 18.7351 9.91763C18.2797 9.73377 17.866 9.46059 17.5186 9.11432C17.1712 8.76804 16.8971 8.35572 16.7126 7.90184C16.5281 7.44796 16.437 6.96176 16.4447 6.47211C16.4372 5.98256 16.5284 5.49648 16.7129 5.04272C16.8975 4.58896 17.1716 4.17677 17.519 3.83061C17.8664 3.48445 18.2801 3.21137 18.7354 3.02757ZM20.1696 9.34954C20.9793 9.3531 21.6473 9.08757 22.1737 8.55293C22.6973 8.01829 22.9591 7.32469 22.9591 6.47211C22.9591 5.61954 22.6987 4.9263 22.178 4.39237C21.6516 3.85773 20.9836 3.59077 20.1739 3.59148C19.3643 3.5922 18.6959 3.85916 18.1688 4.39237C17.6431 4.92487 17.3802 5.61812 17.3802 6.47211C17.3802 7.32611 17.6416 8.01829 18.1645 8.54865C18.6916 9.07901 19.36 9.34597 20.1696 9.34954ZM7.08639 3.69839C6.83103 3.62758 6.5672 3.59161 6.30214 3.59146C5.46603 3.59146 4.78334 3.857 4.25406 4.38808C3.72479 4.91915 3.46015 5.6124 3.46015 6.46782C3.45944 7.3211 3.72407 8.01471 4.25406 8.54863C4.78405 9.08256 5.46674 9.34952 6.30214 9.34952C6.56898 9.35327 6.83474 9.31502 7.08961 9.23618C7.3119 9.1692 7.5233 9.07051 7.71723 8.9432C7.87086 8.83977 8.01679 8.72541 8.15388 8.60103C8.25504 8.51247 8.34413 8.4111 8.41888 8.29949L8.50685 8.18187H8.65383V9.16347C8.63452 9.18913 8.60555 9.22442 8.56586 9.27039C8.47886 9.35987 8.38565 9.44312 8.28692 9.51954C8.13881 9.64104 7.9776 9.74576 7.80628 9.83177C7.58518 9.93719 7.35361 10.0193 7.11536 10.0766C6.81758 10.1509 6.51146 10.1869 6.20451 10.1836C5.71875 10.1935 5.23614 10.1037 4.78671 9.91977C4.33727 9.73581 3.93064 9.46163 3.59211 9.11428C2.88117 8.40072 2.52605 7.51999 2.52677 6.4721C2.52748 5.42421 2.88188 4.54383 3.58997 3.83098C3.92849 3.48363 4.33513 3.20945 4.78456 3.02549C5.23399 2.84154 5.71661 2.75174 6.20236 2.76171C6.52377 2.7595 6.8443 2.79539 7.1572 2.86863C7.409 2.92384 7.65271 3.01079 7.88245 3.1274C8.05035 3.21656 8.21266 3.31583 8.36845 3.42466C8.47721 3.49836 8.57663 3.58488 8.66456 3.68235L8.75253 3.78928L8.40922 4.52815C8.39139 4.49952 8.36716 4.46816 8.33822 4.43069L8.3309 4.42122C8.25751 4.34084 8.17709 4.26712 8.09058 4.20095C7.96218 4.09629 7.82467 4.00325 7.67968 3.92294C7.49113 3.82584 7.29208 3.7505 7.08639 3.69839ZM34.1639 6.81962C34.0433 6.70328 33.9081 6.603 33.7616 6.5213C33.6592 6.45979 33.5515 6.40755 33.4397 6.36518C33.3775 6.34593 33.3324 6.3331 33.2981 6.32562V6.2775L33.4054 6.24756C33.4905 6.21133 33.5712 6.1654 33.6457 6.11069C33.7492 6.03856 33.8446 5.95538 33.93 5.86262C34.0388 5.73738 34.122 5.59206 34.1746 5.43491C34.247 5.23616 34.2833 5.02616 34.2819 4.81473C34.2819 4.23518 34.0813 3.77183 33.68 3.42467C33.2788 3.07751 32.6955 2.905 31.9302 2.90714H29.9197V10.0381H32.1727C32.9594 10.0381 33.5638 9.85566 33.9858 9.49068C34.1951 9.31161 34.3612 9.08772 34.4715 8.83572C34.5819 8.58373 34.6337 8.31014 34.6231 8.03539C34.6265 7.78912 34.5786 7.54482 34.4825 7.31791C34.4089 7.13321 34.3008 6.96412 34.1639 6.81962ZM30.8026 3.73797H31.9291C32.4062 3.73797 32.7638 3.83705 33.002 4.03523C33.1187 4.13729 33.2108 4.2644 33.2712 4.407C33.3316 4.54961 33.3587 4.704 33.3507 4.85857C33.3585 5.01384 33.3309 5.16886 33.2697 5.31188C33.2085 5.4549 33.1155 5.58217 32.9977 5.68405C32.7624 5.88294 32.4048 5.98238 31.9248 5.98238H30.7983L30.8026 3.73797ZM33.311 8.88012C33.0564 9.09825 32.6773 9.20732 32.1738 9.20732H30.8026V6.76616H32.1738C32.6744 6.76616 33.0535 6.87523 33.311 7.09336C33.4381 7.20378 33.5386 7.34147 33.6047 7.49611C33.6709 7.65074 33.701 7.8183 33.6929 7.98621C33.7011 8.15428 33.671 8.32202 33.6049 8.47684C33.5387 8.63166 33.4382 8.76954 33.311 8.88012ZM45.1103 10.0382H40.7009V2.90716H45.1103V3.73799H41.5827V5.98454H44.3754V6.8143H41.5827V9.20734H45.1103V10.0382ZM53.7832 3.5915C54.0483 3.59165 54.3121 3.62762 54.5675 3.69843C54.7732 3.75054 54.9722 3.82588 55.1608 3.92298C55.3059 4.00305 55.4434 4.09611 55.5717 4.20099C55.6584 4.26686 55.7389 4.3406 55.812 4.42126L55.8193 4.43076C55.8483 4.46821 55.8725 4.49957 55.8903 4.52819L56.2336 3.79467L56.1457 3.68774C56.0582 3.59153 55.9595 3.50609 55.8517 3.43325C55.6959 3.32443 55.5336 3.22516 55.3657 3.13599C55.136 3.01921 54.8923 2.93225 54.6404 2.87723C54.3275 2.80399 54.007 2.76809 53.6856 2.7703C53.1998 2.76034 52.7172 2.85013 52.2678 3.03409C51.8184 3.21804 51.4117 3.49223 51.0732 3.83958C50.3651 4.55243 50.0107 5.4328 50.01 6.48069C50.0093 7.52858 50.3637 8.40931 51.0732 9.12287C51.4117 9.47022 51.8184 9.74441 52.2678 9.92836C52.7172 10.1123 53.1998 10.2021 53.6856 10.1922C53.9926 10.1955 54.2987 10.1595 54.5965 10.0852C54.8347 10.0279 55.0663 9.94578 55.2874 9.84036C55.4587 9.75435 55.6199 9.64963 55.768 9.52813C55.8667 9.45171 55.96 9.36846 56.0469 9.27899C56.0866 9.23301 56.1156 9.19772 56.136 9.17206V8.18191H55.9879L55.9 8.29953C55.8256 8.41107 55.7368 8.51244 55.6361 8.60107C55.499 8.72545 55.353 8.83981 55.1994 8.94323C55.0057 9.07036 54.7947 9.16903 54.5729 9.23622C54.3172 9.31509 54.0508 9.35334 53.7832 9.34956C52.9471 9.34956 52.2644 9.0826 51.7352 8.54867C51.2059 8.01475 50.9412 7.32114 50.9412 6.46786C50.9412 5.61244 51.2059 4.91919 51.7352 4.38811C52.2644 3.85704 52.9471 3.5915 53.7832 3.5915ZM62.4081 3.73799H60.1541V2.90716H65.5441V3.73799H63.29V10.0382H62.4081V3.73799ZM74.3235 5.98454C73.8729 5.56111 73.2488 5.34939 72.4514 5.34939H71.2272V2.90716H70.3453V10.0382H72.4514C73.2481 10.0382 73.8722 9.82645 74.3235 9.40302C74.7748 8.97958 75.0001 8.4093 74.9994 7.69218C74.9994 6.97719 74.7741 6.40797 74.3235 5.98454ZM73.6422 8.80208C73.3561 9.07297 72.9592 9.20805 72.4514 9.20734H71.2272V6.17915H72.4514C72.9613 6.17915 73.3583 6.31459 73.6422 6.58547C73.9262 6.85636 74.0692 7.22561 74.0714 7.69324C74.0699 8.16301 73.9269 8.53263 73.6422 8.80208Z" fill="#8D8D8D"/>
</g>
<defs>
<clipPath id="clip0">
<rect width="75" height="13" fill="white"/>
</clipPath>
</defs>
</svg>
