<svg id="help" xmlns="http://www.w3.org/2000/svg" viewBox="0 0 17.75 17.99"><defs><style>.cls-1{fill:#1a1a1a;}</style></defs><title>help</title><g id="Group_60" data-name="Group 60"><g id="Group_59" data-name="Group 59"><path id="Path_36" data-name="Path 36" class="cls-1" d="M8.72,12.06a.95.95,0,1,0,.95.95.95.95,0,0,0-.95-.95Z" transform="translate(0 0)"/><path id="Path_37" data-name="Path 37" class="cls-1" d="M8.88,4.92c-1.65,0-2.41,1-2.41,1.64a.7.7,0,0,0,.7.7h0c.66,0,.39-.94,1.64-.94.62,0,1.1.27,1.1.83s-.68,1-1.09,1.38A2.28,2.28,0,0,0,8,10.4c0,.63.17.82.68.82s.72-.27.72-.5a1.52,1.52,0,0,1,.69-1.54,3.13,3.13,0,0,0,1.37-2.24C11.49,5.79,10.45,4.92,8.88,4.92Z" transform="translate(0 0)"/><path id="Path_38" data-name="Path 38" class="cls-1" d="M9,0A9,9,0,0,0,0,9v8.31a.7.7,0,0,0,.7.7H9A9,9,0,0,0,9,0ZM9,16.59H1.41V9A7.59,7.59,0,1,1,9,16.59Z" transform="translate(0 0)"/></g></g></svg>