<svg width="18" height="18" viewBox="0 0 18 18" fill="none" xmlns="http://www.w3.org/2000/svg">
<path d="M8.99964 0C4.0293 0 0 4.02966 0 8.99982C0 13.97 4.0293 18 8.99964 18C13.97 18 17.9996 13.9702 17.9996 8.99982C17.9996 4.02942 13.97 0 8.99964 0ZM13.3785 5.96766L11.4324 7.81032L12.6661 12.781L11.9299 13.5172L9.5742 9.67548L9.5199 9.62118L7.0968 11.9156C7.08312 11.9294 7.0677 11.9399 7.05372 11.9529L6.9759 13.7218L4.278 11.024L6.04626 10.9464C6.05934 10.9321 6.0699 10.9168 6.08376 10.903L8.37816 8.47974L8.35866 8.46L4.4826 6.07008L5.2188 5.33388L10.1671 6.59064L12.0318 4.62102C12.4039 4.24896 13.0069 4.24908 13.3786 4.62102C13.7504 4.9929 13.7504 5.59578 13.3785 5.96766Z" fill="#5DAC0D"/>
</svg>
