<svg width="18" height="18" viewBox="0 0 18 18" fill="none" xmlns="http://www.w3.org/2000/svg">
<path d="M9 0C4.03737 0 0 4.03737 0 9C0 13.9626 4.03737 18 9 18C13.9626 18 18 13.9626 18 9C18 4.03737 13.9626 0 9 0ZM11.1356 11.4407H6.86441C6.35894 11.4407 5.94915 11.0309 5.94915 10.5254C5.94915 10.02 6.35894 9.61017 6.86441 9.61017H11.1356C11.6411 9.61017 12.0508 10.02 12.0508 10.5254C12.0508 11.0309 11.6411 11.4407 11.1356 11.4407ZM11.1356 8.38983H6.86441C6.35894 8.38983 5.94915 7.98004 5.94915 7.47458C5.94915 6.96911 6.35894 6.55932 6.86441 6.55932H11.1356C11.6411 6.55932 12.0508 6.96911 12.0508 7.47458C12.0508 7.98004 11.6411 8.38983 11.1356 8.38983Z" fill="#5DAC0D"/>
</svg>
