<svg width="18" height="18" viewBox="0 0 18 18" fill="none" xmlns="http://www.w3.org/2000/svg">
<path d="M9 0C4.02961 0 0 4.02961 0 9C0 13.9704 4.02961 18 9 18C13.9704 18 18 13.9704 18 9C18 4.02961 13.9704 0 9 0ZM13.5 14.0625C8.22656 14.0625 3.9375 9.77344 3.9375 4.5C3.9375 4.35082 3.99676 4.20774 4.10225 4.10225C4.20774 3.99676 4.35082 3.9375 4.5 3.9375H6.57668C6.72586 3.9375 6.86894 3.99676 6.97443 4.10225C7.07992 4.20774 7.13918 4.35082 7.13918 4.5C7.13524 5.45312 7.35094 6.39434 7.76953 7.25063C7.8021 7.31721 7.82118 7.38957 7.82569 7.46356C7.8302 7.53754 7.82004 7.61168 7.7958 7.68173C7.77156 7.75177 7.73371 7.81634 7.68444 7.87171C7.63516 7.92708 7.57543 7.97216 7.50867 8.00437L6.66773 8.40938C7.36546 9.62501 8.37385 10.6333 9.58957 11.3309L9.99457 10.4927C10.0267 10.4259 10.0716 10.366 10.127 10.3166C10.1823 10.2671 10.2468 10.2292 10.3169 10.2048C10.3869 10.1804 10.4611 10.1701 10.5352 10.1745C10.6092 10.1789 10.6817 10.198 10.7483 10.2305C11.605 10.6489 12.5466 10.8646 13.5 10.8608C13.6492 10.8608 13.7923 10.9201 13.8977 11.0256C14.0032 11.1311 14.0625 11.2741 14.0625 11.4233V13.5C14.0625 13.6492 14.0032 13.7923 13.8977 13.8977C13.7923 14.0032 13.6492 14.0625 13.5 14.0625Z" fill="#5DAC0D"/>
</svg>
