<svg width="18" height="18" viewBox="0 0 18 18" fill="none" xmlns="http://www.w3.org/2000/svg">
<path fill-rule="evenodd" clip-rule="evenodd" d="M17.8435 0.156621C17.6346 -0.0522069 17.3065 -0.0522069 17.0977 0.156621L15.5588 1.69548C15.8944 1.8521 16.1554 2.1131 16.3046 2.44125L17.8435 0.902389C18.0523 0.693561 18.0523 0.365449 17.8435 0.156621ZM13.1424 4.85757C12.9336 4.64874 12.6054 4.64874 12.3966 4.85757C12.1878 5.06639 12.1878 5.39447 12.3966 5.60334C12.6054 5.81216 12.9336 5.81216 13.1424 5.60334C13.3512 5.39451 13.3512 5.06639 13.1424 4.85757ZM8.66776 12.3153C8.45893 12.1065 8.13082 12.1065 7.92199 12.3153C7.7132 12.5241 7.71316 12.8523 7.92199 13.0611C8.13082 13.2699 8.45897 13.2699 8.66776 13.0611C8.87662 12.8522 8.87662 12.5242 8.66776 12.3153ZM7.17614 7.09487C7.38497 6.88604 7.71308 6.88604 7.92191 7.09487C8.13073 7.3037 8.13073 7.63181 7.92191 7.84064C7.71311 8.04944 7.38497 8.04951 7.17614 7.84064C6.96731 7.63181 6.96735 7.30367 7.17614 7.09487ZM16.4164 2.73209L17.6096 7.50507C17.7438 8.04198 17.5873 8.61622 17.192 9.01151L8.66779 17.5358C8.04883 18.1547 7.04944 18.1548 6.43045 17.5358L0.464233 11.5695C-0.154762 10.9505 -0.154727 9.95117 0.464233 9.33221L8.98845 0.807991C9.38374 0.41273 9.95798 0.256144 10.4949 0.39037L15.2679 1.58357C15.3723 1.61342 15.4692 1.65065 15.5587 1.69544L13.4481 3.80601C12.859 3.53003 12.1356 3.62699 11.6509 4.11176C11.0319 4.73072 11.0319 5.7301 11.6509 6.3491C12.2699 6.96809 13.2692 6.96806 13.8882 6.3491C14.373 5.86433 14.4699 5.14096 14.194 4.55181L16.3045 2.44124C16.3493 2.53071 16.3865 2.62768 16.4164 2.73209ZM8.66779 6.3491C8.04876 5.7301 7.04944 5.7301 6.43045 6.3491C5.81149 6.96806 5.81142 7.96744 6.43045 8.58644C7.04948 9.20543 8.04883 9.2054 8.66779 8.58644C9.28678 7.96741 9.28682 6.96809 8.66779 6.3491ZM7.17622 13.8069C7.79521 14.4258 8.79456 14.4258 9.41356 13.8069C10.0326 13.1878 10.0326 12.1885 9.41356 11.5695C8.79453 10.9505 7.79521 10.9505 7.17622 11.5695C6.55726 12.1885 6.55722 13.1879 7.17622 13.8069ZM4.62426 10.9752L11.3362 10.2295C11.6258 10.197 11.834 9.93633 11.8023 9.64682C11.7699 9.35734 11.5088 9.15013 11.2197 9.18072L4.50772 9.92649C4.21825 9.9589 4.00994 10.2197 4.04162 10.5091C4.05547 10.633 4.1112 10.7418 4.19276 10.8234C4.30234 10.933 4.45857 10.9931 4.62426 10.9752Z" fill="#5DAC0D"/>
</svg>
