<svg width="18" height="18" viewBox="0 0 18 18" fill="none" xmlns="http://www.w3.org/2000/svg">
<path d="M8.99982 0C4.02947 0 0 4.02947 0 8.99982C0 13.9702 4.02947 18 8.99982 18C13.9702 18 18 13.9702 18 8.99982C18 4.02947 13.9702 0 8.99982 0ZM8.99982 3.16139L14.3254 6.48211H3.67422L8.99982 3.16139ZM14.3919 11.7856C14.3919 11.9122 14.367 12.0376 14.3185 12.1546C14.27 12.2717 14.199 12.378 14.1094 12.4675C14.0199 12.5571 13.9135 12.6281 13.7965 12.6766C13.6795 12.7251 13.5541 12.75 13.4275 12.75H4.57255C4.31682 12.7499 4.07159 12.6483 3.8908 12.4674C3.71001 12.2865 3.60844 12.0413 3.60844 11.7856V6.6935C3.60865 6.63818 3.61371 6.58298 3.62357 6.52854L8.71211 9.70153C8.71837 9.70528 8.72482 9.70868 8.73145 9.71173L8.75185 9.72264C8.78703 9.74119 8.8242 9.7557 8.86265 9.7659L8.87426 9.76836C8.91536 9.77849 8.9575 9.7838 8.99982 9.78419C9.04215 9.7838 9.08429 9.77849 9.12539 9.76836L9.137 9.7659C9.1754 9.75558 9.21256 9.74107 9.2478 9.72264L9.2682 9.71173C9.27453 9.70822 9.28121 9.70576 9.28754 9.70153L14.3761 6.52854C14.3859 6.58298 14.391 6.63818 14.3912 6.6935V11.7856H14.3919Z" fill="#5DAC0D"/>
</svg>
