<svg width="18" height="18" viewBox="0 0 18 18" fill="none" xmlns="http://www.w3.org/2000/svg">
<circle cx="9" cy="9" r="9" fill="#5DAC0D"/>
<path d="M9.88232 12.243H7.43312V14H5.51636V12.243H3.95709V10.6989H5.51636V9.88505H3.95709V8.34099H5.51636V2.92539H9.75301C10.9751 2.92539 11.9512 3.24485 12.6814 3.88377C13.4116 4.51761 13.7767 5.3619 13.7767 6.41663C13.7767 7.49164 13.4293 8.33592 12.7346 8.94949C12.0399 9.55798 11.074 9.86984 9.83668 9.88505H7.43312V10.6989H9.88232V12.243ZM7.43312 8.34099H9.72259C10.4122 8.34099 10.9396 8.18126 11.3047 7.8618C11.6698 7.54234 11.8523 7.06569 11.8523 6.43184C11.8523 5.86391 11.6723 5.39993 11.3123 5.03991C10.9573 4.67988 10.4655 4.49226 9.83668 4.47705H7.43312V8.34099Z" fill="white"/>
</svg>