<svg width="100" height="100" viewBox="0 0 100 100" fill="none" xmlns="http://www.w3.org/2000/svg">
<path d="M72.0651 8.84585L72.0649 8.84548C70.9105 6.83308 69.0435 5.39195 66.8106 4.7941L66.8104 4.79403C64.5882 4.20026 62.2621 4.5125 60.2735 5.6699L60.2734 5.66993L20.1197 29.0467H13.1819C8.39341 29.0467 4.5 32.9399 4.5 37.7286V86.8195C4.5 91.6079 8.3932 95.5013 13.1819 95.5013H82.7273C87.5158 95.5013 91.4092 91.6081 91.4092 86.8195V74.5124C93.8006 73.513 95.5 71.1695 95.5 68.4104V56.1377C95.5 53.3786 93.8006 51.035 91.4092 50.0357V37.7286C91.4092 33.2632 88.0151 29.6207 83.6839 29.1397L72.0651 8.84585ZM62.8359 10.0696L62.8365 10.0693C63.648 9.59527 64.5915 9.46985 65.4934 9.71114C66.4076 9.95583 67.1698 10.5455 67.6458 11.3763L71.351 17.8481C69.745 18.488 68.0543 18.8196 66.3637 18.8196C62.3213 18.8196 58.6023 17.0707 56.0033 14.0473L62.8359 10.0696ZM30.238 29.0469L51.5592 16.6346C55.1253 21.2199 60.4902 23.9106 66.3637 23.9106C68.9445 23.9106 71.4992 23.336 73.8867 22.2771L77.7625 29.0469H30.238ZM86.3181 86.8195C86.3181 88.7984 84.7063 90.4103 82.7273 90.4103H13.1819C11.2029 90.4103 9.59103 88.7984 9.59103 86.8195V37.7286C9.59103 35.7496 11.2029 34.1378 13.1819 34.1378H82.7273C84.7063 34.1378 86.3181 35.7496 86.3181 37.7286V49.5013H74.5454C67.5016 49.5013 61.7727 55.2303 61.7727 62.274C61.7727 69.3178 67.5016 75.0467 74.5454 75.0467H86.3181V86.8195ZM90.4092 68.4104C90.4092 69.2628 89.7162 69.9559 88.8636 69.9559H74.5454C70.3092 69.9559 66.8635 66.5104 66.8635 62.274C66.8635 58.0378 70.3091 54.5922 74.5454 54.5922H88.8636C89.716 54.5922 90.4092 55.2852 90.4092 56.1377V68.4104Z" fill="#5DAC0D" stroke="#5DAC0D"/>
<path d="M74.544 58.1826C72.2889 58.1826 70.4531 60.0183 70.4531 62.2735C70.4531 64.5286 72.2889 66.3643 74.544 66.3643C76.7991 66.3643 78.6348 64.5286 78.6348 62.2735C78.635 60.0183 76.7993 58.1826 74.544 58.1826Z" fill="#5DAC0D"/>
</svg>
