<svg width="12" height="12" viewBox="0 0 12 12" fill="none" xmlns="http://www.w3.org/2000/svg">
<path d="M11.8082 2.83788L11.4151 2.44207C11.2914 2.31846 11.1268 2.25036 10.9509 2.25036C10.7751 2.25036 10.6103 2.31846 10.4866 2.44207L6.00268 6.9262L1.51357 2.4371C1.39006 2.31348 1.22528 2.24548 1.04947 2.24548C0.873666 2.24548 0.708786 2.31348 0.585176 2.43709L0.192001 2.83046C-0.0640007 3.08627 -0.0640007 3.50296 0.192001 3.75876L5.53682 9.12281C5.66034 9.24632 5.82492 9.33335 6.00229 9.33335L6.00434 9.33335C6.18024 9.33335 6.34483 9.24622 6.46834 9.12281L11.8082 3.7733C11.9319 3.64979 11.9998 3.48023 12 3.30442C12 3.12852 11.9319 2.9613 11.8082 2.83788Z" fill="#2399E2"/>
</svg>