<svg width="100" height="100" viewBox="0 0 100 100" fill="none" xmlns="http://www.w3.org/2000/svg">
<path d="M85.332 10H14.668C9.33705 10 5 14.3838 5 19.7722V66.6789C5 72.0673 9.33705 76.4511 14.668 76.4511H37.4341C37.712 76.4511 37.9762 76.5859 38.1413 76.8121L46.4475 88.1946C47.2798 89.3355 48.5614 89.9934 49.9638 90H49.9849C51.3792 90 52.6583 89.3547 53.4968 88.2273L61.9914 76.8055C62.1565 76.5835 62.4193 76.4509 62.694 76.4509H85.332C90.6629 76.4509 95 72.0671 95 66.6787V19.772C95 14.3836 90.6629 10 85.332 10ZM89.7266 66.6789C89.7266 67.0985 89.6675 67.5042 89.5594 67.8892L62.4706 43.8872L89.7266 21.0241V66.6789ZM85.332 15.3303C86.1359 15.3303 86.8895 15.5506 87.5383 15.9332L52.8139 45.0608C51.1876 46.425 48.8274 46.425 47.201 45.0608L12.4705 15.928C13.1174 15.5487 13.8678 15.3303 14.668 15.3303H85.332ZM10.4406 67.8892C10.3325 67.5042 10.2734 67.0984 10.2734 66.6789V21.0117L37.5368 43.8806L10.4406 67.8892ZM57.7764 73.6026L49.9909 84.0707L42.3852 73.6482C41.2306 72.0655 39.3795 71.1206 37.4339 71.1206H14.7933L41.646 47.3277L43.8332 49.1624C45.6222 50.6631 47.8143 51.4131 50.0074 51.4131C52.1997 51.4131 54.3928 50.6626 56.1814 49.1624L58.3609 47.3341L85.2063 71.1206H62.694C60.7708 71.1208 58.9323 72.0484 57.7764 73.6026Z" fill="#5DAC0D" stroke="#5DAC0D" stroke-width="0.5"/>
</svg>
