<svg width="100" height="100" viewBox="0 0 100 100" fill="none" xmlns="http://www.w3.org/2000/svg">
<path d="M93.4183 34.6648C86.431 18.2903 70.1941 7 51.8242 7C26.8404 7 7 27.6116 7 52.1758C7 76.9504 27.0477 97 51.8242 97C76.4153 97 97 77.1316 97 52.1758C97 46.1261 95.795 40.2346 93.4183 34.6648ZM89.399 38.7468C84.7807 35.0914 78.8128 32.5412 73.0985 30.918C71.4766 25.1979 68.9314 19.2291 65.2456 14.5981C76.4659 18.6181 85.3772 27.5276 89.399 38.7468ZM73.301 49.5406C74.7403 49.5579 75.9062 50.7324 75.9062 52.1758C75.9062 53.6191 74.7403 54.7937 73.301 54.8109C73.2908 54.8102 73.281 54.8081 73.2708 54.8076C73.2266 54.8048 73.1834 54.8065 73.1398 54.806C71.7469 54.7376 70.6339 53.5868 70.633 52.1775C70.633 52.177 70.633 52.1765 70.633 52.1758C70.633 52.1751 70.633 52.1747 70.633 52.174C70.6339 50.7829 71.7183 49.6433 73.0858 49.5484C73.0922 49.5484 73.0983 49.5493 73.1045 49.5493C73.1595 49.5493 73.215 49.5475 73.2708 49.544C73.281 49.5433 73.2908 49.5413 73.301 49.5406ZM54.4609 12.7111C59.5141 14.38 64.1293 20.7157 67.1221 29.5074C63.0784 28.7345 58.8219 28.2697 54.4609 28.1358V12.7111ZM54.4609 33.4115C59.4544 33.5737 64.2824 34.1958 68.756 35.2377C69.4655 38.268 69.9921 41.493 70.3018 44.8455C68.2146 45.6937 66.5691 47.407 65.8129 49.5391H54.4609V33.4115ZM54.4609 54.8125H65.8129C66.5691 56.9447 68.2149 58.6584 70.3023 59.5064C70.007 62.7235 69.5126 65.8396 68.8351 68.7924C65.7644 69.4906 62.5147 70.0004 59.1553 70.3039C58.3076 68.2158 56.5937 66.5693 54.4609 65.8129V54.8125ZM38.3898 14.6451C36.6172 16.9139 35.0062 19.6534 33.6045 22.8263C33.5254 22.824 33.4468 22.8203 33.3672 22.8203C28.3404 22.8203 24.5358 27.491 25.6502 32.4614C21.3051 34.1051 17.5943 36.173 14.6546 38.5352C18.6604 27.459 27.3996 18.6617 38.3898 14.6451ZM36.0039 30.7305C36.0039 32.1844 34.8211 33.3672 33.3672 33.3672C31.9133 33.3672 30.7305 32.1844 30.7305 30.7305C30.7305 29.2766 31.9133 28.0938 33.3672 28.0938C34.8211 28.0938 36.0039 29.2766 36.0039 30.7305ZM28.565 37.0103C28.8009 37.191 29.0465 37.3594 29.3021 37.5132C28.6575 41.2835 28.2563 45.4224 28.1345 49.5391H12.7027C14.2817 44.6483 20.1256 39.981 28.565 37.0103ZM28.1337 54.8125C28.2618 59.1814 28.7071 63.3637 29.4276 67.2829C20.609 64.3792 14.3489 59.8574 12.7039 54.8125H28.1337ZM14.614 65.5812C19.2071 69.1863 25.0984 71.6304 30.7756 73.1957C32.5781 79.7451 35.2087 85.2979 38.4242 89.388C27.3797 85.3986 18.6049 76.625 14.614 65.5812ZM49.1875 91.2803C42.9263 89.1795 38.77 80.8005 36.7028 74.5538C39.147 75.0068 41.6748 75.3503 44.2584 75.5774C44.9912 77.9754 46.8352 79.8919 49.1875 80.7262V91.2803ZM49.1875 65.8129C47.0549 66.5693 45.3411 68.2155 44.4933 70.3034C41.217 70.0056 38.0787 69.5112 35.1336 68.8492C34.1513 64.4668 33.5649 59.7282 33.4101 54.8125H49.1875V65.8129ZM49.1875 49.5391H33.4101C33.5279 45.7738 33.8928 42.0023 34.4732 38.5617C37.1287 38.1883 39.3657 36.4931 40.4928 34.1633C43.3206 33.7557 46.2319 33.5069 49.1875 33.4129V49.5391ZM49.1875 28.1373C46.4258 28.22 43.6984 28.4312 41.0316 28.7716C40.6248 27.1809 39.7335 25.7833 38.5264 24.742C41.4139 18.3082 45.2155 14.0464 49.1875 12.7187V28.1373ZM51.8242 75.9062C50.3809 75.9062 49.2063 74.7403 49.1891 73.3012C49.1898 73.291 49.1919 73.2811 49.1924 73.2708C49.1951 73.2272 49.1933 73.1845 49.194 73.1414C49.2615 71.7471 50.4136 70.6328 51.8242 70.6328C53.2349 70.6328 54.3869 71.7471 54.4544 73.1414C54.455 73.1846 54.4532 73.2273 54.456 73.2708C54.4567 73.2811 54.4587 73.291 54.4594 73.3012C54.4421 74.7403 53.2676 75.9062 51.8242 75.9062ZM54.4609 91.2957V80.7262C56.8132 79.8919 58.657 77.9755 59.39 75.5775C62.0698 75.3425 64.6916 74.9825 67.226 74.5065C65.0939 80.8055 60.775 89.2454 54.4609 91.2957ZM65.3501 89.3855C69.0555 84.7415 71.5666 78.8065 73.1632 73.1347C78.8221 71.5641 84.7793 69.0984 89.4015 65.4793C85.3933 76.5686 76.5238 85.3828 65.3501 89.3855ZM74.5489 67.207C75.005 64.7886 75.3494 62.2913 75.5761 59.7419C77.9748 59.0093 79.8917 57.13 80.7262 54.7773H91.2778C89.1907 60.9374 80.7633 65.1409 74.5489 67.207ZM80.7262 49.5391C79.8917 47.1864 77.9748 45.3423 75.5763 44.6096C75.342 41.9678 74.9811 39.3796 74.5023 36.874C80.7967 39.0247 89.1769 43.2999 91.278 49.5391H80.7262Z" fill="#5DAC0D"/>
</svg>
