<svg width="50" height="42" viewBox="0 0 50 42" fill="none" xmlns="http://www.w3.org/2000/svg">
<g clip-path="url(#clip0_28_929)">
<path d="M37.0473 8.94611V23.3938C37.0476 24.4149 36.7918 25.4197 36.3032 26.3169C36.0196 26.836 35.6628 27.3119 35.2437 27.7299C35.1054 27.8679 34.9591 28.0002 34.807 28.1257C34.655 28.2512 34.4973 28.3686 34.3338 28.4781C34.1704 28.5876 34.0012 28.6914 33.8275 28.786C33.4764 28.9768 33.1073 29.1327 32.7256 29.2514C32.5336 29.3107 32.337 29.3654 32.137 29.403C31.9352 29.4444 31.7315 29.4752 31.5266 29.4954C31.3178 29.5174 31.1079 29.5284 30.8979 29.5285H17.9944C17.9521 29.5401 17.9108 29.5554 17.871 29.5741C17.8309 29.5934 17.7926 29.6163 17.7567 29.6425L17.4047 29.8775L16.3222 30.6063L15.5747 31.1092L14.7986 31.6293C14.8146 31.6681 14.8329 31.7057 14.85 31.7433C15.1468 32.4315 15.6139 33.0332 16.2074 33.492C16.801 33.9508 17.5016 34.2517 18.2436 34.3664C18.3579 34.3836 18.4642 34.3961 18.5762 34.4052C18.6883 34.4144 18.8048 34.4189 18.9134 34.4189H31.9541C32.0021 34.4246 32.0501 34.4315 32.097 34.4406C32.2388 34.4659 32.3781 34.504 32.513 34.5546C32.6929 34.623 32.8634 34.7139 33.0205 34.8249L33.3908 35.0758C33.7646 35.3279 34.143 35.5834 34.5339 35.8445L35.326 36.3771L35.8975 36.7626C37.0896 37.561 38.3938 38.4266 39.8912 39.4188C39.9674 39.469 40.0436 39.5158 40.1198 39.5591C40.2747 39.6449 40.4373 39.7159 40.6056 39.7712C40.6901 39.7986 40.7759 39.8225 40.8627 39.8419C40.921 39.8533 40.977 39.8613 41.0376 39.867C41.0982 39.8727 41.1428 39.875 41.1965 39.875C41.29 39.8747 41.3833 39.8663 41.4754 39.8499C41.5664 39.8339 41.6558 39.8102 41.7429 39.7792C41.8302 39.7485 41.9147 39.7103 41.9955 39.6652C42.0758 39.6185 42.1522 39.5655 42.2241 39.5066C42.3316 39.4167 42.4286 39.3149 42.5132 39.2033C42.5976 39.0932 42.6696 38.9742 42.7281 38.8486C42.7857 38.7228 42.8298 38.5913 42.8596 38.4562C42.8747 38.3881 42.8858 38.3192 42.8927 38.2498C42.9002 38.1801 42.9036 38.1101 42.903 38.04C42.9122 37.1173 42.9099 36.2152 42.903 35.2515V34.4189H43.9637C44.1164 34.4191 44.2691 34.4111 44.4209 34.395C44.9299 34.3433 45.4261 34.204 45.8874 33.9832C46.0803 33.8901 46.2663 33.7833 46.4441 33.6639C46.5035 33.624 46.5584 33.5829 46.6178 33.5396C46.7317 33.4552 46.8412 33.365 46.9459 33.2693C47.1036 33.1282 47.2507 32.9758 47.3859 32.8131C47.5674 32.5939 47.7274 32.3579 47.8637 32.1083C47.9323 31.9828 47.994 31.854 48.05 31.7217C48.106 31.5894 48.1563 31.4536 48.1997 31.3156C48.2215 31.2461 48.2409 31.1765 48.2592 31.1058C48.2935 30.9746 48.3209 30.8423 48.3426 30.7066C48.3563 30.6234 48.3678 30.5378 48.3769 30.4523C48.3918 30.304 48.3998 30.1535 48.3998 29.9961V13.3712C48.3989 12.1987 47.9319 11.0743 47.1014 10.2448C46.2709 9.41526 45.1446 8.94822 43.9694 8.94611H37.0473Z" fill="#5DAC0D"/>
<path d="M35.383 5.82459C35.3464 5.68317 35.303 5.54517 35.2538 5.40945C35.0809 4.93982 34.8293 4.50289 34.5098 4.11728C34.4195 4.00323 34.3234 3.90287 34.224 3.8025C34.1246 3.70214 34.0183 3.60748 33.9085 3.51738C33.6889 3.33631 33.4523 3.17668 33.2021 3.04066C33.0124 2.93851 32.8157 2.84972 32.6135 2.77492C32.4775 2.72588 32.3392 2.68254 32.1974 2.64605C32.0557 2.60955 31.9117 2.5799 31.7642 2.55709C31.6168 2.53428 31.4693 2.51945 31.3185 2.51147C31.2419 2.51147 31.1664 2.50577 31.0899 2.50577H6.03385C5.95727 2.50577 5.88183 2.50577 5.80525 2.51147C5.65437 2.51945 5.50578 2.53542 5.35947 2.55709C5.21316 2.57876 5.068 2.60955 4.92627 2.64605C4.78453 2.68254 4.64623 2.72588 4.51021 2.77492C4.03954 2.94752 3.60165 3.19857 3.21518 3.51738C3.10088 3.60748 3.00029 3.70328 2.8997 3.8025C2.48748 4.21277 2.16048 4.7002 1.93746 5.23684C1.71444 5.77348 1.5998 6.34877 1.6001 6.92972V23.5546C1.6 24.2071 1.74478 24.8515 2.02404 25.4416C2.30329 26.0316 2.71009 26.5525 3.21518 26.967C3.37948 27.1029 3.5537 27.2264 3.73639 27.3365C3.79697 27.3741 3.85869 27.4095 3.92156 27.4437C4.04729 27.511 4.17645 27.5737 4.30904 27.6296C4.44163 27.6855 4.57765 27.7357 4.71595 27.779C4.99787 27.8661 5.28769 27.9253 5.58121 27.9558C5.72981 27.9706 5.88068 27.9786 6.03842 27.9786H7.09914V28.8123V29.5228C7.09914 29.9915 7.09914 30.4512 7.09914 30.9108V31.6008C7.09566 31.8802 7.15422 32.1569 7.27062 32.4111C7.38702 32.6653 7.55837 32.8906 7.77237 33.0709C8.06218 33.3089 8.42569 33.4395 8.80108 33.4404C8.91312 33.4406 9.0249 33.4299 9.13484 33.4084C9.39483 33.3503 9.64506 33.255 9.8778 33.1256C9.954 33.0823 10.0302 33.0355 10.1064 32.9853L10.6208 32.6432L12.0792 31.6749L12.8794 31.1411L12.9845 31.0704L13.8486 30.4945L14.6739 29.9425L15.466 29.4099C15.9849 29.0609 16.4867 28.7256 16.9782 28.3903C17.1747 28.2513 17.3918 28.1439 17.6217 28.0721C17.7595 28.0285 17.9011 27.998 18.0446 27.9809H31.0899C31.4635 27.981 31.8357 27.9338 32.1974 27.8406C32.2866 27.8178 32.3735 27.7915 32.4603 27.763C32.5472 27.7345 32.6604 27.6946 32.7575 27.6547L32.9038 27.592C33.0055 27.5463 33.105 27.4984 33.2021 27.446C33.265 27.4118 33.3267 27.3764 33.3873 27.3388C33.632 27.1919 33.8617 27.0215 34.0731 26.8301C34.5307 26.4157 34.8964 25.9105 35.1468 25.3468C35.3971 24.7831 35.5267 24.1735 35.527 23.5569V6.92972C35.526 6.55675 35.4776 6.18541 35.383 5.82459ZM20.1878 18.9892C20.111 19.0662 20.0237 19.1319 19.9283 19.1843C19.8969 19.2024 19.8644 19.2188 19.8312 19.2333C19.6932 19.2934 19.545 19.3267 19.3945 19.3314H9.03997C9.01254 19.3314 8.98625 19.3314 8.95996 19.3314H8.90281C8.88224 19.3314 8.86281 19.3314 8.84223 19.3246L8.78737 19.3166L8.72907 19.3029L8.67535 19.2892C8.65636 19.2841 8.63766 19.2781 8.61935 19.2709L8.57248 19.2481C8.55419 19.2413 8.53705 19.2322 8.51876 19.2242L8.47075 19.2014L8.41932 19.1729C8.40332 19.1637 8.38846 19.1558 8.3736 19.1455C8.35651 19.1351 8.34009 19.1237 8.32445 19.1113L8.28216 19.0816L8.22958 19.0428L8.19072 19.0086C8.17586 18.9949 8.16214 18.9801 8.14842 18.9653L8.11528 18.9288C8.1027 18.914 8.09013 18.8969 8.07756 18.8809C8.06498 18.8649 8.05584 18.8547 8.0467 18.841C8.03755 18.8273 8.02384 18.8068 8.0124 18.7897L7.98497 18.7475C7.97469 18.7292 7.96554 18.7098 7.9564 18.6916C7.94725 18.6733 7.9404 18.6619 7.93354 18.6471C7.92668 18.6323 7.91753 18.606 7.90953 18.5855C7.90153 18.565 7.89696 18.557 7.89125 18.5422C7.88553 18.5273 7.87867 18.4977 7.87181 18.4749C7.86496 18.4521 7.86267 18.4464 7.85924 18.4315C7.85581 18.4167 7.8501 18.3802 7.84552 18.3551C7.84259 18.3423 7.8403 18.3294 7.83867 18.3164C7.83867 18.2776 7.83067 18.2388 7.82838 18.2023C7.82366 18.048 7.84951 17.8944 7.90445 17.7501C7.95939 17.6058 8.04234 17.4738 8.14853 17.3616C8.25472 17.2494 8.38208 17.1592 8.52328 17.0962C8.66449 17.0332 8.81677 16.9987 8.97139 16.9945H19.3991C19.4374 16.9959 19.4755 16.9993 19.5134 17.0048C19.5912 17.0149 19.6678 17.0328 19.742 17.0584C19.9213 17.1205 20.0829 17.2249 20.2129 17.3629C20.4217 17.5848 20.5359 17.8791 20.5312 18.1834C20.5265 18.4878 20.4033 18.7784 20.1878 18.9938V18.9892ZM28.8747 13.1933C28.8233 13.2441 28.7674 13.2903 28.7078 13.3313C28.6178 13.3935 28.5193 13.4423 28.4152 13.4761C28.3075 13.5123 28.195 13.5322 28.0814 13.5354H9.03997C9.01254 13.5354 8.98625 13.5354 8.95996 13.5354H8.90281C8.88224 13.5354 8.86281 13.5354 8.84223 13.5286L8.78737 13.5206L8.72907 13.5069L8.67535 13.4932C8.65636 13.4882 8.63766 13.4821 8.61935 13.475L8.57248 13.4545C8.55419 13.4476 8.53705 13.4385 8.51876 13.4305L8.47075 13.4077L8.41932 13.3792C8.40332 13.3701 8.38846 13.3621 8.3736 13.3518C8.35651 13.3415 8.34009 13.33 8.32445 13.3176L8.28216 13.2879L8.23758 13.2492L8.19872 13.215C8.18386 13.2013 8.17014 13.1864 8.15642 13.1716L8.12099 13.134C8.10842 13.1192 8.09585 13.102 8.08327 13.0861C8.0707 13.0701 8.06155 13.0598 8.05241 13.0462C8.04327 13.0325 8.02955 13.0119 8.01812 12.9948L7.99069 12.9526C7.9804 12.9344 7.97126 12.915 7.96211 12.8968C7.95297 12.8785 7.94611 12.8671 7.93925 12.8523C7.93239 12.8375 7.92325 12.8112 7.91525 12.7907C7.90725 12.7702 7.90268 12.7622 7.89696 12.7474C7.89125 12.7325 7.88439 12.7029 7.87753 12.6801C7.87067 12.6573 7.86838 12.6516 7.86496 12.6367C7.86153 12.6219 7.85581 12.5854 7.85124 12.5603C7.8483 12.5475 7.84601 12.5346 7.84438 12.5215C7.84438 12.4828 7.83638 12.444 7.8341 12.4075C7.83167 12.328 7.83742 12.2485 7.85124 12.1703C7.86389 12.0923 7.88458 12.0159 7.91296 11.9422C7.97411 11.7832 8.06946 11.6395 8.1923 11.5213C8.31514 11.403 8.46247 11.3131 8.62392 11.2579C8.73437 11.2196 8.84996 11.1981 8.96682 11.194C8.99082 11.194 9.01597 11.194 9.03997 11.194H28.0814C28.2738 11.2004 28.4617 11.2539 28.6285 11.3498C28.7953 11.4456 28.936 11.5809 29.0381 11.7437C29.0784 11.8077 29.1124 11.8752 29.1399 11.9456C29.1677 12.0195 29.1884 12.0959 29.2016 12.1737C29.2156 12.2519 29.221 12.3315 29.2176 12.4109C29.2067 12.7056 29.0842 12.9852 28.8747 13.1933Z" fill="#DE5617"/>
<path d="M12.8795 31.1423L12.0794 31.676L10.6186 32.6443L10.1042 32.9865C10.028 33.0366 9.95184 33.0834 9.87564 33.1267C9.64289 33.2562 9.39267 33.3514 9.13268 33.4096C9.02274 33.4311 8.91095 33.4418 8.79892 33.4415C8.42417 33.4398 8.06154 33.3089 7.7725 33.0709C7.5587 32.8905 7.38757 32.6651 7.27137 32.411C7.15517 32.1568 7.09679 31.8801 7.1004 31.6008V30.9108C7.1004 30.4546 7.1004 29.9915 7.1004 29.5228V28.8123V27.9786H6.03397C5.88081 27.9786 5.72993 27.9706 5.57677 27.9558C5.28324 27.9253 4.99342 27.8661 4.7115 27.779C4.5732 27.7357 4.43718 27.6855 4.30459 27.6296C4.172 27.5737 4.04284 27.5155 3.91711 27.4437C3.85424 27.4095 3.79252 27.3741 3.73194 27.3365C3.54925 27.2264 3.37503 27.1029 3.21073 26.967C2.70647 26.5521 2.30054 26.0309 2.02209 25.4409C1.74364 24.851 1.59956 24.2068 1.60022 23.5546V6.92973C1.59992 6.34878 1.71456 5.77349 1.93758 5.23685C2.1606 4.70021 2.4876 4.21277 2.89983 3.80251C3.00041 3.70328 3.10557 3.60748 3.2153 3.51739C3.60177 3.19857 4.03966 2.94752 4.51033 2.77493C4.64635 2.72589 4.78466 2.68255 4.92639 2.64605C5.06812 2.60956 5.21214 2.5799 5.35959 2.55709C5.50704 2.53428 5.65449 2.51946 5.80537 2.51147C5.88195 2.51147 5.95739 2.50577 6.03397 2.50577H31.09C31.1666 2.50577 31.242 2.50577 31.3186 2.51147C31.4695 2.51946 31.6181 2.53542 31.7644 2.55709C31.9107 2.57876 32.0558 2.60956 32.1976 2.64605C32.3393 2.68255 32.4776 2.72589 32.6136 2.77493C32.8158 2.84972 33.0125 2.93852 33.2023 3.04066C33.4525 3.17668 33.689 3.33632 33.9087 3.51739C34.023 3.60748 34.1235 3.70328 34.2241 3.80251C34.3247 3.90173 34.4196 4.0078 34.5099 4.11728C34.8294 4.5029 35.081 4.93983 35.254 5.40946C35.3031 5.54517 35.3466 5.68317 35.3831 5.82459C35.4766 6.18557 35.5238 6.5569 35.5237 6.92973V7.34943H37.124V6.92973C37.12 5.33416 36.483 3.80506 35.3523 2.67682C34.2216 1.54858 32.6891 0.913003 31.09 0.909088L6.03397 0.909088C4.43507 0.913002 2.90275 1.54842 1.77205 2.67641C0.641338 3.80441 0.00422511 5.33321 0 6.92859L0 23.5546C0.00385535 25.0571 0.569019 26.5042 1.58507 27.6131C2.60111 28.722 3.99503 29.4131 5.49447 29.5513C5.49447 30.2425 5.49447 30.9199 5.49447 31.5973C5.491 32.1101 5.6012 32.6173 5.81719 33.0827C6.03317 33.548 6.34958 33.9599 6.74378 34.2889L6.75178 34.2957L6.76093 34.3026C7.33576 34.7749 8.05657 35.0344 8.80121 35.0371C9.01607 35.0373 9.23044 35.0167 9.4413 34.9755H9.46644H9.49045C10.0311 34.8533 10.5437 34.6304 11.0015 34.3186C11.8953 33.7255 12.7229 33.1781 13.5036 32.6569C13.4361 32.52 13.3733 32.3786 13.315 32.2337L12.8795 31.1423Z" fill="white"/>
<path d="M29.1401 11.9422C29.1126 11.8718 29.0786 11.8042 29.0383 11.7403C28.9577 11.6129 28.8533 11.5022 28.7309 11.4141C28.5412 11.2779 28.3152 11.2013 28.0816 11.194H9.04016C9.01616 11.194 8.99101 11.194 8.96701 11.194C8.85015 11.1981 8.73456 11.2196 8.6241 11.2579C8.46288 11.3135 8.31576 11.4036 8.19297 11.5218C8.07019 11.6399 7.9747 11.7834 7.91315 11.9422C7.88476 12.0159 7.86408 12.0923 7.85142 12.1703C7.8376 12.2485 7.83186 12.328 7.83428 12.4075C7.83428 12.4474 7.83428 12.4862 7.84457 12.5215C7.8462 12.5346 7.84849 12.5475 7.85142 12.5603C7.85142 12.5854 7.85943 12.6116 7.86514 12.6367C7.87086 12.6618 7.87428 12.6652 7.87771 12.6801C7.88114 12.6949 7.89029 12.7257 7.89714 12.7473C7.904 12.769 7.90972 12.777 7.91543 12.7907C7.92115 12.8044 7.93029 12.8329 7.93944 12.8523C7.94858 12.8717 7.9543 12.8819 7.9623 12.8967C7.9703 12.9116 7.98059 12.9344 7.99087 12.9526L8.0183 12.9948C8.02973 13.0119 8.04002 13.0302 8.05259 13.0462C8.06517 13.0621 8.07317 13.0735 8.08346 13.0861C8.09374 13.0986 8.1086 13.1191 8.12118 13.134L8.15661 13.1716C8.17033 13.1864 8.18404 13.2013 8.1989 13.2149L8.23776 13.2492L8.28234 13.2879L8.32463 13.3176C8.34028 13.33 8.35669 13.3414 8.37378 13.3518C8.38864 13.3621 8.4035 13.3701 8.4195 13.3792L8.47094 13.4077L8.51894 13.4305C8.53723 13.4385 8.55438 13.4476 8.57267 13.4544L8.6241 13.4727C8.64242 13.4798 8.66112 13.4859 8.68011 13.4909L8.73383 13.5046L8.79213 13.5183L8.84699 13.5263C8.86756 13.5263 8.887 13.5263 8.90757 13.5331H8.96472C8.99101 13.5331 9.0173 13.5331 9.04473 13.5331H28.0816C28.1952 13.53 28.3077 13.51 28.4154 13.4738C28.5195 13.44 28.618 13.3912 28.708 13.329C28.7676 13.288 28.8235 13.2418 28.8749 13.191C29.0865 12.9807 29.2092 12.6974 29.2178 12.3995C29.2212 12.3201 29.2158 12.2405 29.2018 12.1623C29.1881 12.0872 29.1674 12.0135 29.1401 11.9422Z" fill="white"/>
<path d="M20.2132 17.3584C20.0831 17.2204 19.9216 17.1159 19.7422 17.0539C19.6681 17.0283 19.5915 17.0103 19.5136 17.0003C19.4757 16.9948 19.4376 16.9914 19.3993 16.99H8.96705C8.81243 16.9941 8.66015 17.0287 8.51894 17.0917C8.37773 17.1547 8.25038 17.2448 8.14418 17.357C8.03799 17.4693 7.95504 17.6013 7.9001 17.7456C7.84517 17.8898 7.81931 18.0435 7.82403 18.1978C7.82403 18.2377 7.82403 18.2765 7.83432 18.3118C7.83595 18.3248 7.83824 18.3378 7.84118 18.3506C7.84118 18.3757 7.84918 18.4019 7.8549 18.427C7.86061 18.4521 7.86404 18.4555 7.86747 18.4703C7.8709 18.4852 7.88004 18.516 7.8869 18.5376C7.89376 18.5593 7.89947 18.5673 7.90519 18.581C7.9109 18.5947 7.92005 18.6232 7.92919 18.6426C7.93834 18.6619 7.94405 18.6722 7.95205 18.687C7.96005 18.7019 7.97034 18.7247 7.98063 18.7429L8.00806 18.7851C8.01949 18.8022 8.02978 18.8205 8.04235 18.8364C8.05492 18.8524 8.06292 18.8638 8.07321 18.8764C8.0835 18.8889 8.09836 18.9094 8.11093 18.9243L8.14636 18.9619C8.16008 18.9767 8.1738 18.9915 8.18866 19.0052L8.22752 19.0394L8.2721 19.0782L8.31439 19.1079C8.33003 19.1203 8.34645 19.1317 8.36354 19.1421C8.3784 19.1524 8.39325 19.1603 8.40926 19.1695L8.46069 19.198L8.5087 19.2208C8.52699 19.2288 8.54413 19.2379 8.56242 19.2447L8.61386 19.263C8.63217 19.2701 8.65087 19.2762 8.66986 19.2812L8.72359 19.2949L8.78188 19.3086L8.83674 19.3166C8.85732 19.3166 8.87675 19.3166 8.89732 19.3234H8.95447C8.98076 19.3234 9.00705 19.3234 9.03449 19.3234H19.389C19.5395 19.3188 19.6877 19.2855 19.8257 19.2253C19.859 19.2108 19.8914 19.1945 19.9228 19.1763C20.0182 19.124 20.1056 19.0583 20.1823 18.9813C20.3984 18.7662 20.5219 18.4755 20.5266 18.1709C20.5313 17.8664 20.4168 17.572 20.2074 17.3504L20.2132 17.3584Z" fill="white"/>
<path d="M43.9728 7.34943H37.1239V8.94611H43.9694C45.1445 8.94822 46.2709 9.41526 47.1014 10.2448C47.9319 11.0743 48.3988 12.1987 48.3997 13.3712V29.9915C48.3997 30.1444 48.3917 30.2949 48.3769 30.4477C48.3677 30.5333 48.3563 30.6188 48.3426 30.7021C48.3209 30.8378 48.2934 30.9701 48.2591 31.1012C48.2408 31.172 48.2214 31.2415 48.1997 31.3111C48.1563 31.4491 48.106 31.5848 48.05 31.7171C47.994 31.8494 47.9357 31.9783 47.8637 32.1037C47.7273 32.3534 47.5673 32.5894 47.3859 32.8086C47.2506 32.9712 47.1035 33.1237 46.9458 33.2647C46.8412 33.3604 46.7317 33.4506 46.6178 33.535C46.5606 33.5784 46.5035 33.6194 46.444 33.6594C46.2663 33.7788 46.0803 33.8855 45.8874 33.9787C45.4258 34.2003 44.9293 34.3404 44.4198 34.3927C44.2679 34.4088 44.1153 34.4168 43.9625 34.4166H42.9018V35.2492C42.9087 36.2129 42.911 37.115 42.9018 38.0377C42.9024 38.1078 42.899 38.1778 42.8915 38.2475C42.8846 38.3169 42.8735 38.3859 42.8584 38.454C42.8286 38.589 42.7845 38.7205 42.7269 38.8463C42.6684 38.972 42.5964 39.0909 42.5121 39.201C42.4274 39.3127 42.3304 39.4144 42.2229 39.5044C42.151 39.5632 42.0746 39.6162 41.9943 39.6629C41.9135 39.708 41.829 39.7462 41.7417 39.7769C41.6547 39.808 41.5652 39.8316 41.4742 39.8476C41.3821 39.864 41.2888 39.8724 41.1953 39.8727C41.1416 39.8727 41.089 39.8727 41.0364 39.8648C40.9839 39.8568 40.9221 39.8511 40.8615 39.8397C40.7747 39.8203 40.689 39.7963 40.6044 39.769C40.4361 39.7136 40.2735 39.6426 40.1186 39.5568C40.0424 39.5135 39.9662 39.4667 39.89 39.4165C38.3926 38.4243 37.0885 37.5575 35.8963 36.7603L35.3248 36.3749L34.5327 35.8422C34.1429 35.5811 33.7646 35.3256 33.3897 35.0736L33.0193 34.8227C32.8622 34.7116 32.6917 34.6208 32.5118 34.5524C32.3769 34.5018 32.2377 34.4636 32.0958 34.4383C32.0489 34.4292 32.0009 34.4223 31.9529 34.4166H18.9134C18.7991 34.4166 18.6848 34.4166 18.5762 34.403C18.4676 34.3893 18.3476 34.3813 18.2436 34.3642C17.7013 34.2803 17.1793 34.097 16.7039 33.8236C15.8764 33.3494 15.2258 32.6197 14.85 31.7445L13.5012 32.6443C13.9955 33.6554 14.7647 34.5074 15.7211 35.1032C16.6775 35.6989 17.7825 36.0143 18.91 36.0133H31.8317C31.9277 36.0328 32.0187 36.0716 32.0992 36.1274L32.1106 36.1354L32.1221 36.1422C34.0652 37.4549 36.1809 38.8725 38.9984 40.7384C39.4566 41.052 39.9707 41.2753 40.5129 41.3964H40.5335H40.5541C40.7645 41.4382 40.9785 41.4596 41.193 41.4603H41.201C41.9468 41.458 42.6688 41.1985 43.2447 40.7258H43.2505H43.2562C43.6489 40.397 43.9643 39.9861 44.1802 39.5222C44.3961 39.0582 44.5071 38.5526 44.5055 38.0411C44.5112 37.4184 44.5135 36.7649 44.5055 35.9882C46.0033 35.8482 47.3951 35.1564 48.4095 34.048C49.4238 32.9395 49.988 31.4937 49.9919 29.9927V13.3712C49.988 11.7781 49.3531 10.2511 48.2256 9.1231C47.0981 7.9951 45.5695 7.35755 43.9728 7.34943Z" fill="#FBFBFB"/>
<path d="M14.7985 31.6327L15.5746 31.1126L16.3222 30.6097L17.4046 29.8809L17.7566 29.6426C17.7925 29.6163 17.8308 29.5934 17.8709 29.5741C17.9107 29.5554 17.952 29.5401 17.9944 29.5285H30.8979C31.1078 29.5284 31.3177 29.5174 31.5265 29.4954C31.7314 29.4752 31.9352 29.4444 32.1369 29.4031C32.3369 29.362 32.5335 29.3107 32.7255 29.2514C33.1072 29.1327 33.4763 28.9768 33.8274 28.7861C34.0011 28.691 34.1699 28.5884 34.3338 28.4781C34.4972 28.3641 34.6561 28.25 34.807 28.1257C34.9578 28.0014 35.1053 27.868 35.2436 27.73C35.6627 27.3119 36.0195 26.836 36.3032 26.3169C36.7917 25.4197 37.0475 24.4149 37.0473 23.3938V8.94611H37.1238V7.34943H35.5236V23.5581C35.5227 24.3183 35.3256 25.0656 34.9515 25.7279C34.5773 26.3903 34.0387 26.9454 33.3873 27.3399C33.3268 27.3776 33.265 27.4129 33.2022 27.4471C33.105 27.4996 33.0056 27.5475 32.9038 27.5931L32.7575 27.6558C32.6604 27.6957 32.5609 27.7311 32.4604 27.7642C32.3598 27.7972 32.2866 27.8189 32.1975 27.8417C31.8357 27.935 31.4635 27.9821 31.0899 27.982H18.0447C17.9011 27.9991 17.7595 28.0297 17.6218 28.0732C17.3919 28.145 17.1747 28.2524 16.9782 28.3914C16.4867 28.7245 15.985 29.0621 15.466 29.411L14.6739 29.9436L13.8487 30.4956L12.9846 31.0716L12.8794 31.1423L13.3126 32.2246C13.3709 32.3695 13.4338 32.5109 13.5012 32.6477L14.8499 31.7479C14.8328 31.7091 14.8145 31.6715 14.7985 31.6327Z" fill="white"/>
</g>
<defs>
<clipPath id="clip0_28_929">
<rect width="50" height="40.566" fill="white" transform="translate(0 0.909088)"/>
</clipPath>
</defs>
</svg>
