<svg width="22" height="17" viewBox="0 0 22 17" fill="none" xmlns="http://www.w3.org/2000/svg">
<path d="M4.6227 16.5723V15.4769C4.6227 15.057 4.36967 14.7832 3.9359 14.7832C3.71902 14.7832 3.48406 14.8562 3.3214 15.0935C3.19488 14.8927 3.01414 14.7832 2.74303 14.7832C2.5623 14.7832 2.38156 14.838 2.23697 15.0388V14.8197H1.85742V16.5723H2.23697V15.6047C2.23697 15.2943 2.39963 15.1483 2.65267 15.1483C2.9057 15.1483 3.03222 15.3126 3.03222 15.6047V16.5723H3.41177V15.6047C3.41177 15.2943 3.5925 15.1483 3.82746 15.1483C4.08049 15.1483 4.20701 15.3126 4.20701 15.6047V16.5723H4.6227ZM10.2436 14.8197H9.62913V14.2903H9.24958V14.8197H8.90618V15.1666H9.24958V15.9698C9.24958 16.3714 9.41225 16.6088 9.84601 16.6088C10.0087 16.6088 10.1894 16.554 10.3159 16.481L10.2075 16.1524C10.099 16.2254 9.97253 16.2436 9.88216 16.2436C9.70143 16.2436 9.62913 16.1341 9.62913 15.9516V15.1666H10.2436V14.8197ZM13.4608 14.7832C13.2439 14.7832 13.0993 14.8927 13.0089 15.0388V14.8197H12.6294V16.5723H13.0089V15.5864C13.0089 15.2943 13.1354 15.13 13.3704 15.13C13.4427 15.13 13.5331 15.1483 13.6054 15.1666L13.7138 14.8014C13.6415 14.7832 13.5331 14.7832 13.4608 14.7832ZM8.59893 14.9657C8.41819 14.8379 8.16516 14.7832 7.89405 14.7832C7.46028 14.7832 7.1711 15.0023 7.1711 15.3491C7.1711 15.6412 7.38799 15.8055 7.76753 15.8603L7.94827 15.8785C8.14708 15.915 8.25553 15.9698 8.25553 16.0611C8.25553 16.1889 8.11094 16.2802 7.8579 16.2802C7.60487 16.2802 7.40606 16.1889 7.27955 16.0976L7.09881 16.3897C7.29762 16.5357 7.56873 16.6088 7.83983 16.6088C8.3459 16.6088 8.63508 16.3714 8.63508 16.0428C8.63508 15.7325 8.40012 15.5682 8.03864 15.5134L7.8579 15.4952C7.69524 15.4769 7.56873 15.4404 7.56873 15.3309C7.56873 15.2031 7.69524 15.13 7.89405 15.13C8.11094 15.13 8.32782 15.2213 8.43626 15.2761L8.59893 14.9657ZM18.6841 14.7832C18.4672 14.7832 18.3226 14.8927 18.2322 15.0388V14.8197H17.8527V16.5723H18.2322V15.5864C18.2322 15.2943 18.3588 15.13 18.5937 15.13C18.666 15.13 18.7564 15.1483 18.8287 15.1666L18.9371 14.8014C18.8648 14.7832 18.7564 14.7832 18.6841 14.7832ZM13.8403 15.696C13.8403 16.2254 14.2018 16.6088 14.7621 16.6088C15.0151 16.6088 15.1958 16.554 15.3766 16.408L15.1958 16.0976C15.0513 16.2071 14.9067 16.2619 14.744 16.2619C14.4367 16.2619 14.2199 16.0428 14.2199 15.696C14.2199 15.3674 14.4367 15.1483 14.744 15.13C14.9067 15.13 15.0513 15.1848 15.1958 15.2943L15.3766 14.984C15.1958 14.838 15.0151 14.7832 14.7621 14.7832C14.2018 14.7832 13.8403 15.1666 13.8403 15.696ZM17.3466 15.696V14.8197H16.9671V15.0388C16.8406 14.8745 16.6598 14.7832 16.4249 14.7832C15.9369 14.7832 15.5573 15.1666 15.5573 15.696C15.5573 16.2254 15.9369 16.6088 16.4249 16.6088C16.6779 16.6088 16.8586 16.5175 16.9671 16.3532V16.5723H17.3466V15.696ZM15.9549 15.696C15.9549 15.3856 16.1538 15.13 16.4791 15.13C16.7863 15.13 17.0032 15.3674 17.0032 15.696C17.0032 16.0063 16.7863 16.2619 16.4791 16.2619C16.1538 16.2436 15.9549 16.0063 15.9549 15.696ZM11.4184 14.7832C10.9124 14.7832 10.5509 15.1483 10.5509 15.696C10.5509 16.2436 10.9124 16.6088 11.4365 16.6088C11.6895 16.6088 11.9426 16.5357 12.1414 16.3714L11.9606 16.0976C11.8161 16.2071 11.6353 16.2802 11.4546 16.2802C11.2196 16.2802 10.9847 16.1706 10.9304 15.8603H12.2137C12.2137 15.8055 12.2137 15.769 12.2137 15.7142C12.2318 15.1483 11.9064 14.7832 11.4184 14.7832ZM11.4184 15.1118C11.6534 15.1118 11.8161 15.2578 11.8522 15.5317H10.9485C10.9847 15.2943 11.1473 15.1118 11.4184 15.1118ZM20.8349 15.696V14.126H20.4553V15.0388C20.3288 14.8745 20.1481 14.7832 19.9131 14.7832C19.4251 14.7832 19.0456 15.1666 19.0456 15.696C19.0456 16.2254 19.4251 16.6088 19.9131 16.6088C20.1661 16.6088 20.3469 16.5175 20.4553 16.3532V16.5723H20.8349V15.696ZM19.4432 15.696C19.4432 15.3856 19.642 15.13 19.9673 15.13C20.2746 15.13 20.4915 15.3674 20.4915 15.696C20.4915 16.0063 20.2746 16.2619 19.9673 16.2619C19.642 16.2436 19.4432 16.0063 19.4432 15.696ZM6.75541 15.696V14.8197H6.37586V15.0388C6.24934 14.8745 6.06861 14.7832 5.83365 14.7832C5.34566 14.7832 4.9661 15.1666 4.9661 15.696C4.9661 16.2254 5.34566 16.6088 5.83365 16.6088C6.08668 16.6088 6.26742 16.5175 6.37586 16.3532V16.5723H6.75541V15.696ZM5.34565 15.696C5.34565 15.3856 5.54446 15.13 5.86979 15.13C6.17704 15.13 6.39393 15.3674 6.39393 15.696C6.39393 16.0063 6.17704 16.2619 5.86979 16.2619C5.54446 16.2436 5.34565 16.0063 5.34565 15.696Z" fill="black"/>
<path d="M14.1659 1.51123H8.47266V11.844H14.1659V1.51123Z" fill="#FF5F00"/>
<path d="M8.83384 6.67757C8.83384 4.57815 9.80982 2.71605 11.3099 1.51117C10.2074 0.63489 8.81576 0.105469 7.29757 0.105469C3.70089 0.105469 0.791016 3.04466 0.791016 6.67757C0.791016 10.3105 3.70089 13.2497 7.29757 13.2497C8.81576 13.2497 10.2074 12.7202 11.3099 11.844C9.80982 10.6573 8.83384 8.77699 8.83384 6.67757Z" fill="#EB001B"/>
<path d="M21.8471 6.67757C21.8471 10.3105 18.9372 13.2497 15.3405 13.2497C13.8223 13.2497 12.4306 12.7202 11.3281 11.844C12.8463 10.6391 13.8042 8.77699 13.8042 6.67757C13.8042 4.57815 12.8282 2.71605 11.3281 1.51117C12.4306 0.63489 13.8223 0.105469 15.3405 0.105469C18.9372 0.105469 21.8471 3.06291 21.8471 6.67757Z" fill="#F79E1B"/>
</svg>
