<svg width="41" height="13" viewBox="0 0 41 13" fill="none" xmlns="http://www.w3.org/2000/svg">
<g clip-path="url(#clip0)">
<path fill-rule="evenodd" clip-rule="evenodd" d="M11.2387 0.737549V0.742606C11.2337 0.742606 9.65544 0.737549 9.23458 2.25973C8.8488 3.65549 7.76158 7.509 7.73152 7.6152H7.43091C7.43091 7.6152 6.31864 3.67572 5.92784 2.25468C5.50699 0.732492 3.92376 0.737549 3.92376 0.737549H0.316406V12.3183H3.92376V5.44065H4.07406H4.22437L6.32866 12.3183H8.83377L10.9381 5.4457H11.2387V12.3183H14.846V0.737549H11.2387Z" fill="#4DB45E"/>
<path fill-rule="evenodd" clip-rule="evenodd" d="M24.4167 0.737305C24.4167 0.737305 23.3596 0.833389 22.8636 1.95101L20.3084 7.61495H20.0077V0.737305H16.4004V12.3181H19.8073C19.8073 12.3181 20.9146 12.2169 21.4106 11.1043L23.9157 5.4404H24.2163V12.3181H27.8237V0.737305H24.4167Z" fill="#4DB45E"/>
<path fill-rule="evenodd" clip-rule="evenodd" d="M29.4258 5.99658V12.318H33.0331V8.62627H36.9411C38.6446 8.62627 40.0875 7.52888 40.6236 5.99658H29.4258Z" fill="#4DB45E"/>
<path fill-rule="evenodd" clip-rule="evenodd" d="M36.9413 0.737305H28.9199C29.3207 2.9422 30.9591 4.71218 33.0784 5.28869C33.5594 5.42017 34.0654 5.49097 34.5865 5.49097H40.7691C40.8242 5.228 40.8492 4.95998 40.8492 4.68184C40.8492 2.50223 39.1007 0.737305 36.9413 0.737305Z" fill="url(#paint0_linear)"/>
</g>
<defs>
<linearGradient id="paint0_linear" x1="28.9209" y1="3.11414" x2="40.8492" y2="3.11414" gradientUnits="userSpaceOnUse">
<stop offset="0.3" stop-color="#00B4E6"/>
<stop offset="1" stop-color="#088CCB"/>
</linearGradient>
<clipPath id="clip0">
<rect x="0.316406" y="0.737549" width="40.5326" height="11.5807" fill="white"/>
</clipPath>
</defs>
</svg>
