<svg width="36" height="36" viewBox="0 0 36 36" fill="none" xmlns="http://www.w3.org/2000/svg">
<rect width="36" height="36" rx="3" fill="#4D8316"/>
<path d="M15.0281 28.9903C16.5444 28.9903 17.7736 27.7723 17.7736 26.2699C17.7736 24.7675 16.5444 23.5495 15.0281 23.5495C13.5118 23.5495 12.2826 24.7675 12.2826 26.2699C12.2826 27.7723 13.5118 28.9903 15.0281 28.9903Z" fill="white"/>
<path d="M23.8325 23.5185C22.306 23.3688 20.9515 24.4735 20.8005 25.986C20.6494 27.4985 21.7642 28.8406 23.2907 28.9903C23.473 29.0058 23.6554 29.0058 23.8325 28.9903C25.3589 28.8406 26.4738 27.4985 26.3227 25.986C26.1925 24.68 25.1505 23.6476 23.8325 23.5185Z" fill="white"/>
<path d="M29.485 13.1583C29.3496 12.957 29.1151 12.8383 28.8703 12.8434H25.8278V12.7918C25.833 9.59135 23.2178 7 19.993 7C16.7682 7 14.1529 9.59135 14.1529 12.7867V12.8383H11.8815L11.1052 9.35389C11.0219 8.99771 10.6989 8.74993 10.3342 8.74477H7V10.3295H9.69341L12.1732 21.6138C12.2409 21.9854 12.5692 22.2538 12.9443 22.2487H26.901C27.2709 22.2487 27.5887 21.9957 27.672 21.6396L29.6465 13.8139C29.7038 13.5868 29.6465 13.339 29.485 13.1583ZM19.9878 16.9886C17.6434 16.9886 15.7471 15.1096 15.7471 12.7867C15.7471 10.4637 17.6434 8.58475 19.9878 8.58475C22.3321 8.58475 24.2284 10.4637 24.2284 12.7867C24.218 15.1044 22.3269 16.9782 19.9878 16.9886Z" fill="white"/>
<path d="M19.3522 12.8692L17.883 11.3877L16.7369 12.4976L18.7635 14.5314C18.9093 14.6811 19.1125 14.7689 19.3261 14.7689C19.5345 14.7792 19.7377 14.7018 19.8888 14.5572L23.249 11.4135L22.155 10.2521L19.3522 12.8692Z" fill="white"/>
</svg>