<svg width="20" height="20" viewBox="0 0 20 20" fill="none" xmlns="http://www.w3.org/2000/svg">
<path d="M8.67834 10L4.19171 14.4871C4.06829 14.6106 4.0002 14.7754 4 14.9512C4 15.127 4.0681 15.292 4.19171 15.4153L4.58488 15.8084C4.70849 15.9322 4.87327 16 5.04917 16C5.22478 16 5.38956 15.9322 5.51317 15.8084L9.99981 11.3215L14.4866 15.8084C14.61 15.9322 14.7749 16 14.9507 16C15.1263 16 15.2912 15.9322 15.4146 15.8084L15.808 15.4153C16.064 15.1593 16.064 14.7428 15.808 14.4871L11.3213 10L15.808 5.51307C15.9315 5.38936 15.9995 5.22457 15.9995 5.04885C15.9995 4.87313 15.9315 4.70834 15.808 4.58472L15.4147 4.19162C15.2913 4.06791 15.1263 4 14.9508 4C14.775 4 14.6101 4.06791 14.4867 4.19162L9.9999 8.67855L5.51327 4.19162C5.38966 4.06791 5.22488 4 5.04927 4L5.04907 4C4.87337 4 4.70859 4.06791 4.58498 4.19162L4.19181 4.58472C4.06839 4.70824 4.00029 4.87313 4.00029 5.04885C4.00029 5.22457 4.06839 5.38936 4.19181 5.51298L8.67834 10Z" fill="#E31E1E"/>
</svg>
