<svg width="60" height="60" viewBox="0 0 60 60" fill="none" xmlns="http://www.w3.org/2000/svg">
<path d="M30 1C29.0616 1 28.3008 1.7608 28.3008 2.69922V13.6195C28.3008 14.558 29.0616 15.3188 30 15.3188C30.9384 15.3188 31.6992 14.558 31.6992 13.6195V2.69922C31.6992 1.7608 30.9384 1 30 1Z" fill="black"/>
<path d="M30 44.6814C29.0616 44.6814 28.3008 45.4422 28.3008 46.3806V57.3008C28.3008 58.2392 29.0616 59 30 59C30.9384 59 31.6992 58.2392 31.6992 57.3008V46.3806C31.6992 45.4421 30.9384 44.6814 30 44.6814Z" fill="black"/>
<path d="M23.2815 14.9644L17.8214 5.50712C17.3522 4.69433 16.313 4.41566 15.5002 4.88521C14.6876 5.35442 14.4091 6.39355 14.8783 7.20634L20.3385 16.6636C20.6532 17.2089 21.2243 17.5136 21.8116 17.5136C22.0999 17.5136 22.392 17.4402 22.6596 17.2855C23.4724 16.8163 23.7507 15.7772 23.2815 14.9644Z" fill="black"/>
<path d="M45.1233 52.7935L39.6632 43.3365C39.194 42.5237 38.1549 42.245 37.3421 42.7146C36.5294 43.1838 36.2508 44.2229 36.7202 45.0357L42.1802 54.4928C42.4949 55.038 43.0661 55.3427 43.6533 55.3427C43.9416 55.3427 44.2339 55.2693 44.5013 55.1147C45.314 54.6455 45.5926 53.6063 45.1233 52.7935Z" fill="black"/>
<path d="M16.6647 20.3385L7.20727 14.8781C6.39459 14.4085 5.35534 14.6872 4.88613 15.5C4.41692 16.3127 4.69537 17.3519 5.50805 17.8211L14.9654 23.2815C15.233 23.436 15.5252 23.5095 15.8135 23.5095C16.4007 23.5095 16.9719 23.2047 17.2866 22.6596C17.7558 21.8469 17.4773 20.8077 16.6647 20.3385Z" fill="black"/>
<path d="M54.4926 42.1789L45.0354 36.7189C44.2224 36.2494 43.1834 36.5282 42.7143 37.3408C42.2451 38.1536 42.5234 39.1929 43.3362 39.662L52.7934 45.1219C53.0609 45.2764 53.353 45.3499 53.6413 45.3499C54.2286 45.3499 54.7998 45.0451 55.1145 44.5C55.5837 43.6872 55.3054 42.648 54.4926 42.1789Z" fill="black"/>
<path d="M13.6196 28.301H2.69922C1.7608 28.301 1 29.0618 1 30.0002C1 30.9387 1.7608 31.6995 2.69922 31.6995H13.6196C14.5581 31.6995 15.3189 30.9387 15.3189 30.0002C15.3189 29.0618 14.5581 28.301 13.6196 28.301Z" fill="black"/>
<path d="M57.301 28.301H46.3809C45.4424 28.301 44.6816 29.0618 44.6816 30.0002C44.6816 30.9387 45.4424 31.6995 46.3809 31.6995H57.301C58.2394 31.6995 59.0002 30.9387 59.0002 30.0002C59.0002 29.0618 58.2394 28.301 57.301 28.301Z" fill="black"/>
<path d="M17.2866 37.3409C16.8175 36.5281 15.7784 36.2494 14.9654 36.719L5.50805 42.1791C4.69537 42.6483 4.41692 43.6874 4.88613 44.5002C5.20083 45.0455 5.77199 45.3502 6.35924 45.3502C6.64754 45.3502 6.9397 45.2768 7.20727 45.1222L16.6647 39.662C17.4773 39.1928 17.7558 38.1537 17.2866 37.3409Z" fill="black"/>
<path d="M55.1144 15.5002C54.6452 14.6874 53.6061 14.4089 52.7933 14.8783L43.3361 20.3385C42.5234 20.8077 42.2451 21.8468 42.7142 22.6596C43.0289 23.2048 43.6 23.5096 44.1874 23.5096C44.4756 23.5096 44.7678 23.4362 45.0353 23.2815L54.4925 17.8214C55.3053 17.3522 55.5836 16.3129 55.1144 15.5002Z" fill="black"/>
<path d="M22.6596 42.7146C21.8468 42.245 20.8076 42.5237 20.3385 43.3365L14.8783 52.7938C14.4091 53.6065 14.6876 54.6458 15.5002 55.1149C15.7678 55.2694 16.06 55.3429 16.3483 55.3429C16.9355 55.3429 17.5068 55.0381 17.8214 54.493L23.2815 45.0357C23.7507 44.223 23.4724 43.1838 22.6596 42.7146Z" fill="black"/>
<path d="M44.5013 4.88554C43.6886 4.41599 42.6493 4.69455 42.1802 5.50745L36.7202 14.9645C36.2508 15.7771 36.5294 16.8163 37.3421 17.2856C37.6097 17.4402 37.9018 17.5137 38.1901 17.5137C38.7774 17.5137 39.3485 17.209 39.6632 16.6637L45.1233 7.20667C45.5926 6.39399 45.314 5.35475 44.5013 4.88554Z" fill="black"/>
</svg>