<svg width="108" height="20" viewBox="0 0 108 20" fill="none" xmlns="http://www.w3.org/2000/svg">
<g clip-path="url(#clip0)">
<path d="M97.2734 0L99.5186 6.90983H106.784L100.906 11.1803L103.151 18.0902L97.2734 13.8197L91.3956 18.0902L93.6407 11.1803L87.7629 6.90983H95.0283L97.2734 0Z" fill="#999999"/>
<path d="M75.4531 0L77.6983 6.90983H84.9637L79.0858 11.1803L81.331 18.0902L75.4531 13.8197L69.5753 18.0902L71.8204 11.1803L65.9426 6.90983H73.208L75.4531 0Z" fill="#999999"/>
<path d="M54 0L56.2451 6.90983H63.5106L57.6327 11.1803L59.8779 18.0902L54 13.8197L48.1221 18.0902L50.3673 11.1803L44.4894 6.90983H51.7549L54 0Z" fill="#999999"/>
<path d="M31.8164 0L34.0615 6.90983H41.327L35.4491 11.1803L37.6943 18.0902L31.8164 13.8197L25.9386 18.0902L28.1837 11.1803L22.3058 6.90983H29.5713L31.8164 0Z" fill="#999999"/>
<path d="M10 0L12.2451 6.90983H19.5106L13.6327 11.1803L15.8779 18.0902L10 13.8197L4.12215 18.0902L6.36729 11.1803L0.489435 6.90983H7.75486L10 0Z" fill="#999999"/>
<path d="M97.2734 0L99.5186 6.90983H106.784L100.906 11.1803L103.151 18.0902L97.2734 13.8197L91.3956 18.0902L93.6407 11.1803L87.7629 6.90983H95.0283L97.2734 0Z" fill="#FFB800"/>
<path d="M75.4531 0L77.6983 6.90983H84.9637L79.0858 11.1803L81.331 18.0902L75.4531 13.8197L69.5753 18.0902L71.8204 11.1803L65.9426 6.90983H73.208L75.4531 0Z" fill="#FFB800"/>
<path d="M54 0L56.2451 6.90983H63.5106L57.6327 11.1803L59.8779 18.0902L54 13.8197L48.1221 18.0902L50.3673 11.1803L44.4894 6.90983H51.7549L54 0Z" fill="#FFB800"/>
<path d="M31.8164 0L34.0615 6.90983H41.327L35.4491 11.1803L37.6943 18.0902L31.8164 13.8197L25.9386 18.0902L28.1837 11.1803L22.3058 6.90983H29.5713L31.8164 0Z" fill="#FFB800"/>
<path d="M10 0L12.2451 6.90983H19.5106L13.6327 11.1803L15.8779 18.0902L10 13.8197L4.12215 18.0902L6.36729 11.1803L0.489435 6.90983H7.75486L10 0Z" fill="#FFB800"/>
</g>
<defs>
<clipPath id="clip0">
<rect width="107.273" height="20" fill="white"/>
</clipPath>
</defs>
</svg>
