<svg width="30" height="30" viewBox="0 0 30 30" fill="none" xmlns="http://www.w3.org/2000/svg">
<circle cx="15" cy="15" r="14.5" fill="white" stroke="#999999"/>
<g clip-path="url(#clip0)">
<path d="M20.2787 14.3034C20.2296 14.2954 20.1799 14.2917 20.1302 14.2924H11.6645L11.8491 14.2065C12.0295 14.1211 12.1937 14.0049 12.3342 13.8631L14.7082 11.4891C15.0208 11.1906 15.0734 10.7104 14.8327 10.3514C14.5525 9.96883 14.0153 9.88576 13.6327 10.1659C13.6018 10.1886 13.5724 10.2132 13.5448 10.2398L9.25182 14.5328C8.91632 14.8679 8.91603 15.4115 9.25115 15.747C9.25136 15.7472 9.2516 15.7475 9.25182 15.7477L13.5448 20.0406C13.8805 20.3755 14.4242 20.3747 14.759 20.039C14.7854 20.0125 14.81 19.9844 14.8327 19.9548C15.0734 19.5958 15.0208 19.1156 14.7082 18.8172L12.3385 16.4388C12.2125 16.3127 12.0677 16.207 11.9092 16.1255L11.6516 16.0095H20.083C20.5216 16.0258 20.9064 15.7195 20.9888 15.2883C21.0647 14.8203 20.7468 14.3793 20.2787 14.3034Z" fill="#999999"/>
</g>
<defs>
<clipPath id="clip0">
<rect width="20" height="20" fill="white" transform="translate(5 5)"/>
</clipPath>
</defs>
</svg>
