<svg width="30" height="30" viewBox="0 0 30 30" fill="none" xmlns="http://www.w3.org/2000/svg">
<circle cx="15" cy="15" r="14.5" fill="white" stroke="#999999"/>
<g clip-path="url(#clip0)">
<path d="M9.32527 15.9879C9.37437 15.9959 9.42406 15.9995 9.47378 15.9989L17.9395 15.9989L17.7549 16.0848C17.5745 16.1702 17.4104 16.2864 17.2698 16.4282L14.8958 18.8022C14.5832 19.1007 14.5306 19.5808 14.7713 19.9398C15.0515 20.3224 15.5887 20.4055 15.9713 20.1254C16.0022 20.1027 16.0316 20.078 16.0592 20.0515L20.3522 15.7585C20.6877 15.4234 20.688 14.8797 20.3529 14.5443C20.3526 14.544 20.3524 14.5438 20.3522 14.5436L16.0592 10.2506C15.7235 9.91579 15.1798 9.91654 14.845 10.2523C14.8186 10.2787 14.794 10.3069 14.7713 10.3365C14.5306 10.6955 14.5832 11.1756 14.8958 11.4741L17.2655 13.8524C17.3915 13.9785 17.5364 14.0843 17.6948 14.1658L17.9524 14.2817L9.52103 14.2817C9.08242 14.2654 8.69761 14.5718 8.61521 15.0029C8.53931 15.471 8.8572 15.912 9.32527 15.9879Z" fill="#999999"/>
</g>
<defs>
<clipPath id="clip0">
<rect width="20" height="20" fill="white" transform="translate(4.604 5)"/>
</clipPath>
</defs>
</svg>
