<svg xmlns="http://www.w3.org/2000/svg" viewBox="0 0 520.5 520.48"><defs><style>.cls-1{fill:#fff;}.cls-2{fill:#4e466c;stroke:#4e466c;stroke-miterlimit:10;stroke-width:7px;}</style></defs><title>Видео тонкий</title><g id="Layer_2" data-name="Layer 2"><g id="Layer_1-2" data-name="Layer 1"><path class="cls-1" d="M430.15,88.3a241.43,241.43,0,0,0-170-69.16A238.76,238.76,0,0,0,20.63,257.69a242,242,0,0,0,35.6,126.74l-29.86,109,112.27-28.72c38.12,23,80.36,35.11,122.37,35.11a234.76,234.76,0,0,0,93.14-19.18,242,242,0,0,0,76.37-52c45.69-46,70.85-106.66,70.85-170.94A235.45,235.45,0,0,0,430.15,88.3Z"/><path class="cls-2" d="M260.12,3.5C119.76,3.5,5,118.26,5,257.73c0,45.91,12.36,90,35.31,129.77L5,515.5l130.65-35.31c38,21.19,80.33,35.31,124.47,35.31C400.48,515.5,517,397.2,517,257.73S400.48,3.5,260.12,3.5ZM430.51,428.67a242,242,0,0,1-76.37,52A234.76,234.76,0,0,1,261,499.86c-42,0-84.25-12.13-122.37-35.11L26.36,493.47l29.86-109a242,242,0,0,1-35.6-126.74A238.76,238.76,0,0,1,260.12,19.14a241.43,241.43,0,0,1,170,69.16,235.45,235.45,0,0,1,71.22,169.43C501.36,322,476.2,382.71,430.51,428.67Z"/><path class="cls-2" d="M398.94,202.57l-.07,0a7.33,7.33,0,0,0-7.69.72L333.5,247.09v-38a7.38,7.38,0,0,0-7.37-7.36H127.37a7.4,7.4,0,0,0-7.37,7.37v164a7.41,7.41,0,0,0,7.38,7.37H326.13a7.4,7.4,0,0,0,7.37-7.38V335.17L391.18,379a7.32,7.32,0,0,0,4.42,1.5,7.46,7.46,0,0,0,3.16-.73c1.36-1.57,2.71-3.16,4-4.77a7.19,7.19,0,0,0,.25-1.86v-164A7.3,7.3,0,0,0,398.94,202.57ZM318.73,365.76h-184V216.5h184Zm69.52-7.47-54.76-41.65v-51L388.25,224Z"/><path class="cls-2" d="M261.11,149.62a73.78,73.78,0,0,0-38.74,11l-.15.1a6.87,6.87,0,0,0,6.93,11.86l.27-.16.17-.11a59.75,59.75,0,0,1,63,0,6.87,6.87,0,1,0,7.21-11.69A73.73,73.73,0,0,0,261.11,149.62Z"/><path class="cls-2" d="M170,151.07a6.89,6.89,0,0,0,4.34,1.58l.69,0a6.85,6.85,0,0,0,4.59-2.45,105.53,105.53,0,0,1,162.92,0,6.88,6.88,0,0,0,10.6-8.77l-.95-1.16a119.3,119.3,0,0,0-167-15,119.93,119.93,0,0,0-16.13,16.13,6.87,6.87,0,0,0,.91,9.68Z"/></g></g></svg>