<svg width="47" height="15" viewBox="0 0 47 15" fill="none" xmlns="http://www.w3.org/2000/svg">
<path d="M19.2482 0.685059L16.9688 14.8693H20.6121L22.8901 0.685059H19.2482ZM30.2376 6.46293C28.9645 5.83421 28.184 5.40987 28.184 4.76683C28.1995 4.18216 28.844 3.58318 30.2831 3.58318C31.4667 3.55344 32.3367 3.83161 32.9967 4.10838L33.3274 4.25595L33.8227 1.28825C33.1031 1.01008 31.962 0.703582 30.5527 0.703582C26.9549 0.703582 24.4215 2.57417 24.4057 5.24954C24.376 7.2238 26.2195 8.31935 27.5992 8.97656C29.0085 9.65073 29.4883 10.0878 29.4883 10.6868C29.4727 11.6065 28.3487 12.0308 27.2998 12.0308C25.8465 12.0308 25.0659 11.8123 23.8808 11.2998L23.4011 11.0813L22.8916 14.1654C23.7474 14.5458 25.3213 14.8807 26.955 14.8978C30.7786 14.8978 33.2665 13.0555 33.2978 10.2043C33.3102 8.64017 32.3381 7.4422 30.2376 6.46293ZM43.1629 0.728955H40.3441C39.4756 0.728955 38.8155 0.978793 38.4395 1.87011L33.0277 14.8693H36.8512L37.9043 12.0549H42.182L42.7284 14.8807H46.1007L43.1629 0.728955ZM38.9647 9.21472C39.0385 9.22188 40.4323 4.62051 40.4323 4.62051L41.5421 9.21472C41.5421 9.21472 39.6843 9.21472 38.9647 9.21472ZM13.9245 0.685059L10.3551 10.3219L9.96621 8.42147C9.3062 6.22865 7.23698 3.84578 4.92773 2.66212L8.19633 14.8551H12.0511L17.7794 0.686614H13.9245V0.685059Z" fill="#1A1F71"/>
<path d="M8.76495 2.5138C8.48678 1.43226 7.59966 0.702822 6.39484 0.687256H0.741811L0.683594 0.949702C5.09335 2.03685 8.79468 5.38203 9.99546 8.52858L8.76495 2.5138Z" fill="#EFC75E"/>
</svg>
