<svg width="33" height="32" viewBox="0 0 33 32" fill="none" xmlns="http://www.w3.org/2000/svg">
  <g clip-path="url(#clip0_1842_115564)">
    <path fill-rule="evenodd" clip-rule="evenodd" d="M31.5164 6.88724L31.6101 6.90567C32.1159 6.98861 32.5 7.43094 32.5 7.94699C32.5 8.51834 32.0223 8.9791 31.4415 8.9791H31.404H31.3946H31.329H31.3197H31.0386L28.1347 17.0517C28.4344 17.2452 28.6124 17.5677 28.6124 17.9179C28.6124 18.4892 28.1347 18.95 27.5539 18.95H27.5164H27.4508L27.3852 18.9592H10.7295L11.3665 20.9497H27.7506L27.8349 20.9589C28.3408 21.0419 28.7248 21.4842 28.7248 21.991C28.7248 22.5624 28.2471 23.0231 27.6663 23.0231H27.6288H27.5913H27.5632H27.5539H10.6171C10.13 23.0231 9.69906 22.7098 9.55855 22.2491L9.53045 22.1569L3.8911 4.65715H1.3993L1.29625 4.63872C0.837237 4.53735 0.5 4.13188 0.5 3.6619C0.5 3.1182 0.959016 2.66666 1.52108 2.66666H1.58665H1.87705H1.88642L5.47424 2.67587L6.85129 6.88724H31.5164ZM26.9075 14.1304L26.9824 13.9185L23.9379 13.9093L23.5445 16.8674H25.9614L25.9707 16.8305C26.1956 16.167 26.8981 14.1489 26.9075 14.1304ZM27.6756 11.8358L28.7155 8.96989H24.5843L24.2096 11.8358H27.6756ZM21.418 16.8766L21.8115 13.9185H19.0949V16.8766H21.418ZM22.0831 11.8358L22.4578 8.96989H19.1042V11.8358H22.0831ZM16.9871 16.8766V13.9185H14.4578L14.8513 16.8766H16.9871ZM16.9871 11.8358V8.96989H13.8115L14.1862 11.8358H16.9871ZM8.43443 11.8358H12.0597L11.685 8.96989H7.52576L8.43443 11.8358ZM10.055 16.8674H12.7248L12.3314 13.9185H9.11827L10.055 16.8674ZM24.4828 29.3246C25.7141 29.3246 26.7123 28.3262 26.7123 27.0946C26.7123 25.863 25.7141 24.8646 24.4828 24.8646C23.2515 24.8646 22.2533 25.863 22.2533 27.0946C22.2533 28.3262 23.2515 29.3246 24.4828 29.3246ZM12.6688 24.8734C11.4416 24.8734 10.4393 25.8759 10.4393 27.1034C10.4393 28.3308 11.4416 29.3334 12.6688 29.3334C13.896 29.3334 14.8983 28.3308 14.8983 27.1034C14.8889 25.8666 13.896 24.8734 12.6688 24.8734Z" fill="#9B9B9B"/>
  </g>
  <defs>
    <clipPath id="clip0_1842_115564">
      <rect width="32" height="32" fill="white" transform="translate(0.5)"/>
    </clipPath>
  </defs>
</svg>
