<svg width="32" height="32" viewBox="0 0 32 32" fill="none" xmlns="http://www.w3.org/2000/svg">
<path fill-rule="evenodd" clip-rule="evenodd" d="M4 27.4792L4 18.9504C4 17.9264 4.7471 17.0963 5.66869 17.0963C6.59027 17.0963 7.33738 17.9264 7.33738 18.9504L7.33738 27.4792C7.33738 28.5032 6.59027 29.3333 5.66869 29.3333C4.7471 29.3333 4 28.5032 4 27.4792ZM17.349 27.5957L17.349 13.2719C17.349 12.3123 18.1269 11.5343 19.0866 11.5343C20.0462 11.5343 20.8242 12.3123 20.8242 13.2719L20.8242 27.5957C20.8242 28.5554 20.0462 29.3333 19.0866 29.3333C18.1269 29.3333 17.349 28.5554 17.349 27.5957ZM10.6745 9.96666L10.6745 27.5957C10.6745 28.5554 11.4524 29.3333 12.4121 29.3333C13.3717 29.3333 14.1497 28.5554 14.1497 27.5957L14.1497 9.96665C14.1497 9.00701 13.3717 8.22905 12.4121 8.22905C11.4524 8.22905 10.6745 9.00701 10.6745 9.96666ZM24.0247 27.5957L24.0247 4.40436C24.0247 3.44471 24.8027 2.66675 25.7623 2.66675C26.722 2.66675 27.4999 3.44471 27.4999 4.40436L27.4999 27.5957C27.4999 28.5554 26.722 29.3333 25.7623 29.3333C24.8027 29.3333 24.0247 28.5554 24.0247 27.5957Z" fill="#9B9B9B"/>
</svg>
