<svg width="33" height="32" viewBox="0 0 33 32" fill="none" xmlns="http://www.w3.org/2000/svg">
<path d="M31.8117 25.756C31.7272 24.934 31.3302 24.1961 30.6545 23.6357L15.5177 11.1477C14.9856 10.5499 14.6646 9.76531 14.6646 9.02743V7.49561C14.6646 6.44949 15.467 5.60886 16.4553 5.60886C17.4436 5.60886 18.246 6.45883 18.246 7.49561V7.87857C18.2376 7.93461 18.2376 7.99065 18.2376 8.03735C18.2376 8.86864 18.8542 9.55049 19.606 9.55049C20.2648 9.55049 20.8223 9.03677 20.949 8.33624C20.9659 8.26152 20.9828 8.17746 20.9828 8.09339V7.49561C20.9828 4.83362 18.9556 2.66666 16.4638 2.66666C13.9719 2.66666 11.9447 4.83362 11.9447 7.49561V9.02743C11.9447 10.7741 12.7218 12.4647 14.0142 13.5388L14.1747 13.7163L28.7877 25.7933C28.9313 25.9148 28.9482 26.1109 28.8975 26.2604C28.8553 26.4005 28.7539 26.4845 28.6103 26.4845H4.5368C4.38476 26.4845 4.24961 26.3818 4.20737 26.2137C4.19048 26.1389 4.15669 25.9428 4.35942 25.7933L12.1643 19.2364C12.2234 19.1897 12.2826 19.143 12.3332 19.0963L12.4937 18.9562L12.4768 18.9375C12.6796 18.676 12.7894 18.3491 12.7978 18.0035C12.8063 17.6019 12.6796 17.2189 12.4262 16.9294C12.1728 16.6398 11.8349 16.4717 11.4717 16.4623C11.1253 16.453 10.7875 16.5838 10.5341 16.836L2.32372 23.7291C1.55506 24.3829 1.1665 25.2142 1.1665 26.2043C1.1665 27.9323 2.46732 29.3333 4.07222 29.3333H28.9144C29.8267 29.3333 30.6545 28.8756 31.2289 28.063C31.6934 27.4559 31.9046 26.634 31.8117 25.756Z" fill="#9B9B9B"/>
</svg>
