<svg width="33" height="32" viewBox="0 0 33 32" fill="none" xmlns="http://www.w3.org/2000/svg">
<path d="M28.6164 4.98387C27.1719 3.48889 25.2895 2.66666 23.3045 2.66666C20.8909 2.66666 18.6357 3.61971 16.5855 5.48843C15.5418 4.40457 13.3145 2.66666 9.85717 2.66666C5.35609 2.66666 1.8335 6.75916 1.8335 11.9916C1.8335 15.5982 3.66002 22.6246 15.9052 29.1465C16.0916 29.2399 16.2873 29.3333 16.5016 29.3333C16.716 29.3333 16.9117 29.2399 17.098 29.1371C29.3339 22.6994 31.1604 15.6262 31.1604 11.9916C31.2536 9.30997 30.3217 6.74981 28.6164 4.98387ZM15.4859 8.34757C15.7841 8.74 16.1755 8.94556 16.6601 8.94556C17.1446 8.94556 17.536 8.74935 17.8249 8.36626C17.8343 8.35692 17.8529 8.33823 17.8808 8.29151C18.5239 7.41321 20.3317 5.35762 23.3791 5.35762C26.7339 5.35762 28.5511 8.77738 28.5511 11.9916C28.5511 14.9815 27.1067 17.9528 24.2457 20.8213C21.7482 23.3254 18.7009 25.2128 16.5762 26.3714C14.4421 25.2128 11.3948 23.3254 8.90663 20.8213C6.04569 17.9528 4.60124 14.9909 4.60124 11.9916C4.60124 8.77738 6.47437 5.35762 9.94104 5.35762C12.4013 5.35762 14.498 6.86194 15.4859 8.34757Z" fill="#9B9B9B"/>
</svg>
