<svg width="32" height="32" viewBox="0 0 32 32" fill="none" xmlns="http://www.w3.org/2000/svg">
<path d="M25.537 18.6909C24.361 17.5147 22.931 16.6114 21.1717 15.9339C22.9498 14.4943 23.9753 12.396 23.9753 10.1565C23.9753 6.02581 20.4379 2.66666 16.0821 2.66666C13.9935 2.66666 12.0179 3.44764 10.5126 4.87787C9.00739 6.3081 8.1795 8.18057 8.1795 10.1565C8.1795 12.3207 9.20496 14.419 10.9924 15.9339C9.44015 16.5643 7.97253 17.4959 6.6178 18.6909C4.06827 21.0715 2.6665 24.2612 2.6665 27.6674V27.9685C2.68532 28.7119 3.28742 29.3141 4.03064 29.3329C4.80208 29.3517 5.45123 28.7307 5.47004 27.9685L5.47945 27.6674C5.47945 22.1818 10.1928 17.7217 15.988 17.7217C21.7832 17.7217 26.4966 22.1818 26.4966 27.6674V27.9685C26.5248 28.7307 27.1363 29.3329 27.9078 29.3329C28.6698 29.3329 29.2907 28.7307 29.3189 27.9685C29.3189 27.9591 29.3189 27.6957 29.3189 27.6769C29.4883 24.3177 28.1429 21.1279 25.537 18.6909ZM21.2282 10.2318C21.2282 12.857 18.9515 14.9836 16.1479 14.9836C13.3444 14.9836 11.0677 12.8476 11.0677 10.2318C11.0677 7.616 13.3444 5.48007 16.1479 5.48007C18.9515 5.48007 21.2282 7.60659 21.2282 10.2318Z" fill="#9B9B9B"/>
</svg>
