<svg width="8" height="12" viewBox="0 0 8 12" fill="none" xmlns="http://www.w3.org/2000/svg">
<path d="M1.04747 0.191808L0.651665 0.584884C0.528054 0.708592 0.459956 0.873178 0.459956 1.04908C0.459956 1.22489 0.528054 1.38967 0.651665 1.51338L5.1358 5.99732L0.646689 10.4864C0.523079 10.6099 0.455078 10.7747 0.455078 10.9505C0.455078 11.1263 0.523079 11.2912 0.646689 11.4148L1.04006 11.808C1.29587 12.064 1.71255 12.064 1.96836 11.808L7.3324 6.46317C7.45592 6.33966 7.54294 6.17507 7.54294 5.99771L7.54294 5.99566C7.54294 5.81975 7.45582 5.65517 7.3324 5.53165L1.98289 0.191808C1.85938 0.068099 1.68982 0.000195449 1.51401 9.07387e-07C1.33811 9.15076e-07 1.17089 0.068099 1.04747 0.191808Z" fill="#999999"/>
</svg>
