<svg width="8" height="12" viewBox="0 0 8 12" fill="none" xmlns="http://www.w3.org/2000/svg">
<path d="M7.16212 11.8082L7.55793 11.4151C7.68154 11.2914 7.74964 11.1268 7.74964 10.9509C7.74964 10.7751 7.68154 10.6103 7.55793 10.4866L3.0738 6.00268L7.56291 1.51357C7.68652 1.39006 7.75452 1.22528 7.75452 1.04947C7.75452 0.873666 7.68652 0.708786 7.56291 0.585175L7.16954 0.192002C6.91373 -0.0640006 6.49704 -0.0640006 6.24124 0.192001L0.877192 5.53682C0.753679 5.66034 0.666653 5.82492 0.666653 6.00229L0.666653 6.00434C0.666653 6.18024 0.753776 6.34483 0.877192 6.46834L6.2267 11.8082C6.35021 11.9319 6.51977 11.9998 6.69558 12C6.87148 12 7.03871 11.9319 7.16212 11.8082Z" fill="#999999"/>
</svg>
