<svg width="18" height="18" viewBox="0 0 18 18" fill="none" xmlns="http://www.w3.org/2000/svg">
<path d="M16.2 9.00002C16.2 10.9096 15.4414 12.7409 14.0912 14.0912C12.7409 15.4414 10.9096 16.2 9 16.2C7.09044 16.2 5.25909 15.4414 3.90883 14.0912C2.55857 12.7409 1.8 10.9096 1.8 9.00002C1.8 7.09047 2.55857 5.25912 3.90883 3.90886C5.25909 2.5586 7.09044 1.80004 9 1.80004C9.684 1.80004 10.35 1.89904 10.98 2.07904L12.393 0.666039C11.3169 0.222849 10.1638 -0.00347981 9 4.04417e-05C7.8181 4.04417e-05 6.64778 0.232832 5.55585 0.685123C4.46392 1.13741 3.47177 1.80035 2.63604 2.63607C0.948211 4.3239 0 6.61308 0 9.00002C0 11.387 0.948211 13.6761 2.63604 15.364C3.47177 16.1997 4.46392 16.8626 5.55585 17.3149C6.64778 17.7672 7.8181 18 9 18C11.3869 18 13.6761 17.0518 15.364 15.364C17.0518 13.6761 18 11.387 18 9.00002H16.2ZM5.319 7.27202L4.05 8.55002L8.1 12.6L17.1 3.60003L15.831 2.32203L8.1 10.053L5.319 7.27202Z" fill="#999999"/>
</svg>
