<svg width="12" height="8" viewBox="0 0 12 8" fill="none" xmlns="http://www.w3.org/2000/svg">
<path d="M11.8082 0.83785L11.4151 0.442042C11.2914 0.318431 11.1268 0.250333 10.9509 0.250333C10.7751 0.250333 10.6103 0.318431 10.4866 0.442042L6.00268 4.92617L1.51357 0.437065C1.39006 0.313454 1.22528 0.245453 1.04947 0.245453C0.873666 0.245453 0.708786 0.313454 0.585176 0.437064L0.192001 0.830433C-0.0640007 1.08624 -0.0640007 1.50293 0.192001 1.75873L5.53682 7.12278C5.66034 7.24629 5.82492 7.33332 6.00229 7.33332L6.00434 7.33332C6.18024 7.33332 6.34483 7.24619 6.46834 7.12278L11.8082 1.77327C11.9319 1.64976 11.9998 1.4802 12 1.30439C12 1.12849 11.9319 0.961266 11.8082 0.83785Z" fill="#2399E2"/>
</svg>