<svg width="14" height="14" viewBox="0 0 14 14" fill="none" xmlns="http://www.w3.org/2000/svg">
<circle cx="7" cy="7" r="7" fill="#FFE600"/>
<path d="M9.04094 3.524C9.04094 3.032 8.65694 2.648 8.16494 2.648C7.67294 2.648 7.25294 3.068 7.25294 3.56C7.25294 4.028 7.63694 4.424 8.11694 4.424C8.63294 4.424 9.04094 4.004 9.04094 3.524ZM8.60894 9.008C8.45294 9.38 8.26094 9.716 8.04494 9.992C7.84094 10.268 7.68494 10.4 7.58894 10.4C7.33694 10.4 7.34894 10.136 7.52894 9.464L8.02094 7.7C8.20094 7.028 8.29694 6.548 8.29694 6.272C8.29694 5.648 7.93694 5.336 7.22894 5.336C6.46094 5.336 5.76494 5.984 5.15294 7.28L5.51294 7.496C5.86094 6.716 6.31694 6.104 6.54494 6.104C6.66494 6.104 6.72494 6.176 6.72494 6.332C6.72494 6.488 6.67694 6.728 6.58094 7.052L6.08894 8.84C5.90894 9.524 5.81294 9.992 5.81294 10.232C5.81294 10.868 6.17294 11.18 6.89294 11.18C7.64894 11.18 8.34494 10.532 8.95694 9.224L8.60894 9.008Z" fill="white"/>
</svg>
