<svg width="18" height="18" viewBox="0 0 18 18" fill="none" xmlns="http://www.w3.org/2000/svg">
<path d="M6.95311 13.5273C6.29735 13.5273 5.76172 14.0364 5.76172 14.6598C5.76172 15.2831 6.29735 15.7923 6.95311 15.7923C7.60888 15.7923 8.14451 15.2831 8.14451 14.6598C8.1395 14.0317 7.60888 13.5273 6.95311 13.5273Z" fill="#5DAC0D"/>
<path d="M13.2656 15.7875C13.9236 15.7875 14.457 15.2804 14.457 14.655C14.457 14.0295 13.9236 13.5225 13.2656 13.5225C12.6076 13.5225 12.0742 14.0295 12.0742 14.655C12.0742 15.2804 12.6076 15.7875 13.2656 15.7875Z" fill="#5DAC0D"/>
<path d="M17.0746 4.43884L17.0246 4.42932H3.84417L3.1083 2.25476L1.19106 2.25H1.18606C1.17604 2.25 1.136 2.25 1.03087 2.25H0.995833C0.695482 2.25 0.450195 2.48316 0.450195 2.7639C0.450195 3.00658 0.630406 3.21594 0.875693 3.26829L0.930757 3.2778H2.26231L5.27584 12.3139L5.29086 12.3615C5.36594 12.5994 5.59621 12.7612 5.85652 12.7612H14.9071H14.9121C14.9171 12.7612 14.9221 12.7612 14.9271 12.7612C14.9321 12.7612 14.9371 12.7612 14.9472 12.7612C14.9522 12.7612 14.9622 12.7612 14.9672 12.7612C15.2775 12.7612 15.5328 12.5233 15.5328 12.2282C15.5328 11.9665 15.3276 11.7381 15.0573 11.6953L15.0122 11.6906H6.25699L5.91659 10.6628H14.817L14.852 10.658C14.8671 10.658 14.8721 10.658 14.8871 10.658C14.8921 10.658 14.9021 10.658 14.9071 10.658C15.2175 10.658 15.4728 10.4201 15.4728 10.1251C15.4728 9.94424 15.3777 9.7777 15.2175 9.67778L16.7693 5.50947H16.9195H16.9245C16.9395 5.50947 16.9445 5.50947 16.9595 5.50947H16.9645C16.9695 5.50947 16.9745 5.50947 16.9845 5.50947C17.2949 5.50947 17.5502 5.27155 17.5502 4.97653C17.5502 4.71006 17.345 4.48166 17.0746 4.43884ZM14.6017 8.05994L14.5617 8.16938C14.5567 8.1789 14.1813 9.22098 14.0611 9.56358L14.0561 9.58261H12.7646L12.9748 8.05518L14.6017 8.05994ZM15.5278 5.50471L14.9722 6.98455H13.12L13.3202 5.50471H15.5278ZM11.8385 8.05994L11.6283 9.58737H10.3868V8.05994H11.8385ZM12.1839 5.50471L11.9837 6.98455H10.3918V5.50471H12.1839ZM9.2605 8.05994V9.58737H8.11916L7.90892 8.05994H9.2605ZM9.2605 5.50471V6.98455H7.76375L7.56352 5.50471H9.2605ZM6.62742 6.98455H4.69015L4.20459 5.50471H6.42719L6.62742 6.98455ZM6.98284 9.58261H5.55617L5.05558 8.05994H6.77259L6.98284 9.58261Z" fill="#5DAC0D"/>
</svg>
