<svg width="14" height="14" viewBox="0 0 14 14" fill="none" xmlns="http://www.w3.org/2000/svg">
<path d="M7 0C3.13414 0 0 3.13414 0 7C0 10.8659 3.13414 14 7 14C10.8659 14 14 10.8659 14 7C14 3.13414 10.8659 0 7 0ZM10.5 10.9375C6.39844 10.9375 3.0625 7.60156 3.0625 3.5C3.0625 3.38397 3.10859 3.27269 3.19064 3.19064C3.27269 3.10859 3.38397 3.0625 3.5 3.0625H5.1152C5.23123 3.0625 5.34251 3.10859 5.42455 3.19064C5.5066 3.27269 5.5527 3.38397 5.5527 3.5C5.54963 4.24132 5.7174 4.97337 6.04297 5.63938C6.0683 5.69116 6.08314 5.74745 6.08665 5.80499C6.09015 5.86253 6.08225 5.9202 6.0634 5.97468C6.04454 6.02916 6.01511 6.07937 5.97678 6.12244C5.93846 6.16551 5.892 6.20057 5.84008 6.22563L5.18602 6.54063C5.72869 7.48612 6.51299 8.27033 7.45855 8.81289L7.77355 8.16102C7.79851 8.109 7.8335 8.06243 7.87653 8.02399C7.91955 7.98556 7.96975 7.95601 8.02424 7.93705C8.07873 7.91809 8.13643 7.9101 8.19402 7.91352C8.25161 7.91695 8.30795 7.93174 8.35981 7.95703C9.02615 8.28247 9.75844 8.45022 10.5 8.4473C10.616 8.4473 10.7273 8.4934 10.8094 8.57545C10.8914 8.65749 10.9375 8.76877 10.9375 8.8848V10.5C10.9375 10.616 10.8914 10.7273 10.8094 10.8094C10.7273 10.8914 10.616 10.9375 10.5 10.9375Z" fill="#5DAC0D"/>
</svg>
