<svg width="89" height="23" viewBox="0 0 89 23" fill="none" xmlns="http://www.w3.org/2000/svg">
<path d="M21.5183 4.47656C21.5594 3.88182 21.4724 3.28512 21.2634 2.72817C21.0544 2.17122 20.7285 1.66746 20.3084 1.25208C19.4616 0.417239 18.3534 0.0680629 16.9837 0.204549C16.5259 0.235799 16.0746 0.332279 15.6431 0.491169C15.2987 0.612953 14.9769 0.7929 14.6913 1.02346C14.4762 1.20397 14.2787 1.40508 14.1014 1.624C13.9701 1.77383 13.8698 1.94906 13.8064 2.13924C13.7696 2.28255 13.7696 2.37467 13.8064 2.41221C14.0459 2.70944 14.231 3.04807 14.3527 3.41197C14.5659 3.96136 14.7165 4.53377 14.8019 5.11804C14.9021 5.78186 14.8198 6.46098 14.5639 7.08002C14.2883 7.76255 13.7916 8.32849 13.1562 8.68373L10.227 1.06441V1.02346L10.1432 0.951809C10.1111 0.924516 10.071 0.908905 10.0293 0.907451H2.90726C2.75644 0.907451 2.69946 0.975694 2.73968 1.10877L7.30112 10.3523C5.39577 10.8862 3.64711 11.8853 2.20679 13.2628C0.814781 14.6072 0.0785609 16.0153 -0.00187589 17.4871C-0.0510948 18.0713 0.0194149 18.6596 0.205186 19.2147C0.390957 19.7697 0.687939 20.2794 1.07732 20.7115C1.4535 21.1452 1.91863 21.4894 2.43984 21.72C2.96106 21.9505 3.52564 22.0617 4.0937 22.0457C4.57307 22.0475 5.0492 21.9656 5.50134 21.8034C5.90588 21.6659 6.2861 21.4632 6.62746 21.2029C6.90946 20.9821 7.16884 20.7329 7.40166 20.459C7.58603 20.2497 7.73752 20.0126 7.85077 19.7561C7.93568 19.5469 7.9502 19.4036 7.89434 19.3262C7.67799 19.074 7.51079 18.7822 7.40166 18.4664C7.22696 18.008 7.10003 17.5322 7.02294 17.0469C6.93543 16.4578 7.01811 15.8556 7.2609 15.3135C7.54423 14.6662 7.99774 14.1113 8.57135 13.7098L11.6112 21.278C11.6154 21.3193 11.6353 21.3573 11.6665 21.3841C11.6978 21.4108 11.738 21.4242 11.7788 21.4213H19.3767C19.4906 21.4213 19.5175 21.3735 19.4605 21.278L14.5337 11.7547C16.4213 11.2276 18.1399 10.2051 19.5175 8.78951C20.8044 7.42237 21.4714 5.98472 21.5183 4.47656Z" fill="#8D8D8D"/>
<path d="M37.9589 6.91268C37.963 6.88265 37.957 6.85207 37.9418 6.826C37.9265 6.79994 37.903 6.77996 37.8751 6.76937H32.2445L32.1875 6.79667C32.1594 6.80195 32.1343 6.81778 32.1172 6.84102C32.1036 6.85361 32.0928 6.86889 32.0853 6.88591C32.0778 6.90293 32.0738 6.92133 32.0736 6.93998L31.8189 8.91902C31.048 7.09921 29.7621 6.1893 27.9612 6.1893C27.1101 6.17983 26.2681 6.36859 25.4996 6.74117C24.7311 7.11374 24.0564 7.66026 23.5272 8.33896C22.3069 9.83845 21.5563 11.6759 21.3721 13.6141C21.201 14.8838 21.2533 16.1744 21.5263 17.4255C21.7642 18.5813 22.3037 19.6504 23.0881 20.5203C23.4452 20.926 23.8838 21.2486 24.3742 21.4665C24.8646 21.6843 25.3953 21.7922 25.9302 21.7828C27.7892 21.7828 29.4035 20.7034 30.7732 18.5447C30.7788 18.9927 30.8727 19.435 31.0495 19.8453C31.2262 20.2556 31.4822 20.6255 31.8021 20.9332C32.4643 21.5282 33.326 21.841 34.2085 21.8067C34.9953 21.7959 35.7648 21.5709 36.4373 21.155C37.0403 20.8572 37.5336 20.3705 37.8449 19.7662C37.8739 19.7178 37.8869 19.6613 37.8821 19.6048C37.8772 19.5483 37.8548 19.4949 37.8181 19.4523C37.709 19.3533 37.5859 19.2716 37.4528 19.2101C37.2507 19.0892 37.0885 18.9099 36.9869 18.6948C36.8117 18.3349 36.6984 17.9472 36.6518 17.5483C36.5803 16.8368 36.5995 16.1189 36.7088 15.4123C36.8853 14.1021 37.302 11.2689 37.9589 6.91268ZM31.3999 13.9622C31.3117 14.947 31.0033 15.8982 30.4984 16.7431C30.0515 17.4687 29.4929 17.8315 28.8226 17.8315C28.1523 17.8315 27.6831 17.4687 27.4149 16.7431C27.1176 15.8488 27.0405 14.8939 27.1904 13.9622C27.2765 12.9746 27.5801 12.0194 28.0786 11.1676C28.5388 10.4329 29.0974 10.0655 29.7543 10.0655C30.4112 10.0655 30.8827 10.4329 31.1687 11.1676C31.4725 12.0651 31.552 13.0256 31.3999 13.9622Z" fill="#8D8D8D"/>
<path d="M55.8095 7.02537H55.8363C51.7997 6.14649 47.6263 6.14649 43.5898 7.02537C43.516 7.02537 43.4758 7.07314 43.4758 7.16868L43.3082 8.40047C43.2144 9.20346 43.0502 10.1736 42.8156 11.311C42.6398 12.2302 42.4001 13.1356 42.0983 14.0203C41.788 14.8632 41.3914 15.6707 40.9153 16.4292C40.61 16.9429 40.2354 17.4104 39.8025 17.818C39.492 18.075 39.2339 18.2945 39.0283 18.4765C38.8812 18.5814 38.7653 18.7254 38.6932 18.8928C38.6172 19.4092 38.8563 20.0632 39.4104 20.8548C39.9645 21.6464 40.8046 22.0434 41.9308 22.0456C44.259 22.0456 45.823 20.4021 46.6229 17.1151C47.2092 14.6729 47.5461 12.1756 47.6284 9.66296H49.9376L48.5299 21.2643C48.5299 21.3598 48.5668 21.4076 48.6439 21.4076H54.0767C54.1099 21.4025 54.14 21.385 54.1611 21.3585C54.1822 21.3319 54.1927 21.2983 54.1907 21.2643L55.9067 7.13456C55.8977 7.06177 55.8653 7.02537 55.8095 7.02537Z" fill="#8D8D8D"/>
<path d="M67.2646 -0.000211897C65.6996 0.0365533 64.1817 0.551303 62.9076 1.47725C61.5722 2.41916 60.4613 3.65394 59.6566 5.09071C58.8239 6.56993 58.1765 8.14954 57.7295 9.79265C57.2794 11.3917 57.047 13.0461 57.0391 14.7095C57.0391 16.7728 57.6211 18.4925 58.7852 19.8687C59.9493 21.2449 61.5536 21.9274 63.598 21.916C64.6324 21.9475 65.6627 21.7698 66.6292 21.3932C67.5957 21.0166 68.4792 20.4485 69.2286 19.722C70.7301 18.2593 71.4004 16.3917 71.2395 14.1192C71.1923 13.2191 70.8674 12.357 70.3112 11.6557C69.787 11.0006 69.089 10.5126 68.3002 10.2499C67.4823 9.97985 66.6262 9.84956 65.7665 9.8643C64.8896 9.87093 64.0194 10.0207 63.1891 10.3079L63.3299 9.73464C64.406 9.61826 65.4702 9.40705 66.5105 9.10339C69.156 8.3004 70.8172 7.02994 71.4943 5.29203C71.7501 4.6988 71.8407 4.04536 71.7562 3.40321C71.6716 2.76107 71.4152 2.15498 71.015 1.65127C70.1279 0.495687 68.8778 -0.0548062 67.2646 -0.000211897ZM63.6181 12.6861C63.8662 12.653 64.1175 12.653 64.3655 12.6861C65.6413 12.9136 66.2323 13.8497 66.1385 15.4943C66.0838 16.2171 65.8671 16.9174 65.5051 17.5416C65.1006 18.3059 64.58 18.6881 63.9432 18.6881C63.7155 18.6895 63.4922 18.6239 63.3002 18.4992C63.1081 18.3745 62.9555 18.196 62.8607 17.9852C62.5893 17.4346 62.459 16.8231 62.482 16.2075C62.482 15.4909 62.5054 14.8699 62.5523 14.3444C62.5993 13.819 62.6607 13.3265 62.7367 12.867L62.9914 12.809C63.1965 12.75 63.4062 12.7089 63.6181 12.6861ZM66.9697 4.53112C66.9179 4.8909 66.7772 5.23139 66.5608 5.52064C66.3487 5.83042 66.0974 6.11036 65.8134 6.3532C65.5309 6.58691 65.2343 6.8023 64.9252 6.9981C64.5968 7.20738 64.3733 7.34614 64.2549 7.41438L63.96 7.57134C64.666 5.02588 65.4302 3.75315 66.2524 3.75315C66.3542 3.73572 66.4586 3.74441 66.5562 3.77843C66.6538 3.81245 66.7415 3.87073 66.8114 3.94799C66.8813 4.02524 66.9311 4.11903 66.9564 4.22086C66.9817 4.32268 66.9817 4.42932 66.9563 4.53112H66.9697Z" fill="#8D8D8D"/>
<path d="M88.4796 19.2203C88.2776 19.0993 88.1154 18.92 88.0137 18.7051C87.8386 18.3451 87.7252 17.9574 87.6786 17.5586C87.607 16.847 87.6262 16.1291 87.7355 15.4226C87.9053 14.1055 88.3187 11.2677 88.9756 6.90926C88.9798 6.87923 88.9737 6.84865 88.9585 6.82259C88.9433 6.79652 88.9197 6.77654 88.8918 6.76595H83.2847L83.2277 6.79325C83.1996 6.79853 83.1745 6.81436 83.1573 6.83761C83.1438 6.85019 83.133 6.86547 83.1255 6.88249C83.118 6.89951 83.114 6.91791 83.1138 6.93656L82.8591 8.9156C82.0882 7.09579 80.8023 6.18589 79.0014 6.18589C78.1503 6.17641 77.3083 6.36518 76.5398 6.73775C75.7713 7.11032 75.0966 7.65684 74.5674 8.33554C73.3471 9.83503 72.5965 11.6725 72.4123 13.6107C72.241 14.8804 72.2932 16.171 72.5665 17.4221C72.8042 18.5779 73.3438 19.6471 74.1283 20.5169C74.4854 20.9225 74.924 21.2452 75.4144 21.4631C75.9048 21.6809 76.4355 21.7888 76.9704 21.7794C78.8294 21.7794 80.4437 20.7 81.8134 18.5413C81.819 18.9893 81.9129 19.4316 82.0897 19.8419C82.2664 20.2522 82.5224 20.6221 82.8423 20.9298C83.5045 21.5248 84.3661 21.8375 85.2487 21.8033C86.034 21.7929 86.8023 21.5691 87.4741 21.155C88.0771 20.8572 88.5705 20.3705 88.8818 19.7662C88.9107 19.7178 88.9237 19.6613 88.9189 19.6048C88.9141 19.5483 88.8917 19.4949 88.8549 19.4523C88.7421 19.356 88.6155 19.2778 88.4796 19.2203ZM82.4468 13.9622C82.3626 14.9459 82.0589 15.8971 81.5587 16.7431C81.0984 17.4687 80.5309 17.8315 79.8561 17.8315C79.1813 17.8315 78.7121 17.4687 78.4484 16.7431C78.1511 15.8488 78.074 14.8939 78.2239 13.9622C78.305 12.9759 78.6028 12.0209 79.0953 11.1676C79.5556 10.4329 80.1141 10.0655 80.771 10.0655C81.4279 10.0655 81.9016 10.4329 82.1921 11.1676C82.5038 12.0631 82.5914 13.0236 82.4468 13.9622Z" fill="#8D8D8D"/>
</svg>
