<svg width="18" height="18" viewBox="0 0 18 18" fill="none" xmlns="http://www.w3.org/2000/svg">
<path d="M15.364 2.63602C13.6642 0.936211 11.404 0 9 0C6.59602 0 4.33582 0.936211 2.63602 2.63602C0.936211 4.33582 0 6.59602 0 9C0 11.404 0.936211 13.6642 2.63602 15.364C4.33582 17.0638 6.59602 18 9 18C11.404 18 13.6642 17.0638 15.364 15.364C17.0638 13.6642 18 11.404 18 9C18 6.59602 17.0638 4.33582 15.364 2.63602ZM9 2.05945C11.9937 2.05945 14.5507 3.96461 15.5224 6.62618C13.4798 5.6488 11.2873 5.15355 9 5.15355C6.71273 5.15355 4.52022 5.6488 2.4776 6.62618C3.44925 3.96461 6.00627 2.05945 9 2.05945ZM9 10.6893C8.06836 10.6893 7.31074 9.93164 7.31074 9C7.31074 8.06836 8.06836 7.31074 9 7.31074C9.93164 7.31074 10.6893 8.06836 10.6893 9C10.6893 9.93164 9.93164 10.6893 9 10.6893ZM2.62002 11.7325L2.95031 11.5239C3.33914 11.2785 3.78879 11.1488 4.25145 11.1488C5.59723 11.1488 6.69199 12.2435 6.69199 13.5893C6.69199 14.0467 6.56508 14.4925 6.32461 14.8781L6.06755 15.2902C4.52718 14.5693 3.29337 13.2987 2.62002 11.7325ZM11.9324 15.2902L11.6754 14.8781C11.4349 14.4925 11.308 14.0467 11.308 13.5893C11.308 12.2435 12.4028 11.1488 13.7486 11.1488C14.2112 11.1488 14.6609 11.2785 15.0497 11.5239L15.38 11.7325C14.7066 13.2987 13.4728 14.5693 11.9324 15.2902Z" fill="#5DAC0D"/>
<path d="M9.00042 9.63462C9.35088 9.63462 9.63499 9.35051 9.63499 9.00005C9.63499 8.64959 9.35088 8.36548 9.00042 8.36548C8.64995 8.36548 8.36584 8.64959 8.36584 9.00005C8.36584 9.35051 8.64995 9.63462 9.00042 9.63462Z" fill="#5DAC0D"/>
</svg>
