<svg width="40" height="40" viewBox="0 0 40 40" fill="none" xmlns="http://www.w3.org/2000/svg">
<path d="M3 0.5H39.5V39.5H3C1.61929 39.5 0.5 38.3807 0.5 37V3C0.5 1.61929 1.61929 0.5 3 0.5Z" fill="#F7F7F7" stroke="#999999"/>
<mask id="path-2-inside-1" fill="white">
<path d="M11 16H29V28C29 28.5523 28.5523 29 28 29H12C11.4477 29 11 28.5523 11 28V16Z"/>
</mask>
<path d="M11 16H29V28C29 28.5523 28.5523 29 28 29H12C11.4477 29 11 28.5523 11 28V16Z" stroke="#5DAC0D" stroke-width="3" mask="url(#path-2-inside-1)"/>
<path d="M28.3234 12H26.0814V14.7849C26.0814 15.4081 25.5261 15.9158 24.843 15.9158H22.998C22.3148 15.9158 21.7595 15.4092 21.7595 14.7849V12H18.2416V14.7849C18.2416 15.4081 17.6852 15.9158 17.0031 15.9158H15.157C14.4739 15.9158 13.9186 15.4092 13.9186 14.7849V12H11.6755C11.3028 12 11 12.305 11 12.6805V17.3184H29V12.6805C29.0011 12.305 28.6972 12 28.3234 12Z" fill="#5DAC0D"/>
<path d="M15.5721 15H16.429C16.7439 15 17 14.778 17 14.505V10.495C17 10.2208 16.7439 10 16.429 10H15.5721C15.2561 10 15 10.2208 15 10.495V14.5062C15 14.778 15.2561 15 15.5721 15Z" fill="#5DAC0D"/>
<path d="M23.5717 15H24.4283C24.744 15 25 14.778 25 14.505V10.495C25 10.2208 24.7452 10 24.4283 10H23.5717C23.256 10 23 10.2208 23 10.495V14.5062C23.0022 14.778 23.256 15 23.5717 15Z" fill="#5DAC0D"/>
<path d="M24.0515 19.1097C23.8969 18.9634 23.6484 18.9634 23.4949 19.1097L18.8797 23.5092L16.5022 21.2265C16.3488 21.0814 16.1014 21.0814 15.948 21.2265L15.1142 22.0198C14.9619 22.1649 14.9619 22.4038 15.1142 22.5479L18.5991 25.8912C18.7514 26.0363 19.0011 26.0363 19.1545 25.8912L24.884 20.431C25.0387 20.2859 25.0387 20.047 24.884 19.9007L24.0515 19.1097Z" fill="#5DAC0D"/>
</svg>
