<svg width="20" height="20" viewBox="0 0 20 20" fill="none" xmlns="http://www.w3.org/2000/svg">
<circle cx="10" cy="10" r="9" fill="white" stroke="#2399E2" stroke-width="2"/>
<path d="M12.5512 5.655C12.5512 5.04 12.0712 4.56 11.4562 4.56C10.8412 4.56 10.3162 5.085 10.3162 5.7C10.3162 6.285 10.7962 6.78 11.3962 6.78C12.0412 6.78 12.5512 6.255 12.5512 5.655ZM12.0112 12.51C11.8162 12.975 11.5762 13.395 11.3062 13.74C11.0512 14.085 10.8562 14.25 10.7362 14.25C10.4212 14.25 10.4362 13.92 10.6612 13.08L11.2762 10.875C11.5012 10.035 11.6212 9.435 11.6212 9.09C11.6212 8.31 11.1712 7.92 10.2862 7.92C9.32617 7.92 8.45617 8.73 7.69117 10.35L8.14117 10.62C8.57617 9.645 9.14617 8.88 9.43117 8.88C9.58117 8.88 9.65617 8.97 9.65617 9.165C9.65617 9.36 9.59617 9.66 9.47617 10.065L8.86117 12.3C8.63617 13.155 8.51617 13.74 8.51617 14.04C8.51617 14.835 8.96617 15.225 9.86617 15.225C10.8112 15.225 11.6812 14.415 12.4462 12.78L12.0112 12.51Z" fill="#2399E2"/>
</svg>
