<svg width="12" height="14" viewBox="0 0 12 14" fill="none" xmlns="http://www.w3.org/2000/svg">
<path d="M9.51289 1.41484C8.50381 0.50425 7.1566 0 5.7143 0C4.27728 0 2.93008 0.50425 1.92099 1.41484C0.91191 2.32543 0.357178 3.54444 0.357178 4.84178C0.357178 6.32516 1.23418 8.25404 2.96706 10.5697C4.2403 12.2783 5.50298 13.5413 5.55581 13.5952L5.7143 13.7567L5.8728 13.5952C5.88336 13.5805 7.16717 12.3027 8.46154 10.5697C10.1944 8.25404 11.0714 6.32516 11.0714 4.84178C11.0767 3.54444 10.522 2.32543 9.51289 1.41484ZM7.36793 9.84023C6.76565 10.6431 6.16337 11.353 5.75657 11.8083L5.7143 11.8523L5.67204 11.8083C5.27052 11.353 4.66295 10.648 4.06067 9.84023C2.52327 7.77427 1.70967 6.04611 1.70967 4.84178C1.70967 3.88224 2.12175 2.98634 2.86668 2.31074C3.62217 1.63025 4.63125 1.25328 5.71958 1.25328C6.80263 1.25328 7.817 1.63025 8.57249 2.31074C9.31742 2.98634 9.7295 3.88224 9.7295 4.84178C9.72422 6.04611 8.91061 7.77427 7.36793 9.84023Z" fill="#DE5617"/>
<path d="M5.71432 2.81494C4.55731 2.81494 3.62219 3.68636 3.62219 4.75361C3.62219 5.82086 4.56259 6.69228 5.71432 6.69228C6.86605 6.69228 7.80645 5.82086 7.80645 4.75361C7.80645 3.68636 6.87133 2.81494 5.71432 2.81494Z" fill="#DE5617"/>
</svg>
