<svg width="19" height="25" viewBox="0 0 19 25" fill="none" xmlns="http://www.w3.org/2000/svg">
<path d="M15.6181 2.54921C13.9715 0.907937 11.7789 0 9.42423 0C7.07807 0 4.88548 0.907937 3.2389 2.54921C1.59233 4.19048 0.687988 6.38175 0.687988 8.72143C0.687988 11.3841 2.11275 14.8413 4.91961 18.9881C7.00129 22.0611 9.0915 24.3746 9.10857 24.3921L9.43276 24.75L9.75696 24.3921C9.77402 24.3659 11.8642 22.0611 13.9459 18.9881C16.7528 14.8413 18.1775 11.3929 18.1775 8.72143C18.169 6.38175 17.2647 4.19048 15.6181 2.54921ZM9.42423 11.777C7.58143 11.777 6.08842 10.2754 6.08842 8.43333C6.08842 6.59127 7.58143 5.08968 9.42423 5.08968C11.267 5.08968 12.76 6.59127 12.76 8.43333C12.76 10.2754 11.267 11.777 9.42423 11.777Z" fill="#DE5617"/>
</svg>
