<svg width="32" height="25" viewBox="0 0 32 25" fill="none" xmlns="http://www.w3.org/2000/svg">
<path d="M5.71884 24.7217V23.0867C5.71884 22.46 5.34116 22.0513 4.6937 22.0513C4.36997 22.0513 4.01927 22.1603 3.77647 22.5145C3.58763 22.2148 3.31786 22.0513 2.9132 22.0513C2.64342 22.0513 2.37365 22.133 2.15783 22.4328V22.1058H1.59131V24.7217H2.15783V23.2775C2.15783 22.8142 2.40063 22.5963 2.77831 22.5963C3.15599 22.5963 3.34484 22.8415 3.34484 23.2775V24.7217H3.91136V23.2775C3.91136 22.8142 4.18113 22.5963 4.53184 22.5963C4.90952 22.5963 5.09836 22.8415 5.09836 23.2775V24.7217H5.71884ZM14.1088 22.1058H13.1916V21.3156H12.625V22.1058H12.1125V22.6235H12.625V23.8225C12.625 24.4219 12.8678 24.7762 13.5153 24.7762C13.7581 24.7762 14.0279 24.6944 14.2167 24.5854L14.0548 24.095C13.893 24.204 13.7041 24.2312 13.5692 24.2312C13.2995 24.2312 13.1916 24.0677 13.1916 23.7952V22.6235H14.1088V22.1058ZM18.9108 22.0513C18.587 22.0513 18.3712 22.2148 18.2363 22.4328V22.1058H17.6698V24.7217H18.2363V23.2502C18.2363 22.8143 18.4252 22.569 18.7759 22.569C18.8838 22.569 19.0187 22.5963 19.1266 22.6235L19.2884 22.0785C19.1805 22.0513 19.0187 22.0513 18.9108 22.0513ZM11.6539 22.3238C11.3841 22.133 11.0064 22.0513 10.6017 22.0513C9.95428 22.0513 9.52264 22.3783 9.52264 22.896C9.52264 23.332 9.84637 23.5772 10.4129 23.659L10.6827 23.6862C10.9794 23.7407 11.1413 23.8225 11.1413 23.9587C11.1413 24.1495 10.9255 24.2857 10.5478 24.2857C10.1701 24.2857 9.87335 24.1495 9.68451 24.0132L9.41474 24.4492C9.71149 24.6672 10.1161 24.7762 10.5208 24.7762C11.2762 24.7762 11.7078 24.422 11.7078 23.9315C11.7078 23.4682 11.3571 23.223 10.8176 23.1412L10.5478 23.114C10.305 23.0867 10.1161 23.0322 10.1161 22.8687C10.1161 22.678 10.305 22.569 10.6017 22.569C10.9255 22.569 11.2492 22.7053 11.4111 22.787L11.6539 22.3238ZM26.7072 22.0513C26.3835 22.0513 26.1677 22.2148 26.0328 22.4328V22.1058H25.4662V24.7217H26.0328V23.2502C26.0328 22.8143 26.2216 22.569 26.5723 22.569C26.6802 22.569 26.8151 22.5963 26.923 22.6235L27.0849 22.0785C26.977 22.0513 26.8151 22.0513 26.7072 22.0513ZM19.4773 23.4137C19.4773 24.204 20.0168 24.7762 20.8531 24.7762C21.2308 24.7762 21.5006 24.6944 21.7704 24.4765L21.5006 24.0132C21.2848 24.1767 21.0689 24.2585 20.8261 24.2585C20.3675 24.2585 20.0438 23.9315 20.0438 23.4137C20.0438 22.9232 20.3675 22.5963 20.8261 22.569C21.0689 22.569 21.2848 22.6508 21.5006 22.8143L21.7704 22.351C21.5006 22.133 21.2308 22.0513 20.8531 22.0513C20.0168 22.0513 19.4773 22.6235 19.4773 23.4137ZM24.7109 23.4137V22.1058H24.1444V22.4328C23.9555 22.1875 23.6857 22.0513 23.335 22.0513C22.6067 22.0513 22.0401 22.6235 22.0401 23.4137C22.0401 24.204 22.6067 24.7762 23.335 24.7762C23.7127 24.7762 23.9825 24.6399 24.1444 24.3947V24.7217H24.7109V23.4137ZM22.6336 23.4137C22.6336 22.9505 22.9304 22.569 23.416 22.569C23.8746 22.569 24.1983 22.9232 24.1983 23.4137C24.1983 23.877 23.8746 24.2585 23.416 24.2585C22.9304 24.2312 22.6336 23.877 22.6336 23.4137ZM15.8623 22.0513C15.107 22.0513 14.5674 22.5963 14.5674 23.4137C14.5674 24.2312 15.107 24.7762 15.8893 24.7762C16.267 24.7762 16.6447 24.6672 16.9414 24.4219L16.6716 24.0132C16.4558 24.1767 16.186 24.2857 15.9163 24.2857C15.5656 24.2857 15.2149 24.1222 15.1339 23.659H17.0493C17.0493 23.5772 17.0493 23.5227 17.0493 23.441C17.0763 22.5963 16.5907 22.0513 15.8623 22.0513ZM15.8623 22.5418C16.213 22.5418 16.4558 22.7598 16.5098 23.1685H15.1609C15.2149 22.8142 15.4577 22.5418 15.8623 22.5418ZM29.9175 23.4137V21.0703H29.351V22.4328C29.1621 22.1875 28.8924 22.0513 28.5417 22.0513C27.8133 22.0513 27.2468 22.6235 27.2468 23.4137C27.2468 24.204 27.8133 24.7762 28.5417 24.7762C28.9193 24.7762 29.1891 24.6399 29.351 24.3947V24.7217H29.9175V23.4137ZM27.8403 23.4137C27.8403 22.9505 28.137 22.569 28.6226 22.569C29.0812 22.569 29.4049 22.9232 29.4049 23.4137C29.4049 23.877 29.0812 24.2585 28.6226 24.2585C28.137 24.2312 27.8403 23.877 27.8403 23.4137ZM8.90217 23.4137V22.1058H8.33564V22.4328C8.1468 22.1875 7.87703 22.0513 7.52632 22.0513C6.79793 22.0513 6.2314 22.6235 6.2314 23.4137C6.2314 24.204 6.79793 24.7762 7.52632 24.7762C7.904 24.7762 8.17378 24.6399 8.33564 24.3947V24.7217H8.90217V23.4137ZM6.79793 23.4137C6.79793 22.9505 7.09468 22.569 7.58027 22.569C8.03889 22.569 8.36262 22.9232 8.36262 23.4137C8.36262 23.877 8.03889 24.2585 7.58027 24.2585C7.09468 24.2312 6.79793 23.877 6.79793 23.4137Z" fill="black"/>
<path d="M19.9637 2.24121H11.4658V17.6642H19.9637V2.24121Z" fill="#FF5F00"/>
<path d="M12.0052 9.95275C12.0052 6.8191 13.4619 4.03969 15.7011 2.24125C14.0554 0.933294 11.9782 0.143066 9.71209 0.143066C4.3436 0.143066 0.000244141 4.53017 0.000244141 9.95275C0.000244141 15.3753 4.3436 19.7624 9.71209 19.7624C11.9782 19.7624 14.0554 18.9722 15.7011 17.6642C13.4619 15.8931 12.0052 13.0864 12.0052 9.95275Z" fill="#EB001B"/>
<path d="M31.4288 9.95275C31.4288 15.3753 27.0855 19.7624 21.717 19.7624C19.4509 19.7624 17.3736 18.9722 15.728 17.6642C17.9941 15.8658 19.4239 13.0864 19.4239 9.95275C19.4239 6.8191 17.9671 4.03969 15.728 2.24125C17.3736 0.933294 19.4509 0.143066 21.717 0.143066C27.0855 0.143066 31.4288 4.55742 31.4288 9.95275Z" fill="#F79E1B"/>
</svg>
