<svg width="61" height="18" viewBox="0 0 61 18" fill="none" xmlns="http://www.w3.org/2000/svg">
<g clip-path="url(#clip0)">
<path fill-rule="evenodd" clip-rule="evenodd" d="M16.7313 0.0712894V0.0788377C16.7238 0.0788377 14.3681 0.0712894 13.74 2.34334C13.1641 4.42669 11.5413 10.1785 11.4965 10.337H11.0477C11.0477 10.337 9.38755 4.45688 8.80424 2.33579C8.17606 0.063741 5.81289 0.0712894 5.81289 0.0712894H0.428467V17.357H5.81289V7.09125H6.03724H6.26159L9.40251 17.357H13.1417L16.2826 7.0988H16.7313V17.357H22.1157V0.0712894H16.7313Z" fill="#4DB45E"/>
<path fill-rule="evenodd" clip-rule="evenodd" d="M36.3987 0.0712891C36.3987 0.0712891 34.8208 0.214708 34.0804 1.88289L30.2665 10.337H29.8178V0.0712891H24.4333V17.357H29.5186C29.5186 17.357 31.1714 17.206 31.9117 15.5454L35.6509 7.09125H36.0996V17.357H41.484V0.0712891H36.3987Z" fill="#4DB45E"/>
<path fill-rule="evenodd" clip-rule="evenodd" d="M43.8774 7.92188V17.3573H49.2619V11.847H55.095C57.6376 11.847 59.7914 10.209 60.5916 7.92188H43.8774Z" fill="#4DB45E"/>
<path fill-rule="evenodd" clip-rule="evenodd" d="M55.0949 0.0712891H43.1221C43.7203 3.36237 46.1658 6.00429 49.3291 6.8648C50.047 7.06106 50.8024 7.16673 51.5801 7.16673H60.8084C60.8907 6.77422 60.9281 6.37416 60.9281 5.959C60.9281 2.70566 58.3181 0.0712891 55.0949 0.0712891Z" fill="url(#paint0_linear)"/>
</g>
<defs>
<linearGradient id="paint0_linear" x1="43.1235" y1="3.61901" x2="60.9281" y2="3.61901" gradientUnits="userSpaceOnUse">
<stop offset="0.3" stop-color="#00B4E6"/>
<stop offset="1" stop-color="#088CCB"/>
</linearGradient>
<clipPath id="clip0">
<rect width="60.5" height="17.2857" fill="white" transform="translate(0.428467 0.0712891)"/>
</clipPath>
</defs>
</svg>
