<svg width="40" height="40" viewBox="0 0 40 40" fill="none" xmlns="http://www.w3.org/2000/svg">
<g clip-path="url(#clip0)">
<path d="M21.9825 19.9994L28.7124 13.2692C28.8976 13.0839 28.9997 12.8367 29 12.5732C29 12.3095 28.8979 12.062 28.7124 11.877L28.1227 11.2874C27.9373 11.1017 27.6901 11 27.4262 11C27.1628 11 26.9157 11.1017 26.7302 11.2874L20.0003 18.0172L13.27 11.2874C13.0849 11.1017 12.8376 11 12.5739 11C12.3105 11 12.0632 11.1017 11.878 11.2874L11.288 11.877C10.904 12.261 10.904 12.8856 11.288 13.2692L18.0181 19.9994L11.288 26.7294C11.1027 26.9149 11.0007 27.1621 11.0007 27.4257C11.0007 27.6892 11.1027 27.9364 11.288 28.1218L11.8779 28.7114C12.063 28.897 12.3105 28.9988 12.5738 28.9988C12.8375 28.9988 13.0848 28.897 13.2699 28.7114L20.0001 21.9815L26.7301 28.7114C26.9155 28.897 27.1627 28.9988 27.4261 28.9988H27.4264C27.69 28.9988 27.9371 28.897 28.1225 28.7114L28.7123 28.1218C28.8974 27.9365 28.9996 27.6892 28.9996 27.4257C28.9996 27.1621 28.8974 26.9149 28.7123 26.7295L21.9825 19.9994Z" fill="black"/>
</g>
<defs>
<clipPath id="clip0">
<rect width="40" height="40" fill="white"/>
</clipPath>
</defs>
</svg>
