<svg width="24" height="24" viewBox="0 0 24 24" fill="none" xmlns="http://www.w3.org/2000/svg">
<path d="M12 22C17.5228 22 22 17.5229 22 12C22 6.47718 17.5228 2.00003 12 2.00003C6.47715 2.00003 2 6.47718 2 12C2 17.5229 6.47715 22 12 22Z" fill="#FFE600"/>
<path d="M8.52832 10.9865C9.21867 10.9865 9.77832 10.4117 9.77832 9.70268C9.77832 8.99367 9.21867 8.4189 8.52832 8.4189C7.83796 8.4189 7.27832 8.99367 7.27832 9.70268C7.27832 10.4117 7.83796 10.9865 8.52832 10.9865Z" fill="black"/>
<path d="M16.0283 10.9865C16.7187 10.9865 17.2783 10.4117 17.2783 9.70267C17.2783 8.99365 16.7187 8.41888 16.0283 8.41888C15.338 8.41888 14.7783 8.99365 14.7783 9.70267C14.7783 10.4117 15.338 10.9865 16.0283 10.9865Z" fill="black"/>
<rect x="7.27832" y="16.2643" width="9.58333" height="1.28379" rx="0.641893" fill="black"/>
</svg>