<svg width="40" height="40" viewBox="0 0 40 40" fill="none" xmlns="http://www.w3.org/2000/svg">
<path d="M20 39C30.4934 39 39 30.4934 39 20C39 9.50659 30.4934 1 20 1C9.50659 1 1 9.50659 1 20C1 30.4934 9.50659 39 20 39Z" fill="#FFE600"/>
<path d="M27.5575 30.2553C27.2535 30.2553 26.9495 30.1389 26.7167 29.9085C23.1257 26.3175 16.87 26.3175 13.2814 29.9085C12.8182 30.3716 12.0654 30.3716 11.6022 29.9085C11.1391 29.4454 11.1391 28.6925 11.6022 28.2294C13.8466 25.9874 16.8272 24.75 20.0002 24.75C23.1732 24.75 26.1539 25.9874 28.3959 28.2294C28.859 28.6925 28.859 29.4454 28.3959 29.9085C28.1655 30.1413 27.8615 30.2553 27.5575 30.2553Z" fill="black"/>
<path d="M12.875 17.625C14.1867 17.625 15.25 16.5617 15.25 15.25C15.25 13.9383 14.1867 12.875 12.875 12.875C11.5633 12.875 10.5 13.9383 10.5 15.25C10.5 16.5617 11.5633 17.625 12.875 17.625Z" fill="black"/>
<path d="M27.125 17.625C28.4367 17.625 29.5 16.5617 29.5 15.25C29.5 13.9383 28.4367 12.875 27.125 12.875C25.8133 12.875 24.75 13.9383 24.75 15.25C24.75 16.5617 25.8133 17.625 27.125 17.625Z" fill="black"/>
</svg>
