<svg width="118" height="21" viewBox="0 0 118 21" fill="none" xmlns="http://www.w3.org/2000/svg">
<path fill-rule="evenodd" clip-rule="evenodd" d="M4.3923 1.8734C6.01754 0.807305 7.92832 0.238281 9.88299 0.238281C12.5032 0.241351 15.0151 1.26453 16.8679 3.08338C18.7206 4.90223 19.7628 7.36824 19.766 9.94048C19.766 11.8594 19.1863 13.7352 18.1004 15.3307C17.0144 16.9262 15.4709 18.1698 13.665 18.9041C11.8592 19.6385 9.87202 19.8306 7.95491 19.4562C6.0378 19.0819 4.27682 18.1578 2.89466 16.801C1.5125 15.4441 0.57124 13.7153 0.189903 11.8333C-0.191434 9.95124 0.00428212 8.00045 0.752302 6.22761C1.50032 4.45476 2.76705 2.93949 4.3923 1.8734ZM5.26162 16.7303C6.62955 17.6276 8.23779 18.1066 9.88299 18.1066C12.0883 18.1039 14.2025 17.2427 15.7619 15.7119C17.3213 14.181 18.1986 12.1054 18.2012 9.94048C18.2012 8.32538 17.7134 6.74655 16.7994 5.40364C15.8853 4.06074 14.5862 3.01407 13.0662 2.396C11.5463 1.77793 9.87376 1.61621 8.26018 1.9313C6.64659 2.24639 5.16443 3.02414 4.0011 4.16618C2.83777 5.30823 2.04553 6.76329 1.72457 8.34735C1.40361 9.93142 1.56834 11.5733 2.19793 13.0655C2.82752 14.5577 3.89369 15.833 5.26162 16.7303ZM29.477 4.69188C30.1933 4.40705 30.9607 4.26638 31.7335 4.27824C32.5062 4.26661 33.2734 4.40744 33.9895 4.69237C34.7057 4.97731 35.3563 5.40054 35.9028 5.93697C36.4492 6.4734 36.8803 7.1121 37.1706 7.81519C37.4608 8.51827 37.6042 9.27142 37.5924 10.03C37.6045 10.7886 37.4612 11.542 37.1711 12.2452C36.8809 12.9485 36.4498 13.5874 35.9034 14.124C35.3569 14.6606 34.7062 15.084 33.9899 15.369C33.2737 15.6541 32.5063 15.795 31.7335 15.7833C30.9606 15.7952 30.1931 15.6545 29.4766 15.3695C28.7601 15.0846 28.1092 14.6613 27.5625 14.1246C27.0159 13.588 26.5847 12.949 26.2944 12.2456C26.0042 11.5422 25.8609 10.7888 25.8729 10.03C25.8611 9.27128 26.0046 8.51799 26.2949 7.81479C26.5853 7.1116 27.0166 6.47282 27.5632 5.93637C28.1098 5.39992 28.7606 4.97672 29.477 4.69188ZM31.7335 14.4892C33.0074 14.4947 34.0584 14.0832 34.8866 13.2546C35.7103 12.4261 36.1222 11.3512 36.1222 10.03C36.1222 8.70871 35.7126 7.63437 34.8934 6.80694C34.0651 5.9784 33.0141 5.56468 31.7403 5.56579C30.4664 5.56689 29.4148 5.98061 28.5855 6.80694C27.7584 7.63216 27.3448 8.7065 27.3448 10.03C27.3448 11.3534 27.7561 12.4261 28.5787 13.248C29.4081 14.0699 30.4597 14.4836 31.7335 14.4892ZM11.1494 5.73153C10.7476 5.6218 10.3325 5.56605 9.9155 5.56583C8.60002 5.56583 7.52592 5.97733 6.6932 6.80035C5.86047 7.62336 5.44411 8.6977 5.44411 10.0234C5.44298 11.3457 5.85935 12.4206 6.6932 13.248C7.52705 14.0755 8.60115 14.4892 9.9155 14.4892C10.3353 14.495 10.7535 14.4357 11.1545 14.3135C11.5042 14.2097 11.8368 14.0568 12.1419 13.8595C12.3836 13.6992 12.6132 13.522 12.8289 13.3292C12.9881 13.192 13.1282 13.0349 13.2458 12.8619L13.3843 12.6797H13.6155V14.2009C13.5851 14.2406 13.5395 14.2953 13.4771 14.3666C13.3402 14.5052 13.1936 14.6342 13.0382 14.7527C12.8052 14.941 12.5516 15.1032 12.282 15.2365C11.9341 15.3999 11.5698 15.5271 11.195 15.616C10.7265 15.7311 10.2448 15.7868 9.7619 15.7817C8.99765 15.7972 8.23833 15.658 7.53122 15.3729C6.82411 15.0878 6.18434 14.6629 5.65173 14.1246C4.53318 13.0188 3.97446 11.6539 3.97559 10.03C3.97671 8.40606 4.5343 7.04173 5.64835 5.93701C6.18097 5.39872 6.82074 4.97381 7.52785 4.68873C8.23496 4.40365 8.99427 4.26449 9.75852 4.27993C10.2642 4.27651 10.7685 4.33214 11.2608 4.44564C11.657 4.53119 12.0404 4.66595 12.4019 4.84665C12.666 4.98483 12.9214 5.13867 13.1665 5.30732C13.3376 5.42154 13.494 5.55563 13.6324 5.70668L13.7708 5.87238L13.2306 7.01743C13.2026 6.97305 13.1645 6.92444 13.1189 6.86636L13.1074 6.85172C12.992 6.72715 12.8654 6.61291 12.7293 6.51036C12.5273 6.34816 12.311 6.20398 12.0828 6.07952C11.7862 5.92904 11.473 5.81229 11.1494 5.73153ZM53.7512 10.5685C53.5614 10.3882 53.3486 10.2328 53.1182 10.1062C52.9571 10.0108 52.7876 9.92988 52.6118 9.86423C52.5139 9.8344 52.443 9.81451 52.389 9.80291V9.72835L52.5578 9.68195C52.6917 9.62579 52.8186 9.55462 52.9359 9.46984C53.0988 9.35806 53.2488 9.22914 53.3832 9.0854C53.5544 8.89131 53.6852 8.66611 53.7681 8.42257C53.8819 8.11455 53.9391 7.78912 53.9368 7.46146C53.9368 6.56333 53.6212 5.84526 52.9899 5.30726C52.3586 4.76926 51.4409 4.50192 50.2368 4.50523H47.0736V15.5563H50.6183C51.8562 15.5563 52.807 15.2735 53.471 14.7079C53.8003 14.4304 54.0616 14.0834 54.2352 13.6929C54.4088 13.3023 54.4903 12.8784 54.4736 12.4526C54.479 12.0709 54.4037 11.6923 54.2525 11.3407C54.1367 11.0544 53.9666 10.7924 53.7512 10.5685ZM48.4628 5.79278H50.2351C50.9857 5.79278 51.5484 5.94634 51.9231 6.25345C52.1068 6.41162 52.2516 6.60861 52.3466 6.8296C52.4416 7.05059 52.4844 7.28985 52.4717 7.5294C52.4841 7.77003 52.4405 8.01026 52.3443 8.2319C52.2481 8.45355 52.1017 8.65078 51.9164 8.80867C51.5461 9.11688 50.9835 9.27099 50.2284 9.27099H48.456L48.4628 5.79278ZM52.4092 13.7617C52.0086 14.0997 51.4122 14.2687 50.62 14.2687H48.4628V10.4856H50.62C51.4077 10.4856 52.0041 10.6547 52.4092 10.9927C52.6093 11.1638 52.7673 11.3772 52.8714 11.6168C52.9755 11.8565 53.0229 12.1161 53.0102 12.3764C53.0231 12.6368 52.9757 12.8968 52.8716 13.1367C52.7675 13.3766 52.6095 13.5903 52.4092 13.7617ZM70.9734 15.5563H64.0359V4.50529H70.9734V5.79284H65.4234V9.27436H69.8171V10.5603H65.4234V14.2688H70.9734V15.5563ZM84.6188 5.56583C85.0358 5.56606 85.4509 5.6218 85.8527 5.73154C86.1763 5.8123 86.4895 5.92905 86.7861 6.07953C87.0145 6.20362 87.2308 6.34782 87.4326 6.51037C87.5691 6.61244 87.6957 6.72671 87.8107 6.85172L87.8224 6.86659C87.8678 6.92457 87.9059 6.97311 87.9339 7.01743L88.4741 5.88068L88.3357 5.71497C88.1981 5.56587 88.0428 5.43347 87.8732 5.32058C87.628 5.15194 87.3727 4.9981 87.1085 4.85992C86.7472 4.67894 86.3637 4.54417 85.9675 4.4589C85.4752 4.3454 84.9709 4.28978 84.4652 4.29319C83.7009 4.27776 82.9416 4.41691 82.2345 4.70199C81.5274 4.98707 80.8876 5.41198 80.355 5.95027C79.241 7.05499 78.6834 8.41932 78.6822 10.0433C78.6811 11.6672 79.2387 13.0321 80.355 14.1379C80.8876 14.6762 81.5274 15.1011 82.2345 15.3862C82.9416 15.6713 83.7009 15.8104 84.4652 15.795C84.9481 15.8001 85.4297 15.7444 85.8983 15.6293C86.2731 15.5404 86.6374 15.4132 86.9853 15.2498C87.2549 15.1165 87.5085 14.9542 87.7415 14.7659C87.8968 14.6475 88.0435 14.5185 88.1804 14.3798C88.2428 14.3086 88.2884 14.2539 88.3205 14.2141V12.6797H88.0875L87.9491 12.8619C87.832 13.0348 87.6924 13.1919 87.5339 13.3292C87.3182 13.522 87.0886 13.6992 86.8469 13.8595C86.5422 14.0565 86.2102 14.2094 85.8611 14.3135C85.459 14.4358 85.0397 14.495 84.6188 14.4892C83.3033 14.4892 82.2292 14.0755 81.3965 13.248C80.5638 12.4206 80.1474 11.3457 80.1474 10.0234C80.1474 8.69771 80.5638 7.62337 81.3965 6.80035C82.2292 5.97734 83.3033 5.56583 84.6188 5.56583ZM98.189 5.79284H94.6426V4.50529H103.123V5.79284H99.5765V15.5563H98.189V5.79284ZM116.936 9.27436C116.227 8.61816 115.245 8.29006 113.99 8.29006H112.064V4.50529H110.677V15.5563H113.99C115.244 15.5563 116.226 15.2282 116.936 14.572C117.646 13.9158 118 13.0321 117.999 11.9207C117.999 10.8127 117.645 9.93057 116.936 9.27436ZM115.864 13.6408C115.414 14.0606 114.789 14.2699 113.99 14.2688H112.064V9.57595H113.99C114.792 9.57595 115.417 9.78585 115.864 10.2056C116.311 10.6254 116.536 11.1977 116.539 11.9224C116.537 12.6504 116.312 13.2232 115.864 13.6408Z" fill="#8D8D8D"/>
</svg>
