<svg width="79" height="32" viewBox="0 0 79 32" fill="none" xmlns="http://www.w3.org/2000/svg">
<path d="M33.211 5.5L29.8088 26.6718H35.2468L38.647 5.5H33.211ZM49.6141 14.1242C47.7138 13.1858 46.5488 12.5524 46.5488 11.5926C46.572 10.7199 47.5339 9.8258 49.682 9.8258C51.4487 9.78143 52.7473 10.1966 53.7324 10.6097L54.2259 10.83L54.9653 6.40034C53.8911 5.98514 52.188 5.52765 50.0844 5.52765C44.7142 5.52765 40.9328 8.31974 40.9093 12.3131C40.8649 15.2599 43.6166 16.8951 45.6759 17.8761C47.7795 18.8824 48.4956 19.5348 48.4956 20.4289C48.4724 21.8016 46.7946 22.4349 45.2291 22.4349C43.0599 22.4349 41.8947 22.1087 40.1258 21.3439L39.4097 21.0176L38.6493 25.6211C39.9267 26.189 42.276 26.6887 44.7144 26.7143C50.4215 26.7143 54.1351 23.9645 54.1818 19.7086C54.2004 17.374 52.7494 15.5859 49.6141 14.1242ZM68.9067 5.56552H64.6994C63.4029 5.56552 62.4177 5.93844 61.8564 7.26884L53.7787 26.6718H59.4858L61.0576 22.471H67.4427L68.2582 26.6887H73.2917L68.9067 5.56552ZM62.6403 18.2316C62.7505 18.2423 64.8309 11.3742 64.8309 11.3742L66.4875 18.2316C66.4875 18.2316 63.7145 18.2316 62.6403 18.2316ZM25.2648 5.5L19.9369 19.8843L19.3565 17.0476C18.3713 13.7745 15.2828 10.2178 11.8359 8.45102L16.7147 26.6506H22.4685L31.0186 5.50232H25.2648V5.5Z" fill="#1A1F71"/>
<path d="M17.5624 8.23073C17.1472 6.6164 15.8231 5.52763 14.0247 5.50439H5.5869L5.5 5.89613C12.0821 7.51883 17.6068 12.5119 19.3991 17.2086L17.5624 8.23073Z" fill="#EFC75E"/>
</svg>
