<svg width="20" height="20" viewBox="0 0 20 20" fill="none" xmlns="http://www.w3.org/2000/svg">
<path d="M18.1862 16.6489L18.1271 16.5898L13.2286 11.8593L13.0513 11.6819L13.2168 11.5164L13.2286 11.5045C14.2036 10.1445 14.5876 8.48889 14.3158 6.84506C14.0322 5.16575 13.0927 3.68749 11.6804 2.68818C8.77915 0.642264 4.74334 1.30453 2.68112 4.16645C1.69432 5.51462 1.31024 7.16436 1.58796 8.82593C1.87159 10.5112 2.8052 11.9717 4.21744 12.9414C6.25603 14.3606 9.06869 14.4729 11.2195 13.2312L11.3968 13.1425L11.5564 13.3021L16.514 18.1449C16.7385 18.3696 17.0517 18.4997 17.3767 18.4997C17.6721 18.4997 17.938 18.3933 18.1271 18.21L18.133 18.204C18.3635 18.003 18.4935 17.7251 18.4994 17.4353C18.5053 17.1338 18.3989 16.8559 18.1862 16.6489ZM12.62 7.87393C12.62 9.09793 12.1413 10.2392 11.2668 11.0847C10.3982 11.9303 9.22823 12.3974 7.97553 12.3974C6.72283 12.3974 5.55877 11.9303 4.69016 11.0847C3.81563 10.2332 3.33701 9.09202 3.33701 7.87393C3.33701 6.64993 3.81563 5.50871 4.69016 4.66314C5.55877 3.81758 6.72874 3.35044 7.97553 3.35044C10.5341 3.34453 12.62 5.37862 12.62 7.87393Z" fill="#DE5617"/>
</svg>
