<svg width="18" height="25" viewBox="0 0 18 25" fill="none" xmlns="http://www.w3.org/2000/svg">
<path d="M9 23.8753C8.77674 23.6203 8.49438 23.2923 8.16951 22.9032C7.33562 21.9042 6.22511 20.5063 5.11616 18.9083C4.00569 17.3082 2.90653 15.5213 2.08741 13.7437C1.26356 11.9559 0.75 10.2346 0.75 8.75C0.75 4.34649 4.41844 0.75 9 0.75C13.5816 0.75 17.25 4.34649 17.25 8.75C17.25 10.2346 16.7364 11.9559 15.9126 13.7437C15.0935 15.5213 13.9943 17.3082 12.8838 18.9083C11.7749 20.5063 10.6644 21.9042 9.83049 22.9032C9.50562 23.2923 9.22326 23.6203 9 23.8753Z" fill="white" stroke="#DE5617" stroke-width="1.5"/>
<circle cx="9" cy="9" r="4" fill="#DE5617"/>
</svg>