<svg width="40" height="40" viewBox="0 0 40 40" fill="none" xmlns="http://www.w3.org/2000/svg">
<path d="M17.0484 14.1918L16.6526 14.5849C16.529 14.7086 16.4609 14.8732 16.4609 15.0491C16.4609 15.2249 16.529 15.3897 16.6526 15.5134L21.1368 19.9973L16.6477 24.4864C16.5241 24.6099 16.4561 24.7747 16.4561 24.9505C16.4561 25.1263 16.5241 25.2912 16.6477 25.4148L17.041 25.808C17.2968 26.064 17.7135 26.064 17.9693 25.808L23.3334 20.4632C23.4569 20.3397 23.5439 20.1751 23.5439 19.9977L23.5439 19.9957C23.5439 19.8198 23.4568 19.6552 23.3334 19.5317L17.9839 14.1918C17.8604 14.0681 17.6908 14.0002 17.515 14C17.3391 14 17.1719 14.0681 17.0484 14.1918Z" fill="#999999"/>
</svg>
