<svg width="25" height="25" viewBox="0 0 25 25" fill="none" xmlns="http://www.w3.org/2000/svg">
<rect width="25" height="25" fill="white"/>
<path d="M17.3713 3C18.7923 3 20.14 3.61668 21.1741 4.73791C22.395 6.06237 23.0621 7.98248 22.9954 9.99369C22.9954 12.7197 21.6878 18.0245 12.928 22.8528C12.7946 22.9299 12.6545 23 12.5011 23C12.3476 23 12.2075 22.9299 12.0741 22.8598C3.30763 17.9685 2 12.6987 2 9.99369C2 6.06938 4.52185 3 7.74422 3C10.2194 3 11.8139 4.30343 12.5611 5.11633C14.0288 3.71479 15.6434 3 17.3713 3Z" fill="#2399E2"/>
</svg>
