<svg width="25" height="26" viewBox="0 0 25 26" fill="none" xmlns="http://www.w3.org/2000/svg">
<rect width="25" height="25" transform="translate(0 0.5)" fill="white"/>
<path d="M21.1741 5.23791C20.14 4.11668 18.7923 3.5 17.3713 3.5C15.6434 3.5 14.0288 4.21479 12.5611 5.61633C11.8139 4.80343 10.2194 3.5 7.74422 3.5C4.52185 3.5 2 6.56938 2 10.4937C2 13.1987 3.30763 18.4685 12.0741 23.3598C12.2075 23.4299 12.3476 23.5 12.5011 23.5C12.6545 23.5 12.7946 23.4299 12.928 23.3528C21.6878 18.5245 22.9954 13.2197 22.9954 10.4937C23.0621 8.48248 22.395 6.56237 21.1741 5.23791ZM11.7739 7.76069C11.9873 8.05501 12.2675 8.20918 12.6145 8.20918C12.9614 8.20918 13.2416 8.06202 13.4484 7.7747C13.4551 7.76769 13.4684 7.75368 13.4884 7.71864C13.9488 7.05992 15.2431 5.51822 17.4247 5.51822C19.8264 5.51822 21.1274 8.08304 21.1274 10.4937C21.1274 12.7362 20.0933 14.9646 18.0451 17.116C16.2571 18.994 14.0755 20.4096 12.5544 21.2786C11.0266 20.4096 8.84503 18.994 7.06372 17.116C5.01555 14.9646 3.98146 12.7432 3.98146 10.4937C3.98146 8.08304 5.32244 5.51822 7.80427 5.51822C9.56556 5.51822 11.0667 6.64646 11.7739 7.76069Z" fill="#2399E2"/>
</svg>
