<svg width="20" height="20" viewBox="0 0 20 20" fill="none" xmlns="http://www.w3.org/2000/svg">
<path d="M11.5433 12.8404C10.9811 13.6432 10.419 14.3531 10.0393 14.8084L9.99987 14.8525L9.96042 14.8084C9.58567 14.3531 9.01861 13.6481 8.45648 12.8404C7.02157 10.7744 6.26221 9.04624 6.26221 7.84192C6.26221 6.88237 6.64682 5.98647 7.34208 5.31088C8.04721 4.63038 8.98902 4.25342 10.0048 4.25342C11.0156 4.25342 11.9624 4.63038 12.6675 5.31088C13.3628 5.98647 13.7474 6.88237 13.7474 7.84192C13.7425 9.04624 12.9831 10.7744 11.5433 12.8404Z" fill="white"/>
<path d="M13.5453 4.41484C12.6035 3.50425 11.3461 3 9.99998 3C8.65876 3 7.40137 3.50425 6.45956 4.41484C5.51775 5.32543 5 6.54444 5 7.84178C5 9.32516 5.81854 11.254 7.43589 13.5697C8.62425 15.2783 9.80274 16.5413 9.85205 16.5952L9.99998 16.7567L10.1479 16.5952C10.1578 16.5805 11.356 15.3027 12.5641 13.5697C14.1814 11.254 15 9.32516 15 7.84178C15.0049 6.54444 14.4871 5.32543 13.5453 4.41484ZM11.5434 12.8402C10.9812 13.6431 10.4191 14.353 10.0394 14.8083L9.99998 14.8523L9.96054 14.8083C9.58578 14.353 9.01872 13.648 8.4566 12.8402C7.02169 10.7743 6.26232 9.04611 6.26232 7.84178C6.26232 6.88224 6.64694 5.98634 7.3422 5.31074C8.04733 4.63025 8.98914 4.25328 10.0049 4.25328C11.0158 4.25328 11.9625 4.63025 12.6676 5.31074C13.3629 5.98634 13.7475 6.88224 13.7475 7.84178C13.7426 9.04611 12.9832 10.7743 11.5434 12.8402Z" fill="#DE5617"/>
<path d="M10 5.81494C8.92014 5.81494 8.04736 6.68636 8.04736 7.75361C8.04736 8.82086 8.92507 9.69228 10 9.69228C11.075 9.69228 11.9527 8.82086 11.9527 7.75361C11.9527 6.68636 11.0799 5.81494 10 5.81494Z" fill="#DE5617"/>
</svg>
