<svg width="20" height="20" viewBox="0 0 20 20" fill="none" xmlns="http://www.w3.org/2000/svg">
<path d="M10 3C6.13414 3 3 6.13414 3 10C3 13.8659 6.13414 17 10 17C13.8659 17 17 13.8659 17 10C17 6.13414 13.8659 3 10 3ZM13.5 13.9375C9.39844 13.9375 6.0625 10.6016 6.0625 6.5C6.0625 6.38397 6.10859 6.27269 6.19064 6.19064C6.27269 6.10859 6.38397 6.0625 6.5 6.0625H8.1152C8.23123 6.0625 8.34251 6.10859 8.42455 6.19064C8.5066 6.27269 8.5527 6.38397 8.5527 6.5C8.54963 7.24132 8.7174 7.97337 9.04297 8.63938C9.0683 8.69116 9.08314 8.74745 9.08665 8.80499C9.09015 8.86253 9.08225 8.9202 9.0634 8.97468C9.04454 9.02916 9.01511 9.07937 8.97678 9.12244C8.93846 9.16551 8.892 9.20057 8.84008 9.22563L8.18602 9.54063C8.72869 10.4861 9.51299 11.2703 10.4586 11.8129L10.7736 11.161C10.7985 11.109 10.8335 11.0624 10.8765 11.024C10.9195 10.9856 10.9698 10.956 11.0242 10.937C11.0787 10.9181 11.1364 10.9101 11.194 10.9135C11.2516 10.917 11.308 10.9317 11.3598 10.957C12.0261 11.2825 12.7584 11.4502 13.5 11.4473C13.616 11.4473 13.7273 11.4934 13.8094 11.5754C13.8914 11.6575 13.9375 11.7688 13.9375 11.8848V13.5C13.9375 13.616 13.8914 13.7273 13.8094 13.8094C13.7273 13.8914 13.616 13.9375 13.5 13.9375Z" fill="#5DAC0D"/>
</svg>
