<svg width="20" height="20" viewBox="0 0 20 20" fill="none" xmlns="http://www.w3.org/2000/svg">
<circle cx="10" cy="10" r="7" fill="#FFE600"/>
<path d="M12.0409 6.524C12.0409 6.764 11.9489 6.976 11.7649 7.16C11.5889 7.336 11.3729 7.424 11.1169 7.424C10.8769 7.424 10.6729 7.34 10.5049 7.172C10.3369 6.996 10.2529 6.792 10.2529 6.56C10.2529 6.312 10.3409 6.1 10.5169 5.924C10.7009 5.74 10.9169 5.648 11.1649 5.648C11.4129 5.648 11.6209 5.732 11.7889 5.9C11.9569 6.068 12.0409 6.276 12.0409 6.524ZM11.6089 12.008L11.9569 12.224C11.3489 13.528 10.6609 14.18 9.89294 14.18C9.17294 14.18 8.81294 13.864 8.81294 13.232C8.81294 13 8.90494 12.536 9.08894 11.84L9.58094 10.052C9.67694 9.724 9.72494 9.484 9.72494 9.332C9.72494 9.18 9.66494 9.104 9.54494 9.104C9.43294 9.104 9.27694 9.24 9.07694 9.512C8.87694 9.776 8.68894 10.104 8.51294 10.496L8.15294 10.28C8.76094 8.984 9.45294 8.336 10.2289 8.336C10.9409 8.336 11.2969 8.648 11.2969 9.272C11.2969 9.536 11.2049 10.012 11.0209 10.7L10.5289 12.464C10.4329 12.8 10.3889 13.04 10.3969 13.184C10.4049 13.328 10.4689 13.4 10.5889 13.4C10.6929 13.4 10.8449 13.264 11.0449 12.992C11.2609 12.712 11.4489 12.384 11.6089 12.008Z" fill="white"/>
</svg>
