<svg width="60" height="60" viewBox="0 0 60 60" fill="none" xmlns="http://www.w3.org/2000/svg">
<path d="M12.7502 3.5498H56.4502V42.6498L42.6502 56.4498H12.7502V3.5498Z" fill="white"/>
<path d="M42.6506 42.6499H56.4506L42.6506 56.4499V42.6499Z" fill="#ABABAB"/>
<path d="M11.6 2.3999L11.5999 13.8999V19.1999V26.0999V34.5999L11.6 57.5999H43.8L57.5999 43.7999V2.3999H11.6ZM43.8 54.3477V43.7999H54.3477L43.8 54.3477ZM55.2999 41.4999H41.5V55.2999H13.9V34.5999V27.5999V18.5999V13.8999V4.6999H55.2999V41.4999Z" fill="#010101"/>
<path d="M4.59956 32.4V16.1H39.2996V32.4H4.59956Z" fill="#E31E1E" stroke="black" stroke-width="2.1"/>
<path d="M12.8921 19.3423C13.3981 19.3423 13.8214 19.4274 14.1687 19.5976C14.5159 19.7678 14.7919 19.9909 15.0035 20.2669C15.2151 20.5429 15.3669 20.858 15.4589 21.2122C15.5486 21.5641 15.5969 21.9275 15.5969 22.2955C15.5969 22.8015 15.521 23.2431 15.3692 23.6203C15.2174 23.9975 15.0058 24.3057 14.7344 24.5426C14.463 24.7818 14.1342 24.9635 13.7477 25.0808C13.3614 25.1981 12.9335 25.2625 12.4643 25.2625H11.4018V29.1955H9.41455V19.3423H12.8921ZM12.285 23.8043C12.6805 23.8043 13.0026 23.6824 13.2441 23.4432C13.4879 23.204 13.6098 22.8314 13.6098 22.3254C13.6098 21.8286 13.504 21.4514 13.2924 21.1938C13.0808 20.9385 12.7266 20.8074 12.2298 20.8074H11.4018V23.8043H12.285Z" fill="white"/>
<path d="M21.3105 19.3396C22.0028 19.3396 22.5571 19.4546 22.9826 19.68C23.4058 19.9054 23.7347 20.2251 23.9693 20.646C24.2062 21.0646 24.3626 21.566 24.4454 22.1571C24.5282 22.7459 24.5696 23.4037 24.5696 24.1282C24.5696 24.993 24.519 25.7451 24.4132 26.3845C24.3074 27.0216 24.1257 27.5506 23.8681 27.9646C23.6105 28.3809 23.2655 28.6868 22.8331 28.8892C22.4007 29.0916 21.8533 29.1928 21.1909 29.1928H18.0537V19.3396H21.3105ZM20.9241 27.7346C21.2737 27.7346 21.5543 27.6748 21.7659 27.5552C21.9775 27.4356 22.1454 27.2378 22.2696 26.9618C22.3961 26.6858 22.4789 26.3224 22.518 25.8693C22.5594 25.4208 22.5801 24.8596 22.5801 24.188C22.5801 23.6268 22.5594 23.1346 22.5249 22.7091C22.4881 22.2859 22.4122 21.934 22.2972 21.6534C22.1799 21.3728 22.012 21.1612 21.7843 21.0209C21.5589 20.8783 21.2576 20.8047 20.8804 20.8047H20.0409V27.7346H20.9241Z" fill="white"/>
<path d="M32.7644 19.3418V20.9702H29.2454V23.2886H32.5574V24.917H29.2454V29.195H27.2582V19.3418H32.7644Z" fill="white"/>
</svg>
