<svg width="25" height="26" viewBox="0 0 25 26" fill="none" xmlns="http://www.w3.org/2000/svg">
<rect x="5.225" y="5.725" width="14.3687" height="14.3687" rx="7.18437" fill="#FF0000" stroke="#FF0000" stroke-width="1.7"/>
<path d="M13.4641 13L16.7358 9.72814C16.8258 9.63807 16.8754 9.51791 16.8756 9.38979C16.8756 9.26159 16.8259 9.14128 16.7358 9.05136L16.4491 8.76472C16.3589 8.67444 16.2388 8.625 16.1105 8.625C15.9824 8.625 15.8623 8.67444 15.7721 8.76472L12.5004 12.0364L9.22857 8.76472C9.13857 8.67444 9.01834 8.625 8.89014 8.625C8.76208 8.625 8.64185 8.67444 8.55186 8.76472L8.26501 9.05136C8.07833 9.23804 8.07833 9.54168 8.26501 9.72814L11.5368 13L8.26501 16.2717C8.17494 16.3619 8.12536 16.4821 8.12536 16.6102C8.12536 16.7383 8.17494 16.8585 8.26501 16.9486L8.55179 17.2353C8.64178 17.3255 8.76208 17.375 8.89007 17.375C9.01827 17.375 9.1385 17.3255 9.2285 17.2353L12.5004 13.9636L15.7721 17.2353C15.8622 17.3255 15.9824 17.375 16.1104 17.375H16.1106C16.2387 17.375 16.3589 17.3255 16.449 17.2353L16.7357 16.9486C16.8257 16.8586 16.8754 16.7383 16.8754 16.6102C16.8754 16.4821 16.8257 16.3619 16.7357 16.2718L13.4641 13Z" fill="white"/>
</svg>
