<svg width="25" height="26" viewBox="0 0 25 26" fill="none" xmlns="http://www.w3.org/2000/svg">
<rect width="25" height="25" transform="translate(0 0.5)" fill="white"/>
<path d="M13.9701 14.9023C13.9701 14.515 13.8471 14.196 13.601 13.9453C13.3549 13.6901 12.9447 13.4622 12.3705 13.2617C11.7963 13.0566 11.3497 12.8675 11.0307 12.6943C9.96882 12.1247 9.43789 11.2816 9.43789 10.165C9.43789 9.40853 9.66803 8.78646 10.1283 8.29883C10.5886 7.8112 11.213 7.52181 12.0014 7.43066V5.94043H13.0951V7.44434C13.8881 7.55827 14.501 7.89551 14.934 8.45605C15.3669 9.01204 15.5834 9.73665 15.5834 10.6299H13.9291C13.9291 10.0557 13.7992 9.60449 13.5395 9.27637C13.2842 8.94368 12.9356 8.77734 12.4936 8.77734C12.0561 8.77734 11.7143 8.89583 11.4682 9.13281C11.2221 9.36979 11.099 9.70931 11.099 10.1514C11.099 10.5479 11.2198 10.8669 11.4613 11.1084C11.7074 11.3454 12.1221 11.571 12.7055 11.7852C13.2888 11.9993 13.7468 12.1976 14.0795 12.3799C14.4122 12.5622 14.6924 12.7718 14.9203 13.0088C15.1482 13.2412 15.3236 13.5101 15.4467 13.8154C15.5697 14.1208 15.6312 14.4785 15.6312 14.8887C15.6312 15.6589 15.3943 16.2832 14.9203 16.7617C14.4509 17.2402 13.7947 17.5228 12.9516 17.6094V18.9424H11.8646V17.6162C10.9623 17.516 10.2673 17.1924 9.77969 16.6455C9.29661 16.0986 9.05508 15.374 9.05508 14.4717H10.7162C10.7162 15.0459 10.8598 15.4902 11.1469 15.8047C11.4385 16.1191 11.8487 16.2764 12.3773 16.2764C12.8969 16.2764 13.2911 16.151 13.56 15.9004C13.8334 15.6497 13.9701 15.3171 13.9701 14.9023Z" fill="#5DAC0D"/>
<circle cx="12.5" cy="13" r="9.5" stroke="#5DAC0D" stroke-width="2"/>
</svg>
