<svg width="25" height="26" viewBox="0 0 25 26" fill="none" xmlns="http://www.w3.org/2000/svg">
<rect width="25" height="25" transform="translate(0 0.5)" fill="white"/>
<path fill-rule="evenodd" clip-rule="evenodd" d="M4 22.0822L4 15.6948C4 14.9279 4.55951 14.3063 5.2497 14.3063C5.93988 14.3063 6.49939 14.9279 6.49939 15.6948L6.49939 22.0822C6.49939 22.849 5.93988 23.4707 5.2497 23.4707C4.55951 23.4707 4 22.849 4 22.0822ZM13.9976 22.1694L13.9976 11.4422C13.9976 10.7235 14.5802 10.1409 15.2989 10.1409C16.0176 10.1409 16.6002 10.7235 16.6002 11.4422L16.6002 22.1694C16.6002 22.8881 16.0176 23.4707 15.2989 23.4707C14.5802 23.4707 13.9976 22.8881 13.9976 22.1694ZM8.99878 8.9668L8.99878 22.1694C8.99878 22.8881 9.5814 23.4707 10.3001 23.4707C11.0188 23.4707 11.6014 22.8881 11.6014 22.1694L11.6014 8.9668C11.6014 8.24812 11.0188 7.6655 10.3001 7.6655C9.5814 7.6655 8.99878 8.24812 8.99878 8.9668ZM18.9964 22.1694L18.9964 4.80115C18.9964 4.08246 19.579 3.49984 20.2977 3.49984C21.0163 3.49984 21.599 4.08246 21.599 4.80115L21.599 22.1694C21.599 22.8881 21.0163 23.4707 20.2977 23.4707C19.579 23.4707 18.9964 22.8881 18.9964 22.1694Z" fill="#de5617"/>
</svg>
