<svg width="480" height="270" viewBox="0 0 480 270" fill="none" xmlns="http://www.w3.org/2000/svg">
<rect width="480" height="269.307" rx="134.653" fill="white"/>
<g clip-path="url(#clip0)">
<rect x="133.068" y="15.8413" width="213.861" height="237.624" fill="white"/>
<path fill-rule="evenodd" clip-rule="evenodd" d="M248.835 215.6C244.334 214.069 239.532 210.329 235.999 206.673C234.394 204.898 232.924 203.008 231.601 201.017C229.612 198.089 226.871 195.103 225.17 192.277C230.013 189.813 235.072 185.22 234.347 178.551C234.063 175.9 232.997 174.052 231.547 171.82C230.098 169.588 224.103 165.861 218.045 165.513C212.5 165.2 206.221 165.066 200.186 165.316C198.921 165.361 196.527 165.276 196.396 165.513C196.14 165.99 198.061 165.914 199.952 166.553C201.302 167.062 202.423 167.771 202.823 169.115C203.026 170.251 203.146 171.399 203.183 172.552C203.363 177.391 202.967 183.118 202.823 187.983C202.697 192.192 203.111 196.634 202.999 200.678C202.886 204.722 203.71 212.284 202.454 215.074C201.806 216.529 199.889 217.011 198.309 217.265C197.8 217.359 196.86 217.225 196.959 217.475C197.058 217.725 197.917 217.89 198.458 217.971C200.258 218.229 202.432 217.64 204.471 217.654C206.131 217.654 208.107 217.689 209.786 217.823C211.465 217.957 213.387 218.56 214.818 218.091C215.214 217.979 216.051 217.671 215.844 217.475C215.637 217.279 214.944 217.417 214.462 217.363C213.316 217.291 212.21 216.917 211.258 216.279C209.052 214.583 209.435 211.721 209.264 207.878C209.013 203.416 209.07 198.941 209.435 194.487C212.27 194.487 215.997 194.487 219.521 194.656C223.635 200.955 229.558 208.405 236.386 213.181C238.816 214.873 241.688 216.627 244.267 217.462C248.223 218.752 253.907 218.323 257.283 217.122C259.605 216.297 261.05 214.859 260.78 214.551C260.51 214.243 258.98 215.645 256.563 216.087C253.987 216.496 251.351 216.322 248.853 215.578L248.835 215.6ZM209.228 191.759C209.255 184.484 209.439 177.083 209.584 168.271C209.584 168.07 209.764 167.901 210.128 167.932C216.267 168.07 222.627 168.789 225.341 172.396C228.005 175.895 228.491 183.394 226.079 187.126C223.324 191.447 215.669 193.161 209.246 191.764L209.228 191.759Z" fill="black"/>
<path fill-rule="evenodd" clip-rule="evenodd" d="M342.709 208.003C341.547 209.56 339.13 211.35 336.858 212.6C331.308 215.653 319.115 216.671 314.673 212.48C313.827 211.601 313.195 210.541 312.828 209.382C312.328 206.436 312.571 202.03 312.652 197.986C312.684 196.776 312.616 195.442 312.571 194.357C312.529 193.979 312.52 193.598 312.544 193.219C313.066 193.174 315.245 193.161 316.145 193.147C319.395 193.089 322.676 192.54 324.876 193.701C325.812 194.217 326.549 195.025 326.974 196C327.221 196.794 327.302 196.892 327.496 196.794C327.617 196.732 327.667 196.129 327.667 195.785C327.563 193.263 327.428 190.326 327.478 187.751C327.478 187.443 327.523 186.586 327.271 186.621C327.127 186.621 326.987 186.853 326.758 187.809C326.538 188.551 326.12 189.221 325.548 189.746C324.976 190.272 324.271 190.634 323.508 190.795C322.648 190.898 321.782 190.936 320.916 190.907C318.872 190.857 314.615 191.152 312.468 190.996V188.858C312.468 185.434 312.504 181.658 312.468 177.051C312.468 173.699 312.018 167.963 312.972 167.972C322.847 168.03 328.248 166.543 331.538 170.873C332.58 172.334 333.162 174.07 333.207 175.859C333.207 176.524 332.829 177.694 333.207 177.756C333.414 177.779 334.22 176.948 334.454 175.734C334.688 174.52 334.481 172.797 334.486 171.931C334.526 170.114 334.778 167.494 334.135 165.923C322.126 165.834 311.802 166.213 299.109 165.753C298.209 165.753 298.371 166.445 299.186 166.477C301.225 166.593 304.618 168.043 305.339 170.887C305.676 172.15 305.568 173.949 305.712 175.529C305.982 178.582 306.495 181.72 306.261 185.126C305.982 189.331 306.747 193.835 306.45 197.986C306.153 202.137 306.495 207.846 305.712 211.703C305.194 214.212 302.818 215.506 301.081 216.091C299.848 216.497 298.115 216.569 298.551 217.198C298.826 217.582 299.996 217.372 300.572 217.368C303.943 217.332 306.423 217.086 309.196 217.198C315.564 217.439 322.676 217.243 327.874 217.368C331.538 217.457 335.309 217.314 337.614 217.881C338.964 216.274 340.314 214.426 341.664 212.565C342.427 211.576 343.093 210.518 343.654 209.404C344.104 208.458 344.513 207.387 344.423 206.998C344.212 206.222 343.523 206.891 342.709 208.003Z" fill="black"/>
<path fill-rule="evenodd" clip-rule="evenodd" d="M293.41 165.396H293.036C278.741 166.159 264.204 166.007 249.617 165.913C249.36 166.806 249.639 167.61 249.617 168.484C249.558 170.194 248.96 171.89 249.041 173.274C249.063 173.778 249.099 174.801 249.414 174.653C249.729 174.506 249.995 173.64 250.283 173.109C251.327 171.176 252.448 169.15 254.185 168.645C256.436 168.007 261.899 168.284 265.968 168.288C268.444 168.288 267.94 168.4 267.94 170.373C268.012 178.724 268.43 186.647 268.664 194.544C268.732 196.914 268.664 199.57 268.732 201.962C269.141 214.563 268.952 215.523 266.297 216.318C265.46 216.577 264.61 216.788 263.749 216.952C262.971 217.09 262.795 217.639 263.664 217.688C266.063 217.835 269.065 217.474 272.071 217.474C275.078 217.474 277.729 217.818 280.101 217.831C281.41 217.907 281.419 217.188 279.754 216.938C278.909 216.86 278.092 216.599 277.36 216.175C274.799 214.662 275.276 210.649 275.109 207.042C274.979 204.364 274.979 202.266 274.943 200.512C274.808 196.226 274.232 191.718 274.376 187.152C274.547 181.626 274.097 176.028 274.317 170.663C274.362 169.819 274.218 168.516 274.479 168.297C275.055 168.208 276.163 168.127 276.883 168.051C280.384 167.717 284.304 167.511 287.5 168.051C289.012 168.288 289.989 168.355 291.425 169.319C292.86 170.283 293.167 173.609 293.81 173.439C294.148 173.296 293.99 171.43 293.99 170.185C294.029 168.569 293.834 166.956 293.41 165.396Z" fill="black"/>
<path fill-rule="evenodd" clip-rule="evenodd" d="M190.854 216.675C186.304 214.185 183.653 209.292 181.682 204.088C177.204 192.16 172.361 179.635 168.206 168.105C167.635 166.503 167.333 164.481 165.88 163.352C164.862 164.887 162.801 166.646 160.411 167.918C155.154 182.952 143.308 209.716 142.664 211.176C142.039 212.635 141.106 213.943 139.928 215.015C138.972 215.886 137.844 216.551 136.615 216.965C135.486 217.412 134.77 217.077 134.721 217.573C134.653 217.921 136.521 218.055 137.236 218.019C137.952 217.983 141.413 217.327 144.024 217.662C148.524 218.233 149.47 217.814 149.501 217.394C149.533 216.974 147.534 217.265 146.499 215.515C145.176 213.283 149.47 203.909 151.45 199.133C152.287 197.102 152.841 195.115 153.993 193.29C159.187 193.018 165.546 193.589 171.15 193.482C172.919 197.263 175.853 204.556 177.6 209.551C178.221 211.305 179.269 213.439 178.761 215.207C178.081 217.671 174.76 216.622 175.264 217.577C175.565 218.166 178.279 218.157 179.945 218.126C183.284 218.072 186.894 217.76 189.896 217.943C191.341 218.037 194.221 218.028 194.185 217.577C194.122 216.974 192.875 217.532 190.863 216.684L190.854 216.675ZM155.249 190C158.219 184.367 159.907 177.328 162.945 171.77C163.053 171.721 163.143 171.721 163.341 172.136C165.393 177.729 168.139 184.028 170.164 190.205C164.345 190.321 159.709 190.696 155.249 190Z" fill="black"/>
<path fill-rule="evenodd" clip-rule="evenodd" d="M281.998 149.652C282.558 149.37 283.048 148.971 283.437 148.482C283.826 147.994 284.102 147.427 284.249 146.822C285.261 142.555 280.99 135.453 278.515 131.824C271.534 130.802 273.861 126.467 273.861 119.633C273.887 117.829 273.676 116.028 273.235 114.277C278.407 116.268 284.064 120.41 292.841 129.596C308.85 146.304 326.07 140.046 330.98 134.828C337.363 128.043 334.131 121.392 333.118 121.522C332.106 121.651 332.317 124.432 330.215 125.829C328.113 127.226 326.21 129.4 327.965 132.815C322.744 139.126 307.842 140.479 295.28 126.985C283.326 114.156 273.361 107.751 265.449 105.327C261.187 103.452 255.097 103.345 248.544 103.519C248.544 103.519 240.942 103.296 232.449 103.073C233.889 99.377 232.71 96.7657 232.71 95.8328C232.71 95.614 232.962 95.4489 233.48 95.2837C240.924 95.1083 248.336 94.2581 255.624 92.7439C277.984 88.3426 281.359 82.8835 277.745 81.7095C285.585 80.3704 287.575 76.353 283.565 76.2682C289.389 75.2728 291.923 71.2064 288.515 71.3269C294.402 69.5414 293.489 65.1669 289.893 66.4168C294.844 64.5465 293.493 60.5738 290.428 61.6227L287.179 62.7253C284.145 63.5511 278.717 65.9838 268.505 66.7426C254.422 67.7872 245.731 64.4215 229.087 63.6537C209.427 62.761 194.534 68.6754 193.918 76.4155C193.301 84.1557 204.972 89.1818 211.079 93.4491C217.578 97.9754 214.446 103.412 209.279 102.457C203.554 101.06 187.986 85.6376 181.162 84.3922C174.02 83.0888 169.982 88.606 169.982 88.606C165.342 89.4987 163.564 91.869 165.167 93.3956C162.381 93.3956 161.071 95.6274 160.067 96.5871C158.514 96.5871 158.663 98.1896 158.663 98.1896C158.663 99.9349 161.291 102.537 161.661 101.569C162.646 99.06 166.418 99.06 166.418 101.386C166.418 103.711 163.717 104.144 162.174 102.68C160.63 101.216 161.724 104.283 161.724 105.733C161.724 107.184 161.395 107.916 162.309 108.787C161.724 107.184 164.937 104.501 167.804 107.184C170.671 109.867 183.786 128.512 187.369 131.855C187.603 132.083 187.819 132.301 188.116 132.542C187.103 137.194 183.462 144.22 179.65 146.826C177.791 145.086 173.138 146.099 174.393 148.563C174.701 149.084 175.176 149.486 175.743 149.706H134.719V153.62H344.397V149.706L281.998 149.652ZM262.159 133.583C265.333 135.281 268.868 136.21 272.475 136.292C274.342 136.292 278.695 143.88 278.695 146.621C276.287 145.501 273.253 146.268 274.644 148.853C274.832 149.183 275.104 149.458 275.432 149.652H250.227C250.649 149.573 251.065 149.469 251.474 149.34C256.731 147.21 263.365 140.742 263.901 136.082C263.117 135.35 262.132 134.966 262.163 133.569L262.159 133.583ZM213.654 138.506C215.724 135.864 216.552 134.489 216.881 133.078C217.655 132.77 218.429 132.458 219.248 132.105C233.115 126.275 240.888 124.07 246.991 122.879C246.541 126.57 248.341 128.48 250.97 130.949C254.323 134.074 256.312 134.792 255.565 137.243C254.404 141.068 249.557 145.126 248.17 146.425C245.159 144.496 241.977 146.143 242.828 148.152C243.089 148.822 243.922 149.308 244.907 149.652H198.18C198.637 149.539 199.088 149.402 199.53 149.241C202.487 147.942 209.778 143.438 213.658 138.506H213.654ZM183.903 149.241C186.856 147.942 194.156 143.438 198.018 138.506C198.468 137.939 198.842 137.43 199.202 136.975C199.932 137.002 200.664 136.991 201.394 136.944C200.61 140.372 198.409 143.889 195.335 146.764C193.477 145.023 188.823 146.036 190.065 148.5C190.379 149.016 190.853 149.417 191.415 149.643H182.567C183.019 149.534 183.466 149.399 183.903 149.241Z" fill="black"/>
<path fill-rule="evenodd" clip-rule="evenodd" d="M148.167 247.18H138.594V246.676L140.462 245.957V234.771L138.594 234.044V233.535H144.359V234.044L142.518 234.771V246.265H146.38L147.753 243.734H148.5L148.167 247.18Z" fill="black"/>
<path fill-rule="evenodd" clip-rule="evenodd" d="M207.298 247.18V246.667L208.968 245.908L207.402 241.694H202.784L201.123 245.908L202.784 246.667V247.171H198.018V246.667L199.678 245.908L205.169 233.437H206.398L211.164 245.908L212.821 246.667V247.171L207.298 247.18ZM205.664 237.007C205.579 236.749 205.525 236.619 205.439 236.383C205.385 236.151 205.316 235.923 205.232 235.7L203.13 240.864H207.051L205.664 237.007Z" fill="black"/>
<path fill-rule="evenodd" clip-rule="evenodd" d="M274.497 247.18V246.676L276.324 245.957V235.856L271.387 247.372H270.955L266.071 235.856V245.957L267.926 246.676V247.18H263.047V246.676L264.879 245.957V234.771L263.047 234.044V233.535H267.345L271.697 243.792L276.099 233.535H280.244V234.044L278.395 234.771V245.957L280.244 246.676V247.18H274.497Z" fill="black"/>
<path fill-rule="evenodd" clip-rule="evenodd" d="M336.776 233.534C338.545 233.534 339.742 233.766 340.701 234.565C341.112 234.9 341.439 235.326 341.656 235.807C341.874 236.289 341.975 236.815 341.952 237.342C341.975 237.948 341.842 238.551 341.564 239.092C341.287 239.633 340.875 240.096 340.368 240.435C339.271 241.121 337.991 241.461 336.695 241.413H335.179V245.97L337.451 246.671V247.18H331.254V246.667L333.108 245.966V234.762L331.254 234.034V233.53L336.776 233.534ZM336.178 240.591C337.641 240.591 339.778 240.203 339.778 237.413C339.778 235.78 339.054 234.356 336.673 234.356H335.174V240.605L336.178 240.591Z" fill="black"/>
</g>
<defs>
<clipPath id="clip0">
<rect width="213.861" height="237.624" fill="white" transform="translate(133.068 15.8413)"/>
</clipPath>
</defs>
</svg>
