<svg width="530" height="198" viewBox="0 0 530 198" fill="none" xmlns="http://www.w3.org/2000/svg">
<path d="M0 99C0 44.3238 44.3238 0 99 0H430.082C484.758 0 529.082 44.3238 529.082 99C529.082 153.676 484.758 198 430.082 198H99C44.3238 198 0 153.676 0 99Z" fill="white"/>
<g clip-path="url(#clip0)">
<path d="M114.23 58.8081C125.384 58.8081 132.035 62.737 135.491 65.9399C139.262 69.4418 143.116 75.7408 143.116 85.9581C143.116 97.574 138.152 106.82 129.082 111.08C126.191 112.468 122.022 113.695 114.23 113.695H92.3929C91.9938 113.693 91.6118 113.53 91.3295 113.242C91.0473 112.954 90.8875 112.565 90.8848 112.158V111.218C90.8952 110.802 91.0539 110.403 91.3314 110.096C91.6089 109.79 91.9861 109.597 92.3929 109.553L94.2049 109.403C94.9785 109.348 95.7218 109.074 96.3519 108.613C96.774 107.986 96.9937 107.239 96.9803 106.478V66.0787C97.0033 65.2964 96.7834 64.5267 96.3519 63.8794C95.7345 63.4353 95.0107 63.1696 94.2572 63.1107L92.4453 62.9505C92.0291 62.919 91.6392 62.7313 91.3509 62.4236C91.0627 62.116 90.8966 61.7103 90.8848 61.285V60.3455C90.8875 59.9386 91.0473 59.5492 91.3295 59.2615C91.6118 58.9738 91.9938 58.8109 92.3929 58.8081H114.23ZM107.569 107.492C107.572 107.899 107.732 108.289 108.014 108.576C108.296 108.864 108.678 109.027 109.077 109.03H110.784C111.601 109.03 112.963 109.03 113.79 108.923C113.79 108.923 122.546 108.293 126.641 103.222C130.736 98.1506 131.082 90.1112 131.082 86.0542C131.082 81.0577 130.443 73.8618 126.505 69.1962C122.022 63.858 115.518 63.4737 112.23 63.4737H109.088C108.689 63.4765 108.307 63.6394 108.024 63.9271C107.742 64.2148 107.582 64.6042 107.58 65.0111L107.569 107.492Z" fill="black"/>
<path d="M166.483 72.9551C166.882 72.9579 167.264 73.1207 167.546 73.4085C167.829 73.6962 167.988 74.0856 167.991 74.4925V75.3573C167.988 75.7632 167.828 76.1515 167.546 76.4375C167.263 76.7235 166.881 76.884 166.483 76.884H164.598C163.959 76.8436 163.321 76.957 162.734 77.215C162.449 77.7891 162.323 78.431 162.367 79.0726V107.579C162.34 108.271 162.466 108.96 162.734 109.596C163.282 109.971 163.94 110.144 164.598 110.088H166.483C166.881 110.088 167.263 110.248 167.546 110.534C167.828 110.82 167.988 111.208 167.991 111.614V112.159C167.988 112.566 167.829 112.955 167.546 113.243C167.264 113.53 166.882 113.693 166.483 113.696H147.83C147.432 113.693 147.051 113.53 146.77 113.242C146.489 112.954 146.332 112.565 146.332 112.159V111.294C146.332 111.093 146.371 110.895 146.446 110.71C146.521 110.524 146.632 110.356 146.771 110.214C146.91 110.073 147.075 109.96 147.257 109.883C147.438 109.807 147.633 109.767 147.83 109.767H149.725C150.378 109.819 151.033 109.705 151.632 109.436C151.924 108.865 152.051 108.221 151.998 107.579V79.0726C152.035 78.3799 151.91 77.6881 151.632 77.0548C151.088 76.6771 150.433 76.5035 149.778 76.5637H147.83C147.433 76.5609 147.054 76.3991 146.774 76.1134C146.493 75.8277 146.335 75.441 146.332 75.037V74.4925C146.332 74.0866 146.489 73.6971 146.77 73.4091C147.051 73.1211 147.432 72.9579 147.83 72.9551H166.483Z" fill="black"/>
<path d="M190.71 72.9551C191.107 72.9607 191.487 73.1248 191.767 73.4122C192.047 73.6996 192.205 74.0874 192.208 74.4925V75.037C192.199 75.4494 192.042 75.8441 191.765 76.1455C191.489 76.4468 191.113 76.6338 190.71 76.6705L189.527 76.7665C188.923 76.7651 188.328 76.9194 187.798 77.215C187.727 77.8166 187.845 78.4257 188.134 78.9552L197.476 101.568C197.801 102.347 198.314 102.336 198.628 101.568L207.688 78.9766C207.956 78.436 208.069 77.8288 208.012 77.2256C207.479 76.9305 206.881 76.7763 206.274 76.7772L204.86 76.6811C204.457 76.6444 204.081 76.4575 203.805 76.1561C203.528 75.8548 203.371 75.4601 203.362 75.0476V74.5032C203.362 74.0973 203.52 73.7078 203.8 73.4198C204.081 73.1318 204.462 72.9686 204.86 72.9658H218.14C218.538 72.9686 218.919 73.1318 219.2 73.4198C219.48 73.7078 219.638 74.0973 219.638 74.5032V75.0476C219.628 75.4679 219.474 75.8713 219.202 76.1874C218.93 76.5035 218.558 76.7123 218.151 76.7772L216.642 77.0121C216.193 77.0995 215.769 77.2927 215.406 77.5763C215.042 77.8598 214.748 78.226 214.548 78.6456L200.639 112.532C200.448 112.939 200.152 113.284 199.783 113.533C199.414 113.781 198.986 113.922 198.544 113.942H193.632C193.191 113.919 192.765 113.776 192.396 113.528C192.028 113.28 191.731 112.937 191.538 112.532L177.315 78.6242C177.111 78.2081 176.816 77.8453 176.453 77.5639C176.09 77.2825 175.668 77.0901 175.22 77.0014L173.628 76.7665C173.221 76.6996 172.85 76.4903 172.579 76.1746C172.307 75.8589 172.152 75.4566 172.141 75.037V74.4925C172.141 74.0884 172.297 73.7006 172.575 73.4129C172.853 73.1251 173.232 72.9607 173.628 72.9551H190.71Z" fill="black"/>
<path d="M238.415 72.9551C238.813 72.9579 239.194 73.1211 239.474 73.4091C239.755 73.6971 239.912 74.0866 239.912 74.4925V107.589C239.884 108.28 240.005 108.969 240.269 109.607C240.822 109.981 241.482 110.154 242.143 110.098H244.186C244.582 110.101 244.961 110.263 245.242 110.548C245.522 110.834 245.681 111.221 245.683 111.625V112.169C245.683 112.575 245.526 112.965 245.245 113.253C244.965 113.541 244.584 113.704 244.186 113.707H225.333C224.944 113.688 224.578 113.516 224.31 113.227C224.043 112.939 223.895 112.556 223.898 112.159V111.294C223.898 110.891 224.055 110.504 224.333 110.218C224.612 109.932 224.99 109.77 225.386 109.767H227.281C227.916 109.807 228.551 109.694 229.135 109.436C229.423 108.863 229.55 108.22 229.502 107.579V79.0726C229.534 78.3802 229.408 77.6896 229.135 77.0548C228.587 76.6787 227.929 76.5054 227.271 76.5637H225.375C224.982 76.5581 224.606 76.3948 224.33 76.109C224.053 75.8233 223.898 75.4382 223.898 75.037V74.4925C223.898 74.0884 224.054 73.7006 224.333 73.4129C224.611 73.1251 224.989 72.9607 225.386 72.9551H238.415Z" fill="black"/>
<path d="M267.07 72.9551C267.531 72.983 267.982 73.1085 268.393 73.3236C268.804 73.5386 269.167 73.8385 269.458 74.2042L287.787 99.9343C288.258 100.618 288.656 100.489 288.656 99.646V79.2435C288.703 78.5642 288.546 77.8864 288.206 77.3004C287.613 76.9705 286.953 76.7876 286.278 76.7665L284.498 76.6705C284.095 76.6338 283.719 76.4468 283.443 76.1455C283.167 75.8441 283.009 75.4494 283 75.037V74.4925C283 74.0866 283.158 73.6971 283.438 73.4091C283.719 73.1211 284.1 72.9579 284.498 72.9551H299.067C299.466 72.9579 299.848 73.1207 300.13 73.4085C300.412 73.6962 300.572 74.0856 300.575 74.4925V75.037C300.568 75.4518 300.41 75.8492 300.131 76.1513C299.852 76.4535 299.472 76.6386 299.067 76.6705L297.537 76.7665C296.847 76.7909 296.17 76.9734 295.558 77.3004C295.198 77.8788 295.029 78.5599 295.076 79.2435V112.159C295.076 112.565 294.919 112.954 294.638 113.242C294.358 113.53 293.977 113.693 293.578 113.696H287.787C287.323 113.669 286.871 113.544 286.456 113.331C286.042 113.118 285.675 112.821 285.378 112.458L265.049 84.4962C264.556 83.813 264.158 83.9517 264.158 84.7952V107.344C264.139 108.076 264.274 108.805 264.556 109.479C265.09 109.92 265.767 110.138 266.452 110.088H268.306C268.503 110.086 268.698 110.124 268.88 110.2C269.062 110.275 269.228 110.386 269.368 110.527C269.508 110.668 269.62 110.835 269.696 111.02C269.773 111.205 269.813 111.403 269.814 111.604V112.148C269.811 112.555 269.652 112.944 269.369 113.232C269.087 113.52 268.705 113.683 268.306 113.685H253.486C253.088 113.683 252.707 113.519 252.426 113.231C252.146 112.943 251.988 112.554 251.988 112.148V111.604C251.991 111.2 252.15 110.813 252.43 110.527C252.71 110.241 253.09 110.08 253.486 110.077H255.319C256.016 110.119 256.704 109.903 257.256 109.468C257.565 108.802 257.716 108.07 257.696 107.333V74.4925C257.699 74.0874 257.857 73.6996 258.137 73.4122C258.417 73.1248 258.797 72.9607 259.194 72.9551H267.07Z" fill="black"/>
<path d="M326.107 72.3892C326.548 72.4131 326.974 72.5563 327.342 72.804C327.711 73.0517 328.007 73.395 328.202 73.7984L342.666 108.112C342.873 108.526 343.169 108.887 343.531 109.168C343.894 109.449 344.314 109.643 344.761 109.735L345.881 109.885C346.288 109.951 346.659 110.161 346.93 110.477C347.202 110.792 347.357 111.195 347.369 111.614V112.159C347.369 112.565 347.211 112.954 346.931 113.242C346.65 113.53 346.269 113.693 345.871 113.696H329.113C328.913 113.699 328.715 113.661 328.53 113.585C328.344 113.509 328.176 113.396 328.033 113.253C327.891 113.11 327.778 112.94 327.701 112.752C327.624 112.564 327.584 112.362 327.584 112.159V111.614C327.593 111.202 327.75 110.807 328.027 110.506C328.303 110.204 328.679 110.017 329.082 109.981L330.569 109.874C331.154 109.898 331.733 109.745 332.234 109.436C332.227 108.833 332.08 108.241 331.805 107.707L328.956 100.874C328.767 100.466 328.471 100.119 328.102 99.8706C327.733 99.6221 327.304 99.4816 326.861 99.4645H316.346C315.904 99.4816 315.475 99.6221 315.105 99.8706C314.736 100.119 314.441 100.466 314.251 100.874L311.476 107.685C311.185 108.218 311.064 108.83 311.13 109.436C311.666 109.734 312.269 109.885 312.879 109.874L314.367 109.981C314.77 110.017 315.145 110.204 315.422 110.506C315.698 110.807 315.856 111.202 315.864 111.614V112.159C315.864 112.565 315.707 112.954 315.426 113.242C315.146 113.53 314.765 113.693 314.367 113.696H301.338C300.939 113.693 300.558 113.53 300.278 113.242C299.997 112.954 299.84 112.565 299.84 112.159V111.614C299.849 111.197 300.006 110.796 300.281 110.487C300.556 110.177 300.931 109.978 301.338 109.927L302.605 109.767C303.054 109.698 303.48 109.518 303.845 109.242C304.21 108.967 304.503 108.605 304.7 108.187L318.86 73.7984C319.055 73.395 319.351 73.0517 319.719 72.804C320.088 72.5563 320.514 72.4131 320.954 72.3892H326.107ZM317.006 93.9448C316.921 94.1 316.881 94.2762 316.888 94.4536C316.896 94.6311 316.952 94.8029 317.049 94.95C317.147 95.0971 317.283 95.2138 317.441 95.287C317.6 95.3602 317.776 95.3871 317.949 95.3647H326.107C326.274 95.3918 326.444 95.3678 326.597 95.2959C326.75 95.2239 326.878 95.1073 326.965 94.9608C327.053 94.8142 327.096 94.6445 327.089 94.4731C327.081 94.3017 327.024 94.1363 326.924 93.9982L322.096 84.0584C321.719 83.3111 321.174 83.3324 320.86 84.1118L317.006 93.9448Z" fill="black"/>
<path d="M373.839 72.9551C379.945 72.9551 383.15 74.1829 384.313 74.674C388.973 76.7238 390.335 80.0762 390.335 83.4286C390.335 90.5391 384.553 93.0373 379.579 93.8167C385.444 94.6388 387.119 98.888 388.806 103.628C390.817 109.191 392.66 110.034 396.504 110.034H397.876C398.274 110.034 398.598 110.717 398.598 111.572V112.009C398.589 112.428 398.431 112.83 398.153 113.14C397.876 113.45 397.499 113.647 397.09 113.696C397.09 113.696 392.744 114.123 391.696 114.123C382.71 114.123 380.301 110.109 378.133 103.82C376.447 98.9093 374.447 96.0481 368.508 96.0481C368.11 96.0481 367.785 96.7314 367.785 97.5855V107.6C367.729 108.247 367.872 108.897 368.194 109.458C368.789 109.736 369.435 109.885 370.09 109.895L371.43 110.002C371.831 110.041 372.204 110.229 372.479 110.53C372.753 110.832 372.909 111.225 372.917 111.636V112.18C372.917 112.586 372.76 112.975 372.479 113.263C372.199 113.551 371.818 113.715 371.42 113.717H353.772C353.372 113.717 352.988 113.556 352.705 113.267C352.423 112.979 352.264 112.588 352.264 112.18V111.636C352.267 111.218 352.424 110.816 352.703 110.51C352.982 110.204 353.363 110.015 353.772 109.981L355.186 109.874C355.831 109.868 356.467 109.718 357.05 109.436C357.338 108.863 357.465 108.22 357.417 107.579V79.0726C357.466 78.4307 357.339 77.7873 357.05 77.2149C356.467 76.9331 355.831 76.7803 355.186 76.7665L353.772 76.6705C353.369 76.6338 352.993 76.4468 352.717 76.1455C352.44 75.8441 352.283 75.4494 352.274 75.037V74.4925C352.277 74.0874 352.435 73.6996 352.715 73.4122C352.995 73.1248 353.375 72.9607 353.772 72.9551H373.839ZM367.827 92.0124C368.439 92.0854 369.055 92.114 369.671 92.0978C376.101 92.0978 379.537 89.5568 379.537 84.6244C379.537 78.4854 373.923 77.1509 370.236 77.1509H369.335C368.937 77.1509 368.555 77.3114 368.273 77.5974C367.99 77.8834 367.83 78.2717 367.827 78.6776V92.0124Z" fill="black"/>
<path d="M436.666 72.9551C437.064 72.9607 437.443 73.1248 437.723 73.4122C438.003 73.6996 438.161 74.0874 438.164 74.4925V81.4855C438.164 81.8914 438.007 82.2808 437.726 82.5689C437.446 82.8569 437.065 83.0201 436.666 83.0229H433.524C433.106 83.0075 432.705 82.8514 432.383 82.5791C432.061 82.3068 431.836 81.9336 431.744 81.5175L431.273 79.0513C431.197 78.4359 431.005 77.8413 430.707 77.3004C430.136 77.0969 429.53 77.0133 428.927 77.0548H419.752C419.554 77.0534 419.358 77.0918 419.175 77.1679C418.993 77.244 418.826 77.3563 418.686 77.4982C418.546 77.6401 418.435 77.8089 418.359 77.9948C418.283 78.1807 418.244 78.3801 418.244 78.5815V89.0444C418.252 89.4456 418.415 89.8273 418.697 90.107C418.979 90.3868 419.358 90.542 419.752 90.5391H424.287C424.904 90.578 425.523 90.4946 426.109 90.2935C426.419 89.7574 426.599 89.1533 426.633 88.5319L426.863 86.8237C426.933 86.4075 427.143 86.0289 427.456 85.7525C427.769 85.476 428.167 85.3188 428.581 85.3076H430.937C431.336 85.3076 431.718 85.4681 432 85.7542C432.283 86.0402 432.443 86.4285 432.446 86.8344V98.3328C432.443 98.7397 432.283 99.1291 432.001 99.4168C431.719 99.7046 431.337 99.8674 430.937 99.8702H428.581C428.165 99.8586 427.767 99.6999 427.453 99.4213C427.14 99.1427 426.931 98.7617 426.863 98.3435L426.633 96.646C426.597 96.0249 426.417 95.4213 426.109 94.8844C425.523 94.6833 424.904 94.5999 424.287 94.6388H419.752C419.554 94.6374 419.358 94.6758 419.175 94.7519C418.993 94.828 418.826 94.9403 418.686 95.0822C418.546 95.2241 418.435 95.3929 418.359 95.5788C418.283 95.7647 418.244 95.9641 418.244 96.1655V108.07C418.244 108.271 418.283 108.47 418.359 108.656C418.435 108.842 418.546 109.011 418.686 109.153C418.826 109.295 418.993 109.407 419.175 109.483C419.358 109.559 419.554 109.598 419.752 109.596H431.105C431.719 109.648 432.336 109.538 432.896 109.276C433.179 108.698 433.369 108.079 433.462 107.44L434.163 103.82C434.256 103.401 434.484 103.025 434.81 102.752C435.137 102.48 435.543 102.326 435.965 102.315H438.803C439.203 102.315 439.587 102.477 439.869 102.765C440.152 103.054 440.311 103.445 440.311 103.853V112.159C440.311 112.566 440.152 112.958 439.869 113.246C439.587 113.534 439.203 113.696 438.803 113.696H404.241C403.841 113.693 403.459 113.53 403.177 113.243C402.895 112.955 402.735 112.566 402.732 112.159V111.614C402.744 111.201 402.904 110.806 403.182 110.505C403.46 110.204 403.836 110.017 404.241 109.981L405.571 109.874C406.229 109.862 406.877 109.713 407.477 109.436C407.78 108.868 407.914 108.223 407.864 107.579V79.0726C407.916 78.4318 407.793 77.7889 407.508 77.215C406.925 76.9316 406.29 76.7787 405.644 76.7665L404.241 76.6705C403.836 76.634 403.46 76.4474 403.182 76.1463C402.904 75.8451 402.744 75.4504 402.732 75.037V74.4925C402.735 74.0856 402.895 73.6962 403.177 73.4085C403.459 73.1207 403.841 72.9579 404.241 72.9551H436.666Z" fill="black"/>
<path d="M248.972 66.8481C257.414 66.0367 261.153 69.3784 256.167 71.0546C255.447 71.3035 254.703 71.4718 253.947 71.5564C253.319 71.6098 252.973 72.2504 253.402 72.987C253.832 73.7237 254.45 75.3999 253.696 76.0939C253.568 76.205 253.418 76.2856 253.256 76.3297C253.094 76.3737 252.924 76.3801 252.759 76.3483C252.594 76.3166 252.438 76.2475 252.303 76.1461C252.168 76.0448 252.057 75.9138 251.978 75.7629C251.72 75.1963 251.64 74.5627 251.748 73.9479C251.894 72.9764 251.842 71.8767 250.575 71.5244C249.678 71.2714 248.721 71.3587 247.883 71.7699C245.694 73.0404 246.71 74.834 247.338 76.1686C247.967 77.5031 248.721 81.5068 245.453 81.5068C242.688 81.5068 242.698 78.0476 243.463 76.1045C244.081 74.5885 244.364 73.3607 243.882 72.5386C243.4 71.7165 241.923 71.5884 241.033 71.3429C239.305 70.8411 238.394 69.3998 241.536 68.14C240.174 71.7913 247.181 70.9585 249.36 70.4994C250.281 70.3073 252.502 69.6667 252.125 68.5136C251.81 67.6061 249.894 66.9015 248.972 66.8481Z" fill="black"/>
<path d="M221.737 110.129C222.617 111.966 222.104 114.005 220.218 116.236C218.695 117.922 216.929 119.361 214.982 120.507C211.686 122.44 208.134 123.879 204.435 124.777C203.901 127.617 203.388 130.446 202.822 133.318C202.273 136.132 201.401 138.869 200.225 141.475C199.03 144.084 197.233 146.358 194.988 148.105C194.648 148.388 194.266 148.615 193.857 148.778C194.799 148.778 196.056 148.65 197.617 148.521C199.053 148.465 200.449 148.019 201.659 147.23C202.546 146.361 203.378 145.438 204.152 144.464H204.257L204.33 144.528C204.332 144.677 204.288 144.823 204.204 144.945C203.53 146.288 202.519 147.426 201.274 148.242C200.028 149.058 198.593 149.523 197.114 149.589C196.446 149.632 195.776 149.607 195.113 149.514C194.463 149.438 193.809 149.413 193.155 149.44C192.698 149.508 192.247 149.608 191.804 149.739C191.249 149.888 190.686 150.002 190.118 150.08C188.871 150.187 188.128 149.984 187.876 149.44C187.73 149.13 188.159 148.927 189.165 148.842C189.573 148.842 190.212 148.778 191.06 148.778C191.909 148.778 192.537 148.778 192.935 148.692C195.281 147.361 197.114 144.621 198.434 140.471C198.832 139.201 199.544 135.902 200.528 130.553C200.815 129.165 201.22 127.432 201.743 125.354C199.738 125.801 197.71 126.136 195.669 126.357C193.94 129.443 192.17 132.496 190.432 135.518C195.009 136.083 197.763 136.97 198.633 138.176C197.439 137.464 194.59 136.817 190.086 136.233C186.525 142.212 182.517 146.714 178.063 149.739C172.903 153.297 166.427 155.433 158.634 156.144C156.925 156.304 155.206 156.339 153.492 156.251C155.587 160.522 159.619 163.572 165.589 165.401C170.473 166.914 175.597 167.45 180.681 166.981C186.127 166.49 190.435 165.162 193.605 162.999C196.852 160.778 197.91 158.482 196.81 156.134C196.355 155.143 195.627 154.309 194.715 153.731C194.509 153.632 194.315 153.506 194.139 153.358C194.155 153.348 194.173 153.344 194.192 153.344C194.21 153.344 194.228 153.348 194.244 153.358C195.049 153.434 195.797 153.815 196.339 154.425C197.018 154.96 197.594 155.619 198.036 156.369C199.174 158.803 197.98 161.155 194.454 163.426C190.928 165.696 186.424 167.052 180.943 167.493C175.668 168.072 170.333 167.586 165.243 166.063C159.273 164.216 155.189 160.97 152.979 156.369C148.883 156.205 144.862 155.202 141.154 153.422C137.47 151.751 134.471 148.826 132.671 145.148C131.527 142.861 131.229 140.23 131.833 137.738C132.437 135.444 133.703 133.387 135.467 131.834C139.517 128.09 145.064 125.895 152.109 125.247C156.314 124.833 160.557 125.107 164.678 126.058C169.977 127.325 173.409 129.617 174.973 132.934C175.352 133.784 175.603 134.687 175.717 135.614C175.863 135.614 176.136 135.614 176.534 135.539L177.403 135.475C180.944 135.124 184.508 135.092 188.054 135.379C188.85 134.183 190.596 131.3 193.291 126.731C188.896 127.078 184.475 126.769 180.168 125.813C174.533 124.546 170.906 122.193 169.286 118.756C168.19 116.421 168.458 114.45 170.092 112.841C171.846 111.301 174.063 110.416 176.376 110.332C179.109 110 181.879 110.459 184.368 111.656C185.45 112.097 186.374 112.864 187.017 113.855C187.154 114.133 187.175 114.272 187.017 114.293C185.868 112.711 184.179 111.625 182.283 111.25C180.49 110.757 178.624 110.598 176.774 110.78C174.605 110.834 172.526 111.675 170.909 113.151C169.464 114.656 169.254 116.524 170.312 118.745C171.883 122.055 175.371 124.307 180.786 125.535C184.969 126.439 189.257 126.734 193.522 126.411C200.092 114.517 207.357 108.211 215.317 107.492C218.595 107.129 220.753 108.037 221.737 110.129ZM174.47 133.009C173.074 130.005 169.729 128.055 164.437 127.158C160.577 126.543 156.657 126.428 152.769 126.816C147.188 127.167 141.795 129.008 137.132 132.155C132.063 135.777 130.716 140.091 133.09 145.094C134.839 148.626 137.743 151.424 141.301 153.006C144.904 154.67 148.786 155.616 152.738 155.792C152.074 154.41 151.74 152.888 151.763 151.35C151.787 149.812 152.168 148.301 152.874 146.941C148.426 146.03 145.651 144.425 144.548 142.126C144.402 141.78 144.283 141.423 144.191 141.059C144.055 140.503 144.055 140.215 144.191 140.215C144.264 140.204 144.338 140.204 144.411 140.215C144.411 140.322 144.506 140.621 144.621 141.112C144.685 141.408 144.776 141.698 144.893 141.977C145.721 143.389 147.024 144.447 148.559 144.956C150.072 145.582 151.655 146.015 153.272 146.247C154.955 143.4 157.995 141.019 162.394 139.105C166.461 137.382 170.744 136.25 175.12 135.742C175.104 134.793 174.883 133.859 174.47 133.009ZM187.719 136.212C184.122 135.908 180.505 135.93 176.911 136.276C176.544 136.276 176.156 136.35 175.758 136.425C175.758 139.436 174.013 141.966 170.522 144.016C167.31 145.87 163.731 146.964 160.048 147.219C157.872 147.432 155.677 147.346 153.523 146.963C152.729 148.261 152.28 149.748 152.219 151.277C152.158 152.807 152.489 154.326 153.178 155.685C154.922 155.805 156.674 155.78 158.414 155.611C164.899 155.164 171.139 152.907 176.45 149.087C180.977 145.563 184.802 141.189 187.719 136.201V136.212ZM175.057 136.446C170.867 136.95 166.763 138.027 162.855 139.649C158.561 141.443 155.566 143.671 153.869 146.333C159.11 146.809 164.38 145.827 169.118 143.493C172.815 141.507 174.784 139.222 175.057 136.436V136.446ZM221.14 110.193C220.892 109.703 220.547 109.269 220.127 108.92C219.707 108.571 219.221 108.314 218.7 108.165C217.688 107.826 216.617 107.709 215.558 107.823C210.655 108.335 206.143 110.784 202.99 114.645C200.155 118.179 197.724 122.029 195.742 126.122C197.758 125.887 199.758 125.53 201.733 125.055C202.594 121.686 203.864 118.44 205.514 115.393C207.786 111.357 210.394 109.222 213.337 108.987C214.605 108.88 215.233 108.987 215.202 109.307L215.086 109.425L213.683 109.318C212.545 109.444 211.454 109.851 210.503 110.501C209.553 111.152 208.772 112.028 208.226 113.054C207.173 114.964 206.36 117.002 205.807 119.119C205.151 121.425 204.693 123.204 204.435 124.457C207.908 123.451 211.231 121.967 214.311 120.048C220.142 116.104 222.432 112.816 221.182 110.183L221.14 110.193Z" fill="#E7A43F" stroke="#E7A43F" stroke-width="0.401664"/>
<path d="M214.362 143.492C214.362 143.61 214.174 144.058 213.619 144.816C212.907 145.867 211.972 146.741 210.885 147.375C209.797 148.008 208.584 148.385 207.335 148.478C205.575 148.649 204.402 148.105 203.805 146.855C203.549 146.336 203.5 145.735 203.669 145.179C203.747 144.92 203.903 144.692 204.116 144.529C204.328 144.366 204.586 144.276 204.852 144.272C205.481 144.272 205.9 144.378 206.067 144.763C206.235 145.147 206.067 145.564 205.638 146.044C205.435 146.194 205.286 146.408 205.214 146.653C205.142 146.898 205.151 147.161 205.24 147.4C205.402 147.687 205.65 147.914 205.948 148.046C206.246 148.179 206.578 148.21 206.895 148.137C207.295 148.116 207.678 147.965 207.988 147.706C208.297 147.446 208.516 147.092 208.612 146.695C208.849 145.835 208.937 144.939 208.874 144.047C208.81 143.259 208.853 142.465 209 141.688C207.481 143.556 206.518 144.517 206.109 144.549C206.079 144.561 206.045 144.561 206.015 144.549C206.015 144.389 206.444 143.823 207.356 142.83C207.975 142.23 208.543 141.576 209.052 140.877C209.156 140.554 209.345 140.267 209.598 140.047C209.851 139.826 210.159 139.681 210.487 139.627C210.864 139.627 211.084 139.627 211.126 139.724C211.168 139.82 210.78 140.343 209.89 141.122C209.775 141.229 210.1 142.115 210.864 143.759C211.136 144.318 211.249 144.943 211.189 145.564C211.167 146.128 210.935 146.662 210.54 147.058C211.531 146.434 212.416 145.647 213.158 144.731C213.818 143.877 214.205 143.439 214.321 143.428C214.436 143.418 214.341 143.428 214.362 143.492Z" fill="#E7A43F" stroke="#E7A43F" stroke-width="0.401664"/>
<path d="M224.232 142.564C224.284 142.692 224.043 143.141 223.499 143.888C222.775 144.943 221.83 145.821 220.732 146.458C219.634 147.095 218.411 147.475 217.152 147.571C215.392 147.732 214.23 147.187 213.622 145.927C213.491 145.671 213.412 145.39 213.391 145.102C213.369 144.814 213.405 144.525 213.497 144.251C213.574 143.994 213.729 143.769 213.94 143.608C214.151 143.447 214.406 143.358 214.67 143.354C215.298 143.29 215.717 143.461 215.885 143.845C216.052 144.23 215.885 144.657 215.455 145.126C215.026 145.596 214.858 146.055 215.068 146.482C215.277 146.909 215.874 147.294 216.722 147.208C217.12 147.187 217.499 147.036 217.806 146.779C218.114 146.521 218.332 146.171 218.43 145.778C218.67 144.918 218.759 144.021 218.691 143.13C218.633 142.345 218.675 141.555 218.817 140.781C217.299 142.65 216.335 143.61 215.926 143.642C215.926 143.642 215.874 143.642 215.832 143.642C215.79 143.642 216.272 142.916 217.173 141.924C217.797 141.324 218.365 140.666 218.87 139.959C218.978 139.638 219.169 139.352 219.424 139.132C219.678 138.912 219.986 138.766 220.315 138.71C220.681 138.71 220.901 138.71 220.943 138.806C220.985 138.902 220.608 139.436 219.707 140.205C219.592 140.333 219.917 141.198 220.681 142.842C220.946 143.406 221.058 144.033 221.006 144.657C220.982 145.22 220.75 145.754 220.357 146.151C221.349 145.523 222.234 144.733 222.975 143.813C223.635 142.959 224.023 142.532 224.138 142.521C224.172 142.529 224.204 142.543 224.232 142.564Z" fill="#E7A43F" stroke="#E7A43F" stroke-width="0.401664"/>
<path d="M234.911 144.252C234.562 144.756 234.117 145.184 233.603 145.509C233.088 145.834 232.514 146.049 231.915 146.141C231.583 146.22 231.234 146.182 230.926 146.032C230.618 145.883 230.368 145.632 230.218 145.319C230.11 145.112 230.054 144.881 230.054 144.647C230.054 144.412 230.11 144.181 230.218 143.974C229.821 144.685 229.269 145.294 228.605 145.753C227.94 146.212 227.181 146.509 226.385 146.622C225.948 146.724 225.49 146.674 225.084 146.481C224.678 146.287 224.347 145.961 224.144 145.554C223.967 145.161 223.882 144.732 223.897 144.3C223.911 143.868 224.025 143.446 224.228 143.066C223.997 143.526 223.809 143.75 223.704 143.76C223.653 143.778 223.598 143.778 223.547 143.76V143.686V143.526C224.143 142.43 225.001 141.505 226.04 140.835C227.047 140.014 228.244 139.47 229.517 139.255C230.564 139.159 231.193 139.447 231.507 140.12C231.585 140.277 231.635 140.447 231.653 140.622C231.801 140.18 232.061 139.786 232.407 139.48C232.753 139.175 233.172 138.968 233.622 138.881C233.999 138.881 234.209 138.881 234.251 138.956C233.969 139.879 233.619 140.778 233.203 141.647C232.481 143.365 232.24 144.476 232.481 144.988L232.669 145.18C232.777 145.197 232.886 145.197 232.994 145.18C233.601 145.116 234.345 144.508 235.246 143.312C235.7 142.66 236.201 142.043 236.744 141.465H236.796C236.827 141.721 236.22 142.661 234.911 144.252ZM231.025 140.291C230.93 140.07 230.764 139.889 230.555 139.776C230.346 139.664 230.105 139.627 229.873 139.671C229.129 139.746 228.229 140.6 227.192 142.244C226.155 143.889 225.767 145.02 226.061 145.629C226.128 145.776 226.242 145.897 226.384 145.97C226.527 146.044 226.689 146.066 226.846 146.035C227.673 145.96 228.658 145.148 229.789 143.6C230.92 142.052 231.35 140.931 231.025 140.291Z" fill="#E7A43F" stroke="#E7A43F" stroke-width="0.401664"/>
<path d="M249.029 140.376C249.217 140.76 248.463 141.775 246.767 143.43C245.769 144.446 244.72 145.408 243.625 146.312C241.774 153.43 238.925 158.309 235.078 160.949C234.307 161.515 233.412 161.882 232.47 162.017C231.077 162.145 230.177 161.761 229.758 160.853C229.199 159.679 229.74 158.063 231.381 156.006C233.002 154.031 234.809 152.221 236.775 150.604L241.425 146.782C241.718 145.906 242.085 144.647 242.473 143.045C242.059 143.71 241.512 144.277 240.868 144.709C240.223 145.142 239.496 145.43 238.733 145.554C238.288 145.65 237.824 145.59 237.416 145.385C237.007 145.18 236.678 144.841 236.482 144.422C236.288 144.049 236.199 143.629 236.223 143.207C236.247 142.786 236.384 142.379 236.618 142.031C236.283 142.469 236.094 142.693 236.042 142.693C236.005 142.708 235.964 142.708 235.927 142.693V142.618V142.447C236.606 141.35 237.498 140.405 238.548 139.671C239.598 138.936 240.783 138.428 242.033 138.177C242.455 138.083 242.897 138.155 243.27 138.378C243.643 138.602 243.919 138.961 244.044 139.383H244.096C244.525 138.412 245.007 137.899 245.531 137.856C246.054 137.814 246.358 137.856 246.431 138.049C246.505 138.241 246.431 138.422 246.159 138.935C245.887 139.447 245.164 141.732 243.813 145.778L245.258 144.454C246.11 143.687 246.911 142.863 247.657 141.988C248.03 141.356 248.492 140.784 249.029 140.291C249.029 140.291 249.029 140.355 249.029 140.376ZM241.331 147.487C237.197 151.138 234.956 153.138 234.607 153.487C231.577 156.647 230.452 159.045 231.234 160.683C231.378 160.995 231.62 161.248 231.922 161.403C232.224 161.558 232.568 161.605 232.9 161.537C235.707 161.248 238.555 156.572 241.352 147.487H241.331ZM243.426 139.052C243.334 138.838 243.175 138.66 242.975 138.546C242.774 138.432 242.543 138.389 242.315 138.422C241.561 138.497 240.671 139.351 239.613 141.006C238.555 142.661 238.189 143.814 238.503 144.454C238.571 144.609 238.69 144.735 238.839 144.811C238.988 144.887 239.158 144.908 239.32 144.871C240.158 144.796 241.132 143.974 242.242 142.415C243.352 140.856 243.792 139.735 243.457 139.052H243.426Z" fill="#E7A43F" stroke="#E7A43F" stroke-width="0.401664"/>
<path d="M261.383 139.222C261.572 139.596 260.818 140.61 259.121 142.254C258.134 143.282 257.085 144.244 255.979 145.137C254.129 152.255 251.276 157.137 247.422 159.785C246.661 160.363 245.766 160.73 244.825 160.853C243.432 160.981 242.531 160.596 242.101 159.7C241.543 158.525 242.084 156.906 243.725 154.842C245.357 152.877 247.162 151.068 249.119 149.44C250.658 148.19 252.208 146.909 253.758 145.628C254.073 144.742 254.429 143.493 254.806 141.891C254.395 142.557 253.848 143.125 253.203 143.556C252.558 143.987 251.829 144.271 251.067 144.39C250.63 144.492 250.172 144.442 249.766 144.249C249.36 144.055 249.029 143.729 248.825 143.322C248.633 142.947 248.543 142.526 248.565 142.103C248.588 141.681 248.721 141.272 248.951 140.92C248.626 141.357 248.417 141.56 248.354 141.571C248.323 141.58 248.291 141.58 248.26 141.571V141.496V141.347C248.936 140.246 249.827 139.299 250.877 138.565C251.928 137.83 253.115 137.323 254.366 137.076C254.771 136.983 255.195 137.041 255.562 137.238C255.929 137.436 256.214 137.761 256.366 138.155C256.817 137.172 257.299 136.66 257.822 136.617C258.346 136.574 258.639 136.617 258.723 136.809C258.807 137.002 258.723 137.183 258.451 137.695C258.178 138.208 257.456 140.493 256.105 144.528L257.55 143.194C258.399 142.427 259.2 141.607 259.948 140.738C260.326 140.138 260.784 139.596 261.31 139.126L261.383 139.222ZM253.696 146.322C249.555 149.98 247.31 151.984 246.961 152.333C243.952 155.5 242.831 157.899 243.599 159.529C243.744 159.839 243.987 160.092 244.288 160.247C244.59 160.402 244.933 160.449 245.264 160.383C248.05 160.127 250.861 155.454 253.696 146.365V146.322ZM255.79 137.888C255.699 137.673 255.54 137.495 255.34 137.382C255.139 137.268 254.907 137.224 254.68 137.258C253.937 137.333 253.025 138.187 251.968 139.841C250.91 141.496 250.554 142.639 250.847 143.29C250.922 143.444 251.045 143.568 251.196 143.643C251.348 143.719 251.52 143.741 251.685 143.706C252.512 143.632 253.486 142.799 254.596 141.24C255.707 139.681 256.115 138.614 255.801 137.93L255.79 137.888Z" fill="#E7A43F" stroke="#E7A43F" stroke-width="0.401664"/>
<path d="M268.355 138.614C268.492 138.902 267.895 139.799 266.575 141.337C265.846 142.345 264.767 143.032 263.559 143.258C263.229 143.343 262.882 143.313 262.571 143.174C262.26 143.035 262.003 142.794 261.841 142.49C261.584 141.572 261.685 140.589 262.124 139.746C262.419 138.852 262.857 138.015 263.422 137.269C262.926 137.768 262.454 138.291 262.009 138.838C261.799 139.148 261.453 139.586 260.961 140.162C260.866 140.269 260.736 140.338 260.595 140.354L260.553 140.29C260.553 139.671 261.16 138.838 262.312 137.781C263.094 136.902 264.121 136.287 265.255 136.02C265.435 135.982 265.62 135.982 265.8 136.02V136.095C265.495 136.991 265.146 137.871 264.753 138.732C264.019 140.44 263.758 141.497 263.957 141.935C264.028 142.013 264.109 142.081 264.198 142.137C264.239 142.177 264.289 142.205 264.344 142.222C264.398 142.239 264.456 142.243 264.512 142.233C265.004 142.233 265.685 141.593 266.544 140.429C267.402 139.265 268.01 138.636 268.345 138.529L268.355 138.614ZM267.361 130.917C267.539 131.258 267.423 131.643 267.036 132.059C266.715 132.431 266.272 132.671 265.789 132.732C265.566 132.557 265.393 132.325 265.287 132.059C264.868 131.162 265.287 130.65 266.554 130.543C266.973 130.5 267.245 130.682 267.361 130.917Z" fill="#E7A43F" stroke="#E7A43F" stroke-width="0.401664"/>
<path d="M279.007 140.289C278.66 140.796 278.216 141.224 277.701 141.549C277.185 141.874 276.611 142.089 276.012 142.179C275.679 142.254 275.332 142.214 275.025 142.065C274.718 141.916 274.468 141.667 274.315 141.357C274.207 141.15 274.15 140.919 274.15 140.685C274.15 140.45 274.207 140.219 274.315 140.012C273.92 140.727 273.369 141.34 272.704 141.803C272.039 142.266 271.279 142.566 270.482 142.681C270.045 142.781 269.588 142.731 269.182 142.538C268.776 142.344 268.445 142.019 268.24 141.613C268.063 141.221 267.979 140.791 267.993 140.359C268.008 139.928 268.121 139.505 268.324 139.126C268.083 139.574 267.905 139.809 267.79 139.809C267.765 139.821 267.738 139.827 267.711 139.827C267.684 139.827 267.657 139.821 267.633 139.809V139.734V139.574C268.167 138.449 268.974 137.483 269.979 136.766C270.981 135.937 272.181 135.392 273.456 135.186C274.503 135.101 275.132 135.378 275.436 136.04C275.51 136.203 275.559 136.375 275.582 136.553C275.728 136.11 275.988 135.715 276.334 135.409C276.68 135.103 277.1 134.897 277.551 134.812C277.928 134.812 278.138 134.834 278.18 134.877C277.907 135.806 277.557 136.71 277.132 137.578C276.41 139.297 276.169 140.407 276.42 140.919L276.598 141.112C276.706 141.122 276.815 141.122 276.923 141.112C277.53 141.112 278.284 140.439 279.175 139.254C279.623 138.594 280.128 137.976 280.683 137.407H280.735C280.924 137.706 280.327 138.635 279.007 140.289ZM275.121 136.297C275.027 136.078 274.863 135.898 274.656 135.786C274.449 135.674 274.211 135.635 273.98 135.677C273.236 135.752 272.325 136.606 271.288 138.25C270.251 139.894 269.864 141.026 270.167 141.635C270.234 141.78 270.347 141.899 270.487 141.972C270.627 142.046 270.787 142.07 270.942 142.04C271.773 141.962 272.758 141.151 273.896 139.606C275.038 138.015 275.446 136.916 275.121 136.243V136.297Z" fill="#E7A43F" stroke="#E7A43F" stroke-width="0.401664"/>
<path d="M294.415 136.243C294.541 136.532 293.954 137.439 292.634 138.966C291.897 139.975 290.812 140.662 289.597 140.888C289.27 140.967 288.927 140.936 288.619 140.799C288.312 140.662 288.056 140.427 287.89 140.13C287.628 139.209 287.729 138.221 288.173 137.375C288.469 136.477 288.912 135.636 289.482 134.888C289.157 135.219 288.675 135.742 288.058 136.457C287.838 136.777 287.513 137.215 287.01 137.792C286.915 137.894 286.79 137.961 286.654 137.984L286.57 137.909C286.57 137.3 287.167 136.457 288.319 135.411C289.106 134.553 290.134 133.964 291.262 133.724C291.45 133.696 291.64 133.696 291.828 133.724V133.809C291.528 134.704 291.178 135.581 290.781 136.436C290.058 138.155 289.786 139.212 289.985 139.639C290.059 139.721 290.144 139.792 290.236 139.852C290.277 139.889 290.326 139.916 290.378 139.932C290.43 139.949 290.485 139.954 290.54 139.948C291.042 139.948 291.713 139.308 292.582 138.144C293.042 137.387 293.652 136.736 294.373 136.233L294.415 136.243ZM293.368 128.535C293.535 128.887 293.43 129.272 293.032 129.688C292.711 130.058 292.267 130.293 291.786 130.35C291.563 130.182 291.392 129.952 291.294 129.688C290.864 128.781 291.294 128.279 292.561 128.172C292.724 128.119 292.901 128.127 293.059 128.195C293.217 128.264 293.345 128.389 293.42 128.546L293.368 128.535Z" fill="#E7A43F" stroke="#E7A43F" stroke-width="0.401664"/>
<path d="M308.509 117.197C308.949 118.136 308.572 119.524 307.378 121.361C306.184 123.197 303.07 127.247 298.036 133.51C297.606 134.331 297.33 135.225 297.219 136.147C296.953 137.036 296.896 137.976 297.052 138.891L297.23 139.062C297.351 139.152 297.499 139.197 297.648 139.19C298.623 139.105 299.743 137.984 301.073 135.838L301.524 135.56V135.635C301.649 135.891 301.052 136.799 299.733 138.358C298.962 139.377 297.838 140.057 296.591 140.258C295.69 140.322 295.093 140.076 294.821 139.479C294.444 138.699 294.611 137.343 295.282 135.208C294.506 136.372 294.025 136.959 293.857 136.98H293.794C293.731 136.767 293.993 136.276 294.59 135.507C294.967 135.016 295.334 134.525 295.711 134.044C295.931 133.446 296.276 132.518 296.758 131.29C300.696 121.553 304.009 116.571 306.698 116.343C307.05 116.266 307.416 116.308 307.743 116.462C308.07 116.616 308.339 116.874 308.509 117.197ZM307.462 117.442C307.379 117.233 307.232 117.057 307.044 116.938C306.856 116.819 306.636 116.764 306.415 116.781C305.346 116.873 303.755 119.268 301.639 123.966C300.327 126.735 299.193 129.588 298.245 132.507C300.162 129.987 302.068 127.468 303.964 124.916C306.792 120.923 307.965 118.446 307.494 117.442H307.462Z" fill="#E7A43F" stroke="#E7A43F" stroke-width="0.401664"/>
<path d="M322.693 115.894C323.175 116.887 322.798 118.286 321.646 120.058C320.494 121.83 318.074 124.905 314.566 129.25C314 129.891 313.215 130.873 312.199 132.186C311.326 134.279 310.564 136.417 309.915 138.592C312.005 137.766 313.821 136.352 315.152 134.514C315.288 134.322 315.393 134.215 315.456 134.215C315.519 134.215 315.592 134.215 315.613 134.215C315.636 134.307 315.638 134.403 315.618 134.496C315.598 134.588 315.557 134.675 315.498 134.749C314.988 135.567 314.343 136.29 313.592 136.884C312.37 137.668 311.192 138.52 310.062 139.436C309.966 139.915 309.966 140.409 310.062 140.888C310.062 141.411 310.146 141.955 310.198 142.436C310.284 144.901 310.073 147.368 309.57 149.781C308.837 153.251 307.706 155.119 306.176 155.205C305.889 155.258 305.592 155.209 305.337 155.065C305.081 154.921 304.882 154.691 304.773 154.415C303.495 151.731 305.084 144.785 309.538 133.574H309.486C308.967 134.318 308.37 135.001 307.706 135.614C307.653 135.464 307.988 134.92 308.68 133.969L309.957 132.368C310.565 130.852 311.35 128.887 312.324 126.517C313.313 124.198 314.502 121.972 315.875 119.866C317.886 116.663 319.603 115.04 321.007 114.901C321.356 114.857 321.709 114.93 322.014 115.109C322.318 115.288 322.557 115.564 322.693 115.894ZM309.455 139.799H309.402C308.669 141.934 307.925 144.422 307.182 147.133C306.121 151.112 305.733 153.457 306.019 154.169C306.063 154.285 306.143 154.383 306.248 154.447C306.352 154.51 306.474 154.537 306.595 154.521C307.726 154.415 308.69 152.279 309.381 148.116C309.789 145.361 309.814 142.561 309.455 139.799ZM321.667 116.108C321.593 115.894 321.447 115.715 321.255 115.601C321.063 115.488 320.838 115.448 320.619 115.489C319.572 115.585 317.99 117.891 315.938 122.418C314.626 125.255 313.458 128.159 312.44 131.119L318.011 123.645C320.902 119.574 322.121 117.062 321.667 116.108Z" fill="#E7A43F" stroke="#E7A43F" stroke-width="0.401664"/>
<path d="M329.456 133.062C329.592 133.361 329.016 134.279 327.686 135.806C326.953 136.786 325.889 137.455 324.701 137.685C324.359 137.773 323.998 137.742 323.676 137.597C323.353 137.452 323.087 137.201 322.921 136.884C322.544 136.105 322.826 134.941 323.738 133.372L323.622 133.308C321.098 136.51 319.213 138.197 317.946 138.304C316.993 138.39 316.375 138.123 316.081 137.503C315.6 136.5 316.144 134.77 317.694 132.325C317.186 132.818 316.703 133.339 316.249 133.884C316.029 134.204 315.704 134.653 315.202 135.219C315.107 135.321 314.982 135.388 314.846 135.411L314.762 135.336C315.079 134.324 315.671 133.425 316.469 132.742C317.218 131.86 318.236 131.262 319.36 131.044C319.553 130.999 319.756 131.021 319.936 131.108C319.936 131.172 319.58 132.176 318.888 134.119C318.302 135.742 318.092 136.724 318.27 137.087C318.331 137.145 318.397 137.195 318.469 137.236C318.52 137.278 318.579 137.307 318.643 137.322C318.706 137.337 318.772 137.337 318.836 137.322C319.517 137.322 321.517 135.187 324.806 130.991C324.933 130.83 325.092 130.698 325.272 130.604C325.453 130.51 325.651 130.457 325.853 130.446C326.45 130.446 326.775 130.446 326.901 130.564C326.658 131.51 326.307 132.424 325.853 133.286C325.131 134.984 324.869 136.009 325.047 136.393C325.09 136.495 325.163 136.581 325.256 136.639C325.345 136.702 325.453 136.728 325.56 136.713C326.534 136.617 327.655 135.507 328.911 133.34L329.383 133.051L329.456 133.062Z" fill="#E7A43F" stroke="#E7A43F" stroke-width="0.401664"/>
<path d="M335.962 124.104C334.848 125.937 333.924 127.884 333.207 129.912C333.428 129.864 333.652 129.832 333.877 129.816L335.658 129.645C336.087 129.645 336.328 129.645 336.401 129.774C336.475 129.902 336.045 130.094 335.092 130.179L333.06 130.371C332.013 133.126 331.72 134.877 332.065 135.614C332.113 135.747 332.202 135.861 332.32 135.939C332.437 136.016 332.576 136.052 332.715 136.041C333.259 136.041 334.537 134.759 336.517 132.325C336.542 132.324 336.568 132.331 336.59 132.344C336.612 132.357 336.63 132.377 336.642 132.4C336.778 132.678 336.171 133.585 334.862 135.122C334.075 136.182 332.914 136.887 331.626 137.087C331.29 137.166 330.938 137.131 330.623 136.986C330.309 136.842 330.05 136.596 329.887 136.286C329.51 135.507 329.667 134.151 330.348 132.122C329.851 132.868 329.309 133.581 328.724 134.258C328.684 134.249 328.645 134.232 328.611 134.209C328.577 134.185 328.548 134.154 328.525 134.119C328.759 133.557 329.081 133.037 329.478 132.581C330.316 131.45 330.777 130.799 330.871 130.66L329.992 130.734L329.185 130.809H328.902C328.868 130.796 328.836 130.777 328.809 130.751C328.782 130.725 328.76 130.694 328.745 130.66C328.672 130.532 329.039 130.436 329.793 130.361C330.194 130.347 330.594 130.297 330.987 130.211C332.547 126.197 333.94 124.136 335.176 124.03C335.439 123.973 335.713 123.999 335.962 124.104Z" fill="#E7A43F" stroke="#E7A43F" stroke-width="0.401664"/>
<path d="M350.531 131.142C350.678 131.451 350.092 132.359 348.772 133.886C348.03 134.868 346.961 135.54 345.766 135.775C345.423 135.855 345.064 135.819 344.743 135.673C344.422 135.526 344.156 135.278 343.986 134.964C343.629 134.185 343.902 133.021 344.823 131.451L344.687 131.387C342.184 134.59 340.288 136.277 339.021 136.395C338.068 136.469 337.45 136.202 337.157 135.583C336.675 134.58 337.22 132.85 338.759 130.405C338.259 130.903 337.783 131.427 337.335 131.975C337.125 132.284 336.79 132.733 336.288 133.298C336.197 133.407 336.07 133.475 335.931 133.491L335.848 133.427C336.154 132.406 336.747 131.5 337.555 130.822C338.306 129.937 339.328 129.339 340.456 129.124C340.646 129.077 340.846 129.099 341.022 129.188C341.022 129.241 340.665 130.256 339.974 132.199C339.377 133.832 339.168 134.804 339.335 135.177C339.335 135.177 339.451 135.242 339.545 135.316C339.594 135.356 339.652 135.386 339.713 135.402C339.774 135.419 339.838 135.422 339.901 135.412C340.599 135.348 342.593 133.238 345.881 129.081C346.005 128.917 346.163 128.782 346.344 128.688C346.526 128.594 346.725 128.542 346.929 128.537C347.536 128.473 347.871 128.537 347.976 128.644C347.742 129.593 347.39 130.508 346.929 131.366C346.216 133.053 345.944 134.089 346.133 134.473C346.176 134.578 346.249 134.667 346.342 134.729C346.432 134.788 346.54 134.811 346.646 134.793C347.62 134.697 348.74 133.587 350.018 131.409L350.469 131.131L350.531 131.142Z" fill="#E7A43F" stroke="#E7A43F" stroke-width="0.401664"/>
<path d="M359.44 130.319C359.618 130.682 359.01 131.589 357.628 133.084C356.838 134.081 355.723 134.756 354.486 134.984C354.144 135.063 353.787 135.028 353.466 134.884C353.145 134.739 352.879 134.494 352.705 134.184C352.349 133.415 352.705 132.326 353.7 130.885C354.695 129.443 355.23 128.749 355.219 128.749C355.209 128.749 354.947 128.514 354.612 128.525C354.295 128.523 353.98 128.551 353.669 128.611H352.936C352.717 128.638 352.495 128.638 352.276 128.611C351.923 129.302 351.52 129.965 351.072 130.596C350.743 131.204 350.322 131.755 349.825 132.23C349.787 132.235 349.747 132.228 349.713 132.209C349.679 132.19 349.652 132.159 349.637 132.123C349.637 132.123 349.637 131.952 349.825 131.749C350.15 131.344 350.873 130.244 351.92 128.472C351.797 128.432 351.683 128.366 351.588 128.277C351.492 128.189 351.416 128.08 351.365 127.959C351.256 127.792 351.213 127.588 351.246 127.389C351.279 127.191 351.385 127.013 351.543 126.892C351.865 126.594 352.281 126.424 352.716 126.411C352.888 126.378 353.065 126.388 353.231 126.442C353.398 126.497 353.548 126.592 353.669 126.721L353.24 127.244C353.152 127.324 353.092 127.43 353.068 127.547C353.043 127.664 353.056 127.786 353.103 127.895C353.187 128.087 353.732 128.151 354.737 128.119C355.743 128.087 356.361 128.29 356.57 128.749C356.696 128.995 356.424 129.817 355.764 131.034C355.104 132.251 354.884 133.169 355.114 133.682C355.167 133.776 355.248 133.851 355.345 133.895H355.575C356.141 133.895 356.905 133.244 357.879 132.038C358.853 130.831 359.325 130.223 359.304 130.223C359.332 130.226 359.36 130.237 359.383 130.254C359.407 130.27 359.427 130.293 359.44 130.319Z" fill="#E7A43F" stroke="#E7A43F" stroke-width="0.401664"/>
<path d="M370.144 129.389C370.302 129.688 369.966 130.201 369.16 130.916C368.651 131.459 368.006 131.85 367.296 132.048C367.019 132.102 366.735 132.102 366.458 132.048C365.415 133.277 363.986 134.099 362.415 134.375C361.012 134.503 360.079 134.098 359.629 133.147C359.415 132.721 359.303 132.249 359.303 131.77C359.303 131.291 359.415 130.819 359.629 130.393C359.189 131.13 358.885 131.461 358.718 131.525C358.694 131.534 358.668 131.534 358.645 131.525V131.439V131.29C359.277 130.212 360.136 129.29 361.158 128.589C362.235 127.757 363.499 127.214 364.834 127.009L365.19 127.179C365.075 127.278 364.953 127.367 364.824 127.446C363.868 128.167 363.087 129.102 362.541 130.179C361.703 131.631 361.493 132.774 361.849 133.553C361.913 133.723 362.032 133.865 362.187 133.955C362.342 134.044 362.522 134.076 362.698 134.044C363.839 133.938 364.792 132.977 365.599 131.3C365.418 130.792 365.41 130.236 365.577 129.722C365.744 129.209 366.077 128.768 366.521 128.471C366.475 128.126 366.364 127.792 366.196 127.489C366.145 127.417 366.089 127.349 366.028 127.286C365.964 127.219 365.905 127.148 365.85 127.073C365.85 126.977 365.85 126.912 366.049 126.891C366.393 126.908 366.716 127.062 366.95 127.318C367.226 127.561 367.46 127.85 367.641 128.172C368.071 129.08 367.788 130.308 366.803 131.824C366.897 131.839 366.993 131.839 367.086 131.824C367.446 131.771 367.792 131.643 368.102 131.448C368.412 131.254 368.679 130.996 368.888 130.692C369.236 130.187 369.677 129.756 370.186 129.421C370.186 129.421 370.144 129.357 370.144 129.389Z" fill="#E7A43F" stroke="#E7A43F" stroke-width="0.401664"/>
<path d="M247.091 32.459C249.929 41.5232 248.494 42.6442 242.011 52.7441C237.068 60.3991 243.279 66.1109 246.609 67.8832C244.514 64.8831 243.205 60.3137 244.452 57.4631C247.175 51.2814 252.83 48.922 250.977 55.7975C250.472 57.6222 250.17 59.4987 250.076 61.392C251.089 58.2012 252.296 55.0777 253.689 52.0395C257.198 44.3738 247.091 32.459 247.091 32.459Z" fill="#E7A43F" stroke="#E7A43F" stroke-width="0.401664"/>
</g>
<defs>
<clipPath id="clip0">
<rect width="349.448" height="135.227" fill="white" transform="translate(90.8848 32.459)"/>
</clipPath>
</defs>
</svg>
