<svg width="483" height="266" viewBox="0 0 483 266" fill="none" xmlns="http://www.w3.org/2000/svg">
<rect y="0.567383" width="483" height="265.432" rx="132.716" fill="white"/>
<path fill-rule="evenodd" clip-rule="evenodd" d="M90.4684 44.0806V113.347H94.736V48.501H388.304V53.2929H392.619V44.0806H90.4684ZM90.4684 175.641V219.043H392.619V130.466H388.304V214.67H94.7951V175.641H90.4684ZM256.522 151.852C256.203 151.701 255.921 151.479 255.698 151.203H255.757C253.802 147.833 253.408 142.925 254.575 136.48C258.925 122.121 264.481 113.875 271.243 111.742L272.343 111.395C272.726 111.236 273.147 111.197 273.552 111.285C273.957 111.373 274.327 111.582 274.612 111.886C275.605 114.218 275.412 117.924 274.033 123.003C267.248 139.535 261.75 149.227 257.542 152.078C257.19 152.08 256.841 152.003 256.522 151.852ZM284.602 111.455L284.342 111.539V111.503C283.885 110.672 285.382 104.586 288.834 93.2457C293.787 80.2358 297.96 71.347 301.353 66.5551L301.637 66.4713V68.8672C300.526 75.8793 294.847 90.0751 284.602 111.455ZM305.822 62.8654C300.608 59.7387 296.955 58.5168 294.851 59.1637L294.839 59.1517C290.607 60.4774 285.484 70.4605 279.471 89.1008L275.274 108.46L274.991 107.933C270.558 105.01 267.448 103.824 265.687 104.339C259.847 106.152 254.563 111.742 249.834 121.11C244.467 133.346 243.683 142.845 247.482 149.61L248.664 151.622C254.279 156.175 258.901 157.9 262.448 156.786C266.278 154.909 270.396 146.823 274.802 132.527C275.241 135.619 276.256 138.599 277.792 141.308L278.514 142.614C282.758 147.777 286.919 149.73 291.033 148.424L292.735 147.897L292.298 147.13C290.099 147.837 288.113 146.699 286.387 143.668C283.282 138.157 282.793 129.748 284.921 118.439C301.755 87.4196 308.816 69.0509 306.105 63.3326L305.822 62.8654ZM148.807 103.369C147.885 101.703 144.492 101.584 138.676 102.782L136.418 103.788L131.843 109.299C117.342 113.791 103.569 120.414 90.9639 128.957C76.5415 140.178 71.3005 149.247 75.2411 156.163C78.3462 161.633 84.5723 163.57 93.9193 161.973L94.3567 160.859C90.3019 159.876 87.9139 158.679 87.1928 157.481L86.5899 156.402C83.532 151.091 88.2607 143.009 100.776 132.156C113.394 123.834 122.528 118.778 128.179 116.989L128.781 116.822C124.612 123.586 119.218 136.884 112.598 156.714C113.449 158.151 109.879 160.104 101.958 162.584L101.355 162.752L97.9269 163.518L97.6432 163.602C99.0302 166.038 102.214 166.717 107.195 165.639L108.696 165.171L110.623 164.273C108.038 176.987 108.413 186.292 111.746 192.186L113.212 194.222C118.225 198.714 122.622 200.356 126.5 199.158C127.564 198.547 128.025 198.103 127.859 197.816C124.833 197.433 122.886 196.47 122.019 194.929L121.7 194.378C117.98 187.813 118.536 176.233 123.367 159.637C122.713 158.519 130.965 155.013 148.122 149.119L151.113 148.184L151.254 148.448C150.368 152.21 150.013 154.306 150.25 154.713L150.415 155.001L150.853 155.18C155.005 151.838 158.335 147.565 160.582 142.698L160.298 142.171C159.518 140.745 157.957 139.894 155.664 139.547C149.659 142.67 139.716 146.926 125.838 152.317L125.696 152.03L125.838 151.682C132.182 134.695 136.95 124.205 140.142 120.212C142.967 114.138 145.616 110.7 147.98 109.969C153.993 107.916 160.161 106.357 166.422 105.309L163.715 118.403L163.998 118.954L164.459 119.134L165.039 118.93C171.596 110.121 175.828 103.588 177.735 99.3315L177.439 98.8044C176.431 97.0873 174.33 96.2886 171.139 96.4084L170.855 96.4923L168.904 98.0257L148.807 103.369ZM180.557 131.137L179.718 131.401V131.353C173.701 133.294 168.275 138.05 163.546 145.729C155.019 161.158 153.328 173.414 158.474 182.494L158.912 183.249C163.175 187.058 166.3 188.656 168.286 188.041C169.185 187.753 170.131 185.189 171.171 180.29C175.687 168.278 179.265 160.967 181.905 158.355L182.224 158.259C182.549 162.083 183.627 165.802 185.392 169.197L188.525 172.958C192.245 176.368 195.985 177.487 199.744 176.313L200.583 176.061L200.299 175.558C198.913 175.297 197.6 174.733 196.45 173.906C195.301 173.078 194.343 172.007 193.644 170.766L191.575 165.974C190.428 158.367 190.594 154.366 192.036 153.911L191.918 153.671C188.407 151.395 185.7 150.556 183.808 151.131C182.082 151.922 181.361 152.569 181.621 153.024C176.341 159.31 171.112 168.095 165.934 179.379C164.551 176.84 164.492 172.096 165.816 165.004C170.82 150.141 177.594 141.38 186.137 138.721C189.766 137.523 192.036 137.906 193.112 139.751L193.254 140.002C193.867 141.312 194.124 142.763 193.999 144.207L194.176 144.495L194.542 144.674C196.044 144.207 196.067 142.111 194.661 138.373L193.478 136.948C188.832 133.09 184.494 131.137 180.557 131.137ZM207.264 122.799C212.182 122.883 215.232 123.877 216.39 125.686C217.549 127.495 215.492 136.708 210.255 153.24C220.5 132.036 227.341 120.767 230.777 119.433C231.076 119.251 231.411 119.14 231.758 119.11C236.676 119.11 239.762 120.248 240.991 122.44C241.488 123.239 240.432 127.827 237.823 136.204C235.79 145.884 235.931 152.832 238.319 157.025C240.305 160.535 242.552 161.901 245.022 161.11C245.076 161.144 245.121 161.192 245.152 161.249C245.183 161.305 245.199 161.369 245.2 161.434C245.259 162.512 244.478 163.266 242.835 163.829L242.528 163.913C236.913 164.884 232.397 162.715 228.945 157.325L228.306 156.222C225.115 150.632 225.04 141.268 228.082 128.13L228.165 127.579L227.928 127.867C222.782 134.895 216.414 147.701 208.824 166.285C207.863 170.191 207.469 172.551 207.642 173.365C207.671 173.727 207.787 174.076 207.981 174.381C208.175 174.686 208.44 174.938 208.753 175.114C203.954 176.085 200.785 175.294 199.296 172.718L198.539 171.281C197.507 169.444 198.256 162.388 200.785 150.113L204.793 128.873L204.616 128.621L204.332 128.705C202.606 130.937 200.771 133.08 198.835 135.126C198.675 135.268 198.479 135.359 198.269 135.389C198.059 135.419 197.844 135.386 197.653 135.294C197.274 135.126 197.133 134.659 197.192 133.868C200.62 127.507 203.954 123.806 207.24 122.787L207.264 122.799ZM312.492 90.0119C315.483 89.0895 320.354 90.9463 327.139 95.6423L327.517 95.822L327.683 96.0856C330.307 100.75 327.076 106.923 317.989 114.606C315.909 116.134 313.618 117.345 311.192 118.2C308.686 118.763 307.22 118.727 306.877 118.092C307.101 117.589 308.887 116.343 312.291 114.355C318.651 106.592 321.217 100.326 319.916 95.6064L319.632 95.6903C314.62 98.3977 309.43 105.378 304.063 116.631C301.557 124.409 301.289 130.052 303.259 133.558C305.127 135.954 307.137 136.744 309.241 136.074C313.875 134.229 319.238 127.772 325.33 116.703L325.413 116.355L325.732 116.271L326.17 116.439L326.312 116.679C326.938 120.967 324.042 127.927 317.564 137.559C316.415 138.857 315.015 139.901 313.45 140.626C308.922 142.051 303.72 140.326 297.845 135.523L295.315 132.803C290.5 124.322 293.258 112.53 303.59 97.4273C307.22 93.1985 310.187 90.7187 312.457 90.0119H312.492ZM351.148 77.9721L350.829 78.0919V78.056C348.039 78.9305 344.268 82.4285 339.598 88.5861C331.473 102.53 329.381 113.021 333.321 120.057L333.735 120.751L335.307 122.98C341.77 128.131 347.086 130.056 351.255 128.754C353.293 128.036 355.041 126.66 356.232 124.836C361.646 117.253 364.495 110.641 364.79 104.95L363.549 104.519C357.875 115.412 352.559 121.925 347.602 124.058C345.474 124.693 343.63 124.022 341.927 122.045L341.644 121.542C340.461 119.446 340.036 116.511 340.355 112.917C342.113 101.943 347.424 92.5913 356.291 84.8604L356.61 84.7646C354.943 92.5274 354.34 96.8161 354.766 97.5708L355.026 97.4869C357.492 95.0191 360.46 90.3111 363.927 83.363L363.632 82.8718C357.567 78.9065 353.383 77.2773 351.148 77.9721ZM388.528 64.2071C391.153 63.3925 395.834 64.9019 402.632 68.7833C403.814 69.8375 403.814 70.4485 402.632 70.6761C400.454 70.1245 398.179 70.0958 395.988 70.5922C387.965 73.0999 381.719 81.2661 377.25 95.0905C376.009 101.476 376.423 106.579 378.433 110.436L378.917 111.167C380.005 112.832 381.908 113.419 384.674 112.976C391.082 110.972 395.791 101.947 398.801 85.9022C399.152 82.6406 398.49 79.3495 396.91 76.4862C396.555 75.9351 395.468 75.4679 393.647 75.0606L393.482 74.7971C393.221 74.3299 393.482 73.8866 394.285 73.4793C395.274 72.9964 396.307 72.6152 397.371 72.3412C400.917 71.6464 403.873 73.0121 406.261 76.4023C408.067 79.0675 409.032 82.2258 409.027 85.4589V86.01C408.94 92.0557 406.182 99.2874 400.752 107.705C396.898 112.665 393.194 115.696 389.64 116.798L388.753 117.061C384.024 118.726 380.17 118.726 377.179 117.121C374.216 115.56 371.849 113.044 370.453 109.969L369.85 108.891C365.192 100.697 366.402 90.1669 373.479 77.3008C378.078 70.2448 383.114 65.8722 388.528 64.1831V64.2071Z" fill="black"/>
</svg>
