<svg width="60" height="61" viewBox="0 0 60 61" fill="none" xmlns="http://www.w3.org/2000/svg">
<path d="M39.8924 25.3641C40.3392 25.3641 40.7705 25.4322 41.1764 25.5582L44.875 21.8596L43.1512 20.1357L37.9229 25.3641H39.8924Z" fill="#8D8D8D"/>
<path d="M47.3655 24.35L46.4081 23.3926L43.0586 26.7421C43.7834 27.5174 44.2284 28.5575 44.2284 29.7001V30.5529L47.3655 27.4159C48.2122 26.5693 48.2122 25.1966 47.3655 24.35Z" fill="#8D8D8D"/>
<path d="M41.6183 18.6028L35.4166 12.4011C34.57 11.5544 33.1973 11.5544 32.3507 12.4011L19.3877 25.3641H34.857L41.6183 18.6028Z" fill="#8D8D8D"/>
<path d="M16.6895 34.4043H19.9921V36.8421H16.6895V34.4043Z" fill="#8D8D8D"/>
<path d="M39.8921 27.5317H13.168C11.9706 27.5317 11 28.5023 11 29.6997V46.5978C11 47.7952 11.9706 48.7658 13.168 48.7658H39.8921C41.0894 48.7658 42.0601 47.7952 42.0601 46.5978V29.6997C42.0601 28.5023 41.0894 27.5317 39.8921 27.5317ZM14.5218 32.236H22.1604V39.0098H14.5218V32.236ZM18.7393 44.0614H14.4544V41.8934H18.7393V44.0614ZM25.3613 44.0614H21.0764V41.8934H25.3613V44.0614ZM31.9836 44.0614H27.6986V41.8934H31.9836V44.0614ZM38.6057 44.0614H34.3208V41.8934H38.6057V44.0614Z" fill="#8D8D8D"/>
</svg>
