<svg width="60" height="61" viewBox="0 0 60 61" fill="none" xmlns="http://www.w3.org/2000/svg">
<path d="M33.5178 28.6762C35.303 30.4615 35.303 33.3559 33.5178 35.1412C31.7325 36.9264 28.8381 36.9264 27.0528 35.1412C25.2676 33.3559 25.2676 30.4615 27.0528 28.6762C28.8381 26.891 31.7325 26.891 33.5178 28.6762Z" fill="#999999"/>
<path d="M43.9989 19.3373H40.8404L38.5536 14.7659H22.0145L19.7299 19.3396L16.5759 19.3452C14.0614 19.3497 12.0144 21.3988 12.0123 23.9144L12 42.1933C12 44.7145 14.0502 46.7659 16.5714 46.7659H43.9989C46.5201 46.7659 48.5703 44.7157 48.5703 42.1944V23.9087C48.5702 21.3875 46.52 19.3373 43.9989 19.3373ZM30.2846 41.0516C25.2432 41.0516 21.1417 36.95 21.1417 31.9087C21.1417 26.8674 25.2432 22.7658 30.2846 22.7658C35.3259 22.7658 39.4274 26.8674 39.4274 31.9087C39.4274 36.95 35.3259 41.0516 30.2846 41.0516Z" fill="#999999"/>
</svg>
