<svg width="60" height="61" viewBox="0 0 60 61" fill="none" xmlns="http://www.w3.org/2000/svg">
<path fill-rule="evenodd" clip-rule="evenodd" d="M37.6845 35.7005L36.0108 38.4163L32.8452 38.0342L30.156 39.7505L27.4668 38.0342L24.3011 38.4164L22.6274 35.7005L19.607 34.6704L19.2724 31.4981L17 29.2611L18.0804 26.2582L17 23.2553L19.2724 21.0182L19.6071 17.846L22.6275 16.8159L24.3011 14.1L27.4668 14.4822L30.156 12.7659L32.8452 14.4821L36.0109 14.0999L37.6846 16.8158L40.705 17.8459L41.0396 21.0181L43.312 23.2552L42.2316 26.2581L43.312 29.2609L41.0395 31.4981L40.7049 34.6704L37.6845 35.7005ZM30.156 17.0059C25.0543 17.0059 20.9037 21.1565 20.9037 26.2582C20.9037 31.3599 25.0543 35.5105 30.156 35.5105C35.2577 35.5105 39.4083 31.3599 39.4083 26.2582C39.4083 21.1565 35.2577 17.0059 30.156 17.0059ZM23.0508 26.2579C23.0508 22.3394 26.2387 19.1515 30.1571 19.1515C34.0756 19.1515 37.2635 22.3394 37.2635 26.2579C37.2635 30.1763 34.0756 33.3642 30.1571 33.3642C26.2387 33.3642 23.0508 30.1763 23.0508 26.2579ZM26.9602 40.2563L23.1944 40.711L21.2048 37.4822L20.5284 37.2516L17.6108 46.3707L22.8632 46.0818L26.9725 49.3659L29.3907 41.8076L26.9602 40.2563ZM37.1181 40.711L39.1079 37.4823L39.7843 37.2516L42.7018 46.3707L37.4494 46.0818L33.3401 49.3659L30.9219 41.8076L33.3524 40.2563L37.1181 40.711Z" fill="#8D8D8D"/>
</svg>
