<svg width="60" height="61" viewBox="0 0 60 61" fill="none" xmlns="http://www.w3.org/2000/svg">
<path d="M30 14.7659C21.1644 14.7659 14 21.9303 14 30.7659C14 39.6015 21.1644 46.7659 30 46.7659C31.4756 46.7659 32.6667 45.5748 32.6667 44.0992C32.6667 43.4059 32.4089 42.7836 31.9733 42.3125C31.5556 41.8415 31.3067 41.2281 31.3067 40.5436C31.3067 39.068 32.4977 37.877 33.9733 37.877H37.1111C42.0178 37.877 46 33.8947 46 28.988C46 21.1303 38.8356 14.7659 30 14.7659ZM20.2222 30.7659C18.7467 30.7659 17.5556 29.5748 17.5556 28.0992C17.5556 26.6236 18.7467 25.4325 20.2222 25.4325C21.6978 25.4325 22.8889 26.6236 22.8889 28.0992C22.8889 29.5748 21.6978 30.7659 20.2222 30.7659ZM25.5556 23.6548C24.08 23.6548 22.8889 22.4637 22.8889 20.9881C22.8889 19.5125 24.08 18.3215 25.5556 18.3215C27.0312 18.3215 28.2223 19.5125 28.2223 20.9881C28.2223 22.4637 27.0311 23.6548 25.5556 23.6548ZM34.4444 23.6548C32.9688 23.6548 31.7778 22.4637 31.7778 20.9881C31.7778 19.5125 32.9688 18.3215 34.4444 18.3215C35.92 18.3215 37.1111 19.5125 37.1111 20.9881C37.1111 22.4637 35.92 23.6548 34.4444 23.6548ZM39.7778 30.7659C38.3022 30.7659 37.1111 29.5748 37.1111 28.0992C37.1111 26.6236 38.3022 25.4325 39.7778 25.4325C41.2533 25.4325 42.4444 26.6236 42.4444 28.0992C42.4444 29.5748 41.2533 30.7659 39.7778 30.7659Z" fill="#999999"/>
</svg>
