<svg width="60" height="61" viewBox="0 0 60 61" fill="none" xmlns="http://www.w3.org/2000/svg">
<path d="M18.9952 52.9656C15.4444 52.9656 12.5557 50.0768 12.5557 46.5263C12.5557 42.9755 15.4444 40.0868 18.9952 40.0868C22.5458 40.0868 25.4343 42.9755 25.4343 46.5263C25.4343 50.0768 22.5458 52.9656 18.9952 52.9656ZM18.9952 42.9703C17.0342 42.9703 15.4391 44.5654 15.4391 46.5263C15.4391 48.487 17.0342 50.0822 18.9952 50.0822C20.9558 50.0822 22.5509 48.4871 22.5509 46.5263C22.5508 44.5654 20.9557 42.9703 18.9952 42.9703Z" fill="#8D8D8D"/>
<path d="M48.5684 44.8485H27.5094C27.4528 44.8485 27.3991 44.8736 27.3625 44.917C27.3258 44.9604 27.3106 45.0177 27.3202 45.0737C27.4036 45.5523 27.4458 46.0413 27.4458 46.5273C27.4458 47.0133 27.4033 47.5024 27.3202 47.9811C27.3106 48.0368 27.3259 48.0942 27.3625 48.1377C27.3991 48.1811 27.4528 48.2061 27.5094 48.2061C30.6745 48.2061 48.5684 48.2061 48.5684 48.2061C49.4944 48.2061 50.2475 47.453 50.2475 46.5273C50.2475 45.6016 49.4944 44.8485 48.5684 44.8485Z" fill="#8D8D8D"/>
<path d="M19.8904 14.6323L12.5742 10.0243C12.3058 9.85527 11.9969 9.76587 11.6809 9.76587C11.0998 9.76587 10.5682 10.0591 10.2588 10.5501C10.0199 10.9296 9.94292 11.3794 10.0424 11.8167C10.1417 12.2542 10.4054 12.6266 10.7847 12.8656L17.3168 16.9795V38.0128C17.3168 38.0696 17.3418 38.1233 17.3853 38.1599C17.4286 38.1963 17.4859 38.212 17.542 38.202C18.4997 38.0355 19.4915 38.0355 20.4494 38.202C20.5192 38.2124 20.5711 38.1892 20.6059 38.1599C20.6493 38.1233 20.6746 38.0696 20.6746 38.0128V16.0528C20.6746 15.4726 20.3813 14.9416 19.8904 14.6323Z" fill="#8D8D8D"/>
<path d="M46.9968 22.1998C39.9762 22.1998 33.0012 22.1998 25.9937 22.1998C24.7797 22.1998 23.792 23.1875 23.792 24.4013V39.4044C23.792 39.4235 23.7931 39.4421 23.7943 39.4609L23.7957 39.4836C23.7979 39.5431 23.8279 39.5983 23.8765 39.6329C24.6159 40.1577 25.2643 40.7947 25.8027 41.5259C25.8378 41.5736 25.9006 41.6029 25.9597 41.6045C25.9708 41.6054 25.982 41.606 25.9937 41.606H46.997C48.2107 41.606 49.1983 40.6186 49.1983 39.4045V24.4014C49.1981 23.1875 48.2105 22.1998 46.9968 22.1998Z" fill="#8D8D8D"/>
</svg>
