<svg width="60" height="61" viewBox="0 0 60 61" fill="none" xmlns="http://www.w3.org/2000/svg">
<path d="M25.2107 41.1455C23.6768 41.1455 22.4238 42.3365 22.4238 43.7946C22.4238 45.2527 23.6768 46.4437 25.2107 46.4437C26.7447 46.4437 27.9976 45.2527 27.9976 43.7946C27.9859 42.3254 26.7447 41.1455 25.2107 41.1455Z" fill="#999999"/>
<path d="M39.9763 46.4325C41.5155 46.4325 42.7632 45.2464 42.7632 43.7834C42.7632 42.3203 41.5155 41.1343 39.9763 41.1343C38.4372 41.1343 37.1895 42.3203 37.1895 43.7834C37.1895 45.2464 38.4372 46.4325 39.9763 46.4325Z" fill="#999999"/>
<path d="M48.8876 19.886L48.7705 19.8637H17.9391L16.2178 14.777L11.733 14.7659H11.7213C11.6979 14.7659 11.6042 14.7659 11.3583 14.7659H11.2763C10.5738 14.7659 10 15.3113 10 15.968C10 16.5356 10.4215 17.0254 10.9953 17.1478L11.1241 17.1701H14.2389L21.2881 38.3072L21.3232 38.4185C21.4988 38.975 22.0375 39.3534 22.6464 39.3534H43.8173H43.829C43.8407 39.3534 43.8525 39.3534 43.8642 39.3534C43.8759 39.3534 43.8876 39.3534 43.911 39.3534C43.9227 39.3534 43.9461 39.3534 43.9578 39.3534C44.6838 39.3534 45.281 38.7969 45.281 38.1068C45.281 37.4946 44.8009 36.9604 44.1686 36.8602L44.0632 36.849H23.5831L22.7869 34.4448H43.6066L43.6885 34.4337C43.7237 34.4337 43.7354 34.4337 43.7705 34.4337C43.7822 34.4337 43.8056 34.4337 43.8173 34.4337C44.5433 34.4337 45.1405 33.8772 45.1405 33.1871C45.1405 32.7641 44.918 32.3745 44.5433 32.1408L48.1733 22.3904H48.5246H48.5363C48.5714 22.3904 48.5831 22.3904 48.6183 22.3904H48.63C48.6417 22.3904 48.6534 22.3904 48.6768 22.3904C49.4028 22.3904 50 21.8338 50 21.1437C50 20.5204 49.5199 19.9861 48.8876 19.886Z" fill="#999999"/>
</svg>
